<svg xmlns="http://www.w3.org/2000/svg" width="2000" height="1400" viewBox="0 0 2000 1400">
<style>
  .c  { fill:none; stroke:#2A1B11; stroke-opacity:0.07; stroke-width:1.1; }
  .ix { fill:none; stroke:#2A1B11; stroke-opacity:0.12; stroke-width:1.6; }
  .ct { font:500 10px 'IBM Plex Mono',ui-monospace,monospace; fill:#2A1B11; fill-opacity:0.32;
        stroke:#F4ECDB; stroke-width:3; paint-order:stroke; }
  .pk { font:600 11.5px 'Inter Tight','Helvetica Neue',sans-serif; letter-spacing:0.15em; fill:#2A1B11; fill-opacity:0.2; }
  .el { font:500 10.5px 'IBM Plex Mono',ui-monospace,monospace; fill:#9C6A33; fill-opacity:0.34; }
  .dot { fill:#2A1B11; fill-opacity:0.24; }
</style>
<path class="c" d="M1135.1,759.0 L1133.1,763.3 L1131.9,767.6 L1131.6,772.0 L1132.0,776.8 L1132.3,781.9 L1131.6,787.0 L1129.2,791.6 L1125.0,795.3 L1119.2,797.6 L1112.5,798.6 L1105.7,798.7 L1099.3,798.2 L1093.7,797.9 L1088.8,798.1 L1084.3,798.8 L1080.0,799.9 L1075.6,801.1 L1071.0,802.3 L1066.1,803.4 L1061.0,804.4 L1055.4,805.5 L1049.4,806.5 L1042.8,807.4 L1035.8,807.8 L1028.9,807.1 L1022.8,805.0 L1018.1,801.3 L1015.3,796.4 L1014.5,790.6 L1015.2,784.8 L1016.5,779.3 L1017.5,774.6 L1017.3,770.5 L1015.9,766.8 L1013.6,763.0 L1011.1,759.0 L1009.6,754.7 L1009.7,750.4 L1011.8,746.3 L1015.5,742.8 L1019.9,739.9 L1024.2,737.4 L1027.7,734.7 L1030.0,731.5 L1031.6,727.4 L1032.8,722.6 L1034.6,717.4 L1037.3,712.3 L1041.3,708.0 L1046.4,704.8 L1052.2,702.9 L1058.5,702.2 L1064.8,702.3 L1071.0,703.1 L1077.0,704.6 L1082.5,706.7 L1087.5,709.6 L1091.8,713.3 L1095.2,717.5 L1097.8,721.9 L1100.0,725.8 L1102.5,729.0 L1105.8,731.2 L1110.3,732.6 L1116.1,733.7 L1122.6,735.2 L1128.9,737.4 L1134.0,740.7 L1137.1,744.8 L1138.0,749.5 L1137.1,754.4 L1135.1,759.0 Z"/>
<path class="c" d="M1199.2,759.0 L1195.3,767.7 L1192.7,776.2 L1192.2,785.0 L1193.0,794.5 L1193.5,804.7 L1192.2,815.0 L1187.5,824.2 L1179.0,831.5 L1167.5,836.2 L1154.1,838.2 L1140.4,838.3 L1127.6,837.5 L1116.4,836.9 L1106.5,837.1 L1097.6,838.5 L1089.0,840.7 L1080.2,843.2 L1071.0,845.7 L1061.3,847.8 L1051.0,849.8 L1039.9,851.9 L1027.8,854.1 L1014.5,855.9 L1000.6,856.6 L986.8,855.2 L974.5,851.0 L965.2,843.7 L959.6,833.8 L958.0,822.3 L959.4,810.6 L962.0,799.7 L963.9,790.2 L963.7,782.0 L960.8,774.5 L956.1,767.0 L951.2,759.0 L948.2,750.4 L948.5,741.7 L952.6,733.6 L959.9,726.7 L968.8,720.9 L977.4,715.8 L984.3,710.4 L989.1,704.0 L992.1,695.9 L994.7,686.2 L998.2,675.8 L1003.6,665.7 L1011.6,657.0 L1021.7,650.7 L1033.4,646.9 L1045.9,645.3 L1058.6,645.6 L1071.0,647.3 L1082.9,650.2 L1094.0,654.5 L1104.1,660.3 L1112.6,667.6 L1119.3,676.1 L1124.6,684.7 L1129.1,692.7 L1133.9,699.0 L1140.5,703.4 L1149.6,706.2 L1161.2,708.5 L1174.1,711.4 L1186.8,715.8 L1197.0,722.3 L1203.2,730.7 L1205.0,740.1 L1203.2,749.7 L1199.2,759.0 Z"/>
<path class="c" d="M1263.4,759.0 L1257.4,772.0 L1253.6,784.8 L1252.8,798.0 L1253.9,812.3 L1254.8,827.6 L1252.7,842.9 L1245.7,856.9 L1233.1,867.8 L1215.7,874.8 L1195.6,877.8 L1175.1,878.0 L1156.0,876.7 L1139.1,875.8 L1124.3,876.2 L1110.9,878.3 L1098.0,881.6 L1084.8,885.4 L1071.0,889.0 L1056.4,892.2 L1041.0,895.3 L1024.3,898.4 L1006.1,901.6 L986.3,904.3 L965.4,905.3 L944.7,903.3 L926.3,897.0 L912.2,886.0 L903.9,871.2 L901.5,853.9 L903.6,836.3 L907.5,820.0 L910.4,805.8 L910.0,793.5 L905.7,782.3 L898.7,771.1 L891.4,759.0 L886.8,746.1 L887.2,733.1 L893.4,720.9 L904.4,710.5 L917.7,701.8 L930.6,694.1 L941.0,686.2 L948.1,676.5 L952.7,664.3 L956.5,649.9 L961.7,634.2 L970.0,619.0 L981.9,606.1 L997.1,596.5 L1014.7,590.8 L1033.4,588.5 L1052.4,588.9 L1071.0,591.4 L1088.9,595.8 L1105.6,602.2 L1120.6,610.9 L1133.4,621.9 L1143.5,634.6 L1151.4,647.6 L1158.1,659.5 L1165.4,669.0 L1175.3,675.6 L1188.9,679.9 L1206.2,683.2 L1225.7,687.5 L1244.6,694.2 L1259.9,704.0 L1269.3,716.5 L1272.1,730.6 L1269.2,745.1 L1263.4,759.0 Z"/>
<path class="ix" d="M1327.5,759.0 L1319.5,776.4 L1314.5,793.3 L1313.4,811.0 L1314.9,830.0 L1316.1,850.4 L1313.3,870.9 L1303.9,889.5 L1287.1,904.1 L1264.0,913.4 L1237.2,917.4 L1209.8,917.6 L1184.3,916.0 L1161.8,914.7 L1142.1,915.3 L1124.3,918.0 L1107.0,922.4 L1089.4,927.5 L1071.0,932.3 L1051.6,936.6 L1031.0,940.7 L1008.8,944.8 L984.5,949.1 L958.1,952.7 L930.2,954.1 L902.6,951.4 L878.1,942.9 L859.3,928.4 L848.2,908.5 L845.0,885.6 L847.8,862.1 L853.0,840.3 L856.8,821.4 L856.3,805.0 L850.6,790.1 L841.2,775.1 L831.5,759.0 L825.4,741.8 L826.0,724.4 L834.3,708.3 L848.8,694.3 L866.5,682.7 L883.8,672.5 L897.6,661.9 L907.1,649.0 L913.2,632.8 L918.4,613.5 L925.3,592.6 L936.3,572.3 L952.1,555.1 L972.5,542.4 L995.9,534.7 L1020.9,531.7 L1046.2,532.2 L1071.0,535.5 L1094.8,541.4 L1117.1,549.9 L1137.1,561.6 L1154.1,576.2 L1167.7,593.1 L1178.2,610.5 L1187.1,626.3 L1196.9,639.0 L1210.0,647.8 L1228.2,653.5 L1251.3,658.0 L1277.3,663.7 L1302.5,672.6 L1322.9,685.6 L1335.4,702.3 L1339.1,721.2 L1335.3,740.5 L1327.5,759.0 Z"/>
<path class="c" d="M1391.6,759.0 L1381.6,780.7 L1375.3,801.9 L1373.9,823.9 L1375.9,847.8 L1377.3,873.3 L1373.9,898.9 L1362.2,922.1 L1341.1,940.3 L1312.2,952.0 L1278.7,957.1 L1244.5,957.3 L1212.6,955.2 L1184.4,953.6 L1159.9,954.3 L1137.6,957.8 L1116.0,963.3 L1094.0,969.6 L1071.0,975.7 L1046.7,981.1 L1020.9,986.1 L993.2,991.3 L962.9,996.6 L929.8,1001.2 L895.0,1002.9 L860.5,999.5 L829.8,988.9 L806.4,970.7 L792.5,945.9 L788.5,917.2 L791.9,887.9 L798.5,860.7 L803.3,836.9 L802.7,816.5 L795.5,797.9 L783.8,779.1 L771.6,759.0 L764.0,737.5 L764.7,715.8 L775.1,695.6 L793.3,678.1 L815.4,663.7 L836.9,650.9 L854.3,637.6 L866.2,621.5 L873.8,601.2 L880.2,577.1 L888.9,551.0 L902.6,525.7 L922.4,504.1 L947.8,488.2 L977.1,478.7 L1008.4,474.8 L1040.0,475.5 L1071.0,479.7 L1100.8,486.9 L1128.6,497.6 L1153.7,512.2 L1174.9,530.6 L1191.9,551.6 L1205.0,573.3 L1216.2,593.2 L1228.4,609.0 L1244.8,620.0 L1267.5,627.1 L1296.4,632.7 L1328.9,639.9 L1360.4,651.0 L1385.9,667.3 L1401.6,688.1 L1406.1,711.7 L1401.4,735.9 L1391.6,759.0 Z"/>
<path class="c" d="M1455.7,759.0 L1443.8,785.1 L1436.2,810.5 L1434.5,836.9 L1436.9,865.5 L1438.6,896.1 L1434.5,926.9 L1420.4,954.7 L1395.1,976.6 L1360.5,990.6 L1320.3,996.7 L1279.2,996.9 L1240.9,994.5 L1207.1,992.6 L1177.6,993.4 L1150.9,997.5 L1125.0,1004.1 L1098.6,1011.7 L1071.0,1019.0 L1041.9,1025.5 L1010.9,1031.5 L977.6,1037.8 L941.3,1044.2 L901.6,1049.6 L859.8,1051.7 L818.4,1047.5 L781.6,1034.9 L753.5,1013.0 L736.9,983.3 L732.0,948.9 L736.1,913.7 L744.0,881.0 L749.8,852.5 L749.0,828.0 L740.4,805.6 L726.3,783.1 L711.7,759.0 L702.6,733.2 L703.5,707.2 L715.9,682.9 L737.7,662.0 L764.3,644.6 L790.1,629.3 L810.9,613.3 L825.2,594.0 L834.4,569.7 L842.1,540.7 L852.5,509.3 L868.9,479.0 L892.7,453.1 L923.2,434.1 L958.3,422.6 L995.8,418.0 L1033.8,418.8 L1071.0,423.8 L1106.7,432.5 L1140.1,445.4 L1170.2,462.8 L1195.7,484.9 L1216.0,510.2 L1231.8,536.2 L1245.2,560.0 L1259.8,579.0 L1279.6,592.2 L1306.8,600.7 L1341.5,607.5 L1380.4,616.1 L1418.3,629.4 L1448.9,649.0 L1467.7,674.0 L1473.1,702.3 L1467.5,731.2 L1455.7,759.0 Z"/>
<path class="c" d="M1519.8,759.0 L1505.9,789.4 L1497.1,819.1 L1495.1,849.9 L1497.8,883.3 L1499.9,919.0 L1495.0,954.8 L1478.6,987.3 L1449.2,1012.8 L1408.7,1029.2 L1361.8,1036.3 L1313.9,1036.6 L1269.2,1033.7 L1229.8,1031.5 L1195.4,1032.5 L1164.2,1037.3 L1134.0,1045.0 L1103.2,1053.8 L1071.0,1062.3 L1037.0,1069.9 L1000.9,1077.0 L962.1,1084.2 L919.6,1091.7 L873.4,1098.0 L824.6,1100.5 L776.4,1095.6 L733.4,1080.9 L700.5,1055.4 L681.2,1020.7 L675.5,980.5 L680.3,939.5 L689.5,901.3 L696.2,868.1 L695.4,839.5 L685.3,813.4 L668.9,787.1 L651.8,759.0 L641.2,728.9 L642.2,698.5 L656.7,670.2 L682.2,645.8 L713.2,625.5 L743.3,607.6 L767.6,589.0 L784.2,566.5 L794.9,538.1 L803.9,504.3 L816.1,467.7 L835.2,432.3 L863.0,402.1 L898.5,379.9 L939.6,366.6 L983.3,361.2 L1027.6,362.1 L1071.0,367.9 L1112.7,378.1 L1151.6,393.1 L1186.7,413.5 L1216.5,439.2 L1240.2,468.7 L1258.6,499.1 L1274.2,526.8 L1291.3,548.9 L1314.3,564.4 L1346.1,574.3 L1386.5,582.2 L1432.0,592.3 L1476.2,607.9 L1511.9,630.6 L1533.8,659.8 L1540.2,692.8 L1533.6,726.6 L1519.8,759.0 Z"/>
<path class="ix" d="M1584.0,759.0 L1568.0,793.8 L1557.9,827.7 L1555.7,862.9 L1558.8,901.0 L1561.1,941.8 L1555.6,982.8 L1536.8,1020.0 L1503.2,1049.1 L1456.9,1067.8 L1403.4,1075.9 L1348.6,1076.2 L1297.6,1072.9 L1252.5,1070.4 L1213.2,1071.5 L1177.5,1077.0 L1143.0,1085.9 L1107.9,1096.0 L1071.0,1105.6 L1032.1,1114.3 L990.9,1122.4 L946.5,1130.7 L898.0,1139.2 L845.2,1146.5 L789.4,1149.2 L734.3,1143.7 L685.2,1126.9 L647.6,1097.7 L625.5,1058.1 L619.0,1012.2 L624.5,965.2 L635.0,921.7 L642.7,883.7 L641.7,851.0 L630.2,821.2 L611.4,791.2 L592.0,759.0 L579.8,724.6 L581.0,689.9 L597.5,657.5 L626.6,629.6 L662.1,606.5 L696.5,586.0 L724.3,564.8 L743.3,539.0 L755.5,506.6 L765.7,468.0 L779.6,426.1 L801.6,385.7 L833.3,351.2 L873.9,325.8 L920.8,310.5 L970.8,304.3 L1021.4,305.4 L1071.0,312.0 L1118.6,323.7 L1163.2,340.8 L1203.3,364.1 L1237.3,393.5 L1264.4,427.2 L1285.4,462.0 L1303.2,493.7 L1322.8,518.9 L1349.1,536.5 L1385.4,548.0 L1431.6,557.0 L1483.6,568.4 L1534.0,586.3 L1574.9,612.3 L1599.9,645.6 L1607.2,683.4 L1599.6,722.0 L1584.0,759.0 Z"/>
<path class="c" d="M1648.1,759.0 L1630.1,798.1 L1618.8,836.3 L1616.3,875.9 L1619.8,918.8 L1622.4,964.7 L1616.2,1010.8 L1595.1,1052.6 L1557.2,1085.4 L1505.2,1106.3 L1444.9,1115.5 L1383.3,1115.9 L1325.9,1112.2 L1275.2,1109.3 L1231.0,1110.6 L1190.8,1116.8 L1152.0,1126.7 L1112.5,1138.1 L1071.0,1149.0 L1027.3,1158.7 L980.9,1167.8 L930.9,1177.1 L876.4,1186.8 L816.9,1194.9 L754.2,1198.0 L692.2,1191.8 L636.9,1172.9 L594.7,1140.0 L569.8,1095.5 L562.5,1043.8 L568.7,991.0 L580.5,942.0 L589.1,899.3 L588.0,862.5 L575.2,828.9 L554.0,795.2 L532.1,759.0 L518.4,720.3 L519.7,681.2 L538.3,644.8 L571.1,613.4 L611.0,587.4 L649.7,564.4 L680.9,540.5 L702.3,511.5 L716.0,475.0 L727.6,431.6 L743.2,384.5 L767.9,339.0 L803.6,300.2 L849.3,271.6 L902.0,254.4 L958.3,247.5 L1015.2,248.7 L1071.0,256.2 L1124.6,269.3 L1174.7,288.6 L1219.8,314.8 L1258.1,347.8 L1288.6,385.7 L1312.2,424.8 L1332.3,460.5 L1354.3,488.9 L1383.8,508.7 L1424.7,521.6 L1476.7,531.7 L1535.2,544.6 L1591.9,564.7 L1637.8,594.0 L1666.0,631.5 L1674.2,673.9 L1665.7,717.4 L1648.1,759.0 Z"/>
<path class="c" d="M1712.2,759.0 L1692.3,802.5 L1679.6,844.9 L1676.9,888.9 L1680.8,936.6 L1683.7,987.6 L1676.8,1038.8 L1653.3,1085.2 L1611.2,1121.6 L1553.4,1144.9 L1486.5,1155.1 L1418.0,1155.5 L1354.2,1151.4 L1297.9,1148.3 L1248.7,1149.7 L1204.2,1156.6 L1161.1,1167.6 L1117.1,1180.2 L1071.0,1192.3 L1022.4,1203.1 L970.9,1213.2 L915.4,1223.6 L854.8,1234.3 L788.7,1243.3 L719.0,1246.8 L650.1,1239.9 L588.7,1218.8 L541.8,1182.4 L514.1,1132.8 L506.0,1075.5 L512.9,1016.8 L526.0,962.3 L535.6,914.9 L534.4,874.0 L520.1,836.7 L496.5,799.2 L472.2,759.0 L457.0,716.0 L458.5,672.6 L479.2,632.1 L515.6,597.3 L559.9,568.3 L602.9,542.8 L637.6,516.2 L661.3,484.0 L676.6,443.5 L689.4,395.2 L706.8,342.9 L734.2,292.3 L773.8,249.2 L824.6,217.5 L883.2,198.4 L945.7,190.7 L1009.0,192.0 L1071.0,200.3 L1130.5,214.9 L1186.2,236.3 L1236.3,265.4 L1278.9,302.1 L1312.7,344.3 L1339.0,387.7 L1361.3,427.3 L1385.7,458.9 L1418.6,480.9 L1464.0,495.2 L1521.8,506.5 L1586.7,520.8 L1649.8,543.1 L1700.8,575.6 L1732.1,617.3 L1741.2,664.5 L1731.8,712.7 L1712.2,759.0 Z"/>
<path class="c" d="M1776.3,759.0 L1754.4,806.8 L1740.5,853.4 L1737.5,901.9 L1741.8,954.3 L1744.9,1010.4 L1737.3,1066.8 L1711.5,1117.8 L1665.2,1157.9 L1601.7,1183.5 L1528.0,1194.7 L1452.8,1195.2 L1382.5,1190.7 L1320.6,1187.2 L1266.5,1188.7 L1217.5,1196.3 L1170.1,1208.4 L1121.7,1222.3 L1071.0,1235.6 L1017.6,1247.5 L960.9,1258.6 L899.8,1270.1 L833.1,1281.8 L760.5,1291.8 L683.8,1295.6 L608.0,1288.0 L540.5,1264.8 L488.9,1224.7 L458.4,1170.2 L449.5,1107.1 L457.1,1042.6 L471.5,982.6 L482.1,930.5 L480.7,885.5 L465.0,844.5 L439.1,803.2 L412.3,759.0 L395.6,711.7 L397.2,664.0 L420.0,619.4 L460.0,581.1 L508.7,549.3 L556.1,521.2 L594.2,491.9 L620.4,456.5 L637.2,411.9 L651.3,358.8 L670.4,301.3 L700.5,245.7 L744.1,198.2 L800.0,163.3 L864.4,142.3 L933.2,133.8 L1002.8,135.3 L1071.0,144.4 L1136.5,160.5 L1197.7,184.0 L1252.9,216.0 L1299.7,256.4 L1336.9,302.8 L1365.8,350.6 L1390.3,394.1 L1417.2,428.9 L1453.3,453.1 L1503.3,468.8 L1566.9,481.2 L1638.3,497.0 L1707.7,521.5 L1763.8,557.3 L1798.2,603.1 L1808.2,655.0 L1797.9,708.1 L1776.3,759.0 Z"/>
<path class="ix" d="M1840.4,759.0 L1816.5,811.2 L1801.4,862.0 L1798.1,914.9 L1802.7,972.1 L1806.2,1033.3 L1797.9,1094.7 L1769.8,1150.4 L1719.3,1194.2 L1649.9,1222.1 L1569.6,1234.3 L1487.5,1234.8 L1410.8,1229.9 L1343.3,1226.1 L1284.3,1227.8 L1230.8,1236.1 L1179.1,1249.3 L1126.3,1264.4 L1071.0,1279.0 L1012.7,1291.9 L950.9,1304.1 L884.3,1316.5 L811.5,1329.3 L732.2,1340.2 L648.6,1344.4 L565.9,1336.1 L492.2,1310.8 L435.9,1267.1 L402.7,1207.6 L393.0,1138.8 L401.3,1068.3 L417.0,1003.0 L428.5,946.1 L427.0,897.0 L409.9,852.3 L381.6,807.2 L352.4,759.0 L334.2,707.4 L336.0,655.3 L360.8,606.8 L404.5,564.9 L457.6,530.2 L509.3,499.5 L550.9,467.6 L579.4,429.0 L597.7,380.4 L613.1,322.4 L634.0,259.7 L666.8,199.0 L714.4,147.2 L775.4,109.2 L845.7,86.2 L920.7,77.0 L996.6,78.6 L1071.0,88.6 L1142.4,106.1 L1209.3,131.7 L1269.4,166.7 L1320.4,210.7 L1361.1,261.3 L1392.6,313.4 L1419.4,361.0 L1448.7,398.9 L1488.1,425.3 L1542.6,442.4 L1611.9,456.0 L1689.9,473.1 L1765.6,499.9 L1826.8,538.9 L1864.3,588.9 L1875.3,645.5 L1864.0,703.5 L1840.4,759.0 Z"/>
<path class="c" d="M1904.6,759.0 L1878.7,815.5 L1862.2,870.6 L1858.7,927.8 L1863.7,989.8 L1867.5,1056.1 L1858.5,1122.7 L1828.0,1183.0 L1773.3,1230.4 L1698.1,1260.7 L1611.1,1274.0 L1522.2,1274.5 L1439.2,1269.2 L1366.0,1265.0 L1302.1,1266.8 L1244.1,1275.8 L1188.1,1290.2 L1130.9,1306.6 L1071.0,1322.3 L1007.9,1336.3 L940.9,1349.5 L868.7,1363.0 L789.9,1376.9 L704.0,1388.6 L613.4,1393.1 L523.8,1384.2 L444.0,1356.8 L383.0,1309.4 L347.0,1245.0 L336.5,1170.4 L345.4,1094.1 L362.5,1023.3 L375.0,961.7 L373.4,908.5 L354.8,860.0 L324.2,811.3 L292.6,759.0 L272.8,703.1 L274.7,646.7 L301.6,594.1 L348.9,548.7 L406.5,511.1 L462.4,477.9 L507.5,443.4 L538.4,401.5 L558.3,348.8 L575.0,286.1 L597.6,218.1 L633.2,152.3 L684.7,96.3 L750.7,55.0 L826.9,30.2 L908.2,20.1 L990.4,21.9 L1071.0,32.7 L1148.4,51.7 L1220.8,79.5 L1285.9,117.3 L1341.2,165.1 L1385.3,219.9 L1419.4,276.3 L1448.4,327.8 L1480.2,368.9 L1522.9,397.5 L1581.9,416.1 L1657.0,430.7 L1741.5,449.3 L1823.4,478.3 L1889.8,520.6 L1930.4,574.8 L1942.3,636.1 L1930.0,698.9 L1904.6,759.0 Z"/>
<path class="c" d="M1968.7,759.0 L1940.8,819.9 L1923.1,879.2 L1919.3,940.8 L1924.7,1007.6 L1928.7,1079.0 L1919.1,1150.7 L1886.2,1215.7 L1827.3,1266.7 L1746.4,1299.3 L1652.7,1313.6 L1556.9,1314.1 L1467.5,1308.4 L1388.7,1304.0 L1319.8,1305.9 L1257.4,1315.6 L1197.1,1331.0 L1135.5,1348.7 L1071.0,1365.6 L1003.0,1380.8 L930.8,1394.9 L853.1,1409.5 L768.3,1424.4 L675.8,1437.1 L578.1,1441.9 L481.7,1432.3 L395.8,1402.8 L330.1,1351.7 L291.3,1282.4 L280.0,1202.1 L289.6,1119.9 L308.0,1043.6 L321.4,977.3 L319.7,920.0 L299.7,867.8 L266.7,815.3 L232.7,759.0 L211.4,698.8 L213.5,638.0 L242.4,581.4 L293.4,532.6 L355.4,492.0 L415.6,456.3 L464.2,419.1 L497.5,374.0 L518.9,317.3 L536.8,249.7 L561.1,176.5 L599.5,105.7 L655.0,45.3 L726.1,0.9 L808.1,-25.9 L895.6,-36.7 L984.2,-34.8 L1071.0,-23.2 L1154.3,-2.8 L1232.3,27.2 L1302.5,68.0 L1362.0,119.4 L1409.4,178.4 L1446.1,239.2 L1477.4,294.6 L1511.6,338.9 L1557.6,369.7 L1621.2,389.7 L1702.1,405.5 L1793.0,425.5 L1881.3,456.7 L1952.7,502.3 L1996.6,560.6 L2009.3,626.6 L1996.1,694.2 L1968.7,759.0 Z"/>
<path class="c" d="M2032.8,759.0 L2002.9,824.2 L1984.0,887.8 L1979.8,953.8 L1985.7,1025.3 L1990.0,1101.8 L1979.6,1178.7 L1944.5,1248.3 L1881.3,1303.0 L1794.6,1337.9 L1694.2,1353.2 L1591.6,1353.8 L1495.8,1347.6 L1411.3,1342.9 L1337.6,1345.0 L1270.7,1355.3 L1206.1,1371.9 L1140.1,1390.8 L1071.0,1409.0 L998.1,1425.2 L920.8,1440.3 L837.6,1455.9 L746.6,1471.9 L647.5,1485.5 L542.9,1490.7 L439.6,1480.4 L347.5,1448.8 L277.2,1394.1 L235.6,1319.8 L223.5,1233.7 L233.8,1145.7 L253.5,1064.0 L267.9,992.8 L266.0,931.6 L244.6,875.6 L209.3,819.3 L172.8,759.0 L150.0,694.5 L152.2,629.4 L183.2,568.7 L237.8,516.4 L304.3,473.0 L368.8,434.7 L420.8,394.8 L456.5,346.5 L479.4,285.7 L498.6,213.3 L524.7,134.9 L565.8,59.0 L625.3,-5.7 L701.4,-53.3 L789.3,-82.0 L883.1,-93.5 L978.0,-91.5 L1071.0,-79.0 L1160.3,-57.2 L1243.8,-25.1 L1319.0,18.6 L1382.8,73.7 L1433.6,136.9 L1472.9,202.0 L1506.5,261.5 L1543.1,308.9 L1592.4,341.9 L1660.5,363.3 L1747.2,380.2 L1844.6,401.7 L1939.2,435.1 L2015.7,483.9 L2062.7,546.4 L2076.3,617.2 L2062.2,689.6 L2032.8,759.0 Z"/>
<path class="ix" d="M2096.9,759.0 L2065.0,828.6 L2044.8,896.4 L2040.4,966.8 L2046.6,1043.1 L2051.3,1124.7 L2040.2,1206.7 L2002.7,1280.9 L1935.4,1339.2 L1842.9,1376.5 L1735.8,1392.8 L1626.3,1393.4 L1524.1,1386.9 L1434.0,1381.8 L1355.4,1384.0 L1284.1,1395.1 L1215.1,1412.7 L1144.7,1432.9 L1071.0,1452.3 L993.3,1469.6 L910.8,1485.8 L822.0,1502.4 L725.0,1519.5 L619.3,1533.9 L507.7,1539.5 L397.5,1528.5 L299.3,1494.7 L224.2,1436.4 L179.9,1357.2 L167.0,1265.4 L178.0,1171.5 L199.0,1084.3 L214.4,1008.4 L212.4,943.1 L189.5,883.3 L151.8,823.3 L112.9,759.0 L88.6,690.2 L91.0,620.8 L124.0,556.0 L182.3,500.2 L253.2,453.9 L322.0,413.1 L377.5,370.5 L415.5,319.0 L440.0,254.2 L460.5,176.9 L488.3,93.3 L532.1,12.3 L595.6,-56.7 L676.8,-107.4 L770.6,-138.0 L870.6,-150.4 L971.8,-148.2 L1071.0,-134.9 L1166.2,-111.6 L1255.3,-77.3 L1335.5,-30.7 L1403.6,28.0 L1457.8,95.4 L1499.7,164.9 L1535.5,228.3 L1574.6,278.9 L1627.1,314.1 L1699.8,336.9 L1792.2,355.0 L1896.2,377.9 L1997.1,413.5 L2078.7,465.6 L2128.8,532.3 L2143.4,607.7 L2128.3,685.0 L2096.9,759.0 Z"/>
<path class="c" d="M2161.0,759.0 L2127.2,832.9 L2105.7,905.0 L2101.0,979.8 L2107.6,1060.8 L2112.5,1147.5 L2100.8,1234.6 L2060.9,1313.5 L1989.4,1375.5 L1891.1,1415.1 L1777.3,1432.4 L1661.0,1433.1 L1552.5,1426.1 L1456.7,1420.7 L1373.1,1423.1 L1297.4,1434.8 L1224.1,1453.6 L1149.3,1475.1 L1071.0,1495.6 L988.4,1514.0 L900.8,1531.2 L806.5,1548.8 L703.4,1567.0 L591.1,1582.4 L472.5,1588.3 L355.4,1576.6 L251.1,1540.7 L171.3,1478.7 L124.2,1394.5 L110.5,1297.0 L122.2,1197.2 L144.5,1104.6 L160.8,1024.0 L158.7,954.6 L134.4,891.1 L94.4,827.4 L53.0,759.0 L27.2,685.9 L29.7,612.1 L64.9,543.3 L126.7,484.1 L202.1,434.8 L275.2,391.4 L334.2,346.2 L374.6,291.5 L400.5,222.6 L422.3,140.5 L451.9,51.6 L498.5,-34.3 L565.8,-107.6 L652.2,-161.6 L751.8,-194.1 L858.0,-207.2 L965.6,-204.9 L1071.0,-190.8 L1172.2,-166.0 L1266.9,-129.6 L1352.0,-80.1 L1424.4,-17.7 L1482.0,54.0 L1526.5,127.8 L1564.5,195.1 L1606.1,248.9 L1661.9,286.3 L1739.1,310.5 L1837.3,329.7 L1947.8,354.0 L2055.0,391.9 L2141.7,447.2 L2194.9,518.1 L2210.4,598.3 L2194.4,680.4 L2161.0,759.0 Z"/>
<path class="c" d="M2225.2,759.0 L2189.3,837.3 L2166.6,913.5 L2161.6,992.8 L2168.6,1078.6 L2173.8,1170.4 L2161.4,1262.6 L2119.2,1346.1 L2043.4,1411.8 L1939.4,1453.7 L1818.9,1472.0 L1695.7,1472.7 L1580.8,1465.4 L1479.4,1459.7 L1390.9,1462.2 L1310.7,1474.6 L1233.1,1494.4 L1153.9,1517.2 L1071.0,1539.0 L983.6,1558.4 L890.8,1576.6 L790.9,1595.3 L681.8,1614.5 L562.8,1630.8 L437.3,1637.0 L313.3,1624.6 L202.8,1586.7 L118.4,1521.1 L68.6,1431.9 L54.0,1328.7 L66.4,1223.0 L90.0,1125.0 L107.3,1039.6 L105.1,966.1 L79.3,898.9 L36.9,831.4 L-6.8,759.0 L-34.2,681.6 L-31.5,603.5 L5.7,530.6 L71.2,467.9 L150.9,415.8 L228.4,369.8 L290.8,322.0 L333.6,264.0 L361.1,191.1 L384.2,104.2 L415.5,10.0 L464.8,-81.0 L536.1,-158.6 L627.5,-215.7 L733.0,-250.2 L845.5,-264.0 L959.4,-261.6 L1071.0,-246.6 L1178.1,-220.4 L1278.4,-181.9 L1368.6,-129.5 L1445.2,-63.4 L1506.1,12.5 L1553.3,90.7 L1593.6,162.0 L1637.5,218.9 L1696.7,258.5 L1778.4,284.2 L1882.4,304.5 L1999.3,330.2 L2112.8,370.3 L2204.7,428.9 L2261.0,503.9 L2277.4,588.8 L2260.4,675.7 L2225.2,759.0 Z"/>
<path class="c" d="M2289.3,759.0 L2251.4,841.6 L2227.4,922.1 L2222.2,1005.8 L2229.6,1096.3 L2235.1,1193.3 L2221.9,1290.6 L2177.4,1378.8 L2097.4,1448.0 L1987.6,1492.3 L1860.4,1511.6 L1730.4,1512.4 L1609.1,1504.6 L1502.1,1498.6 L1408.7,1501.2 L1324.0,1514.4 L1242.1,1535.3 L1158.5,1559.3 L1071.0,1582.3 L978.7,1602.8 L880.8,1622.0 L775.3,1641.8 L660.1,1662.1 L534.6,1679.2 L402.1,1685.8 L271.2,1672.7 L154.6,1632.7 L65.5,1563.4 L12.9,1469.3 L-2.4,1360.3 L10.6,1248.8 L35.5,1145.3 L53.7,1055.2 L51.4,977.6 L24.2,906.7 L-20.5,835.4 L-66.7,759.0 L-95.6,677.3 L-92.8,594.8 L-53.5,517.9 L15.7,451.7 L99.8,396.7 L181.6,348.2 L247.5,297.7 L292.6,236.5 L321.7,159.5 L346.0,67.8 L379.0,-31.6 L431.1,-127.7 L506.4,-209.6 L602.9,-269.9 L714.2,-306.2 L833.0,-320.9 L953.2,-318.3 L1071.0,-302.5 L1184.1,-274.8 L1289.9,-234.1 L1385.1,-178.8 L1465.9,-109.1 L1530.3,-29.0 L1580.1,53.5 L1622.6,128.8 L1669.0,188.8 L1731.4,230.7 L1817.7,257.8 L1927.5,279.2 L2050.9,306.4 L2170.7,348.7 L2267.7,410.6 L2327.1,489.7 L2344.4,579.4 L2326.5,671.1 L2289.3,759.0 Z"/>
<path class="ix" d="M2353.4,759.0 L2313.6,846.0 L2288.3,930.7 L2282.8,1018.8 L2290.5,1114.1 L2296.4,1216.1 L2282.5,1318.6 L2235.6,1411.4 L2151.5,1484.3 L2035.8,1530.9 L1902.0,1551.2 L1765.1,1552.0 L1637.4,1543.8 L1524.8,1537.5 L1426.5,1540.3 L1337.3,1554.1 L1251.1,1576.2 L1163.1,1601.4 L1071.0,1625.6 L973.9,1647.2 L870.8,1667.4 L759.8,1688.2 L638.5,1709.6 L506.4,1727.7 L366.9,1734.6 L229.2,1720.8 L106.4,1678.7 L12.5,1605.8 L-42.8,1506.7 L-58.9,1392.0 L-45.2,1274.6 L-19.0,1165.6 L0.2,1070.8 L-2.3,989.1 L-30.9,914.4 L-78.0,839.4 L-126.6,759.0 L-157.0,673.1 L-154.0,586.2 L-112.7,505.3 L-39.9,435.5 L48.7,377.6 L134.8,326.6 L204.1,273.4 L251.7,209.0 L282.2,128.0 L307.8,31.4 L342.6,-73.2 L397.4,-174.3 L476.7,-260.6 L578.3,-324.0 L695.4,-362.3 L820.5,-377.7 L947.0,-375.0 L1071.0,-358.4 L1190.0,-329.2 L1301.4,-286.4 L1401.6,-228.2 L1486.7,-154.8 L1554.5,-70.5 L1606.9,16.4 L1651.6,95.6 L1700.5,158.8 L1766.2,202.9 L1857.0,231.4 L1972.6,254.0 L2102.5,282.6 L2228.6,327.2 L2330.6,392.2 L2393.2,475.6 L2411.4,569.9 L2392.6,666.5 L2353.4,759.0 Z"/>
<path class="c" d="M2417.5,759.0 L2375.7,850.3 L2349.2,939.3 L2343.4,1031.7 L2351.5,1131.9 L2357.6,1239.0 L2343.1,1346.5 L2293.9,1444.0 L2205.5,1520.5 L2084.1,1569.5 L1943.5,1590.9 L1799.8,1591.7 L1665.7,1583.1 L1547.5,1576.5 L1444.2,1579.4 L1350.6,1593.9 L1260.1,1617.0 L1167.7,1643.5 L1071.0,1668.9 L969.0,1691.6 L860.8,1712.9 L744.2,1734.7 L616.9,1757.1 L478.2,1776.1 L331.7,1783.4 L187.1,1768.9 L58.1,1724.7 L-40.4,1648.1 L-98.5,1544.1 L-115.4,1423.6 L-101.1,1300.4 L-73.5,1186.0 L-53.3,1086.4 L-55.9,1000.6 L-86.0,922.2 L-135.4,843.4 L-186.5,759.0 L-218.4,668.8 L-215.3,577.6 L-171.9,492.6 L-95.4,419.4 L-2.4,358.6 L87.9,304.9 L160.8,249.1 L210.7,181.5 L242.8,96.4 L269.7,-5.0 L306.2,-114.8 L363.7,-221.0 L447.0,-311.6 L553.6,-378.2 L676.7,-418.3 L807.9,-434.5 L940.8,-431.7 L1071.0,-414.3 L1196.0,-383.6 L1312.9,-338.7 L1418.2,-277.5 L1507.5,-200.5 L1578.7,-111.9 L1633.7,-20.7 L1680.7,62.5 L1732.0,128.8 L1800.9,175.1 L1896.3,205.0 L2017.6,228.7 L2154.1,258.8 L2286.5,305.6 L2393.6,373.9 L2459.3,461.4 L2478.5,560.5 L2458.7,661.9 L2417.5,759.0 Z"/>
<path class="c" d="M2481.6,759.0 L2437.8,854.7 L2410.0,947.9 L2404.0,1044.7 L2412.5,1149.6 L2418.9,1261.8 L2403.7,1374.5 L2352.1,1476.6 L2259.5,1556.8 L2132.3,1608.1 L1985.1,1630.5 L1834.5,1631.3 L1694.1,1622.3 L1570.2,1615.4 L1462.0,1618.4 L1363.9,1633.6 L1269.1,1657.9 L1172.3,1685.7 L1071.0,1712.3 L964.1,1736.1 L850.7,1758.3 L728.6,1781.1 L595.3,1804.6 L449.9,1824.5 L296.5,1832.2 L145.0,1817.0 L9.9,1770.6 L-93.3,1690.4 L-154.2,1581.5 L-171.9,1455.3 L-156.9,1326.1 L-128.0,1206.3 L-106.9,1102.0 L-109.6,1012.1 L-141.1,930.0 L-192.9,847.5 L-246.4,759.0 L-279.8,664.5 L-276.5,568.9 L-231.1,479.9 L-151.0,403.2 L-53.5,339.5 L41.1,283.3 L117.4,224.8 L169.7,154.0 L203.3,64.9 L231.5,-41.3 L269.8,-156.4 L330.1,-267.7 L417.3,-362.5 L529.0,-432.3 L657.9,-474.4 L795.4,-491.4 L934.6,-488.4 L1071.0,-470.1 L1201.9,-438.0 L1324.5,-391.0 L1434.7,-326.9 L1528.3,-246.1 L1602.8,-153.4 L1660.5,-57.9 L1709.7,29.3 L1763.4,98.8 L1835.7,147.2 L1935.6,178.6 L2062.7,203.5 L2205.6,234.9 L2344.4,284.0 L2456.6,355.5 L2525.4,447.2 L2545.5,551.0 L2524.8,657.2 L2481.6,759.0 Z"/>
<path class="c" d="M2545.8,759.0 L2499.9,859.0 L2470.9,956.5 L2464.6,1057.7 L2473.5,1167.4 L2480.2,1284.7 L2464.2,1402.5 L2410.3,1509.2 L2313.5,1593.1 L2180.6,1646.7 L2026.6,1670.1 L1869.2,1671.0 L1722.4,1661.6 L1592.9,1654.3 L1479.8,1657.5 L1377.3,1673.4 L1278.1,1698.7 L1176.9,1727.8 L1071.0,1755.6 L959.3,1780.5 L840.7,1803.7 L713.1,1827.6 L573.6,1852.2 L421.7,1873.0 L261.3,1880.9 L102.9,1865.1 L-38.3,1816.6 L-146.2,1732.8 L-209.9,1618.8 L-228.4,1486.9 L-212.7,1351.9 L-182.5,1226.6 L-160.4,1117.6 L-163.3,1023.6 L-196.2,937.7 L-250.3,851.5 L-306.2,759.0 L-341.2,660.2 L-337.8,560.3 L-290.3,467.2 L-206.5,387.0 L-104.6,320.4 L-5.7,261.7 L74.1,200.6 L128.8,126.5 L163.9,33.3 L193.4,-77.7 L233.4,-198.0 L296.4,-314.3 L387.6,-413.5 L504.3,-486.5 L639.1,-530.5 L782.9,-548.2 L928.4,-545.1 L1071.0,-526.0 L1207.9,-492.5 L1336.0,-443.2 L1451.2,-376.3 L1549.1,-291.8 L1627.0,-194.9 L1687.3,-95.0 L1738.7,-3.9 L1794.9,68.8 L1870.5,119.4 L1974.9,152.3 L2107.8,178.2 L2257.2,211.1 L2402.3,262.4 L2519.6,337.2 L2591.6,433.1 L2612.5,541.6 L2590.8,652.6 L2545.8,759.0 Z"/>
<path class="ix" d="M2609.9,759.0 L2562.1,863.4 L2531.8,965.1 L2525.2,1070.7 L2534.5,1185.1 L2541.4,1307.5 L2524.8,1430.5 L2468.5,1541.9 L2367.5,1629.3 L2228.8,1685.3 L2068.2,1709.7 L1903.9,1710.6 L1750.7,1700.8 L1615.5,1693.2 L1497.6,1696.6 L1390.6,1713.1 L1287.1,1739.6 L1181.6,1769.9 L1071.0,1798.9 L954.4,1824.9 L830.7,1849.1 L697.5,1874.1 L552.0,1899.7 L393.5,1921.4 L226.1,1929.7 L60.8,1913.2 L-86.5,1862.6 L-199.1,1775.1 L-265.6,1656.2 L-284.9,1518.5 L-268.5,1377.7 L-237.0,1247.0 L-214.0,1133.2 L-216.9,1035.1 L-251.3,945.5 L-307.7,855.5 L-366.1,759.0 L-402.6,655.9 L-399.0,551.6 L-349.4,454.5 L-262.1,370.8 L-155.8,301.4 L-52.5,240.1 L30.8,176.3 L87.8,99.0 L124.5,1.8 L155.2,-114.1 L196.9,-239.6 L262.7,-361.0 L357.8,-464.5 L479.7,-540.7 L620.3,-586.5 L770.4,-605.0 L922.2,-601.8 L1071.0,-581.9 L1213.8,-546.9 L1347.5,-495.5 L1467.8,-425.6 L1569.9,-337.5 L1651.2,-236.4 L1714.1,-132.1 L1767.7,-37.0 L1826.4,38.8 L1905.2,91.6 L2014.2,125.9 L2152.9,153.0 L2308.8,187.3 L2460.1,240.8 L2582.6,318.9 L2657.7,418.9 L2679.5,532.1 L2656.9,648.0 L2609.9,759.0 Z"/>
<path class="c" d="M2674.0,759.0 L2624.2,867.7 L2592.6,973.6 L2585.7,1083.7 L2595.4,1202.9 L2602.7,1330.4 L2585.4,1458.5 L2526.8,1574.5 L2421.6,1665.6 L2277.1,1723.8 L2109.7,1749.3 L1938.6,1750.3 L1779.0,1740.1 L1638.2,1732.2 L1515.3,1735.6 L1403.9,1752.9 L1296.1,1780.5 L1186.2,1812.0 L1071.0,1842.3 L949.6,1869.3 L820.7,1894.6 L682.0,1920.5 L530.4,1947.2 L365.2,1969.8 L190.9,1978.5 L18.7,1961.3 L-134.8,1908.6 L-252.1,1817.5 L-321.3,1693.6 L-341.4,1550.2 L-324.3,1403.5 L-291.5,1267.3 L-267.5,1148.7 L-270.6,1046.6 L-306.3,953.3 L-365.2,859.5 L-426.0,759.0 L-464.0,651.6 L-460.3,543.0 L-408.6,441.8 L-317.6,354.7 L-206.9,282.3 L-99.3,218.5 L-12.6,152.0 L46.8,71.5 L85.0,-29.8 L117.1,-150.5 L160.5,-281.2 L229.0,-407.7 L328.1,-515.5 L455.1,-594.8 L601.6,-642.6 L757.8,-661.9 L916.0,-658.5 L1071.0,-637.7 L1219.8,-601.3 L1359.0,-547.8 L1484.3,-475.0 L1590.7,-383.2 L1675.4,-277.8 L1740.9,-169.3 L1796.8,-70.2 L1857.9,8.8 L1940.0,63.8 L2053.5,99.5 L2197.9,127.7 L2360.4,163.5 L2518.0,219.2 L2645.5,300.5 L2723.8,404.7 L2746.6,522.6 L2723.0,643.4 L2674.0,759.0 Z"/>
<path class="c" d="M2738.1,759.0 L2686.3,872.1 L2653.5,982.2 L2646.3,1096.7 L2656.4,1220.6 L2664.0,1353.2 L2646.0,1486.4 L2585.0,1607.1 L2475.6,1701.9 L2325.3,1762.4 L2151.3,1788.9 L1973.3,1789.9 L1807.3,1779.3 L1660.9,1771.1 L1533.1,1774.7 L1417.2,1792.7 L1305.1,1821.3 L1190.8,1854.1 L1071.0,1885.6 L944.7,1913.7 L810.7,1940.0 L666.4,1967.0 L508.8,1994.8 L337.0,2018.2 L155.7,2027.3 L-23.4,2009.4 L-183.0,1954.6 L-305.0,1859.8 L-377.0,1731.0 L-397.9,1581.8 L-380.1,1429.2 L-346.0,1287.6 L-321.0,1164.3 L-324.3,1058.1 L-361.4,961.1 L-422.6,863.5 L-485.9,759.0 L-525.4,647.3 L-521.5,534.4 L-467.8,429.1 L-373.2,338.5 L-258.0,263.2 L-146.1,196.8 L-55.9,127.7 L5.9,44.0 L45.6,-61.3 L78.9,-186.9 L124.1,-322.8 L195.3,-454.3 L298.4,-566.5 L430.4,-649.0 L582.8,-698.7 L745.3,-718.7 L909.8,-715.2 L1071.0,-693.6 L1225.7,-655.7 L1370.5,-600.0 L1500.8,-524.3 L1611.4,-428.9 L1699.5,-319.3 L1767.7,-206.4 L1825.8,-103.4 L1889.3,-21.2 L1974.7,36.0 L2092.8,73.1 L2243.0,102.5 L2411.9,139.6 L2575.9,197.6 L2708.5,282.2 L2789.9,390.5 L2813.6,513.2 L2789.1,638.7 L2738.1,759.0 Z"/>
<path class="c" d="M2802.2,759.0 L2748.4,876.4 L2714.3,990.8 L2706.9,1109.7 L2717.4,1238.4 L2725.2,1376.1 L2706.5,1514.4 L2643.2,1639.7 L2529.6,1738.1 L2373.5,1801.0 L2192.8,1828.5 L2008.0,1829.6 L1835.7,1818.5 L1683.6,1810.0 L1550.9,1813.8 L1430.5,1832.4 L1314.1,1862.2 L1195.4,1896.3 L1071.0,1928.9 L939.9,1958.1 L800.7,1985.4 L650.8,2013.4 L487.2,2042.3 L308.8,2066.7 L120.5,2076.1 L-65.5,2057.5 L-231.2,2000.6 L-357.9,1902.1 L-432.7,1768.4 L-454.4,1613.5 L-435.9,1455.0 L-400.5,1308.0 L-374.6,1179.9 L-377.9,1069.6 L-416.5,968.8 L-480.1,867.6 L-545.8,759.0 L-586.8,643.0 L-582.8,525.7 L-527.0,416.5 L-428.7,322.3 L-309.1,244.2 L-192.9,175.2 L-99.3,103.4 L-35.1,16.5 L6.1,-92.9 L40.7,-223.2 L87.7,-364.5 L161.7,-501.0 L268.7,-617.4 L405.8,-703.1 L564.0,-754.7 L732.8,-775.5 L903.6,-772.0 L1071.0,-749.5 L1231.7,-710.1 L1382.1,-652.3 L1517.4,-573.7 L1632.2,-474.6 L1723.7,-360.8 L1794.5,-243.5 L1854.8,-136.5 L1920.8,-51.2 L2009.5,8.2 L2132.1,46.7 L2288.1,77.2 L2463.5,115.8 L2633.8,176.0 L2771.5,263.9 L2856.0,376.4 L2880.6,503.7 L2855.2,634.1 L2802.2,759.0 Z"/>
<path class="ix" d="M2866.4,759.0 L2810.6,880.8 L2775.2,999.4 L2767.5,1122.7 L2778.4,1256.1 L2786.5,1399.0 L2767.1,1542.4 L2701.5,1672.3 L2583.6,1774.4 L2421.8,1839.6 L2234.3,1868.1 L2042.7,1869.2 L1864.0,1857.8 L1706.3,1848.9 L1568.7,1852.8 L1443.8,1872.2 L1323.2,1903.0 L1200.0,1938.4 L1071.0,1972.3 L935.0,2002.5 L790.7,2030.8 L635.3,2059.9 L465.5,2089.8 L280.5,2115.1 L85.3,2124.8 L-107.6,2105.6 L-279.5,2046.5 L-410.8,1944.5 L-488.4,1805.8 L-510.9,1645.1 L-491.7,1480.8 L-455.0,1328.3 L-428.1,1195.5 L-431.6,1081.1 L-471.6,976.6 L-537.5,871.6 L-605.6,759.0 L-648.2,638.7 L-644.0,517.1 L-586.2,403.8 L-484.2,306.1 L-360.2,225.1 L-239.7,153.6 L-142.6,79.2 L-76.1,-11.0 L-33.3,-124.4 L2.6,-259.6 L51.3,-406.1 L128.0,-547.7 L239.0,-668.4 L381.2,-757.3 L545.2,-810.8 L720.2,-832.4 L897.4,-828.7 L1071.0,-805.3 L1237.6,-764.5 L1393.6,-704.6 L1533.9,-623.1 L1653.0,-520.3 L1747.9,-402.2 L1821.3,-280.6 L1883.9,-169.7 L1952.3,-81.2 L2044.2,-19.6 L2171.4,20.4 L2333.2,52.0 L2515.1,92.0 L2691.7,154.4 L2834.5,245.5 L2922.1,362.2 L2947.6,494.3 L2921.2,629.5 L2866.4,759.0 Z"/>
<path class="c" d="M2930.5,759.0 L2872.7,885.1 L2836.1,1008.0 L2828.1,1135.7 L2839.3,1273.9 L2847.8,1421.8 L2827.7,1570.4 L2759.7,1705.0 L2637.7,1810.7 L2470.0,1878.2 L2275.9,1907.8 L2077.4,1908.9 L1892.3,1897.0 L1729.0,1887.9 L1586.4,1891.9 L1457.2,1911.9 L1332.2,1943.9 L1204.6,1980.5 L1071.0,2015.6 L930.2,2046.9 L780.7,2076.2 L619.7,2106.4 L443.9,2137.3 L252.3,2163.5 L50.1,2173.6 L-149.7,2153.7 L-327.7,2092.5 L-463.8,1986.8 L-544.0,1843.1 L-567.4,1676.8 L-547.6,1506.6 L-509.5,1348.6 L-481.7,1211.1 L-485.2,1092.6 L-526.7,984.4 L-595.0,875.6 L-665.5,759.0 L-709.6,634.4 L-705.3,508.4 L-645.4,391.1 L-539.8,290.0 L-411.3,206.0 L-286.6,132.0 L-186.0,54.9 L-117.0,-38.5 L-72.7,-156.0 L-35.6,-296.0 L14.9,-447.7 L94.3,-594.4 L209.3,-719.4 L356.5,-811.4 L526.4,-866.9 L707.7,-889.2 L891.2,-885.4 L1071.0,-861.2 L1243.6,-818.9 L1405.1,-756.9 L1550.4,-672.4 L1673.8,-566.0 L1772.0,-443.7 L1848.1,-317.8 L1912.9,-202.9 L1983.8,-111.2 L2079.0,-47.4 L2210.7,-6.0 L2378.2,26.7 L2566.7,68.2 L2749.5,132.8 L2897.5,227.2 L2988.2,348.0 L3014.6,484.8 L2987.3,624.9 L2930.5,759.0 Z"/>
<path class="c" d="M2994.6,759.0 L2934.8,889.5 L2896.9,1016.6 L2888.7,1148.6 L2900.3,1291.7 L2909.0,1444.7 L2888.3,1598.4 L2817.9,1737.6 L2691.7,1846.9 L2518.3,1916.8 L2317.4,1947.4 L2112.1,1948.5 L1920.6,1936.3 L1751.7,1926.8 L1604.2,1931.0 L1470.5,1951.7 L1341.2,1984.7 L1209.2,2022.6 L1071.0,2058.9 L925.3,2091.3 L770.7,2121.7 L604.2,2152.8 L422.3,2184.9 L224.1,2212.0 L14.9,2222.4 L-191.8,2201.7 L-375.9,2138.5 L-516.7,2029.1 L-599.7,1880.5 L-623.9,1708.4 L-603.4,1532.4 L-564.0,1368.9 L-535.2,1226.7 L-538.9,1104.1 L-581.8,992.1 L-652.4,879.6 L-725.4,759.0 L-771.0,630.1 L-766.5,499.8 L-704.5,378.4 L-595.3,273.8 L-462.4,187.0 L-333.4,110.4 L-229.3,30.6 L-158.0,-66.0 L-112.2,-187.5 L-73.7,-332.4 L-21.6,-489.3 L60.6,-641.0 L179.5,-770.4 L331.9,-865.6 L507.7,-922.9 L695.2,-946.0 L885.0,-942.1 L1071.0,-917.1 L1249.5,-873.3 L1416.6,-809.1 L1567.0,-721.8 L1694.6,-611.7 L1796.2,-485.2 L1874.9,-354.9 L1941.9,-236.1 L2015.2,-141.2 L2113.8,-75.2 L2249.9,-32.4 L2423.3,1.5 L2618.2,44.4 L2807.4,111.2 L2960.5,208.8 L3054.3,333.9 L3081.7,475.4 L3053.4,620.2 L2994.6,759.0 Z"/>
<text class="ct" x="1119" y="922" text-anchor="middle">7,800</text>
<text class="ct" x="628" y="951" text-anchor="middle">7,000</text>
<text class="ct" x="605" y="358" text-anchor="middle">6,200</text>
<text class="ct" x="1520" y="204" text-anchor="middle">5,400</text>
<circle class="dot" cx="1071" cy="735" r="2.4"/>
<text class="pk" x="1071" y="755" text-anchor="middle">BEAR PEAK</text>
<text class="el" x="1071" y="776" text-anchor="middle">8,461&#8242;</text>
</svg>