<svg xmlns="http://www.w3.org/2000/svg" width="1200" height="900" viewBox="0 0 1200 900">
<style>
  .c  { fill:none; stroke:#2A1B11; stroke-opacity:0.07; stroke-width:1.1; }
  .ix { fill:none; stroke:#2A1B11; stroke-opacity:0.12; stroke-width:1.6; }
  .ct { font:500 10px 'IBM Plex Mono',ui-monospace,monospace; fill:#2A1B11; fill-opacity:0.32;
        stroke:#F4ECDB; stroke-width:3; paint-order:stroke; }
  .pk { font:600 11.5px 'Inter Tight','Helvetica Neue',sans-serif; letter-spacing:0.15em; fill:#2A1B11; fill-opacity:0.2; }
  .el { font:500 10.5px 'IBM Plex Mono',ui-monospace,monospace; fill:#9C6A33; fill-opacity:0.34; }
  .dot { fill:#2A1B11; fill-opacity:0.24; }
</style>
<path class="c" d="M818.6,559.0 L817.1,562.2 L816.2,565.4 L816.0,568.6 L816.2,572.2 L816.5,576.0 L815.9,579.8 L814.2,583.2 L811.1,585.9 L806.8,587.6 L801.8,588.4 L796.7,588.4 L792.0,588.1 L787.8,587.9 L784.2,588.0 L780.9,588.5 L777.7,589.3 L774.4,590.3 L771.0,591.1 L767.4,592.0 L763.6,592.7 L759.5,593.5 L755.0,594.3 L750.1,594.9 L744.9,595.2 L739.8,594.7 L735.2,593.1 L731.7,590.4 L729.7,586.7 L729.1,582.5 L729.6,578.1 L730.6,574.1 L731.3,570.6 L731.2,567.5 L730.1,564.8 L728.4,562.0 L726.6,559.0 L725.4,555.8 L725.6,552.6 L727.1,549.6 L729.8,547.0 L733.1,544.9 L736.3,543.0 L738.8,541.0 L740.6,538.6 L741.7,535.6 L742.7,532.0 L744.0,528.1 L746.0,524.4 L749.0,521.2 L752.7,518.8 L757.1,517.4 L761.7,516.8 L766.4,516.9 L771.0,517.5 L775.4,518.6 L779.5,520.2 L783.3,522.4 L786.4,525.1 L788.9,528.2 L790.9,531.5 L792.5,534.4 L794.4,536.7 L796.8,538.4 L800.2,539.4 L804.4,540.3 L809.3,541.3 L813.9,543.0 L817.7,545.4 L820.1,548.5 L820.7,552.0 L820.0,555.6 L818.6,559.0 Z"/>
<path class="c" d="M866.1,559.0 L863.2,565.5 L861.3,571.7 L860.9,578.3 L861.5,585.3 L861.9,592.9 L860.9,600.5 L857.4,607.4 L851.2,612.8 L842.6,616.3 L832.7,617.8 L822.5,617.8 L813.0,617.2 L804.7,616.8 L797.4,617.0 L790.8,618.0 L784.4,619.6 L777.8,621.5 L771.0,623.3 L763.8,624.9 L756.1,626.4 L747.9,627.9 L738.9,629.5 L729.1,630.9 L718.8,631.4 L708.5,630.4 L699.4,627.2 L692.5,621.8 L688.4,614.5 L687.2,606.0 L688.2,597.3 L690.1,589.2 L691.6,582.1 L691.4,576.1 L689.2,570.5 L685.8,565.0 L682.1,559.0 L679.9,552.6 L680.1,546.2 L683.2,540.2 L688.6,535.0 L695.2,530.7 L701.5,526.9 L706.7,523.0 L710.2,518.2 L712.5,512.2 L714.4,505.0 L717.0,497.3 L721.0,489.8 L726.9,483.4 L734.4,478.6 L743.1,475.8 L752.4,474.7 L761.8,474.9 L771.0,476.1 L779.8,478.3 L788.1,481.4 L795.5,485.8 L801.8,491.2 L806.9,497.5 L810.8,503.9 L814.1,509.8 L817.7,514.5 L822.6,517.7 L829.3,519.9 L837.9,521.5 L847.5,523.7 L856.9,527.0 L864.5,531.8 L869.1,538.0 L870.5,545.0 L869.1,552.1 L866.1,559.0 Z"/>
<path class="c" d="M913.7,559.0 L909.3,568.7 L906.5,578.1 L905.9,587.9 L906.7,598.5 L907.4,609.9 L905.8,621.3 L900.6,631.6 L891.2,639.7 L878.4,644.9 L863.5,647.2 L848.2,647.3 L834.0,646.3 L821.5,645.6 L810.6,646.0 L800.6,647.5 L791.0,649.9 L781.3,652.8 L771.0,655.4 L760.2,657.9 L748.7,660.1 L736.4,662.4 L722.9,664.8 L708.2,666.8 L692.6,667.6 L677.3,666.0 L663.6,661.4 L653.2,653.2 L647.0,642.2 L645.2,629.4 L646.8,616.4 L649.7,604.3 L651.8,593.7 L651.6,584.6 L648.4,576.3 L643.1,567.9 L637.7,559.0 L634.3,549.4 L634.7,539.8 L639.3,530.8 L647.4,523.0 L657.2,516.6 L666.8,510.9 L674.5,505.0 L679.8,497.8 L683.2,488.8 L686.1,478.0 L689.9,466.4 L696.0,455.1 L704.9,445.5 L716.2,438.5 L729.2,434.2 L743.1,432.5 L757.2,432.8 L771.0,434.6 L784.2,437.9 L796.6,442.7 L807.8,449.1 L817.3,457.3 L824.8,466.7 L830.6,476.4 L835.6,485.2 L841.1,492.2 L848.4,497.1 L858.5,500.3 L871.3,502.8 L885.8,506.0 L899.8,510.9 L911.2,518.2 L918.2,527.5 L920.2,538.0 L918.1,548.7 L913.7,559.0 Z"/>
<path class="ix" d="M961.3,559.0 L955.4,571.9 L951.6,584.5 L950.8,597.5 L952.0,611.7 L952.8,626.8 L950.8,642.0 L943.8,655.8 L931.3,666.6 L914.2,673.5 L894.3,676.6 L874.0,676.7 L855.0,675.5 L838.3,674.5 L823.7,674.9 L810.5,677.0 L797.7,680.3 L784.7,684.0 L771.0,687.6 L756.6,690.8 L741.3,693.8 L724.8,696.9 L706.8,700.1 L687.2,702.7 L666.5,703.8 L646.1,701.7 L627.9,695.5 L613.9,684.6 L605.7,669.9 L603.3,652.9 L605.4,635.5 L609.3,619.3 L612.1,605.3 L611.7,593.1 L607.5,582.1 L600.5,570.9 L593.3,559.0 L588.8,546.2 L589.2,533.4 L595.4,521.3 L606.2,511.0 L619.3,502.4 L632.1,494.8 L642.4,486.9 L649.4,477.4 L654.0,465.4 L657.8,451.0 L662.9,435.5 L671.0,420.5 L682.8,407.7 L697.9,398.3 L715.3,392.6 L733.8,390.3 L752.6,390.7 L771.0,393.2 L788.7,397.5 L805.2,403.9 L820.1,412.5 L832.7,423.4 L842.7,435.9 L850.5,448.8 L857.2,460.6 L864.4,469.9 L874.2,476.5 L887.6,480.7 L904.8,484.1 L924.1,488.3 L942.8,494.9 L957.9,504.6 L967.2,516.9 L969.9,530.9 L967.1,545.3 L961.3,559.0 Z"/>
<path class="c" d="M1008.9,559.0 L1001.5,575.1 L996.8,590.9 L995.8,607.2 L997.2,624.9 L998.3,643.8 L995.7,662.8 L987.0,680.0 L971.4,693.5 L950.0,702.2 L925.1,705.9 L899.7,706.1 L876.1,704.6 L855.2,703.4 L836.9,703.9 L820.4,706.5 L804.4,710.6 L788.1,715.3 L771.0,719.7 L753.0,723.8 L733.9,727.5 L713.3,731.4 L690.8,735.3 L666.3,738.7 L640.4,740.0 L614.9,737.4 L592.1,729.6 L574.7,716.1 L564.4,697.7 L561.4,676.4 L564.0,654.6 L568.8,634.4 L572.4,616.8 L571.9,601.7 L566.6,587.8 L557.9,573.9 L548.9,559.0 L543.2,543.1 L543.8,526.9 L551.4,511.9 L564.9,499.0 L581.4,488.3 L597.3,478.8 L610.2,468.9 L619.0,457.0 L624.7,442.0 L629.4,424.0 L635.9,404.6 L646.1,385.9 L660.8,369.9 L679.6,358.1 L701.3,351.0 L724.5,348.2 L748.0,348.7 L771.0,351.7 L793.1,357.2 L813.7,365.1 L832.3,375.9 L848.1,389.5 L860.7,405.1 L870.4,421.3 L878.7,436.0 L887.8,447.7 L899.9,455.8 L916.8,461.1 L938.2,465.3 L962.3,470.6 L985.7,478.9 L1004.6,491.0 L1016.3,506.4 L1019.6,523.9 L1016.1,541.8 L1008.9,559.0 Z"/>
<path class="c" d="M1056.4,559.0 L1047.6,578.4 L1041.9,597.2 L1040.7,616.8 L1042.4,638.0 L1043.7,660.7 L1040.7,683.5 L1030.2,704.2 L1011.5,720.4 L985.8,730.8 L956.0,735.3 L925.5,735.5 L897.1,733.7 L872.0,732.3 L850.1,732.9 L830.3,736.0 L811.1,740.9 L791.5,746.5 L771.0,751.9 L749.4,756.7 L726.4,761.2 L701.7,765.8 L674.7,770.6 L645.3,774.6 L614.3,776.1 L583.6,773.1 L556.3,763.7 L535.4,747.5 L523.1,725.4 L519.5,699.9 L522.5,673.8 L528.4,649.5 L532.7,628.4 L532.1,610.2 L525.7,593.6 L515.3,576.9 L504.4,559.0 L497.7,539.9 L498.3,520.5 L507.5,502.5 L523.7,487.0 L543.5,474.1 L562.6,462.7 L578.1,450.9 L588.6,436.6 L595.4,418.5 L601.1,397.1 L608.9,373.8 L621.1,351.3 L638.7,332.1 L661.3,317.9 L687.4,309.4 L715.2,306.0 L743.4,306.6 L771.0,310.3 L797.5,316.8 L822.3,326.3 L844.6,339.3 L863.5,355.6 L878.6,374.4 L890.3,393.7 L900.2,411.3 L911.1,425.4 L925.7,435.2 L945.9,441.6 L971.7,446.6 L1000.6,453.0 L1028.7,462.9 L1051.4,477.4 L1065.3,495.9 L1069.4,516.9 L1065.2,538.4 L1056.4,559.0 Z"/>
<path class="c" d="M1104.0,559.0 L1093.7,581.6 L1087.1,603.6 L1085.7,626.5 L1087.7,651.2 L1089.2,677.7 L1085.6,704.3 L1073.4,728.4 L1051.6,747.3 L1021.5,759.4 L986.8,764.7 L951.2,764.9 L918.1,762.8 L888.8,761.2 L863.3,761.9 L840.2,765.5 L817.8,771.2 L794.9,777.8 L771.0,784.0 L745.8,789.7 L719.0,794.9 L690.2,800.3 L658.7,805.8 L624.4,810.5 L588.2,812.3 L552.4,808.8 L520.5,797.8 L496.1,778.9 L481.8,753.2 L477.6,723.4 L481.1,692.9 L487.9,664.6 L492.9,640.0 L492.3,618.7 L484.9,599.4 L472.6,579.9 L460.0,559.0 L452.1,536.7 L452.9,514.1 L463.6,493.1 L482.5,475.0 L505.5,460.0 L527.9,446.7 L545.9,432.9 L558.2,416.2 L566.2,395.1 L572.8,370.1 L581.9,342.9 L596.1,316.6 L616.7,294.2 L643.0,277.8 L673.5,267.8 L705.9,263.8 L738.8,264.5 L771.0,268.8 L801.9,276.4 L830.8,287.5 L856.9,302.7 L879.0,321.7 L896.5,343.6 L910.2,366.2 L921.8,386.7 L934.5,403.2 L951.5,414.6 L975.1,422.0 L1005.1,427.9 L1038.9,435.3 L1071.6,446.9 L1098.1,463.8 L1114.4,485.4 L1119.1,509.9 L1114.2,535.0 L1104.0,559.0 Z"/>
<path class="ix" d="M1151.6,559.0 L1139.8,584.8 L1132.3,610.0 L1130.6,636.1 L1132.9,664.4 L1134.7,694.7 L1130.5,725.1 L1116.6,752.6 L1091.6,774.2 L1057.3,788.1 L1017.6,794.1 L977.0,794.3 L939.1,791.9 L905.7,790.0 L876.5,790.9 L850.0,795.0 L824.5,801.5 L798.3,809.0 L771.0,816.2 L742.2,822.6 L711.6,828.6 L678.6,834.8 L642.7,841.1 L603.4,846.5 L562.0,848.5 L521.2,844.4 L484.7,831.9 L456.9,810.3 L440.4,780.9 L435.7,746.8 L439.7,712.0 L447.5,679.7 L453.2,651.5 L452.5,627.3 L444.0,605.1 L430.0,582.9 L415.6,559.0 L406.6,533.5 L407.4,507.7 L419.7,483.7 L441.3,463.0 L467.6,445.8 L493.1,430.7 L513.7,414.9 L527.8,395.8 L536.9,371.7 L544.5,343.1 L554.8,312.0 L571.1,282.0 L594.6,256.4 L624.8,237.6 L659.5,226.2 L696.6,221.7 L734.2,222.4 L771.0,227.4 L806.3,236.0 L839.4,248.7 L869.1,266.0 L894.4,287.8 L914.5,312.8 L930.0,338.6 L943.3,362.1 L957.8,380.9 L977.3,394.0 L1004.3,402.4 L1038.6,409.1 L1077.1,417.6 L1114.5,430.8 L1144.8,450.2 L1163.4,474.9 L1168.8,502.9 L1163.2,531.5 L1151.6,559.0 Z"/>
<path class="c" d="M1199.2,559.0 L1185.9,588.0 L1177.4,616.3 L1175.6,645.7 L1178.2,677.6 L1180.1,711.6 L1175.5,745.8 L1159.8,776.8 L1131.7,801.2 L1093.1,816.7 L1048.4,823.5 L1002.7,823.8 L960.1,821.0 L922.5,818.9 L889.7,819.9 L859.9,824.5 L831.1,831.8 L801.8,840.3 L771.0,848.3 L738.6,855.6 L704.1,862.3 L667.1,869.2 L626.6,876.4 L582.5,882.4 L535.9,884.7 L489.9,880.1 L448.9,866.1 L417.6,841.7 L399.1,808.6 L393.7,770.3 L398.3,731.1 L407.1,694.8 L413.5,663.1 L412.7,635.8 L403.1,610.9 L387.4,585.8 L371.2,559.0 L361.0,530.3 L362.0,501.3 L375.8,474.3 L400.1,451.0 L429.7,431.7 L458.4,414.6 L481.6,396.9 L497.4,375.4 L507.6,348.3 L516.2,316.1 L527.8,281.2 L546.1,247.4 L572.6,218.6 L606.5,197.4 L645.6,184.6 L687.4,179.5 L729.6,180.4 L771.0,185.9 L810.7,195.7 L847.9,210.0 L881.4,229.4 L909.8,253.9 L932.4,282.1 L949.9,311.1 L964.9,337.5 L981.2,358.6 L1003.1,373.3 L1033.4,382.8 L1072.0,390.4 L1115.4,399.9 L1157.5,414.8 L1191.6,436.5 L1212.5,464.4 L1218.5,495.9 L1212.2,528.1 L1199.2,559.0 Z"/>
<text class="ct" x="709" y="523" text-anchor="middle">8,200</text>
<text class="ct" x="807" y="681" text-anchor="middle">7,800</text>
<text class="ct" x="876" y="374" text-anchor="middle">7,400</text>
<text class="ct" x="443" y="703" text-anchor="middle">7,000</text>
<circle class="dot" cx="771" cy="535" r="2.4"/>
<text class="pk" x="771" y="555" text-anchor="middle">BEAR PEAK</text>
<text class="el" x="771" y="576" text-anchor="middle">8,461&#8242;</text>
</svg>