<svg xmlns="http://www.w3.org/2000/svg" width="2000" height="1400" viewBox="0 0 2000 1400">
<style>
  .c  { fill:none; stroke:#2A1B11; stroke-opacity:0.07; stroke-width:1.1; }
  .ix { fill:none; stroke:#2A1B11; stroke-opacity:0.12; stroke-width:1.6; }
  .ct { font:500 10px 'IBM Plex Mono',ui-monospace,monospace; fill:#2A1B11; fill-opacity:0.32;
        stroke:#F4ECDB; stroke-width:3; paint-order:stroke; }
  .pk { font:600 11.5px 'Inter Tight','Helvetica Neue',sans-serif; letter-spacing:0.15em; fill:#2A1B11; fill-opacity:0.2; }
  .el { font:500 10.5px 'IBM Plex Mono',ui-monospace,monospace; fill:#9C6A33; fill-opacity:0.34; }
  .dot { fill:#2A1B11; fill-opacity:0.24; }
</style>
<path class="c" d="M1135.1,759.0 L1133.1,763.3 L1131.9,767.6 L1131.6,772.0 L1132.0,776.8 L1132.3,781.9 L1131.6,787.0 L1129.2,791.6 L1125.0,795.3 L1119.2,797.6 L1112.5,798.6 L1105.7,798.7 L1099.3,798.2 L1093.7,797.9 L1088.8,798.1 L1084.3,798.8 L1080.0,799.9 L1075.6,801.1 L1071.0,802.3 L1066.1,803.4 L1061.0,804.4 L1055.4,805.5 L1049.4,806.5 L1042.8,807.4 L1035.8,807.8 L1028.9,807.1 L1022.8,805.0 L1018.1,801.3 L1015.3,796.4 L1014.5,790.6 L1015.2,784.8 L1016.5,779.3 L1017.5,774.6 L1017.3,770.5 L1015.9,766.8 L1013.6,763.0 L1011.1,759.0 L1009.6,754.7 L1009.7,750.4 L1011.8,746.3 L1015.5,742.8 L1019.9,739.9 L1024.2,737.4 L1027.7,734.7 L1030.0,731.5 L1031.6,727.4 L1032.8,722.6 L1034.6,717.4 L1037.3,712.3 L1041.3,708.0 L1046.4,704.8 L1052.2,702.9 L1058.5,702.2 L1064.8,702.3 L1071.0,703.1 L1077.0,704.6 L1082.5,706.7 L1087.5,709.6 L1091.8,713.3 L1095.2,717.5 L1097.8,721.9 L1100.0,725.8 L1102.5,729.0 L1105.8,731.2 L1110.3,732.6 L1116.1,733.7 L1122.6,735.2 L1128.9,737.4 L1134.0,740.7 L1137.1,744.8 L1138.0,749.5 L1137.1,754.4 L1135.1,759.0 Z"/>
<path class="c" d="M1199.2,759.0 L1195.3,767.7 L1192.7,776.2 L1192.2,785.0 L1193.0,794.5 L1193.5,804.7 L1192.2,815.0 L1187.5,824.2 L1179.0,831.5 L1167.5,836.2 L1154.1,838.2 L1140.4,838.3 L1127.6,837.5 L1116.4,836.9 L1106.5,837.1 L1097.6,838.5 L1089.0,840.7 L1080.2,843.2 L1071.0,845.7 L1061.3,847.8 L1051.0,849.8 L1039.9,851.9 L1027.8,854.1 L1014.5,855.9 L1000.6,856.6 L986.8,855.2 L974.5,851.0 L965.2,843.7 L959.6,833.8 L958.0,822.3 L959.4,810.6 L962.0,799.7 L963.9,790.2 L963.7,782.0 L960.8,774.5 L956.1,767.0 L951.2,759.0 L948.2,750.4 L948.5,741.7 L952.6,733.6 L959.9,726.7 L968.8,720.9 L977.4,715.8 L984.3,710.4 L989.1,704.0 L992.1,695.9 L994.7,686.2 L998.2,675.8 L1003.6,665.7 L1011.6,657.0 L1021.7,650.7 L1033.4,646.9 L1045.9,645.3 L1058.6,645.6 L1071.0,647.3 L1082.9,650.2 L1094.0,654.5 L1104.1,660.3 L1112.6,667.6 L1119.3,676.1 L1124.6,684.7 L1129.1,692.7 L1133.9,699.0 L1140.5,703.4 L1149.6,706.2 L1161.2,708.5 L1174.1,711.4 L1186.8,715.8 L1197.0,722.3 L1203.2,730.7 L1205.0,740.1 L1203.2,749.7 L1199.2,759.0 Z"/>
<path class="c" d="M1263.4,759.0 L1257.4,772.0 L1253.6,784.8 L1252.8,798.0 L1253.9,812.3 L1254.8,827.6 L1252.7,842.9 L1245.7,856.9 L1233.1,867.8 L1215.7,874.8 L1195.6,877.8 L1175.1,878.0 L1156.0,876.7 L1139.1,875.8 L1124.3,876.2 L1110.9,878.3 L1098.0,881.6 L1084.8,885.4 L1071.0,889.0 L1056.4,892.2 L1041.0,895.3 L1024.3,898.4 L1006.1,901.6 L986.3,904.3 L965.4,905.3 L944.7,903.3 L926.3,897.0 L912.2,886.0 L903.9,871.2 L901.5,853.9 L903.6,836.3 L907.5,820.0 L910.4,805.8 L910.0,793.5 L905.7,782.3 L898.7,771.1 L891.4,759.0 L886.8,746.1 L887.2,733.1 L893.4,720.9 L904.4,710.5 L917.7,701.8 L930.6,694.1 L941.0,686.2 L948.1,676.5 L952.7,664.3 L956.5,649.9 L961.7,634.2 L970.0,619.0 L981.9,606.1 L997.1,596.5 L1014.7,590.8 L1033.4,588.5 L1052.4,588.9 L1071.0,591.4 L1088.9,595.8 L1105.6,602.2 L1120.6,610.9 L1133.4,621.9 L1143.5,634.6 L1151.4,647.6 L1158.1,659.5 L1165.4,669.0 L1175.3,675.6 L1188.9,679.9 L1206.2,683.2 L1225.7,687.5 L1244.6,694.2 L1259.9,704.0 L1269.3,716.5 L1272.1,730.6 L1269.2,745.1 L1263.4,759.0 Z"/>
<path class="ix" d="M1327.5,759.0 L1319.5,776.4 L1314.5,793.3 L1313.4,811.0 L1314.9,830.0 L1316.1,850.4 L1313.3,870.9 L1303.9,889.5 L1287.1,904.1 L1264.0,913.4 L1237.2,917.4 L1209.8,917.6 L1184.3,916.0 L1161.8,914.7 L1142.1,915.3 L1124.3,918.0 L1107.0,922.4 L1089.4,927.5 L1071.0,932.3 L1051.6,936.6 L1031.0,940.7 L1008.8,944.8 L984.5,949.1 L958.1,952.7 L930.2,954.1 L902.6,951.4 L878.1,942.9 L859.3,928.4 L848.2,908.5 L845.0,885.6 L847.8,862.1 L853.0,840.3 L856.8,821.4 L856.3,805.0 L850.6,790.1 L841.2,775.1 L831.5,759.0 L825.4,741.8 L826.0,724.4 L834.3,708.3 L848.8,694.3 L866.5,682.7 L883.8,672.5 L897.6,661.9 L907.1,649.0 L913.2,632.8 L918.4,613.5 L925.3,592.6 L936.3,572.3 L952.1,555.1 L972.5,542.4 L995.9,534.7 L1020.9,531.7 L1046.2,532.2 L1071.0,535.5 L1094.8,541.4 L1117.1,549.9 L1137.1,561.6 L1154.1,576.2 L1167.7,593.1 L1178.2,610.5 L1187.1,626.3 L1196.9,639.0 L1210.0,647.8 L1228.2,653.5 L1251.3,658.0 L1277.3,663.7 L1302.5,672.6 L1322.9,685.6 L1335.4,702.3 L1339.1,721.2 L1335.3,740.5 L1327.5,759.0 Z"/>
<path class="c" d="M1391.6,759.0 L1381.6,780.7 L1375.3,801.9 L1373.9,823.9 L1375.9,847.8 L1377.3,873.3 L1373.9,898.9 L1362.2,922.1 L1341.1,940.3 L1312.2,952.0 L1278.7,957.1 L1244.5,957.3 L1212.6,955.2 L1184.4,953.6 L1159.9,954.3 L1137.6,957.8 L1116.0,963.3 L1094.0,969.6 L1071.0,975.7 L1046.7,981.1 L1020.9,986.1 L993.2,991.3 L962.9,996.6 L929.8,1001.2 L895.0,1002.9 L860.5,999.5 L829.8,988.9 L806.4,970.7 L792.5,945.9 L788.5,917.2 L791.9,887.9 L798.5,860.7 L803.3,836.9 L802.7,816.5 L795.5,797.9 L783.8,779.1 L771.6,759.0 L764.0,737.5 L764.7,715.8 L775.1,695.6 L793.3,678.1 L815.4,663.7 L836.9,650.9 L854.3,637.6 L866.2,621.5 L873.8,601.2 L880.2,577.1 L888.9,551.0 L902.6,525.7 L922.4,504.1 L947.8,488.2 L977.1,478.7 L1008.4,474.8 L1040.0,475.5 L1071.0,479.7 L1100.8,486.9 L1128.6,497.6 L1153.7,512.2 L1174.9,530.6 L1191.9,551.6 L1205.0,573.3 L1216.2,593.2 L1228.4,609.0 L1244.8,620.0 L1267.5,627.1 L1296.4,632.7 L1328.9,639.9 L1360.4,651.0 L1385.9,667.3 L1401.6,688.1 L1406.1,711.7 L1401.4,735.9 L1391.6,759.0 Z"/>
<path class="c" d="M1455.7,759.0 L1443.8,785.1 L1436.2,810.5 L1434.5,836.9 L1436.9,865.5 L1438.6,896.1 L1434.5,926.9 L1420.4,954.7 L1395.1,976.6 L1360.5,990.6 L1320.3,996.7 L1279.2,996.9 L1240.9,994.5 L1207.1,992.6 L1177.6,993.4 L1150.9,997.5 L1125.0,1004.1 L1098.6,1011.7 L1071.0,1019.0 L1041.9,1025.5 L1010.9,1031.5 L977.6,1037.8 L941.3,1044.2 L901.6,1049.6 L859.8,1051.7 L818.4,1047.5 L781.6,1034.9 L753.5,1013.0 L736.9,983.3 L732.0,948.9 L736.1,913.7 L744.0,881.0 L749.8,852.5 L749.0,828.0 L740.4,805.6 L726.3,783.1 L711.7,759.0 L702.6,733.2 L703.5,707.2 L715.9,682.9 L737.7,662.0 L764.3,644.6 L790.1,629.3 L810.9,613.3 L825.2,594.0 L834.4,569.7 L842.1,540.7 L852.5,509.3 L868.9,479.0 L892.7,453.1 L923.2,434.1 L958.3,422.6 L995.8,418.0 L1033.8,418.8 L1071.0,423.8 L1106.7,432.5 L1140.1,445.4 L1170.2,462.8 L1195.7,484.9 L1216.0,510.2 L1231.8,536.2 L1245.2,560.0 L1259.8,579.0 L1279.6,592.2 L1306.8,600.7 L1341.5,607.5 L1380.4,616.1 L1418.3,629.4 L1448.9,649.0 L1467.7,674.0 L1473.1,702.3 L1467.5,731.2 L1455.7,759.0 Z"/>
<path class="c" d="M1519.8,759.0 L1505.9,789.4 L1497.1,819.1 L1495.1,849.9 L1497.8,883.3 L1499.9,919.0 L1495.0,954.8 L1478.6,987.3 L1449.2,1012.8 L1408.7,1029.2 L1361.8,1036.3 L1313.9,1036.6 L1269.2,1033.7 L1229.8,1031.5 L1195.4,1032.5 L1164.2,1037.3 L1134.0,1045.0 L1103.2,1053.8 L1071.0,1062.3 L1037.0,1069.9 L1000.9,1077.0 L962.1,1084.2 L919.6,1091.7 L873.4,1098.0 L824.6,1100.5 L776.4,1095.6 L733.4,1080.9 L700.5,1055.4 L681.2,1020.7 L675.5,980.5 L680.3,939.5 L689.5,901.3 L696.2,868.1 L695.4,839.5 L685.3,813.4 L668.9,787.1 L651.8,759.0 L641.2,728.9 L642.2,698.5 L656.7,670.2 L682.2,645.8 L713.2,625.5 L743.3,607.6 L767.6,589.0 L784.2,566.5 L794.9,538.1 L803.9,504.3 L816.1,467.7 L835.2,432.3 L863.0,402.1 L898.5,379.9 L939.6,366.6 L983.3,361.2 L1027.6,362.1 L1071.0,367.9 L1112.7,378.1 L1151.6,393.1 L1186.7,413.5 L1216.5,439.2 L1240.2,468.7 L1258.6,499.1 L1274.2,526.8 L1291.3,548.9 L1314.3,564.4 L1346.1,574.3 L1386.5,582.2 L1432.0,592.3 L1476.2,607.9 L1511.9,630.6 L1533.8,659.8 L1540.2,692.8 L1533.6,726.6 L1519.8,759.0 Z"/>
<path class="ix" d="M1584.0,759.0 L1568.0,793.8 L1557.9,827.7 L1555.7,862.9 L1558.8,901.0 L1561.1,941.8 L1555.6,982.8 L1536.8,1020.0 L1503.2,1049.1 L1456.9,1067.8 L1403.4,1075.9 L1348.6,1076.2 L1297.6,1072.9 L1252.5,1070.4 L1213.2,1071.5 L1177.5,1077.0 L1143.0,1085.9 L1107.9,1096.0 L1071.0,1105.6 L1032.1,1114.3 L990.9,1122.4 L946.5,1130.7 L898.0,1139.2 L845.2,1146.5 L789.4,1149.2 L734.3,1143.7 L685.2,1126.9 L647.6,1097.7 L625.5,1058.1 L619.0,1012.2 L624.5,965.2 L635.0,921.7 L642.7,883.7 L641.7,851.0 L630.2,821.2 L611.4,791.2 L592.0,759.0 L579.8,724.6 L581.0,689.9 L597.5,657.5 L626.6,629.6 L662.1,606.5 L696.5,586.0 L724.3,564.8 L743.3,539.0 L755.5,506.6 L765.7,468.0 L779.6,426.1 L801.6,385.7 L833.3,351.2 L873.9,325.8 L920.8,310.5 L970.8,304.3 L1021.4,305.4 L1071.0,312.0 L1118.6,323.7 L1163.2,340.8 L1203.3,364.1 L1237.3,393.5 L1264.4,427.2 L1285.4,462.0 L1303.2,493.7 L1322.8,518.9 L1349.1,536.5 L1385.4,548.0 L1431.6,557.0 L1483.6,568.4 L1534.0,586.3 L1574.9,612.3 L1599.9,645.6 L1607.2,683.4 L1599.6,722.0 L1584.0,759.0 Z"/>
<path class="c" d="M1648.1,759.0 L1630.1,798.1 L1618.8,836.3 L1616.3,875.9 L1619.8,918.8 L1622.4,964.7 L1616.2,1010.8 L1595.1,1052.6 L1557.2,1085.4 L1505.2,1106.3 L1444.9,1115.5 L1383.3,1115.9 L1325.9,1112.2 L1275.2,1109.3 L1231.0,1110.6 L1190.8,1116.8 L1152.0,1126.7 L1112.5,1138.1 L1071.0,1149.0 L1027.3,1158.7 L980.9,1167.8 L930.9,1177.1 L876.4,1186.8 L816.9,1194.9 L754.2,1198.0 L692.2,1191.8 L636.9,1172.9 L594.7,1140.0 L569.8,1095.5 L562.5,1043.8 L568.7,991.0 L580.5,942.0 L589.1,899.3 L588.0,862.5 L575.2,828.9 L554.0,795.2 L532.1,759.0 L518.4,720.3 L519.7,681.2 L538.3,644.8 L571.1,613.4 L611.0,587.4 L649.7,564.4 L680.9,540.5 L702.3,511.5 L716.0,475.0 L727.6,431.6 L743.2,384.5 L767.9,339.0 L803.6,300.2 L849.3,271.6 L902.0,254.4 L958.3,247.5 L1015.2,248.7 L1071.0,256.2 L1124.6,269.3 L1174.7,288.6 L1219.8,314.8 L1258.1,347.8 L1288.6,385.7 L1312.2,424.8 L1332.3,460.5 L1354.3,488.9 L1383.8,508.7 L1424.7,521.6 L1476.7,531.7 L1535.2,544.6 L1591.9,564.7 L1637.8,594.0 L1666.0,631.5 L1674.2,673.9 L1665.7,717.4 L1648.1,759.0 Z"/>
<path class="c" d="M1712.2,759.0 L1692.3,802.5 L1679.6,844.9 L1676.9,888.9 L1680.8,936.6 L1683.7,987.6 L1676.8,1038.8 L1653.3,1085.2 L1611.2,1121.6 L1553.4,1144.9 L1486.5,1155.1 L1418.0,1155.5 L1354.2,1151.4 L1297.9,1148.3 L1248.7,1149.7 L1204.2,1156.6 L1161.1,1167.6 L1117.1,1180.2 L1071.0,1192.3 L1022.4,1203.1 L970.9,1213.2 L915.4,1223.6 L854.8,1234.3 L788.7,1243.3 L719.0,1246.8 L650.1,1239.9 L588.7,1218.8 L541.8,1182.4 L514.1,1132.8 L506.0,1075.5 L512.9,1016.8 L526.0,962.3 L535.6,914.9 L534.4,874.0 L520.1,836.7 L496.5,799.2 L472.2,759.0 L457.0,716.0 L458.5,672.6 L479.2,632.1 L515.6,597.3 L559.9,568.3 L602.9,542.8 L637.6,516.2 L661.3,484.0 L676.6,443.5 L689.4,395.2 L706.8,342.9 L734.2,292.3 L773.8,249.2 L824.6,217.5 L883.2,198.4 L945.7,190.7 L1009.0,192.0 L1071.0,200.3 L1130.5,214.9 L1186.2,236.3 L1236.3,265.4 L1278.9,302.1 L1312.7,344.3 L1339.0,387.7 L1361.3,427.3 L1385.7,458.9 L1418.6,480.9 L1464.0,495.2 L1521.8,506.5 L1586.7,520.8 L1649.8,543.1 L1700.8,575.6 L1732.1,617.3 L1741.2,664.5 L1731.8,712.7 L1712.2,759.0 Z"/>
<path class="c" d="M1776.3,759.0 L1754.4,806.8 L1740.5,853.4 L1737.5,901.9 L1741.8,954.3 L1744.9,1010.4 L1737.3,1066.8 L1711.5,1117.8 L1665.2,1157.9 L1601.7,1183.5 L1528.0,1194.7 L1452.8,1195.2 L1382.5,1190.7 L1320.6,1187.2 L1266.5,1188.7 L1217.5,1196.3 L1170.1,1208.4 L1121.7,1222.3 L1071.0,1235.6 L1017.6,1247.5 L960.9,1258.6 L899.8,1270.1 L833.1,1281.8 L760.5,1291.8 L683.8,1295.6 L608.0,1288.0 L540.5,1264.8 L488.9,1224.7 L458.4,1170.2 L449.5,1107.1 L457.1,1042.6 L471.5,982.6 L482.1,930.5 L480.7,885.5 L465.0,844.5 L439.1,803.2 L412.3,759.0 L395.6,711.7 L397.2,664.0 L420.0,619.4 L460.0,581.1 L508.7,549.3 L556.1,521.2 L594.2,491.9 L620.4,456.5 L637.2,411.9 L651.3,358.8 L670.4,301.3 L700.5,245.7 L744.1,198.2 L800.0,163.3 L864.4,142.3 L933.2,133.8 L1002.8,135.3 L1071.0,144.4 L1136.5,160.5 L1197.7,184.0 L1252.9,216.0 L1299.7,256.4 L1336.9,302.8 L1365.8,350.6 L1390.3,394.1 L1417.2,428.9 L1453.3,453.1 L1503.3,468.8 L1566.9,481.2 L1638.3,497.0 L1707.7,521.5 L1763.8,557.3 L1798.2,603.1 L1808.2,655.0 L1797.9,708.1 L1776.3,759.0 Z"/>
<path class="ix" d="M1840.4,759.0 L1816.5,811.2 L1801.4,862.0 L1798.1,914.9 L1802.7,972.1 L1806.2,1033.3 L1797.9,1094.7 L1769.8,1150.4 L1719.3,1194.2 L1649.9,1222.1 L1569.6,1234.3 L1487.5,1234.8 L1410.8,1229.9 L1343.3,1226.1 L1284.3,1227.8 L1230.8,1236.1 L1179.1,1249.3 L1126.3,1264.4 L1071.0,1279.0 L1012.7,1291.9 L950.9,1304.1 L884.3,1316.5 L811.5,1329.3 L732.2,1340.2 L648.6,1344.4 L565.9,1336.1 L492.2,1310.8 L435.9,1267.1 L402.7,1207.6 L393.0,1138.8 L401.3,1068.3 L417.0,1003.0 L428.5,946.1 L427.0,897.0 L409.9,852.3 L381.6,807.2 L352.4,759.0 L334.2,707.4 L336.0,655.3 L360.8,606.8 L404.5,564.9 L457.6,530.2 L509.3,499.5 L550.9,467.6 L579.4,429.0 L597.7,380.4 L613.1,322.4 L634.0,259.7 L666.8,199.0 L714.4,147.2 L775.4,109.2 L845.7,86.2 L920.7,77.0 L996.6,78.6 L1071.0,88.6 L1142.4,106.1 L1209.3,131.7 L1269.4,166.7 L1320.4,210.7 L1361.1,261.3 L1392.6,313.4 L1419.4,361.0 L1448.7,398.9 L1488.1,425.3 L1542.6,442.4 L1611.9,456.0 L1689.9,473.1 L1765.6,499.9 L1826.8,538.9 L1864.3,588.9 L1875.3,645.5 L1864.0,703.5 L1840.4,759.0 Z"/>
<path class="c" d="M1904.6,759.0 L1878.7,815.5 L1862.2,870.6 L1858.7,927.8 L1863.7,989.8 L1867.5,1056.1 L1858.5,1122.7 L1828.0,1183.0 L1773.3,1230.4 L1698.1,1260.7 L1611.1,1274.0 L1522.2,1274.5 L1439.2,1269.2 L1366.0,1265.0 L1302.1,1266.8 L1244.1,1275.8 L1188.1,1290.2 L1130.9,1306.6 L1071.0,1322.3 L1007.9,1336.3 L940.9,1349.5 L868.7,1363.0 L789.9,1376.9 L704.0,1388.6 L613.4,1393.1 L523.8,1384.2 L444.0,1356.8 L383.0,1309.4 L347.0,1245.0 L336.5,1170.4 L345.4,1094.1 L362.5,1023.3 L375.0,961.7 L373.4,908.5 L354.8,860.0 L324.2,811.3 L292.6,759.0 L272.8,703.1 L274.7,646.7 L301.6,594.1 L348.9,548.7 L406.5,511.1 L462.4,477.9 L507.5,443.4 L538.4,401.5 L558.3,348.8 L575.0,286.1 L597.6,218.1 L633.2,152.3 L684.7,96.3 L750.7,55.0 L826.9,30.2 L908.2,20.1 L990.4,21.9 L1071.0,32.7 L1148.4,51.7 L1220.8,79.5 L1285.9,117.3 L1341.2,165.1 L1385.3,219.9 L1419.4,276.3 L1448.4,327.8 L1480.2,368.9 L1522.9,397.5 L1581.9,416.1 L1657.0,430.7 L1741.5,449.3 L1823.4,478.3 L1889.8,520.6 L1930.4,574.8 L1942.3,636.1 L1930.0,698.9 L1904.6,759.0 Z"/>
<path class="c" d="M1968.7,759.0 L1940.8,819.9 L1923.1,879.2 L1919.3,940.8 L1924.7,1007.6 L1928.7,1079.0 L1919.1,1150.7 L1886.2,1215.7 L1827.3,1266.7 L1746.4,1299.3 L1652.7,1313.6 L1556.9,1314.1 L1467.5,1308.4 L1388.7,1304.0 L1319.8,1305.9 L1257.4,1315.6 L1197.1,1331.0 L1135.5,1348.7 L1071.0,1365.6 L1003.0,1380.8 L930.8,1394.9 L853.1,1409.5 L768.3,1424.4 L675.8,1437.1 L578.1,1441.9 L481.7,1432.3 L395.8,1402.8 L330.1,1351.7 L291.3,1282.4 L280.0,1202.1 L289.6,1119.9 L308.0,1043.6 L321.4,977.3 L319.7,920.0 L299.7,867.8 L266.7,815.3 L232.7,759.0 L211.4,698.8 L213.5,638.0 L242.4,581.4 L293.4,532.6 L355.4,492.0 L415.6,456.3 L464.2,419.1 L497.5,374.0 L518.9,317.3 L536.8,249.7 L561.1,176.5 L599.5,105.7 L655.0,45.3 L726.1,0.9 L808.1,-25.9 L895.6,-36.7 L984.2,-34.8 L1071.0,-23.2 L1154.3,-2.8 L1232.3,27.2 L1302.5,68.0 L1362.0,119.4 L1409.4,178.4 L1446.1,239.2 L1477.4,294.6 L1511.6,338.9 L1557.6,369.7 L1621.2,389.7 L1702.1,405.5 L1793.0,425.5 L1881.3,456.7 L1952.7,502.3 L1996.6,560.6 L2009.3,626.6 L1996.1,694.2 L1968.7,759.0 Z"/>
<path class="c" d="M2032.8,759.0 L2002.9,824.2 L1984.0,887.8 L1979.8,953.8 L1985.7,1025.3 L1990.0,1101.8 L1979.6,1178.7 L1944.5,1248.3 L1881.3,1303.0 L1794.6,1337.9 L1694.2,1353.2 L1591.6,1353.8 L1495.8,1347.6 L1411.3,1342.9 L1337.6,1345.0 L1270.7,1355.3 L1206.1,1371.9 L1140.1,1390.8 L1071.0,1409.0 L998.1,1425.2 L920.8,1440.3 L837.6,1455.9 L746.6,1471.9 L647.5,1485.5 L542.9,1490.7 L439.6,1480.4 L347.5,1448.8 L277.2,1394.1 L235.6,1319.8 L223.5,1233.7 L233.8,1145.7 L253.5,1064.0 L267.9,992.8 L266.0,931.6 L244.6,875.6 L209.3,819.3 L172.8,759.0 L150.0,694.5 L152.2,629.4 L183.2,568.7 L237.8,516.4 L304.3,473.0 L368.8,434.7 L420.8,394.8 L456.5,346.5 L479.4,285.7 L498.6,213.3 L524.7,134.9 L565.8,59.0 L625.3,-5.7 L701.4,-53.3 L789.3,-82.0 L883.1,-93.5 L978.0,-91.5 L1071.0,-79.0 L1160.3,-57.2 L1243.8,-25.1 L1319.0,18.6 L1382.8,73.7 L1433.6,136.9 L1472.9,202.0 L1506.5,261.5 L1543.1,308.9 L1592.4,341.9 L1660.5,363.3 L1747.2,380.2 L1844.6,401.7 L1939.2,435.1 L2015.7,483.9 L2062.7,546.4 L2076.3,617.2 L2062.2,689.6 L2032.8,759.0 Z"/>
<text class="ct" x="1216" y="688" text-anchor="middle">8,000</text>
<text class="ct" x="1213" y="509" text-anchor="middle">7,400</text>
<text class="ct" x="966" y="250" text-anchor="middle">6,800</text>
<text class="ct" x="605" y="358" text-anchor="middle">6,200</text>
<text class="ct" x="174" y="585" text-anchor="middle">5,600</text>
<circle class="dot" cx="1071" cy="735" r="2.4"/>
<text class="pk" x="1071" y="755" text-anchor="middle">BEAR PEAK</text>
<text class="el" x="1071" y="776" text-anchor="middle">8,461&#8242;</text>
</svg>