<svg xmlns="http://www.w3.org/2000/svg" width="2000" height="1400" viewBox="0 0 2000 1400">
<style>
  .c  { fill:none; stroke:#2A1B11; stroke-opacity:0.07; stroke-width:1.1; }
  .ix { fill:none; stroke:#2A1B11; stroke-opacity:0.12; stroke-width:1.6; }
  .ct { font:500 10px 'IBM Plex Mono',ui-monospace,monospace; fill:#2A1B11; fill-opacity:0.32;
        stroke:#F4ECDB; stroke-width:3; paint-order:stroke; }
  .pk { font:600 11.5px 'Inter Tight','Helvetica Neue',sans-serif; letter-spacing:0.15em; fill:#2A1B11; fill-opacity:0.2; }
  .el { font:500 10.5px 'IBM Plex Mono',ui-monospace,monospace; fill:#9C6A33; fill-opacity:0.34; }
  .dot { fill:#2A1B11; fill-opacity:0.24; }
</style>
<path class="c" d="M1061.9,729.0 L1062.4,733.3 L1061.1,737.5 L1058.1,741.2 L1054.1,744.5 L1050.2,747.3 L1047.1,750.3 L1045.2,753.8 L1044.5,758.2 L1044.3,763.6 L1043.7,769.7 L1041.8,775.6 L1038.3,780.7 L1033.1,784.1 L1026.8,785.7 L1019.9,785.4 L1013.1,783.8 L1006.7,781.5 L1001.0,779.0 L995.8,776.6 L991.0,774.4 L986.5,772.2 L982.4,770.0 L978.5,767.7 L974.8,765.3 L971.0,763.2 L967.0,761.4 L962.3,760.0 L956.8,758.7 L950.9,757.1 L945.0,754.9 L940.0,751.7 L936.5,747.8 L934.9,743.2 L935.1,738.3 L936.3,733.5 L937.9,729.0 L938.8,724.6 L938.9,720.2 L938.3,715.6 L937.6,710.5 L937.8,705.4 L939.7,700.7 L943.7,696.9 L949.5,694.5 L956.6,693.5 L964.0,693.7 L970.7,694.4 L976.3,694.7 L980.7,694.2 L984.4,692.4 L987.8,689.6 L991.6,686.1 L995.9,682.7 L1001.0,679.8 L1006.6,677.8 L1012.5,676.7 L1018.6,676.4 L1024.8,676.8 L1030.9,677.8 L1036.8,679.4 L1042.2,682.0 L1046.7,685.4 L1049.9,689.8 L1051.8,694.9 L1052.5,700.2 L1052.4,705.3 L1052.4,709.8 L1053.1,713.8 L1054.7,717.5 L1057.2,721.1 L1059.9,724.9 L1061.9,729.0 Z"/>
<path class="c" d="M1122.7,729.0 L1123.8,737.6 L1121.1,745.9 L1115.1,753.5 L1107.2,759.9 L1099.3,765.7 L1093.1,771.6 L1089.5,778.6 L1088.1,787.4 L1087.6,798.3 L1086.3,810.4 L1082.6,822.2 L1075.6,832.3 L1065.2,839.2 L1052.6,842.3 L1038.8,841.8 L1025.2,838.6 L1012.5,834.0 L1001.0,829.0 L990.6,824.1 L981.0,819.7 L972.1,815.4 L963.7,811.0 L955.9,806.3 L948.5,801.7 L941.1,797.4 L933.0,793.9 L923.5,791.0 L912.6,788.3 L900.8,785.1 L889.1,780.7 L879.0,774.5 L872.1,766.5 L868.9,757.3 L869.1,747.6 L871.7,738.1 L874.7,729.0 L876.7,720.3 L876.9,711.5 L875.6,702.1 L874.2,692.1 L874.6,681.8 L878.4,672.4 L886.3,664.8 L898.1,659.9 L912.2,658.0 L926.9,658.4 L940.4,659.7 L951.6,660.5 L960.4,659.4 L967.7,655.9 L974.6,650.2 L982.1,643.3 L990.9,636.4 L1001.0,630.6 L1012.2,626.5 L1024.1,624.3 L1036.2,623.8 L1048.5,624.5 L1060.7,626.5 L1072.5,629.9 L1083.3,634.9 L1092.4,641.9 L1098.9,650.7 L1102.6,660.8 L1103.9,671.3 L1103.8,681.5 L1103.8,690.6 L1105.1,698.7 L1108.4,706.0 L1113.4,713.1 L1118.7,720.8 L1122.7,729.0 Z"/>
<path class="c" d="M1183.6,729.0 L1185.1,741.9 L1181.2,754.4 L1172.2,765.7 L1160.4,775.4 L1148.5,784.0 L1139.2,792.8 L1133.7,803.3 L1131.6,816.7 L1130.9,832.9 L1129.0,851.0 L1123.4,868.9 L1112.8,884.0 L1097.4,894.3 L1078.3,899.0 L1057.7,898.2 L1037.3,893.5 L1018.2,886.5 L1001.0,878.9 L985.4,871.7 L971.0,865.1 L957.6,858.6 L945.1,852.0 L933.4,845.0 L922.3,838.0 L911.1,831.7 L898.9,826.3 L884.8,822.0 L868.5,818.0 L850.7,813.2 L833.1,806.6 L818.1,797.2 L807.6,785.3 L802.8,771.5 L803.2,756.9 L807.0,742.6 L811.6,729.0 L814.5,715.9 L814.8,702.7 L812.9,688.7 L810.8,673.6 L811.4,658.3 L817.0,644.0 L829.0,632.6 L846.6,625.4 L867.9,622.5 L889.9,623.1 L910.1,625.1 L926.8,626.2 L940.2,624.6 L951.1,619.3 L961.4,610.8 L972.7,600.4 L985.8,590.0 L1001.0,581.3 L1017.8,575.3 L1035.6,572.0 L1053.9,571.1 L1072.3,572.3 L1090.6,575.3 L1108.3,580.3 L1124.5,587.9 L1138.0,598.3 L1147.8,611.5 L1153.4,626.7 L1155.4,642.5 L1155.3,657.8 L1155.2,671.5 L1157.2,683.5 L1162.1,694.5 L1169.6,705.2 L1177.6,716.6 L1183.6,729.0 Z"/>
<path class="ix" d="M1244.4,729.0 L1246.5,746.2 L1241.2,762.9 L1229.3,777.9 L1213.5,790.9 L1197.7,802.4 L1185.3,814.1 L1177.9,828.1 L1175.1,845.9 L1174.2,867.6 L1171.7,891.7 L1164.2,915.5 L1150.1,935.6 L1129.5,949.4 L1104.1,955.6 L1076.6,954.6 L1049.3,948.3 L1024.0,939.0 L1001.0,928.9 L980.2,919.3 L961.0,910.4 L943.1,901.8 L926.4,892.9 L910.9,883.7 L896.1,874.4 L881.2,865.9 L864.9,858.7 L846.1,852.9 L824.3,847.6 L800.5,841.3 L777.1,832.4 L757.1,820.0 L743.1,804.1 L736.7,785.6 L737.3,766.2 L742.3,747.1 L748.4,729.0 L752.4,711.6 L752.7,694.0 L750.2,675.2 L747.4,655.2 L748.2,634.7 L755.7,615.7 L771.6,600.5 L795.2,590.8 L823.5,587.0 L852.8,587.8 L879.7,590.5 L902.1,592.0 L919.9,589.8 L934.5,582.8 L948.2,571.4 L963.2,557.5 L980.7,543.7 L1001.0,532.1 L1023.4,524.0 L1047.1,519.6 L1071.5,518.5 L1096.1,520.1 L1120.5,524.0 L1144.1,530.8 L1165.7,540.8 L1183.7,554.8 L1196.8,572.4 L1204.2,592.6 L1206.8,613.7 L1206.7,634.0 L1206.6,652.3 L1209.2,668.4 L1215.8,682.9 L1225.8,697.3 L1236.4,712.5 L1244.4,729.0 Z"/>
<path class="c" d="M1305.3,729.0 L1307.9,750.5 L1301.3,771.4 L1286.3,790.2 L1266.6,806.3 L1246.9,820.7 L1231.3,835.4 L1222.2,852.9 L1218.7,875.1 L1217.5,902.2 L1214.3,932.4 L1205.0,962.1 L1187.4,987.3 L1161.6,1004.5 L1129.9,1012.3 L1095.5,1011.1 L1061.4,1003.1 L1029.7,991.5 L1001.0,978.9 L975.0,966.9 L951.0,955.8 L928.7,945.0 L907.8,933.9 L888.3,922.3 L869.8,910.7 L851.2,900.1 L830.9,891.2 L807.3,883.9 L780.1,877.3 L750.4,869.4 L721.2,858.3 L696.1,842.7 L678.7,822.9 L670.7,799.8 L671.4,775.5 L677.7,751.6 L685.3,729.0 L690.2,707.2 L690.7,685.2 L687.5,661.8 L684.0,636.7 L684.9,611.1 L694.4,587.4 L714.3,568.4 L743.7,556.3 L779.1,551.5 L815.8,552.4 L849.4,555.8 L877.4,557.7 L899.6,555.0 L917.8,546.2 L935.0,532.0 L953.8,514.7 L975.7,497.4 L1001.0,482.9 L1029.0,472.8 L1058.7,467.3 L1089.1,465.9 L1119.8,467.8 L1150.3,472.8 L1179.8,481.2 L1206.9,493.8 L1229.4,511.2 L1245.7,533.2 L1255.1,558.5 L1258.3,584.9 L1258.1,610.3 L1258.0,633.1 L1261.3,653.2 L1269.5,671.4 L1281.9,689.4 L1295.3,708.4 L1305.3,729.0 Z"/>
<path class="c" d="M1366.1,729.0 L1369.3,754.8 L1361.3,779.8 L1343.4,802.4 L1319.7,821.8 L1296.0,839.1 L1277.4,856.7 L1266.4,877.7 L1262.2,904.3 L1260.8,936.9 L1257.0,973.1 L1245.8,1008.7 L1224.7,1038.9 L1193.7,1059.7 L1155.7,1068.9 L1114.4,1067.5 L1073.5,1057.9 L1035.4,1044.0 L1001.0,1028.9 L969.8,1014.4 L941.0,1001.1 L914.2,988.2 L889.1,974.9 L865.8,961.0 L843.6,947.1 L821.3,934.3 L796.9,923.6 L768.6,914.9 L735.9,906.9 L700.3,897.4 L665.2,884.1 L635.1,865.5 L614.2,841.6 L604.6,814.0 L605.4,784.8 L613.0,756.2 L622.1,729.0 L628.1,702.9 L628.6,676.5 L624.8,648.3 L620.6,618.2 L621.7,587.5 L633.1,559.1 L657.0,536.3 L692.2,521.7 L734.7,516.0 L778.8,517.1 L819.1,521.2 L852.7,523.5 L879.3,520.2 L901.2,509.6 L921.8,492.6 L944.3,471.8 L970.6,451.1 L1001.0,433.7 L1034.6,421.5 L1070.2,415.0 L1106.7,413.3 L1143.6,415.6 L1180.2,421.6 L1215.6,431.6 L1248.0,446.8 L1275.1,467.7 L1294.7,494.1 L1305.9,524.3 L1309.8,556.0 L1309.5,586.5 L1309.4,613.9 L1313.3,638.1 L1323.3,659.9 L1338.1,681.4 L1354.2,704.3 L1366.1,729.0 Z"/>
<path class="c" d="M1427.0,729.0 L1430.6,759.1 L1421.4,788.3 L1400.5,814.6 L1372.9,837.3 L1345.2,857.4 L1323.5,877.9 L1310.6,902.5 L1305.7,933.5 L1304.1,971.5 L1299.7,1013.8 L1286.6,1055.4 L1262.0,1090.6 L1225.9,1114.8 L1181.4,1125.6 L1133.3,1123.9 L1085.6,1112.8 L1041.2,1096.5 L1001.0,1078.8 L964.6,1062.0 L931.0,1046.5 L899.7,1031.4 L870.5,1015.9 L843.2,999.7 L817.4,983.4 L791.3,968.5 L762.8,956.1 L729.9,945.9 L691.8,936.6 L650.2,925.5 L609.2,910.0 L574.1,888.2 L549.8,860.4 L538.5,828.1 L539.5,794.1 L548.3,760.7 L559.0,729.0 L565.9,698.5 L566.6,667.7 L562.1,634.9 L557.2,599.8 L558.5,563.9 L571.8,530.7 L599.6,504.2 L640.8,487.2 L690.4,480.5 L741.7,481.8 L788.8,486.5 L828.0,489.2 L859.0,485.4 L884.6,473.1 L908.6,453.1 L934.9,428.9 L965.5,404.7 L1001.0,384.4 L1040.2,370.3 L1081.8,362.6 L1124.4,360.7 L1167.3,363.4 L1210.1,370.3 L1251.4,382.1 L1289.2,399.7 L1320.8,424.1 L1343.6,454.9 L1356.7,490.2 L1361.2,527.2 L1360.9,562.8 L1360.8,594.8 L1365.4,622.9 L1377.0,648.4 L1394.3,673.5 L1413.0,700.2 L1427.0,729.0 Z"/>
<path class="ix" d="M1487.8,729.0 L1492.0,763.4 L1481.4,796.8 L1457.5,826.9 L1426.0,852.7 L1394.4,875.7 L1369.5,899.2 L1354.9,927.2 L1349.2,962.8 L1347.4,1006.2 L1342.3,1054.4 L1327.5,1102.0 L1299.2,1142.3 L1258.0,1169.9 L1207.2,1182.3 L1152.2,1180.3 L1097.7,1167.6 L1046.9,1149.0 L1001.0,1128.8 L959.4,1109.6 L921.0,1091.8 L885.2,1074.6 L851.8,1056.9 L820.7,1038.3 L791.1,1019.8 L761.4,1002.8 L728.8,988.5 L691.1,976.9 L647.6,966.2 L600.1,953.6 L553.3,935.8 L513.2,911.0 L485.3,879.2 L472.5,842.3 L473.6,803.4 L483.7,765.2 L495.8,729.0 L503.8,694.2 L504.5,659.0 L499.3,621.5 L493.8,581.3 L495.3,540.4 L510.4,502.4 L542.3,472.0 L589.3,452.7 L646.0,445.0 L704.7,446.5 L758.5,451.9 L803.2,455.0 L838.7,450.6 L867.9,436.5 L895.4,413.7 L925.4,386.0 L960.5,358.4 L1001.0,335.2 L1045.8,319.0 L1093.3,310.3 L1142.0,308.1 L1191.1,311.1 L1239.9,319.1 L1287.1,332.5 L1330.4,352.7 L1366.5,380.6 L1392.6,415.7 L1407.5,456.1 L1412.7,498.4 L1412.4,539.0 L1412.2,575.6 L1417.5,607.7 L1430.7,636.9 L1450.5,665.6 L1471.9,696.0 L1487.8,729.0 Z"/>
<path class="c" d="M1548.7,729.0 L1553.4,767.7 L1541.5,805.2 L1514.6,839.1 L1479.1,868.2 L1443.5,894.1 L1415.6,920.5 L1399.1,952.0 L1392.8,992.0 L1390.8,1040.8 L1385.0,1095.1 L1368.3,1148.6 L1336.5,1193.9 L1290.1,1225.0 L1233.0,1238.9 L1171.0,1236.7 L1109.8,1222.4 L1052.7,1201.5 L1001.0,1178.8 L954.2,1157.2 L911.0,1137.2 L870.8,1117.8 L833.2,1097.9 L798.2,1077.0 L764.9,1056.1 L731.4,1037.0 L694.8,1020.9 L652.4,1007.9 L603.4,995.9 L550.0,981.6 L497.3,961.7 L452.2,933.7 L420.8,897.9 L406.4,856.5 L407.6,812.7 L419.0,769.7 L432.7,729.0 L441.6,689.8 L442.4,650.2 L436.6,608.0 L430.4,562.9 L432.1,516.8 L449.1,474.1 L484.9,439.9 L537.9,418.1 L601.6,409.5 L667.7,411.2 L728.2,417.3 L778.5,420.7 L818.5,415.8 L851.3,400.0 L882.2,374.3 L916.0,343.2 L955.4,312.1 L1001.0,286.0 L1051.4,267.8 L1104.8,257.9 L1159.6,255.4 L1214.9,258.9 L1269.8,267.8 L1322.9,282.9 L1371.5,305.7 L1412.1,337.0 L1441.5,376.6 L1458.3,422.0 L1464.2,469.6 L1463.8,515.3 L1463.6,556.4 L1469.5,592.6 L1484.4,625.4 L1506.7,657.7 L1530.7,691.9 L1548.7,729.0 Z"/>
<path class="c" d="M1609.5,729.0 L1614.8,772.0 L1601.5,813.7 L1571.7,851.3 L1532.2,883.7 L1492.7,912.4 L1461.7,941.8 L1443.3,976.8 L1436.3,1021.2 L1434.1,1075.4 L1427.7,1135.8 L1409.1,1195.2 L1373.8,1245.6 L1322.2,1280.1 L1258.8,1295.6 L1189.9,1293.1 L1121.8,1277.2 L1058.4,1254.0 L1001.0,1228.8 L949.0,1204.7 L901.0,1182.5 L856.3,1161.0 L814.5,1138.8 L775.6,1115.6 L738.7,1092.5 L701.5,1071.2 L660.8,1053.4 L613.7,1038.9 L559.2,1025.6 L499.9,1009.7 L441.3,987.5 L391.2,956.5 L356.4,916.7 L340.4,870.6 L341.7,822.0 L354.3,774.3 L369.5,729.0 L379.5,685.5 L380.4,641.5 L373.9,594.6 L367.0,544.4 L368.9,493.2 L387.8,445.8 L427.6,407.8 L486.4,383.6 L557.2,374.0 L630.6,375.9 L697.8,382.6 L753.8,386.5 L798.2,381.0 L834.7,363.4 L869.0,334.9 L906.5,300.3 L950.3,265.8 L1001.0,236.8 L1057.0,216.5 L1116.4,205.6 L1177.2,202.8 L1238.6,206.7 L1299.7,216.6 L1358.7,233.4 L1412.7,258.6 L1457.8,293.5 L1490.5,337.4 L1509.1,387.9 L1515.6,440.7 L1515.2,491.5 L1515.0,537.2 L1521.6,577.4 L1538.1,613.9 L1562.9,649.7 L1589.6,687.8 L1609.5,729.0 Z"/>
<path class="c" d="M1670.4,729.0 L1676.1,776.3 L1661.6,822.2 L1628.8,863.6 L1585.3,899.1 L1541.9,930.8 L1507.7,963.1 L1487.6,1001.6 L1479.8,1050.4 L1477.4,1110.1 L1470.3,1176.5 L1449.9,1241.9 L1411.1,1297.2 L1354.3,1335.2 L1284.6,1352.2 L1208.8,1349.5 L1133.9,1332.1 L1064.2,1306.5 L1001.0,1278.8 L943.8,1252.3 L891.0,1227.9 L841.8,1204.2 L795.9,1179.8 L753.1,1154.3 L712.5,1128.8 L671.5,1105.4 L626.8,1085.8 L574.9,1069.9 L515.1,1055.2 L449.8,1037.8 L385.4,1013.4 L330.2,979.2 L291.9,935.5 L274.3,884.8 L275.8,831.3 L289.7,778.8 L306.4,729.0 L317.3,681.1 L318.3,632.7 L311.2,581.1 L303.6,525.9 L305.7,469.6 L326.5,417.5 L370.3,375.7 L435.0,349.0 L512.9,338.5 L593.6,340.6 L667.5,348.0 L729.1,352.2 L777.9,346.2 L818.0,326.8 L855.8,295.5 L897.1,257.4 L945.3,219.4 L1001.0,187.6 L1062.6,165.3 L1127.9,153.3 L1194.9,150.2 L1262.4,154.4 L1329.5,165.4 L1394.5,183.8 L1453.9,211.6 L1503.5,249.9 L1539.4,298.3 L1559.9,353.8 L1567.1,411.9 L1566.6,467.8 L1566.4,518.1 L1573.6,562.3 L1591.8,602.4 L1619.1,641.8 L1648.5,683.7 L1670.4,729.0 Z"/>
<path class="ix" d="M1731.2,729.0 L1737.5,780.5 L1721.6,830.7 L1685.8,875.8 L1638.5,914.6 L1591.1,949.1 L1553.8,984.3 L1531.8,1026.3 L1523.4,1079.7 L1520.7,1144.7 L1513.0,1217.2 L1490.7,1288.5 L1448.4,1348.9 L1386.5,1390.3 L1310.3,1408.9 L1227.7,1405.9 L1146.0,1386.9 L1069.9,1359.0 L1001.0,1328.7 L938.6,1299.9 L881.0,1273.2 L827.4,1247.4 L777.2,1220.8 L730.6,1193.0 L686.2,1165.2 L641.6,1139.7 L592.7,1118.2 L536.2,1100.8 L470.9,1084.9 L399.6,1065.9 L329.4,1039.2 L269.2,1002.0 L227.4,954.2 L208.2,898.9 L209.9,840.6 L225.0,783.3 L243.2,729.0 L255.2,676.8 L256.2,623.9 L248.5,567.7 L240.2,507.5 L242.5,446.0 L265.2,389.1 L312.9,343.6 L383.5,314.5 L468.5,303.0 L556.5,305.3 L637.2,313.4 L704.4,318.0 L757.6,311.4 L801.4,290.3 L842.6,256.1 L887.6,214.6 L940.2,173.1 L1001.0,138.3 L1068.3,114.0 L1139.4,100.9 L1212.5,97.6 L1286.2,102.2 L1359.4,114.1 L1430.2,134.3 L1495.1,164.5 L1549.2,206.3 L1588.4,259.1 L1610.7,319.7 L1618.5,383.1 L1618.0,444.0 L1617.8,498.9 L1625.7,547.1 L1645.5,590.8 L1675.3,633.9 L1707.3,679.6 L1731.2,729.0 Z"/>
<path class="c" d="M1792.1,729.0 L1798.9,784.8 L1781.7,839.1 L1742.9,888.0 L1691.6,930.1 L1640.2,967.5 L1599.9,1005.6 L1576.1,1051.1 L1566.9,1108.9 L1564.0,1179.4 L1555.7,1257.8 L1531.5,1335.1 L1485.6,1400.5 L1418.6,1445.4 L1336.1,1465.6 L1246.6,1462.4 L1158.1,1441.7 L1075.6,1411.5 L1001.0,1378.7 L933.4,1347.5 L871.1,1318.6 L812.9,1290.6 L758.6,1261.8 L708.0,1231.6 L660.0,1201.5 L611.6,1173.9 L558.7,1150.7 L497.5,1131.8 L426.7,1114.5 L349.5,1093.9 L273.4,1065.1 L208.3,1024.7 L163.0,973.0 L142.2,913.1 L143.9,849.9 L160.3,787.8 L180.1,729.0 L193.0,672.4 L194.2,615.2 L185.8,554.3 L176.8,489.0 L179.3,422.5 L203.8,360.8 L255.6,311.4 L332.0,279.9 L424.1,267.5 L519.5,269.9 L606.9,278.7 L679.6,283.7 L737.3,276.6 L784.8,253.7 L829.4,216.7 L878.2,171.7 L935.1,126.8 L1001.0,89.1 L1073.9,62.8 L1151.0,48.6 L1230.1,45.0 L1309.9,50.0 L1389.3,62.9 L1466.0,84.7 L1536.2,117.5 L1594.9,162.8 L1637.3,219.9 L1661.6,285.6 L1670.0,354.2 L1669.5,420.3 L1669.2,479.7 L1677.8,531.9 L1699.2,579.3 L1731.4,626.0 L1766.2,675.4 L1792.1,729.0 Z"/>
<path class="c" d="M1852.9,729.0 L1860.3,789.1 L1841.7,847.6 L1800.0,900.3 L1744.7,945.6 L1689.4,985.8 L1645.9,1026.9 L1620.3,1075.9 L1610.4,1138.1 L1607.3,1214.0 L1598.3,1298.5 L1572.3,1381.7 L1522.9,1452.2 L1450.7,1500.5 L1361.9,1522.2 L1265.5,1518.8 L1170.2,1496.5 L1081.4,1464.0 L1001.0,1428.7 L928.2,1395.0 L861.1,1363.9 L798.4,1333.8 L740.0,1302.8 L685.5,1270.3 L633.8,1237.9 L581.7,1208.1 L524.7,1183.1 L458.7,1162.8 L382.5,1144.2 L299.4,1122.0 L217.5,1090.9 L147.3,1047.5 L98.5,991.8 L76.1,927.3 L78.0,859.2 L95.6,792.4 L116.9,729.0 L130.9,668.1 L132.1,606.4 L123.1,540.8 L113.4,470.6 L116.1,398.9 L142.5,332.5 L198.2,279.3 L280.6,245.4 L379.7,232.0 L482.5,234.6 L576.6,244.1 L654.9,249.5 L717.0,241.8 L768.1,217.2 L816.2,177.3 L868.7,128.8 L930.1,80.5 L1001.0,39.9 L1079.5,11.5 L1162.5,-3.8 L1247.7,-7.7 L1333.7,-2.3 L1419.1,11.6 L1501.8,35.1 L1577.4,70.5 L1640.6,119.2 L1686.3,180.8 L1712.4,251.5 L1721.5,325.4 L1720.9,396.5 L1720.6,460.5 L1729.8,516.8 L1752.9,567.8 L1787.6,618.0 L1825.0,671.3 L1852.9,729.0 Z"/>
<path class="c" d="M1913.8,729.0 L1921.6,793.4 L1901.8,856.1 L1857.0,912.5 L1797.8,961.0 L1738.6,1004.2 L1692.0,1048.2 L1664.5,1100.7 L1654.0,1167.3 L1650.6,1248.7 L1641.0,1339.2 L1613.1,1428.3 L1560.2,1503.9 L1482.8,1555.6 L1387.7,1578.9 L1284.4,1575.2 L1182.3,1551.4 L1087.1,1516.5 L1001.0,1478.7 L923.0,1442.6 L851.1,1409.3 L784.0,1377.0 L721.3,1343.8 L662.9,1309.0 L607.5,1274.2 L551.7,1242.3 L490.7,1215.6 L420.0,1193.8 L338.3,1173.8 L249.3,1150.1 L161.5,1116.8 L86.3,1070.2 L34.0,1010.6 L10.0,941.4 L12.1,868.5 L31.0,796.9 L53.8,729.0 L68.7,663.7 L70.1,597.7 L60.4,527.4 L50.0,452.1 L52.8,375.3 L81.2,304.2 L140.9,247.2 L229.1,210.8 L335.4,196.5 L445.4,199.3 L546.3,209.4 L630.2,215.2 L696.8,207.1 L751.5,180.6 L803.0,137.9 L859.3,86.0 L925.0,34.2 L1001.0,-9.3 L1085.1,-39.7 L1174.0,-56.1 L1265.4,-60.3 L1357.5,-54.5 L1449.0,-39.6 L1537.5,-14.4 L1618.6,23.4 L1686.2,75.7 L1735.2,141.6 L1763.2,217.4 L1772.9,296.6 L1772.3,372.8 L1772.0,441.4 L1781.9,501.6 L1806.6,556.3 L1843.8,610.1 L1883.9,667.2 L1913.8,729.0 Z"/>
<text class="ct" x="915" y="837" text-anchor="middle">6,400</text>
<text class="ct" x="1002" y="1032" text-anchor="middle">5,800</text>
<text class="ct" x="1361" y="1165" text-anchor="middle">5,200</text>
<text class="ct" x="1610" y="938" text-anchor="middle">4,600</text>
<text class="ct" x="1840" y="608" text-anchor="middle">4,000</text>
<circle class="dot" cx="1001" cy="705" r="2.4"/>
<text class="pk" x="1001" y="725" text-anchor="middle">FLAGSTAFF MOUNTAIN</text>
<text class="el" x="1001" y="746" text-anchor="middle">6,983&#8242;</text>
</svg>