<svg xmlns="http://www.w3.org/2000/svg" width="1200" height="900" viewBox="0 0 1200 900">
<style>
  .c  { fill:none; stroke:#2A1B11; stroke-opacity:0.07; stroke-width:1.1; }
  .ix { fill:none; stroke:#2A1B11; stroke-opacity:0.12; stroke-width:1.6; }
  .ct { font:500 10px 'IBM Plex Mono',ui-monospace,monospace; fill:#2A1B11; fill-opacity:0.32;
        stroke:#F4ECDB; stroke-width:3; paint-order:stroke; }
  .pk { font:600 11.5px 'Inter Tight','Helvetica Neue',sans-serif; letter-spacing:0.15em; fill:#2A1B11; fill-opacity:0.2; }
  .el { font:500 10.5px 'IBM Plex Mono',ui-monospace,monospace; fill:#9C6A33; fill-opacity:0.34; }
  .dot { fill:#2A1B11; fill-opacity:0.24; }
</style>
<path class="c" d="M586.1,369.0 L586.5,372.2 L585.6,375.3 L583.3,378.1 L580.4,380.5 L577.5,382.6 L575.2,384.8 L573.8,387.4 L573.3,390.7 L573.1,394.7 L572.7,399.2 L571.3,403.6 L568.7,407.3 L564.8,409.9 L560.1,411.0 L555.0,410.9 L550.0,409.7 L545.3,408.0 L541.0,406.1 L537.1,404.3 L533.6,402.6 L530.3,401.1 L527.2,399.4 L524.3,397.7 L521.5,396.0 L518.8,394.4 L515.8,393.1 L512.3,392.0 L508.2,391.0 L503.8,389.8 L499.5,388.2 L495.8,385.9 L493.2,382.9 L492.0,379.5 L492.1,375.9 L493.0,372.4 L494.1,369.0 L494.9,365.8 L495.0,362.5 L494.5,359.0 L494.0,355.3 L494.1,351.5 L495.5,348.0 L498.5,345.2 L502.8,343.4 L508.1,342.7 L513.5,342.8 L518.5,343.3 L522.7,343.6 L526.0,343.2 L528.7,341.9 L531.2,339.8 L534.0,337.2 L537.2,334.6 L541.0,332.5 L545.2,331.0 L549.6,330.2 L554.1,330.0 L558.6,330.2 L563.2,331.0 L567.5,332.2 L571.5,334.1 L574.9,336.7 L577.3,339.9 L578.7,343.7 L579.2,347.6 L579.2,351.4 L579.1,354.8 L579.6,357.8 L580.8,360.5 L582.7,363.1 L584.7,365.9 L586.1,369.0 Z"/>
<path class="c" d="M631.3,369.0 L632.1,375.4 L630.1,381.6 L625.7,387.2 L619.8,392.0 L614.0,396.2 L609.4,400.6 L606.6,405.8 L605.6,412.4 L605.3,420.4 L604.3,429.4 L601.6,438.2 L596.3,445.7 L588.7,450.8 L579.3,453.1 L569.0,452.7 L558.9,450.4 L549.5,446.9 L541.0,443.2 L533.3,439.6 L526.2,436.3 L519.5,433.1 L513.3,429.8 L507.6,426.4 L502.1,422.9 L496.6,419.8 L490.5,417.1 L483.5,415.0 L475.4,413.0 L466.6,410.7 L458.0,407.4 L450.5,402.8 L445.3,396.9 L443.0,390.0 L443.2,382.8 L445.0,375.7 L447.3,369.0 L448.8,362.5 L448.9,356.0 L448.0,349.1 L446.9,341.6 L447.2,334.0 L450.0,327.0 L455.9,321.3 L464.6,317.7 L475.2,316.3 L486.0,316.6 L496.0,317.6 L504.3,318.2 L510.9,317.4 L516.3,314.8 L521.4,310.5 L527.0,305.4 L533.5,300.3 L541.0,296.0 L549.3,293.0 L558.1,291.3 L567.2,290.9 L576.3,291.5 L585.3,293.0 L594.1,295.5 L602.1,299.2 L608.8,304.4 L613.6,310.9 L616.4,318.4 L617.4,326.2 L617.3,333.8 L617.3,340.5 L618.2,346.5 L620.7,351.9 L624.4,357.2 L628.3,362.9 L631.3,369.0 Z"/>
<path class="c" d="M676.4,369.0 L677.6,378.6 L674.7,387.9 L668.0,396.2 L659.2,403.4 L650.4,409.8 L643.5,416.4 L639.5,424.2 L637.9,434.0 L637.4,446.1 L636.0,459.5 L631.8,472.8 L624.0,484.0 L612.5,491.7 L598.4,495.1 L583.1,494.6 L567.9,491.0 L553.8,485.9 L541.0,480.2 L529.4,474.9 L518.8,469.9 L508.8,465.2 L499.5,460.2 L490.8,455.1 L482.6,449.9 L474.3,445.2 L465.3,441.2 L454.8,438.0 L442.7,435.0 L429.5,431.5 L416.4,426.5 L405.3,419.6 L397.5,410.8 L394.0,400.5 L394.3,389.7 L397.1,379.1 L400.4,369.0 L402.7,359.3 L402.9,349.5 L401.4,339.1 L399.9,327.9 L400.3,316.5 L404.5,306.0 L413.4,297.5 L426.5,292.1 L442.2,290.0 L458.6,290.4 L473.5,291.9 L486.0,292.8 L495.9,291.5 L504.0,287.6 L511.6,281.3 L520.0,273.6 L529.7,265.9 L541.0,259.4 L553.5,254.9 L566.7,252.5 L580.2,251.9 L593.9,252.7 L607.5,254.9 L620.6,258.7 L632.6,264.3 L642.7,272.1 L649.9,281.8 L654.1,293.1 L655.5,304.8 L655.5,316.1 L655.4,326.3 L656.9,335.3 L660.5,343.4 L666.1,351.4 L672.0,359.8 L676.4,369.0 Z"/>
<path class="ix" d="M721.6,369.0 L723.1,381.7 L719.2,394.1 L710.4,405.3 L698.7,414.9 L686.9,423.4 L677.7,432.1 L672.3,442.5 L670.2,455.7 L669.5,471.8 L667.6,489.7 L662.1,507.4 L651.6,522.3 L636.3,532.5 L617.5,537.1 L597.1,536.4 L576.9,531.7 L558.0,524.8 L541.0,517.3 L525.6,510.2 L511.3,503.6 L498.1,497.2 L485.7,490.6 L474.1,483.7 L463.2,476.9 L452.1,470.6 L440.0,465.3 L426.0,461.0 L409.9,457.0 L392.3,452.3 L374.9,445.7 L360.0,436.5 L349.7,424.7 L344.9,411.0 L345.3,396.6 L349.1,382.4 L353.6,369.0 L356.5,356.1 L356.8,343.0 L354.9,329.1 L352.8,314.2 L353.4,299.0 L359.0,284.9 L370.8,273.7 L388.3,266.5 L409.3,263.6 L431.1,264.2 L451.0,266.2 L467.6,267.3 L480.8,265.7 L491.6,260.5 L501.8,252.0 L513.0,241.8 L526.0,231.5 L541.0,222.9 L557.6,216.9 L575.2,213.7 L593.3,212.8 L611.5,214.0 L629.6,216.9 L647.2,221.9 L663.2,229.4 L676.6,239.7 L686.3,252.8 L691.8,267.8 L693.7,283.4 L693.6,298.5 L693.5,312.1 L695.5,324.0 L700.4,334.8 L707.8,345.5 L715.7,356.8 L721.6,369.0 Z"/>
<path class="c" d="M766.7,369.0 L768.7,384.9 L763.8,400.4 L752.7,414.4 L738.1,426.4 L723.4,437.0 L711.9,447.9 L705.1,460.9 L702.5,477.4 L701.7,497.5 L699.3,519.9 L692.4,542.0 L679.3,560.6 L660.2,573.4 L636.6,579.2 L611.1,578.3 L585.8,572.4 L562.3,563.8 L541.0,554.4 L521.7,545.5 L503.9,537.2 L487.3,529.3 L471.8,521.0 L457.4,512.4 L443.7,503.8 L429.9,495.9 L414.8,489.3 L397.3,484.0 L377.1,479.0 L355.1,473.1 L333.4,464.9 L314.8,453.4 L301.9,438.6 L295.9,421.5 L296.4,403.5 L301.1,385.8 L306.7,369.0 L310.4,352.9 L310.8,336.5 L308.4,319.1 L305.8,300.5 L306.5,281.5 L313.5,263.9 L328.3,249.8 L350.1,240.9 L376.4,237.3 L403.6,238.0 L428.5,240.5 L449.3,241.9 L465.8,239.9 L479.3,233.4 L492.0,222.8 L505.9,210.0 L522.2,197.2 L541.0,186.4 L561.8,178.9 L583.8,174.8 L606.4,173.8 L629.2,175.2 L651.8,178.9 L673.7,185.1 L693.7,194.5 L710.5,207.4 L722.6,223.7 L729.5,242.5 L731.9,262.1 L731.8,280.9 L731.7,297.9 L734.1,312.8 L740.2,326.3 L749.4,339.6 L759.4,353.7 L766.7,369.0 Z"/>
<path class="c" d="M811.9,369.0 L814.2,388.1 L808.3,406.7 L795.0,423.5 L777.5,437.9 L759.9,450.7 L746.1,463.7 L737.9,479.3 L734.8,499.1 L733.8,523.2 L730.9,550.1 L722.7,576.5 L707.0,599.0 L684.0,614.3 L655.8,621.2 L625.1,620.1 L594.8,613.1 L566.6,602.7 L541.0,591.5 L517.8,580.8 L496.5,570.9 L476.6,561.3 L458.0,551.4 L440.7,541.1 L424.2,530.8 L407.7,521.3 L389.5,513.4 L368.6,506.9 L344.3,501.0 L317.9,494.0 L291.9,484.1 L269.5,470.3 L254.0,452.6 L246.9,432.0 L247.5,410.4 L253.1,389.1 L259.9,369.0 L264.3,349.6 L264.7,330.0 L261.9,309.2 L258.8,286.8 L259.6,264.0 L268.0,242.9 L285.7,226.0 L311.9,215.2 L343.5,211.0 L376.1,211.8 L406.0,214.8 L431.0,216.5 L450.7,214.1 L467.0,206.3 L482.2,193.6 L498.9,178.2 L518.4,162.8 L541.0,149.9 L565.9,140.9 L592.4,136.0 L619.5,134.8 L646.8,136.5 L674.0,140.9 L700.2,148.4 L724.3,159.6 L744.4,175.1 L758.9,194.7 L767.2,217.2 L770.1,240.7 L769.9,263.3 L769.8,283.6 L772.7,301.5 L780.1,317.7 L791.1,333.7 L803.0,350.7 L811.9,369.0 Z"/>
<path class="c" d="M857.0,369.0 L859.8,391.3 L852.9,413.0 L837.4,432.5 L816.9,449.3 L796.4,464.3 L780.2,479.5 L770.7,497.7 L767.1,520.8 L765.9,548.9 L762.6,580.3 L752.9,611.1 L734.6,637.3 L707.8,655.2 L674.9,663.3 L639.1,662.0 L603.8,653.7 L570.8,641.7 L541.0,628.6 L514.0,616.1 L489.1,604.5 L465.9,593.4 L444.2,581.9 L424.0,569.8 L404.8,557.8 L385.4,546.7 L364.3,537.5 L339.8,529.9 L311.6,523.0 L280.7,514.8 L250.3,503.3 L224.3,487.1 L206.2,466.5 L197.9,442.5 L198.6,417.3 L205.1,392.5 L213.0,369.0 L218.2,346.4 L218.7,323.5 L215.3,299.2 L211.7,273.1 L212.7,246.5 L222.5,221.9 L243.2,202.2 L273.7,189.6 L310.5,184.6 L348.6,185.6 L383.6,189.1 L412.6,191.1 L435.7,188.3 L454.6,179.1 L472.4,164.3 L491.9,146.4 L514.7,128.4 L541.0,113.4 L570.1,102.8 L600.9,97.2 L632.5,95.7 L664.4,97.7 L696.1,102.9 L726.8,111.6 L754.8,124.7 L778.3,142.8 L795.2,165.6 L804.9,191.9 L808.3,219.3 L808.1,245.7 L808.0,269.4 L811.4,290.3 L819.9,309.2 L832.8,327.8 L846.7,347.6 L857.0,369.0 Z"/>
<path class="ix" d="M902.2,369.0 L905.3,394.5 L897.4,419.3 L879.7,441.6 L856.3,460.8 L832.9,477.9 L814.4,495.3 L803.6,516.1 L799.4,542.4 L798.0,574.6 L794.3,610.5 L783.2,645.7 L762.3,675.6 L731.7,696.1 L694.0,705.3 L653.1,703.8 L612.7,694.4 L575.1,680.6 L541.0,665.6 L510.1,651.4 L481.7,638.2 L455.1,625.4 L430.3,612.3 L407.2,598.5 L385.3,584.7 L363.2,572.1 L339.1,561.5 L311.1,552.9 L278.8,545.0 L243.6,535.6 L208.8,522.4 L179.1,504.0 L158.4,480.4 L148.9,453.1 L149.7,424.2 L157.2,395.9 L166.2,369.0 L172.1,343.2 L172.6,317.0 L168.8,289.2 L164.7,259.4 L165.8,229.0 L177.0,200.9 L200.7,178.4 L235.6,164.0 L277.6,158.3 L321.2,159.4 L361.1,163.4 L394.3,165.7 L420.6,162.5 L442.3,152.0 L462.7,135.1 L484.9,114.5 L510.9,94.1 L541.0,76.8 L574.3,64.8 L609.5,58.3 L645.6,56.7 L682.1,59.0 L718.3,64.9 L753.3,74.8 L785.4,89.8 L812.2,110.5 L831.5,136.6 L842.6,166.5 L846.5,197.9 L846.2,228.0 L846.1,255.2 L850.0,279.0 L859.8,300.7 L874.5,322.0 L890.4,344.5 L902.2,369.0 Z"/>
<path class="c" d="M947.3,369.0 L950.8,397.7 L942.0,425.6 L922.1,450.7 L895.7,472.3 L869.3,491.5 L848.6,511.1 L836.4,534.5 L831.7,564.1 L830.2,600.3 L825.9,640.6 L813.5,680.3 L789.9,713.9 L755.5,737.0 L713.1,747.3 L667.2,745.7 L621.7,735.1 L579.3,719.6 L541.0,702.7 L506.3,686.7 L474.3,671.8 L444.4,657.5 L416.5,642.7 L390.5,627.2 L365.8,611.7 L341.0,597.5 L313.8,585.6 L282.4,575.9 L246.0,567.0 L206.4,556.4 L167.3,541.6 L133.8,520.9 L110.5,494.3 L99.9,463.6 L100.8,431.1 L109.2,399.2 L119.3,369.0 L126.0,340.0 L126.6,310.5 L122.3,279.2 L117.7,245.7 L118.9,211.5 L131.5,179.9 L158.1,154.5 L197.4,138.3 L244.7,132.0 L293.7,133.2 L338.6,137.7 L375.9,140.3 L405.6,136.6 L429.9,124.9 L452.9,105.9 L477.9,82.7 L507.2,59.7 L541.0,40.3 L578.4,26.8 L618.0,19.5 L658.7,17.6 L699.7,20.2 L740.4,26.8 L779.8,38.1 L815.9,54.9 L846.0,78.2 L867.8,107.5 L880.3,141.2 L884.6,176.5 L884.4,210.4 L884.2,241.0 L888.6,267.8 L899.6,292.1 L916.2,316.1 L934.0,341.5 L947.3,369.0 Z"/>
<text class="ct" x="626" y="389" text-anchor="middle">6,600</text>
<text class="ct" x="440" y="268" text-anchor="middle">6,200</text>
<text class="ct" x="542" y="595" text-anchor="middle">5,800</text>
<text class="ct" x="800" y="103" text-anchor="middle">5,400</text>
<circle class="dot" cx="541" cy="345" r="2.4"/>
<text class="pk" x="541" y="365" text-anchor="middle">FLAGSTAFF MOUNTAIN</text>
<text class="el" x="541" y="386" text-anchor="middle">6,983&#8242;</text>
</svg>