<svg xmlns="http://www.w3.org/2000/svg" width="2000" height="1400" viewBox="0 0 2000 1400">
<style>
  .c  { fill:none; stroke:#2A1B11; stroke-opacity:0.07; stroke-width:1.1; }
  .ix { fill:none; stroke:#2A1B11; stroke-opacity:0.12; stroke-width:1.6; }
  .ct { font:500 10px 'IBM Plex Mono',ui-monospace,monospace; fill:#2A1B11; fill-opacity:0.32;
        stroke:#F4ECDB; stroke-width:3; paint-order:stroke; }
  .pk { font:600 11.5px 'Inter Tight','Helvetica Neue',sans-serif; letter-spacing:0.15em; fill:#2A1B11; fill-opacity:0.2; }
  .el { font:500 10.5px 'IBM Plex Mono',ui-monospace,monospace; fill:#9C6A33; fill-opacity:0.34; }
  .dot { fill:#2A1B11; fill-opacity:0.24; }
</style>
<path class="c" d="M1061.9,729.0 L1062.4,733.3 L1061.1,737.5 L1058.1,741.2 L1054.1,744.5 L1050.2,747.3 L1047.1,750.3 L1045.2,753.8 L1044.5,758.2 L1044.3,763.6 L1043.7,769.7 L1041.8,775.6 L1038.3,780.7 L1033.1,784.1 L1026.8,785.7 L1019.9,785.4 L1013.1,783.8 L1006.7,781.5 L1001.0,779.0 L995.8,776.6 L991.0,774.4 L986.5,772.2 L982.4,770.0 L978.5,767.7 L974.8,765.3 L971.0,763.2 L967.0,761.4 L962.3,760.0 L956.8,758.7 L950.9,757.1 L945.0,754.9 L940.0,751.7 L936.5,747.8 L934.9,743.2 L935.1,738.3 L936.3,733.5 L937.9,729.0 L938.8,724.6 L938.9,720.2 L938.3,715.6 L937.6,710.5 L937.8,705.4 L939.7,700.7 L943.7,696.9 L949.5,694.5 L956.6,693.5 L964.0,693.7 L970.7,694.4 L976.3,694.7 L980.7,694.2 L984.4,692.4 L987.8,689.6 L991.6,686.1 L995.9,682.7 L1001.0,679.8 L1006.6,677.8 L1012.5,676.7 L1018.6,676.4 L1024.8,676.8 L1030.9,677.8 L1036.8,679.4 L1042.2,682.0 L1046.7,685.4 L1049.9,689.8 L1051.8,694.9 L1052.5,700.2 L1052.4,705.3 L1052.4,709.8 L1053.1,713.8 L1054.7,717.5 L1057.2,721.1 L1059.9,724.9 L1061.9,729.0 Z"/>
<path class="c" d="M1122.7,729.0 L1123.8,737.6 L1121.1,745.9 L1115.1,753.5 L1107.2,759.9 L1099.3,765.7 L1093.1,771.6 L1089.5,778.6 L1088.1,787.4 L1087.6,798.3 L1086.3,810.4 L1082.6,822.2 L1075.6,832.3 L1065.2,839.2 L1052.6,842.3 L1038.8,841.8 L1025.2,838.6 L1012.5,834.0 L1001.0,829.0 L990.6,824.1 L981.0,819.7 L972.1,815.4 L963.7,811.0 L955.9,806.3 L948.5,801.7 L941.1,797.4 L933.0,793.9 L923.5,791.0 L912.6,788.3 L900.8,785.1 L889.1,780.7 L879.0,774.5 L872.1,766.5 L868.9,757.3 L869.1,747.6 L871.7,738.1 L874.7,729.0 L876.7,720.3 L876.9,711.5 L875.6,702.1 L874.2,692.1 L874.6,681.8 L878.4,672.4 L886.3,664.8 L898.1,659.9 L912.2,658.0 L926.9,658.4 L940.4,659.7 L951.6,660.5 L960.4,659.4 L967.7,655.9 L974.6,650.2 L982.1,643.3 L990.9,636.4 L1001.0,630.6 L1012.2,626.5 L1024.1,624.3 L1036.2,623.8 L1048.5,624.5 L1060.7,626.5 L1072.5,629.9 L1083.3,634.9 L1092.4,641.9 L1098.9,650.7 L1102.6,660.8 L1103.9,671.3 L1103.8,681.5 L1103.8,690.6 L1105.1,698.7 L1108.4,706.0 L1113.4,713.1 L1118.7,720.8 L1122.7,729.0 Z"/>
<path class="c" d="M1183.6,729.0 L1185.1,741.9 L1181.2,754.4 L1172.2,765.7 L1160.4,775.4 L1148.5,784.0 L1139.2,792.8 L1133.7,803.3 L1131.6,816.7 L1130.9,832.9 L1129.0,851.0 L1123.4,868.9 L1112.8,884.0 L1097.4,894.3 L1078.3,899.0 L1057.7,898.2 L1037.3,893.5 L1018.2,886.5 L1001.0,878.9 L985.4,871.7 L971.0,865.1 L957.6,858.6 L945.1,852.0 L933.4,845.0 L922.3,838.0 L911.1,831.7 L898.9,826.3 L884.8,822.0 L868.5,818.0 L850.7,813.2 L833.1,806.6 L818.1,797.2 L807.6,785.3 L802.8,771.5 L803.2,756.9 L807.0,742.6 L811.6,729.0 L814.5,715.9 L814.8,702.7 L812.9,688.7 L810.8,673.6 L811.4,658.3 L817.0,644.0 L829.0,632.6 L846.6,625.4 L867.9,622.5 L889.9,623.1 L910.1,625.1 L926.8,626.2 L940.2,624.6 L951.1,619.3 L961.4,610.8 L972.7,600.4 L985.8,590.0 L1001.0,581.3 L1017.8,575.3 L1035.6,572.0 L1053.9,571.1 L1072.3,572.3 L1090.6,575.3 L1108.3,580.3 L1124.5,587.9 L1138.0,598.3 L1147.8,611.5 L1153.4,626.7 L1155.4,642.5 L1155.3,657.8 L1155.2,671.5 L1157.2,683.5 L1162.1,694.5 L1169.6,705.2 L1177.6,716.6 L1183.6,729.0 Z"/>
<path class="ix" d="M1244.4,729.0 L1246.5,746.2 L1241.2,762.9 L1229.3,777.9 L1213.5,790.9 L1197.7,802.4 L1185.3,814.1 L1177.9,828.1 L1175.1,845.9 L1174.2,867.6 L1171.7,891.7 L1164.2,915.5 L1150.1,935.6 L1129.5,949.4 L1104.1,955.6 L1076.6,954.6 L1049.3,948.3 L1024.0,939.0 L1001.0,928.9 L980.2,919.3 L961.0,910.4 L943.1,901.8 L926.4,892.9 L910.9,883.7 L896.1,874.4 L881.2,865.9 L864.9,858.7 L846.1,852.9 L824.3,847.6 L800.5,841.3 L777.1,832.4 L757.1,820.0 L743.1,804.1 L736.7,785.6 L737.3,766.2 L742.3,747.1 L748.4,729.0 L752.4,711.6 L752.7,694.0 L750.2,675.2 L747.4,655.2 L748.2,634.7 L755.7,615.7 L771.6,600.5 L795.2,590.8 L823.5,587.0 L852.8,587.8 L879.7,590.5 L902.1,592.0 L919.9,589.8 L934.5,582.8 L948.2,571.4 L963.2,557.5 L980.7,543.7 L1001.0,532.1 L1023.4,524.0 L1047.1,519.6 L1071.5,518.5 L1096.1,520.1 L1120.5,524.0 L1144.1,530.8 L1165.7,540.8 L1183.7,554.8 L1196.8,572.4 L1204.2,592.6 L1206.8,613.7 L1206.7,634.0 L1206.6,652.3 L1209.2,668.4 L1215.8,682.9 L1225.8,697.3 L1236.4,712.5 L1244.4,729.0 Z"/>
<path class="c" d="M1305.3,729.0 L1307.9,750.5 L1301.3,771.4 L1286.3,790.2 L1266.6,806.3 L1246.9,820.7 L1231.3,835.4 L1222.2,852.9 L1218.7,875.1 L1217.5,902.2 L1214.3,932.4 L1205.0,962.1 L1187.4,987.3 L1161.6,1004.5 L1129.9,1012.3 L1095.5,1011.1 L1061.4,1003.1 L1029.7,991.5 L1001.0,978.9 L975.0,966.9 L951.0,955.8 L928.7,945.0 L907.8,933.9 L888.3,922.3 L869.8,910.7 L851.2,900.1 L830.9,891.2 L807.3,883.9 L780.1,877.3 L750.4,869.4 L721.2,858.3 L696.1,842.7 L678.7,822.9 L670.7,799.8 L671.4,775.5 L677.7,751.6 L685.3,729.0 L690.2,707.2 L690.7,685.2 L687.5,661.8 L684.0,636.7 L684.9,611.1 L694.4,587.4 L714.3,568.4 L743.7,556.3 L779.1,551.5 L815.8,552.4 L849.4,555.8 L877.4,557.7 L899.6,555.0 L917.8,546.2 L935.0,532.0 L953.8,514.7 L975.7,497.4 L1001.0,482.9 L1029.0,472.8 L1058.7,467.3 L1089.1,465.9 L1119.8,467.8 L1150.3,472.8 L1179.8,481.2 L1206.9,493.8 L1229.4,511.2 L1245.7,533.2 L1255.1,558.5 L1258.3,584.9 L1258.1,610.3 L1258.0,633.1 L1261.3,653.2 L1269.5,671.4 L1281.9,689.4 L1295.3,708.4 L1305.3,729.0 Z"/>
<path class="c" d="M1366.1,729.0 L1369.3,754.8 L1361.3,779.8 L1343.4,802.4 L1319.7,821.8 L1296.0,839.1 L1277.4,856.7 L1266.4,877.7 L1262.2,904.3 L1260.8,936.9 L1257.0,973.1 L1245.8,1008.7 L1224.7,1038.9 L1193.7,1059.7 L1155.7,1068.9 L1114.4,1067.5 L1073.5,1057.9 L1035.4,1044.0 L1001.0,1028.9 L969.8,1014.4 L941.0,1001.1 L914.2,988.2 L889.1,974.9 L865.8,961.0 L843.6,947.1 L821.3,934.3 L796.9,923.6 L768.6,914.9 L735.9,906.9 L700.3,897.4 L665.2,884.1 L635.1,865.5 L614.2,841.6 L604.6,814.0 L605.4,784.8 L613.0,756.2 L622.1,729.0 L628.1,702.9 L628.6,676.5 L624.8,648.3 L620.6,618.2 L621.7,587.5 L633.1,559.1 L657.0,536.3 L692.2,521.7 L734.7,516.0 L778.8,517.1 L819.1,521.2 L852.7,523.5 L879.3,520.2 L901.2,509.6 L921.8,492.6 L944.3,471.8 L970.6,451.1 L1001.0,433.7 L1034.6,421.5 L1070.2,415.0 L1106.7,413.3 L1143.6,415.6 L1180.2,421.6 L1215.6,431.6 L1248.0,446.8 L1275.1,467.7 L1294.7,494.1 L1305.9,524.3 L1309.8,556.0 L1309.5,586.5 L1309.4,613.9 L1313.3,638.1 L1323.3,659.9 L1338.1,681.4 L1354.2,704.3 L1366.1,729.0 Z"/>
<path class="c" d="M1427.0,729.0 L1430.6,759.1 L1421.4,788.3 L1400.5,814.6 L1372.9,837.3 L1345.2,857.4 L1323.5,877.9 L1310.6,902.5 L1305.7,933.5 L1304.1,971.5 L1299.7,1013.8 L1286.6,1055.4 L1262.0,1090.6 L1225.9,1114.8 L1181.4,1125.6 L1133.3,1123.9 L1085.6,1112.8 L1041.2,1096.5 L1001.0,1078.8 L964.6,1062.0 L931.0,1046.5 L899.7,1031.4 L870.5,1015.9 L843.2,999.7 L817.4,983.4 L791.3,968.5 L762.8,956.1 L729.9,945.9 L691.8,936.6 L650.2,925.5 L609.2,910.0 L574.1,888.2 L549.8,860.4 L538.5,828.1 L539.5,794.1 L548.3,760.7 L559.0,729.0 L565.9,698.5 L566.6,667.7 L562.1,634.9 L557.2,599.8 L558.5,563.9 L571.8,530.7 L599.6,504.2 L640.8,487.2 L690.4,480.5 L741.7,481.8 L788.8,486.5 L828.0,489.2 L859.0,485.4 L884.6,473.1 L908.6,453.1 L934.9,428.9 L965.5,404.7 L1001.0,384.4 L1040.2,370.3 L1081.8,362.6 L1124.4,360.7 L1167.3,363.4 L1210.1,370.3 L1251.4,382.1 L1289.2,399.7 L1320.8,424.1 L1343.6,454.9 L1356.7,490.2 L1361.2,527.2 L1360.9,562.8 L1360.8,594.8 L1365.4,622.9 L1377.0,648.4 L1394.3,673.5 L1413.0,700.2 L1427.0,729.0 Z"/>
<path class="ix" d="M1487.8,729.0 L1492.0,763.4 L1481.4,796.8 L1457.5,826.9 L1426.0,852.7 L1394.4,875.7 L1369.5,899.2 L1354.9,927.2 L1349.2,962.8 L1347.4,1006.2 L1342.3,1054.4 L1327.5,1102.0 L1299.2,1142.3 L1258.0,1169.9 L1207.2,1182.3 L1152.2,1180.3 L1097.7,1167.6 L1046.9,1149.0 L1001.0,1128.8 L959.4,1109.6 L921.0,1091.8 L885.2,1074.6 L851.8,1056.9 L820.7,1038.3 L791.1,1019.8 L761.4,1002.8 L728.8,988.5 L691.1,976.9 L647.6,966.2 L600.1,953.6 L553.3,935.8 L513.2,911.0 L485.3,879.2 L472.5,842.3 L473.6,803.4 L483.7,765.2 L495.8,729.0 L503.8,694.2 L504.5,659.0 L499.3,621.5 L493.8,581.3 L495.3,540.4 L510.4,502.4 L542.3,472.0 L589.3,452.7 L646.0,445.0 L704.7,446.5 L758.5,451.9 L803.2,455.0 L838.7,450.6 L867.9,436.5 L895.4,413.7 L925.4,386.0 L960.5,358.4 L1001.0,335.2 L1045.8,319.0 L1093.3,310.3 L1142.0,308.1 L1191.1,311.1 L1239.9,319.1 L1287.1,332.5 L1330.4,352.7 L1366.5,380.6 L1392.6,415.7 L1407.5,456.1 L1412.7,498.4 L1412.4,539.0 L1412.2,575.6 L1417.5,607.7 L1430.7,636.9 L1450.5,665.6 L1471.9,696.0 L1487.8,729.0 Z"/>
<path class="c" d="M1548.7,729.0 L1553.4,767.7 L1541.5,805.2 L1514.6,839.1 L1479.1,868.2 L1443.5,894.1 L1415.6,920.5 L1399.1,952.0 L1392.8,992.0 L1390.8,1040.8 L1385.0,1095.1 L1368.3,1148.6 L1336.5,1193.9 L1290.1,1225.0 L1233.0,1238.9 L1171.0,1236.7 L1109.8,1222.4 L1052.7,1201.5 L1001.0,1178.8 L954.2,1157.2 L911.0,1137.2 L870.8,1117.8 L833.2,1097.9 L798.2,1077.0 L764.9,1056.1 L731.4,1037.0 L694.8,1020.9 L652.4,1007.9 L603.4,995.9 L550.0,981.6 L497.3,961.7 L452.2,933.7 L420.8,897.9 L406.4,856.5 L407.6,812.7 L419.0,769.7 L432.7,729.0 L441.6,689.8 L442.4,650.2 L436.6,608.0 L430.4,562.9 L432.1,516.8 L449.1,474.1 L484.9,439.9 L537.9,418.1 L601.6,409.5 L667.7,411.2 L728.2,417.3 L778.5,420.7 L818.5,415.8 L851.3,400.0 L882.2,374.3 L916.0,343.2 L955.4,312.1 L1001.0,286.0 L1051.4,267.8 L1104.8,257.9 L1159.6,255.4 L1214.9,258.9 L1269.8,267.8 L1322.9,282.9 L1371.5,305.7 L1412.1,337.0 L1441.5,376.6 L1458.3,422.0 L1464.2,469.6 L1463.8,515.3 L1463.6,556.4 L1469.5,592.6 L1484.4,625.4 L1506.7,657.7 L1530.7,691.9 L1548.7,729.0 Z"/>
<path class="c" d="M1609.5,729.0 L1614.8,772.0 L1601.5,813.7 L1571.7,851.3 L1532.2,883.7 L1492.7,912.4 L1461.7,941.8 L1443.3,976.8 L1436.3,1021.2 L1434.1,1075.4 L1427.7,1135.8 L1409.1,1195.2 L1373.8,1245.6 L1322.2,1280.1 L1258.8,1295.6 L1189.9,1293.1 L1121.8,1277.2 L1058.4,1254.0 L1001.0,1228.8 L949.0,1204.7 L901.0,1182.5 L856.3,1161.0 L814.5,1138.8 L775.6,1115.6 L738.7,1092.5 L701.5,1071.2 L660.8,1053.4 L613.7,1038.9 L559.2,1025.6 L499.9,1009.7 L441.3,987.5 L391.2,956.5 L356.4,916.7 L340.4,870.6 L341.7,822.0 L354.3,774.3 L369.5,729.0 L379.5,685.5 L380.4,641.5 L373.9,594.6 L367.0,544.4 L368.9,493.2 L387.8,445.8 L427.6,407.8 L486.4,383.6 L557.2,374.0 L630.6,375.9 L697.8,382.6 L753.8,386.5 L798.2,381.0 L834.7,363.4 L869.0,334.9 L906.5,300.3 L950.3,265.8 L1001.0,236.8 L1057.0,216.5 L1116.4,205.6 L1177.2,202.8 L1238.6,206.7 L1299.7,216.6 L1358.7,233.4 L1412.7,258.6 L1457.8,293.5 L1490.5,337.4 L1509.1,387.9 L1515.6,440.7 L1515.2,491.5 L1515.0,537.2 L1521.6,577.4 L1538.1,613.9 L1562.9,649.7 L1589.6,687.8 L1609.5,729.0 Z"/>
<path class="c" d="M1670.4,729.0 L1676.1,776.3 L1661.6,822.2 L1628.8,863.6 L1585.3,899.1 L1541.9,930.8 L1507.7,963.1 L1487.6,1001.6 L1479.8,1050.4 L1477.4,1110.1 L1470.3,1176.5 L1449.9,1241.9 L1411.1,1297.2 L1354.3,1335.2 L1284.6,1352.2 L1208.8,1349.5 L1133.9,1332.1 L1064.2,1306.5 L1001.0,1278.8 L943.8,1252.3 L891.0,1227.9 L841.8,1204.2 L795.9,1179.8 L753.1,1154.3 L712.5,1128.8 L671.5,1105.4 L626.8,1085.8 L574.9,1069.9 L515.1,1055.2 L449.8,1037.8 L385.4,1013.4 L330.2,979.2 L291.9,935.5 L274.3,884.8 L275.8,831.3 L289.7,778.8 L306.4,729.0 L317.3,681.1 L318.3,632.7 L311.2,581.1 L303.6,525.9 L305.7,469.6 L326.5,417.5 L370.3,375.7 L435.0,349.0 L512.9,338.5 L593.6,340.6 L667.5,348.0 L729.1,352.2 L777.9,346.2 L818.0,326.8 L855.8,295.5 L897.1,257.4 L945.3,219.4 L1001.0,187.6 L1062.6,165.3 L1127.9,153.3 L1194.9,150.2 L1262.4,154.4 L1329.5,165.4 L1394.5,183.8 L1453.9,211.6 L1503.5,249.9 L1539.4,298.3 L1559.9,353.8 L1567.1,411.9 L1566.6,467.8 L1566.4,518.1 L1573.6,562.3 L1591.8,602.4 L1619.1,641.8 L1648.5,683.7 L1670.4,729.0 Z"/>
<path class="ix" d="M1731.2,729.0 L1737.5,780.5 L1721.6,830.7 L1685.8,875.8 L1638.5,914.6 L1591.1,949.1 L1553.8,984.3 L1531.8,1026.3 L1523.4,1079.7 L1520.7,1144.7 L1513.0,1217.2 L1490.7,1288.5 L1448.4,1348.9 L1386.5,1390.3 L1310.3,1408.9 L1227.7,1405.9 L1146.0,1386.9 L1069.9,1359.0 L1001.0,1328.7 L938.6,1299.9 L881.0,1273.2 L827.4,1247.4 L777.2,1220.8 L730.6,1193.0 L686.2,1165.2 L641.6,1139.7 L592.7,1118.2 L536.2,1100.8 L470.9,1084.9 L399.6,1065.9 L329.4,1039.2 L269.2,1002.0 L227.4,954.2 L208.2,898.9 L209.9,840.6 L225.0,783.3 L243.2,729.0 L255.2,676.8 L256.2,623.9 L248.5,567.7 L240.2,507.5 L242.5,446.0 L265.2,389.1 L312.9,343.6 L383.5,314.5 L468.5,303.0 L556.5,305.3 L637.2,313.4 L704.4,318.0 L757.6,311.4 L801.4,290.3 L842.6,256.1 L887.6,214.6 L940.2,173.1 L1001.0,138.3 L1068.3,114.0 L1139.4,100.9 L1212.5,97.6 L1286.2,102.2 L1359.4,114.1 L1430.2,134.3 L1495.1,164.5 L1549.2,206.3 L1588.4,259.1 L1610.7,319.7 L1618.5,383.1 L1618.0,444.0 L1617.8,498.9 L1625.7,547.1 L1645.5,590.8 L1675.3,633.9 L1707.3,679.6 L1731.2,729.0 Z"/>
<path class="c" d="M1792.1,729.0 L1798.9,784.8 L1781.7,839.1 L1742.9,888.0 L1691.6,930.1 L1640.2,967.5 L1599.9,1005.6 L1576.1,1051.1 L1566.9,1108.9 L1564.0,1179.4 L1555.7,1257.8 L1531.5,1335.1 L1485.6,1400.5 L1418.6,1445.4 L1336.1,1465.6 L1246.6,1462.4 L1158.1,1441.7 L1075.6,1411.5 L1001.0,1378.7 L933.4,1347.5 L871.1,1318.6 L812.9,1290.6 L758.6,1261.8 L708.0,1231.6 L660.0,1201.5 L611.6,1173.9 L558.7,1150.7 L497.5,1131.8 L426.7,1114.5 L349.5,1093.9 L273.4,1065.1 L208.3,1024.7 L163.0,973.0 L142.2,913.1 L143.9,849.9 L160.3,787.8 L180.1,729.0 L193.0,672.4 L194.2,615.2 L185.8,554.3 L176.8,489.0 L179.3,422.5 L203.8,360.8 L255.6,311.4 L332.0,279.9 L424.1,267.5 L519.5,269.9 L606.9,278.7 L679.6,283.7 L737.3,276.6 L784.8,253.7 L829.4,216.7 L878.2,171.7 L935.1,126.8 L1001.0,89.1 L1073.9,62.8 L1151.0,48.6 L1230.1,45.0 L1309.9,50.0 L1389.3,62.9 L1466.0,84.7 L1536.2,117.5 L1594.9,162.8 L1637.3,219.9 L1661.6,285.6 L1670.0,354.2 L1669.5,420.3 L1669.2,479.7 L1677.8,531.9 L1699.2,579.3 L1731.4,626.0 L1766.2,675.4 L1792.1,729.0 Z"/>
<path class="c" d="M1852.9,729.0 L1860.3,789.1 L1841.7,847.6 L1800.0,900.3 L1744.7,945.6 L1689.4,985.8 L1645.9,1026.9 L1620.3,1075.9 L1610.4,1138.1 L1607.3,1214.0 L1598.3,1298.5 L1572.3,1381.7 L1522.9,1452.2 L1450.7,1500.5 L1361.9,1522.2 L1265.5,1518.8 L1170.2,1496.5 L1081.4,1464.0 L1001.0,1428.7 L928.2,1395.0 L861.1,1363.9 L798.4,1333.8 L740.0,1302.8 L685.5,1270.3 L633.8,1237.9 L581.7,1208.1 L524.7,1183.1 L458.7,1162.8 L382.5,1144.2 L299.4,1122.0 L217.5,1090.9 L147.3,1047.5 L98.5,991.8 L76.1,927.3 L78.0,859.2 L95.6,792.4 L116.9,729.0 L130.9,668.1 L132.1,606.4 L123.1,540.8 L113.4,470.6 L116.1,398.9 L142.5,332.5 L198.2,279.3 L280.6,245.4 L379.7,232.0 L482.5,234.6 L576.6,244.1 L654.9,249.5 L717.0,241.8 L768.1,217.2 L816.2,177.3 L868.7,128.8 L930.1,80.5 L1001.0,39.9 L1079.5,11.5 L1162.5,-3.8 L1247.7,-7.7 L1333.7,-2.3 L1419.1,11.6 L1501.8,35.1 L1577.4,70.5 L1640.6,119.2 L1686.3,180.8 L1712.4,251.5 L1721.5,325.4 L1720.9,396.5 L1720.6,460.5 L1729.8,516.8 L1752.9,567.8 L1787.6,618.0 L1825.0,671.3 L1852.9,729.0 Z"/>
<path class="c" d="M1913.8,729.0 L1921.6,793.4 L1901.8,856.1 L1857.0,912.5 L1797.8,961.0 L1738.6,1004.2 L1692.0,1048.2 L1664.5,1100.7 L1654.0,1167.3 L1650.6,1248.7 L1641.0,1339.2 L1613.1,1428.3 L1560.2,1503.9 L1482.8,1555.6 L1387.7,1578.9 L1284.4,1575.2 L1182.3,1551.4 L1087.1,1516.5 L1001.0,1478.7 L923.0,1442.6 L851.1,1409.3 L784.0,1377.0 L721.3,1343.8 L662.9,1309.0 L607.5,1274.2 L551.7,1242.3 L490.7,1215.6 L420.0,1193.8 L338.3,1173.8 L249.3,1150.1 L161.5,1116.8 L86.3,1070.2 L34.0,1010.6 L10.0,941.4 L12.1,868.5 L31.0,796.9 L53.8,729.0 L68.7,663.7 L70.1,597.7 L60.4,527.4 L50.0,452.1 L52.8,375.3 L81.2,304.2 L140.9,247.2 L229.1,210.8 L335.4,196.5 L445.4,199.3 L546.3,209.4 L630.2,215.2 L696.8,207.1 L751.5,180.6 L803.0,137.9 L859.3,86.0 L925.0,34.2 L1001.0,-9.3 L1085.1,-39.7 L1174.0,-56.1 L1265.4,-60.3 L1357.5,-54.5 L1449.0,-39.6 L1537.5,-14.4 L1618.6,23.4 L1686.2,75.7 L1735.2,141.6 L1763.2,217.4 L1772.9,296.6 L1772.3,372.8 L1772.0,441.4 L1781.9,501.6 L1806.6,556.3 L1843.8,610.1 L1883.9,667.2 L1913.8,729.0 Z"/>
<path class="ix" d="M1974.6,729.0 L1983.0,797.7 L1961.8,864.5 L1914.1,924.7 L1851.0,976.5 L1787.8,1022.5 L1738.1,1069.4 L1708.8,1125.5 L1697.5,1196.5 L1693.9,1283.3 L1683.7,1379.9 L1653.9,1475.0 L1597.5,1555.5 L1515.0,1610.7 L1413.4,1635.5 L1303.3,1631.6 L1194.3,1606.2 L1092.9,1569.0 L1001.0,1528.6 L917.8,1490.2 L841.1,1454.6 L769.5,1420.2 L702.7,1384.8 L640.4,1347.6 L581.3,1310.6 L521.8,1276.5 L456.6,1248.0 L381.3,1224.8 L294.2,1203.5 L199.2,1178.1 L105.5,1142.6 L25.3,1093.0 L-30.4,1029.3 L-56.0,955.6 L-53.9,877.8 L-33.7,801.4 L-9.4,729.0 L6.6,659.4 L8.0,588.9 L-2.3,513.9 L-13.4,433.6 L-10.4,351.7 L19.9,275.8 L83.6,215.1 L177.7,176.3 L291.0,161.0 L408.4,164.0 L515.9,174.8 L605.5,181.0 L676.5,172.3 L734.9,144.1 L789.8,98.5 L849.8,43.1 L919.9,-12.2 L1001.0,-58.6 L1090.7,-91.0 L1185.6,-108.4 L1283.0,-112.9 L1381.2,-106.7 L1478.9,-90.9 L1573.3,-64.0 L1659.7,-23.6 L1731.9,32.1 L1784.2,102.5 L1814.0,183.3 L1824.4,267.8 L1823.7,349.0 L1823.4,422.2 L1833.9,486.5 L1860.4,544.8 L1900.0,602.2 L1942.8,663.1 L1974.6,729.0 Z"/>
<path class="c" d="M2035.5,729.0 L2044.4,802.0 L2021.9,873.0 L1971.2,937.0 L1904.1,992.0 L1836.9,1040.8 L1784.1,1090.7 L1753.0,1150.2 L1741.0,1225.8 L1737.2,1318.0 L1726.3,1420.5 L1694.7,1521.6 L1634.8,1607.2 L1547.1,1665.9 L1439.2,1692.2 L1322.2,1688.0 L1206.4,1661.0 L1098.6,1621.5 L1001.0,1578.6 L912.6,1537.8 L831.1,1500.0 L755.0,1463.4 L684.0,1425.7 L617.9,1386.3 L555.1,1346.9 L491.8,1310.8 L422.6,1280.4 L342.5,1255.8 L250.0,1233.1 L149.1,1206.2 L49.6,1168.5 L-35.7,1115.7 L-94.9,1048.1 L-122.1,969.7 L-119.8,887.1 L-98.4,805.9 L-72.5,729.0 L-55.6,655.0 L-54.1,580.2 L-65.0,500.5 L-76.8,415.2 L-73.6,328.1 L-41.4,247.5 L26.2,183.0 L126.2,141.8 L246.6,125.5 L371.3,128.7 L485.6,140.2 L580.8,146.7 L656.2,137.5 L718.2,107.5 L776.6,59.1 L840.4,0.2 L914.9,-58.5 L1001.0,-107.8 L1096.3,-142.2 L1197.1,-160.8 L1300.6,-165.5 L1405.0,-159.0 L1508.7,-142.1 L1609.1,-113.6 L1700.9,-70.7 L1777.6,-11.4 L1833.1,63.3 L1864.8,149.1 L1875.9,238.9 L1875.1,325.3 L1874.8,403.0 L1886.0,471.3 L1914.1,533.3 L1956.2,594.3 L2001.6,659.0 L2035.5,729.0 Z"/>
<path class="c" d="M2096.3,729.0 L2105.8,806.3 L2082.0,881.5 L2028.2,949.2 L1957.2,1007.4 L1886.1,1059.2 L1830.2,1112.0 L1797.2,1175.0 L1784.5,1255.0 L1780.5,1352.6 L1769.0,1461.2 L1735.5,1568.2 L1672.0,1658.8 L1579.2,1721.0 L1465.0,1748.8 L1341.1,1744.4 L1218.5,1715.8 L1104.3,1674.0 L1001.0,1628.6 L907.3,1585.3 L821.1,1545.3 L740.5,1506.6 L665.4,1466.7 L595.3,1425.0 L528.8,1383.3 L461.9,1345.0 L388.6,1312.9 L303.8,1286.8 L205.8,1262.8 L99.0,1234.3 L-6.4,1194.3 L-96.7,1138.5 L-159.4,1066.9 L-188.2,983.9 L-185.7,896.4 L-163.0,810.5 L-135.7,729.0 L-117.7,650.7 L-116.1,571.4 L-127.7,487.0 L-140.2,396.7 L-136.8,304.6 L-102.8,219.2 L-31.1,150.8 L74.7,107.2 L202.2,90.0 L334.3,93.4 L455.3,105.5 L556.0,112.5 L635.9,102.7 L701.6,70.9 L763.4,19.7 L830.9,-42.6 L909.8,-104.8 L1001.0,-157.0 L1101.9,-193.5 L1208.7,-213.1 L1318.2,-218.1 L1428.8,-211.2 L1538.6,-193.3 L1644.8,-163.1 L1742.1,-117.7 L1823.3,-55.0 L1882.0,24.2 L1915.6,115.0 L1927.3,210.1 L1926.6,301.5 L1926.2,383.8 L1938.0,456.2 L1967.8,521.8 L2012.4,586.3 L2060.5,654.8 L2096.3,729.0 Z"/>
<path class="c" d="M2157.2,729.0 L2167.2,810.6 L2142.0,890.0 L2085.3,961.4 L2010.3,1022.9 L1935.3,1077.5 L1876.3,1133.3 L1841.5,1199.8 L1828.1,1284.2 L1823.8,1387.3 L1811.7,1501.9 L1776.3,1614.8 L1709.3,1710.5 L1611.3,1776.1 L1490.8,1805.5 L1360.0,1800.8 L1230.6,1770.6 L1110.1,1726.5 L1001.0,1678.6 L902.1,1632.9 L811.1,1590.7 L726.1,1549.8 L646.7,1507.7 L572.8,1463.6 L502.6,1419.6 L431.9,1379.2 L354.6,1345.3 L265.1,1317.8 L161.6,1292.4 L48.9,1262.4 L-62.4,1220.2 L-157.6,1161.2 L-223.8,1085.6 L-254.2,998.1 L-251.6,905.7 L-227.7,815.0 L-198.8,729.0 L-179.9,646.3 L-178.2,562.7 L-190.4,473.6 L-203.6,378.3 L-200.0,281.0 L-164.1,190.9 L-88.5,118.7 L23.3,72.7 L157.9,54.5 L297.3,58.1 L425.0,70.9 L531.3,78.2 L615.6,67.9 L685.0,34.4 L750.2,-19.8 L821.5,-85.5 L904.7,-151.1 L1001.0,-206.2 L1107.5,-244.7 L1220.2,-265.5 L1335.9,-270.8 L1452.5,-263.4 L1568.5,-244.6 L1680.6,-212.7 L1783.2,-164.7 L1869.0,-98.5 L1931.0,-15.0 L1966.4,80.9 L1978.8,181.3 L1978.0,277.8 L1977.6,364.7 L1990.1,441.0 L2021.5,510.2 L2068.6,578.4 L2119.3,650.7 L2157.2,729.0 Z"/>
<path class="ix" d="M2218.0,729.0 L2228.5,814.9 L2202.1,898.4 L2142.4,973.7 L2063.5,1038.4 L1984.4,1095.9 L1922.3,1154.5 L1885.7,1224.6 L1871.6,1313.4 L1867.1,1421.9 L1854.3,1542.6 L1817.1,1661.5 L1746.6,1762.1 L1643.4,1831.2 L1516.5,1862.2 L1378.9,1857.2 L1242.7,1825.5 L1115.8,1779.0 L1001.0,1728.6 L896.9,1680.5 L801.1,1636.0 L711.6,1593.0 L628.1,1548.7 L550.3,1502.3 L476.4,1455.9 L402.0,1413.4 L320.5,1377.7 L226.3,1348.7 L117.5,1322.1 L-1.3,1290.4 L-118.3,1246.0 L-218.6,1184.0 L-288.3,1104.4 L-320.3,1012.2 L-317.6,915.0 L-292.4,819.5 L-262.0,729.0 L-242.0,642.0 L-240.3,553.9 L-253.1,460.2 L-267.0,359.8 L-263.2,257.4 L-225.4,162.5 L-145.8,86.6 L-28.2,38.1 L113.5,19.0 L260.2,22.8 L394.7,36.3 L506.6,44.0 L595.4,33.1 L668.3,-2.2 L737.0,-59.2 L812.0,-128.4 L899.7,-197.5 L1001.0,-255.4 L1113.1,-296.0 L1231.7,-317.8 L1353.5,-323.4 L1476.3,-315.7 L1598.3,-295.8 L1716.4,-262.2 L1824.4,-211.8 L1914.7,-142.1 L1979.9,-54.2 L2017.2,46.8 L2030.2,152.5 L2029.4,254.0 L2029.0,345.5 L2042.2,425.8 L2075.2,498.7 L2124.8,570.5 L2178.2,646.6 L2218.0,729.0 Z"/>
<path class="c" d="M2278.9,729.0 L2289.9,819.2 L2262.1,906.9 L2199.4,985.9 L2116.6,1053.8 L2033.6,1114.2 L1968.4,1175.8 L1929.9,1249.4 L1915.1,1342.6 L1910.4,1456.5 L1897.0,1583.3 L1857.9,1708.1 L1783.9,1813.8 L1675.6,1886.3 L1542.3,1918.8 L1397.8,1913.6 L1254.8,1880.3 L1121.6,1831.5 L1001.0,1778.5 L891.7,1728.1 L791.1,1681.4 L697.1,1636.2 L609.4,1589.7 L527.7,1541.0 L450.1,1492.3 L372.0,1447.6 L286.5,1410.2 L187.6,1379.7 L73.3,1351.8 L-51.4,1318.5 L-174.3,1271.9 L-279.6,1206.7 L-352.7,1123.2 L-386.4,1026.4 L-383.5,924.3 L-357.0,824.0 L-325.1,729.0 L-304.2,637.6 L-302.3,545.2 L-315.8,446.7 L-330.4,341.3 L-326.4,233.8 L-286.7,134.2 L-203.1,54.5 L-79.6,3.6 L69.1,-16.5 L223.2,-12.6 L364.4,1.6 L481.9,9.7 L575.1,-1.7 L651.7,-38.7 L723.8,-98.6 L802.6,-171.3 L894.6,-243.8 L1001.0,-304.7 L1118.7,-347.2 L1243.3,-370.2 L1371.1,-376.0 L1500.0,-367.9 L1628.2,-347.1 L1752.1,-311.8 L1865.6,-258.8 L1960.3,-185.6 L2028.9,-93.3 L2068.1,12.7 L2081.7,123.6 L2080.8,230.3 L2080.4,326.3 L2094.2,410.7 L2128.9,487.2 L2180.9,562.6 L2237.1,642.5 L2278.9,729.0 Z"/>
<path class="c" d="M2339.7,729.0 L2351.3,823.5 L2322.2,915.4 L2256.5,998.1 L2169.7,1069.3 L2082.8,1132.6 L2014.5,1197.1 L1974.2,1274.1 L1958.7,1371.9 L1953.7,1491.2 L1939.7,1623.9 L1898.8,1754.7 L1821.2,1865.5 L1707.7,1941.4 L1568.1,1975.5 L1416.7,1970.1 L1266.8,1935.1 L1127.3,1884.0 L1001.0,1828.5 L886.5,1775.6 L781.1,1726.8 L682.7,1679.4 L590.8,1630.7 L505.2,1579.6 L423.9,1528.6 L342.0,1481.9 L252.5,1442.6 L148.9,1410.7 L29.1,1381.4 L-101.5,1346.6 L-230.3,1297.7 L-340.6,1229.5 L-417.2,1141.9 L-452.4,1040.6 L-449.4,933.6 L-421.7,828.6 L-388.3,729.0 L-366.3,633.3 L-364.4,536.4 L-378.5,433.3 L-393.8,322.9 L-389.6,210.2 L-348.1,105.9 L-260.5,22.4 L-131.1,-31.0 L24.7,-52.0 L186.2,-47.9 L334.0,-33.0 L457.2,-24.6 L554.8,-36.5 L635.1,-75.3 L710.6,-138.0 L793.1,-214.1 L889.5,-290.1 L1001.0,-353.9 L1124.3,-398.5 L1254.8,-422.5 L1388.7,-428.6 L1523.8,-420.1 L1658.1,-398.3 L1787.9,-361.4 L1906.8,-305.9 L2006.0,-229.2 L2077.8,-132.5 L2118.9,-21.4 L2133.2,94.8 L2132.2,206.5 L2131.8,307.1 L2146.3,395.5 L2182.6,475.7 L2237.1,554.6 L2295.9,638.4 L2339.7,729.0 Z"/>
<path class="c" d="M2400.6,729.0 L2412.7,827.8 L2382.2,923.8 L2313.6,1010.4 L2222.8,1084.8 L2132.0,1150.9 L2060.5,1218.4 L2018.4,1298.9 L2002.2,1401.1 L1997.0,1525.8 L1982.3,1664.6 L1939.6,1801.3 L1858.5,1917.1 L1739.8,1996.5 L1593.9,2032.1 L1435.6,2026.5 L1278.9,1989.9 L1133.1,1936.5 L1001.0,1878.5 L881.3,1823.2 L771.1,1772.1 L668.2,1722.6 L572.1,1671.6 L482.6,1618.3 L397.7,1565.0 L312.1,1516.1 L218.5,1475.1 L110.1,1441.7 L-15.1,1411.1 L-151.6,1374.6 L-286.2,1323.6 L-401.6,1252.2 L-481.7,1160.7 L-518.5,1054.7 L-515.3,942.9 L-486.4,833.1 L-451.4,729.0 L-428.5,628.9 L-426.5,527.6 L-441.3,419.8 L-457.2,304.4 L-452.8,186.7 L-409.4,77.6 L-317.8,-9.8 L-182.6,-65.5 L-19.6,-87.5 L149.1,-83.2 L303.7,-67.7 L432.5,-58.8 L534.5,-71.3 L618.4,-111.9 L697.4,-177.4 L783.7,-257.0 L884.5,-336.4 L1001.0,-403.1 L1129.9,-449.7 L1266.3,-474.8 L1406.4,-481.2 L1547.6,-472.4 L1688.0,-449.5 L1823.7,-410.9 L1947.9,-352.9 L2051.7,-272.8 L2126.8,-171.6 L2169.7,-55.5 L2184.6,66.0 L2183.7,182.8 L2183.2,288.0 L2198.3,380.4 L2236.3,464.2 L2293.3,546.7 L2354.8,634.2 L2400.6,729.0 Z"/>
<path class="ix" d="M2461.4,729.0 L2474.0,832.1 L2442.3,932.3 L2370.6,1022.6 L2275.9,1100.2 L2181.1,1169.2 L2106.6,1239.7 L2062.6,1323.7 L2045.7,1430.3 L2040.3,1560.5 L2025.0,1705.3 L1980.4,1847.9 L1895.7,1968.8 L1771.9,2051.6 L1619.7,2088.8 L1454.5,2082.9 L1291.0,2044.8 L1138.8,1989.0 L1001.0,1928.5 L876.1,1870.8 L761.1,1817.5 L653.7,1765.8 L553.5,1712.6 L460.1,1657.0 L371.4,1601.3 L282.1,1550.3 L184.5,1507.5 L71.4,1472.7 L-59.3,1440.7 L-201.7,1402.7 L-342.2,1349.4 L-462.5,1275.0 L-546.1,1179.5 L-584.6,1068.9 L-581.3,952.2 L-551.0,837.6 L-514.6,729.0 L-490.6,624.6 L-488.5,518.9 L-504.0,406.4 L-520.6,286.0 L-516.0,163.1 L-470.7,49.3 L-375.2,-41.9 L-234.0,-100.0 L-64.0,-123.0 L112.1,-118.5 L273.4,-102.3 L407.7,-93.1 L514.2,-106.1 L601.8,-148.4 L684.2,-216.8 L774.2,-299.9 L879.4,-382.8 L1001.0,-452.3 L1135.5,-500.9 L1277.9,-527.2 L1424.0,-533.8 L1571.3,-524.6 L1717.8,-500.8 L1859.4,-460.5 L1989.1,-399.9 L2097.4,-316.3 L2175.7,-210.8 L2220.5,-89.6 L2236.1,37.1 L2235.1,159.0 L2234.6,268.8 L2250.4,365.2 L2290.0,452.7 L2349.5,538.8 L2413.6,630.1 L2461.4,729.0 Z"/>
<path class="c" d="M2522.3,729.0 L2535.4,836.4 L2502.3,940.8 L2427.7,1034.8 L2329.1,1115.7 L2230.3,1187.6 L2152.7,1260.9 L2106.9,1348.5 L2089.3,1459.5 L2083.7,1595.1 L2067.7,1746.0 L2021.2,1894.6 L1933.0,2020.4 L1804.1,2106.7 L1645.4,2145.5 L1473.4,2139.3 L1303.1,2099.6 L1144.5,2041.5 L1001.0,1978.4 L870.9,1918.4 L751.1,1862.8 L639.3,1809.0 L534.8,1753.6 L437.6,1695.6 L345.2,1637.7 L252.2,1584.5 L150.4,1539.9 L32.6,1503.7 L-103.4,1470.4 L-251.8,1430.8 L-398.2,1375.3 L-523.5,1297.7 L-610.6,1198.3 L-650.6,1083.0 L-647.2,961.5 L-615.7,842.2 L-577.7,729.0 L-552.8,620.2 L-550.6,510.1 L-566.7,393.0 L-584.0,267.5 L-579.3,139.5 L-532.0,20.9 L-432.5,-74.0 L-285.5,-134.6 L-108.4,-158.5 L75.0,-153.8 L243.1,-136.9 L383.0,-127.3 L493.9,-140.9 L585.2,-185.0 L671.0,-256.2 L764.8,-342.7 L874.4,-429.1 L1001.0,-501.6 L1141.1,-552.2 L1289.4,-579.5 L1441.6,-586.5 L1595.1,-576.8 L1747.7,-552.0 L1895.2,-510.1 L2030.3,-447.0 L2143.1,-359.9 L2224.7,-249.9 L2271.3,-123.7 L2287.6,8.3 L2286.5,135.3 L2286.0,249.6 L2302.4,350.0 L2343.7,441.2 L2405.7,530.9 L2472.5,626.0 L2522.3,729.0 Z"/>
<path class="c" d="M2583.1,729.0 L2596.8,840.7 L2562.4,949.3 L2484.8,1047.1 L2382.2,1131.2 L2279.5,1205.9 L2198.7,1282.2 L2151.1,1373.2 L2132.8,1488.8 L2127.0,1629.8 L2110.4,1786.7 L2062.0,1941.2 L1970.3,2072.1 L1836.2,2161.8 L1671.2,2202.1 L1492.3,2195.7 L1315.2,2154.4 L1150.3,2094.0 L1001.0,2028.4 L865.7,1965.9 L741.1,1908.2 L624.8,1852.2 L516.2,1794.6 L415.0,1734.3 L319.0,1674.0 L222.2,1618.8 L116.4,1572.4 L-6.1,1534.7 L-147.6,1500.0 L-301.9,1458.9 L-454.1,1401.1 L-584.5,1320.5 L-675.1,1217.0 L-716.7,1097.2 L-713.1,970.8 L-680.4,846.7 L-640.9,729.0 L-614.9,615.9 L-612.6,501.4 L-629.4,379.5 L-647.4,249.0 L-642.5,115.9 L-593.3,-7.4 L-489.8,-106.1 L-336.9,-169.1 L-152.8,-194.0 L38.0,-189.1 L212.8,-171.6 L358.3,-161.6 L473.7,-175.7 L568.5,-221.5 L657.8,-295.6 L755.3,-385.6 L869.3,-475.4 L1001.0,-550.8 L1146.7,-603.4 L1300.9,-631.9 L1459.2,-639.1 L1618.9,-629.1 L1777.6,-603.3 L1931.0,-559.6 L2071.4,-494.0 L2188.8,-403.4 L2273.6,-289.1 L2322.1,-157.8 L2339.0,-20.5 L2337.9,111.5 L2337.4,230.4 L2354.5,334.9 L2397.5,429.7 L2461.9,522.9 L2531.4,621.9 L2583.1,729.0 Z"/>
<path class="c" d="M2644.0,729.0 L2658.2,845.0 L2622.4,957.7 L2541.8,1059.3 L2435.3,1146.6 L2328.6,1224.3 L2244.8,1303.5 L2195.3,1398.0 L2176.3,1518.0 L2170.3,1664.4 L2153.0,1827.3 L2102.8,1987.8 L2007.6,2123.7 L1868.3,2216.9 L1697.0,2258.8 L1511.1,2252.1 L1327.3,2209.2 L1156.0,2146.5 L1001.0,2078.4 L860.5,2013.5 L731.1,1953.5 L610.3,1895.4 L497.5,1835.6 L392.5,1773.0 L292.8,1710.4 L192.3,1653.0 L82.4,1604.8 L-44.8,1565.7 L-191.8,1529.7 L-352.0,1486.9 L-510.1,1427.0 L-645.5,1343.2 L-739.5,1235.8 L-782.8,1111.4 L-779.1,980.1 L-745.0,851.2 L-704.0,729.0 L-677.1,611.5 L-674.7,492.6 L-692.1,366.1 L-710.8,230.6 L-705.7,92.3 L-654.7,-35.7 L-547.2,-138.2 L-388.4,-203.7 L-197.1,-229.5 L1.0,-224.4 L182.5,-206.2 L333.6,-195.8 L453.4,-210.5 L551.9,-258.1 L644.6,-335.0 L745.9,-428.5 L864.2,-521.7 L1001.0,-600.0 L1152.3,-654.7 L1312.5,-684.2 L1476.8,-691.7 L1642.6,-681.3 L1807.4,-654.5 L1966.8,-609.2 L2112.6,-541.0 L2234.4,-447.0 L2322.6,-328.3 L2372.9,-192.0 L2390.5,-49.3 L2389.3,87.8 L2388.8,211.3 L2406.6,319.7 L2451.2,418.1 L2518.1,515.0 L2590.2,617.8 L2644.0,729.0 Z"/>
<path class="ix" d="M2704.8,729.0 L2719.5,849.3 L2682.5,966.2 L2598.9,1071.5 L2488.4,1162.1 L2377.8,1242.6 L2290.9,1324.8 L2239.6,1422.8 L2219.9,1547.2 L2213.6,1699.1 L2195.7,1868.0 L2143.6,2034.4 L2044.9,2175.4 L1900.4,2272.1 L1722.8,2315.4 L1530.0,2308.5 L1339.3,2264.1 L1161.8,2199.0 L1001.0,2128.4 L855.3,2061.1 L721.1,1998.9 L595.9,1938.6 L478.9,1876.6 L370.0,1811.6 L266.5,1746.7 L162.3,1687.2 L48.4,1637.2 L-83.6,1596.6 L-236.0,1559.3 L-402.2,1515.0 L-566.1,1452.8 L-706.5,1366.0 L-804.0,1254.6 L-848.8,1125.5 L-845.0,989.4 L-809.7,855.7 L-767.2,729.0 L-739.3,607.2 L-736.8,483.9 L-754.8,352.6 L-774.2,212.1 L-768.9,68.8 L-716.0,-64.0 L-604.5,-170.4 L-439.9,-238.2 L-241.5,-265.0 L-36.1,-259.7 L152.1,-240.8 L308.9,-230.1 L433.1,-245.3 L535.3,-294.7 L631.4,-374.4 L736.4,-471.3 L859.2,-568.0 L1001.0,-649.2 L1157.9,-705.9 L1324.0,-736.5 L1494.5,-744.3 L1666.4,-733.5 L1837.3,-705.7 L2002.5,-658.7 L2153.8,-588.1 L2280.1,-490.5 L2371.5,-367.4 L2423.7,-226.1 L2441.9,-78.2 L2440.8,64.0 L2440.2,192.1 L2458.6,304.6 L2504.9,406.6 L2574.3,507.1 L2649.1,613.6 L2704.8,729.0 Z"/>
<path class="c" d="M2765.7,729.0 L2780.9,853.6 L2742.5,974.7 L2656.0,1083.8 L2541.6,1177.6 L2427.0,1261.0 L2336.9,1346.0 L2283.8,1447.6 L2263.4,1576.4 L2256.9,1733.7 L2238.4,1908.7 L2184.4,2081.1 L2082.1,2227.1 L1932.5,2327.2 L1748.5,2372.1 L1548.9,2364.9 L1351.4,2318.9 L1167.5,2251.5 L1001.0,2178.3 L850.1,2108.7 L711.1,2044.2 L581.4,1981.8 L460.3,1917.5 L347.4,1850.3 L240.3,1783.1 L132.4,1721.4 L14.3,1669.7 L-122.3,1627.6 L-280.1,1589.0 L-452.3,1543.1 L-622.0,1478.7 L-767.4,1388.7 L-868.5,1273.3 L-914.9,1139.7 L-910.9,998.7 L-874.4,860.3 L-830.3,729.0 L-801.4,602.8 L-798.8,475.1 L-817.5,339.2 L-837.6,193.7 L-832.1,45.2 L-777.3,-92.4 L-661.9,-202.5 L-491.3,-272.8 L-285.9,-300.5 L-73.1,-295.1 L121.8,-275.5 L284.1,-264.3 L412.8,-280.1 L518.6,-331.2 L618.2,-413.8 L727.0,-514.2 L854.1,-614.4 L1001.0,-698.5 L1163.5,-757.2 L1335.6,-788.9 L1512.1,-796.9 L1690.2,-785.8 L1867.2,-757.0 L2038.3,-708.3 L2195.0,-635.1 L2325.8,-534.1 L2420.5,-406.6 L2474.6,-260.2 L2493.4,-107.0 L2492.2,40.3 L2491.6,172.9 L2510.7,289.4 L2558.6,395.1 L2630.5,499.1 L2707.9,609.5 L2765.7,729.0 Z"/>
<path class="c" d="M2826.5,729.0 L2842.3,857.9 L2802.6,983.1 L2713.0,1096.0 L2594.7,1193.0 L2476.2,1279.3 L2383.0,1367.3 L2328.0,1472.4 L2306.9,1605.6 L2300.2,1768.3 L2281.0,1949.4 L2225.2,2127.7 L2119.4,2278.7 L1964.7,2382.3 L1774.3,2428.7 L1567.8,2421.4 L1363.5,2373.7 L1173.2,2304.0 L1001.0,2228.3 L844.9,2156.2 L701.1,2089.6 L566.9,2025.0 L441.6,1958.5 L324.9,1888.9 L214.1,1819.4 L102.4,1755.6 L-19.7,1702.1 L-161.0,1658.6 L-324.3,1618.7 L-502.4,1571.1 L-678.0,1504.5 L-828.4,1411.5 L-932.9,1292.1 L-980.9,1153.8 L-976.8,1008.0 L-939.0,864.8 L-893.5,729.0 L-863.6,598.5 L-860.9,466.4 L-880.2,325.7 L-901.0,175.2 L-895.3,21.6 L-838.6,-120.7 L-719.2,-234.6 L-542.8,-307.3 L-330.3,-336.0 L-110.1,-330.4 L91.5,-310.1 L259.4,-298.6 L392.5,-314.9 L502.0,-367.8 L605.0,-453.2 L717.5,-557.1 L849.0,-660.7 L1001.0,-747.7 L1169.1,-808.4 L1347.1,-841.2 L1529.7,-849.6 L1713.9,-838.0 L1897.0,-808.2 L2074.1,-757.9 L2236.1,-682.2 L2371.5,-577.6 L2469.4,-445.7 L2525.4,-294.3 L2544.9,-135.8 L2543.6,16.5 L2543.0,153.7 L2562.7,274.3 L2612.3,383.6 L2686.6,491.2 L2766.8,605.4 L2826.5,729.0 Z"/>
<text class="ct" x="864" y="592" text-anchor="middle">6,200</text>
<text class="ct" x="1350" y="369" text-anchor="middle">5,400</text>
<circle class="dot" cx="1001" cy="705" r="2.4"/>
<text class="pk" x="1001" y="725" text-anchor="middle">FLAGSTAFF MOUNTAIN</text>
<text class="el" x="1001" y="746" text-anchor="middle">6,983&#8242;</text>
</svg>