<svg xmlns="http://www.w3.org/2000/svg" width="2000" height="1400" viewBox="0 0 2000 1400">
<style>
  .c  { fill:none; stroke:#2A1B11; stroke-opacity:0.07; stroke-width:1.1; }
  .ix { fill:none; stroke:#2A1B11; stroke-opacity:0.12; stroke-width:1.6; }
  .ct { font:500 10px 'IBM Plex Mono',ui-monospace,monospace; fill:#2A1B11; fill-opacity:0.32;
        stroke:#F4ECDB; stroke-width:3; paint-order:stroke; }
  .pk { font:600 11.5px 'Inter Tight','Helvetica Neue',sans-serif; letter-spacing:0.15em; fill:#2A1B11; fill-opacity:0.2; }
  .el { font:500 10.5px 'IBM Plex Mono',ui-monospace,monospace; fill:#9C6A33; fill-opacity:0.34; }
  .dot { fill:#2A1B11; fill-opacity:0.24; }
</style>
<path class="c" d="M1130.9,817.0 L1131.3,821.1 L1132.0,825.3 L1132.1,829.7 L1131.0,833.9 L1128.3,837.6 L1124.0,840.6 L1118.9,842.7 L1113.8,844.4 L1109.3,846.0 L1106.0,848.5 L1103.7,852.1 L1101.8,856.9 L1099.6,862.7 L1096.4,868.5 L1091.9,873.5 L1086.2,876.7 L1079.7,877.8 L1073.0,876.9 L1066.7,874.3 L1061.1,870.8 L1056.2,867.1 L1051.9,863.5 L1047.8,860.2 L1044.0,857.1 L1040.5,854.1 L1037.4,850.9 L1034.6,847.7 L1032.0,844.5 L1029.3,841.5 L1026.2,838.6 L1022.5,835.9 L1018.2,833.0 L1013.8,829.7 L1010.1,825.9 L1007.6,821.6 L1006.9,817.0 L1007.8,812.4 L1009.9,808.1 L1012.3,804.0 L1014.5,800.0 L1015.9,795.7 L1016.7,791.0 L1017.3,785.8 L1018.8,780.6 L1021.6,775.9 L1026.3,772.5 L1032.6,770.8 L1039.8,771.0 L1047.2,772.8 L1054.0,775.3 L1059.8,777.6 L1064.6,779.0 L1068.8,779.0 L1073.0,777.7 L1077.5,775.5 L1082.7,773.1 L1088.3,771.2 L1094.3,770.3 L1100.2,770.3 L1106.0,771.2 L1111.7,772.8 L1117.1,775.0 L1122.3,777.6 L1127.0,780.7 L1130.9,784.6 L1133.6,789.0 L1134.8,793.9 L1134.7,799.0 L1133.6,804.0 L1132.2,808.6 L1131.2,812.9 L1130.9,817.0 Z"/>
<path class="c" d="M1188.8,817.0 L1189.6,825.2 L1191.0,833.6 L1191.2,842.3 L1189.0,850.8 L1183.5,858.2 L1175.1,864.2 L1164.8,868.4 L1154.5,871.7 L1145.6,875.1 L1139.0,879.9 L1134.4,887.1 L1130.6,896.9 L1126.3,908.4 L1119.9,920.0 L1110.8,929.9 L1099.3,936.4 L1086.3,938.7 L1073.0,936.7 L1060.5,931.6 L1049.3,924.6 L1039.5,917.1 L1030.7,910.0 L1022.6,903.4 L1015.1,897.3 L1008.1,891.2 L1001.8,884.9 L996.2,878.4 L991.1,872.0 L985.7,865.9 L979.4,860.2 L971.9,854.7 L963.3,848.9 L954.6,842.4 L947.2,834.8 L942.3,826.2 L940.8,817.0 L942.6,807.9 L946.7,799.2 L951.7,791.0 L956.0,782.9 L958.8,774.4 L960.3,765.0 L961.7,754.6 L964.5,744.2 L970.3,734.8 L979.6,727.9 L992.1,724.6 L1006.6,725.0 L1021.5,728.6 L1035.1,733.6 L1046.6,738.3 L1056.3,741.1 L1064.7,741.0 L1073.0,738.3 L1082.1,733.9 L1092.3,729.2 L1103.7,725.5 L1115.5,723.5 L1127.5,723.6 L1139.1,725.4 L1150.3,728.6 L1161.2,732.9 L1171.6,738.1 L1181.0,744.5 L1188.8,752.1 L1194.2,761.0 L1196.7,770.9 L1196.4,781.1 L1194.2,791.0 L1191.4,800.3 L1189.3,808.9 L1188.8,817.0 Z"/>
<path class="c" d="M1246.6,817.0 L1247.9,829.2 L1249.9,842.0 L1250.3,855.0 L1247.0,867.7 L1238.8,878.9 L1226.1,887.7 L1210.8,894.2 L1195.3,899.1 L1181.9,904.1 L1172.0,911.4 L1165.0,922.2 L1159.5,936.8 L1152.9,954.1 L1143.3,971.6 L1129.7,986.4 L1112.5,996.2 L1093.0,999.5 L1073.0,996.6 L1054.2,988.9 L1037.4,978.4 L1022.7,967.2 L1009.6,956.4 L997.5,946.6 L986.1,937.4 L975.6,928.3 L966.2,918.8 L957.8,909.1 L950.1,899.5 L942.0,890.4 L932.7,881.8 L921.4,873.6 L908.5,864.9 L895.5,855.1 L884.2,843.6 L876.9,830.7 L874.6,817.0 L877.4,803.3 L883.6,790.3 L891.0,778.0 L897.4,765.9 L901.7,753.1 L904.0,738.9 L906.0,723.5 L910.3,707.8 L918.9,693.7 L932.8,683.4 L951.7,678.4 L973.5,679.1 L995.7,684.3 L1016.1,691.9 L1033.5,698.9 L1047.9,703.1 L1060.5,703.0 L1073.0,699.0 L1086.6,692.4 L1102.0,685.4 L1119.0,679.7 L1136.8,676.8 L1154.7,676.9 L1172.1,679.7 L1189.0,684.5 L1205.3,690.9 L1220.9,698.7 L1235.1,708.2 L1246.8,719.7 L1254.8,733.0 L1258.5,747.8 L1258.1,763.1 L1254.8,778.0 L1250.6,791.9 L1247.5,804.8 L1246.6,817.0 Z"/>
<path class="ix" d="M1304.5,817.0 L1306.3,833.3 L1308.9,850.3 L1309.4,867.7 L1305.0,884.6 L1294.1,899.5 L1277.2,911.3 L1256.7,919.9 L1236.0,926.4 L1218.2,933.2 L1205.0,942.8 L1195.7,957.2 L1188.3,976.7 L1179.5,999.7 L1166.8,1023.1 L1148.7,1042.9 L1125.6,1055.9 L1099.6,1060.3 L1073.0,1056.5 L1047.9,1046.2 L1025.6,1032.2 L1005.9,1017.2 L988.4,1002.9 L972.3,989.8 L957.2,977.5 L943.2,965.3 L930.6,952.8 L919.5,939.8 L909.1,927.0 L898.4,914.8 L885.9,903.4 L870.8,892.4 L853.7,880.9 L836.3,867.7 L821.3,852.5 L811.5,835.3 L808.5,817.0 L812.2,798.7 L820.4,781.4 L830.3,765.0 L838.9,748.8 L844.6,731.8 L847.6,712.9 L850.4,692.3 L856.0,671.4 L867.5,652.6 L886.1,638.8 L911.2,632.2 L940.3,633.1 L969.9,640.1 L997.1,650.2 L1020.3,659.6 L1039.5,665.1 L1056.4,665.0 L1073.0,659.7 L1091.2,650.9 L1111.7,641.5 L1134.3,634.0 L1158.1,630.0 L1181.9,630.2 L1205.2,633.9 L1227.7,640.3 L1249.4,648.8 L1270.2,659.3 L1289.1,671.9 L1304.7,687.2 L1315.4,705.0 L1320.4,724.7 L1319.8,745.1 L1315.4,765.0 L1309.8,783.6 L1305.6,800.7 L1304.5,817.0 Z"/>
<path class="c" d="M1362.4,817.0 L1364.6,837.4 L1367.9,858.6 L1368.6,880.4 L1363.0,901.4 L1349.4,920.1 L1328.2,934.9 L1302.6,945.6 L1276.8,953.8 L1254.5,962.2 L1237.9,974.3 L1226.4,992.3 L1217.1,1016.7 L1206.2,1045.4 L1190.2,1074.6 L1167.6,1099.3 L1138.8,1115.6 L1106.3,1121.2 L1073.0,1116.3 L1041.7,1103.5 L1013.7,1086.0 L989.2,1067.3 L967.3,1049.4 L947.1,1033.0 L928.2,1017.6 L910.7,1002.4 L895.0,986.7 L881.1,970.5 L868.2,954.5 L854.7,939.3 L839.1,925.0 L820.3,911.3 L798.9,896.8 L777.1,880.4 L758.4,861.4 L746.2,839.9 L742.4,817.0 L746.9,794.2 L757.3,772.5 L769.7,752.0 L780.4,731.8 L787.4,710.5 L791.3,686.9 L794.7,661.1 L801.8,635.0 L816.1,611.5 L839.4,594.3 L870.8,586.0 L907.1,587.1 L944.1,595.9 L978.1,608.5 L1007.1,620.2 L1031.2,627.1 L1052.2,627.0 L1073.0,620.3 L1095.7,609.4 L1121.4,597.6 L1149.6,588.2 L1179.3,583.3 L1209.1,583.5 L1238.2,588.1 L1266.3,596.1 L1293.5,606.8 L1319.5,619.8 L1343.1,635.7 L1362.6,654.8 L1376.0,677.0 L1382.2,701.7 L1381.5,727.2 L1376.0,752.1 L1369.0,775.2 L1363.8,796.6 L1362.4,817.0 Z"/>
<path class="c" d="M1420.3,817.0 L1422.9,841.5 L1426.9,866.9 L1427.7,893.0 L1421.0,918.3 L1404.6,940.7 L1379.3,958.5 L1348.5,971.3 L1317.5,981.1 L1290.8,991.3 L1270.9,1005.7 L1257.1,1027.3 L1245.9,1056.6 L1232.8,1091.1 L1213.6,1126.1 L1186.5,1155.8 L1152.0,1175.3 L1112.9,1182.0 L1073.0,1176.2 L1035.4,1160.8 L1001.8,1139.9 L972.4,1117.4 L946.1,1095.9 L921.9,1076.2 L899.2,1057.8 L878.2,1039.5 L859.4,1020.7 L842.7,1001.3 L827.2,982.0 L811.1,963.7 L792.3,946.6 L769.7,930.1 L744.0,912.8 L717.9,893.1 L695.5,870.3 L680.8,844.5 L676.3,817.0 L681.7,789.6 L694.2,763.6 L709.0,739.0 L721.9,714.8 L730.3,689.2 L734.9,660.9 L739.1,629.9 L747.6,598.5 L764.8,570.4 L792.7,549.8 L830.3,539.7 L873.9,541.1 L918.4,551.7 L959.2,566.8 L993.9,580.9 L1022.8,589.2 L1048.1,589.1 L1073.0,581.0 L1100.2,567.8 L1131.0,553.7 L1165.0,542.4 L1200.6,536.6 L1236.4,536.7 L1271.2,542.3 L1305.0,551.9 L1337.6,564.7 L1368.8,580.4 L1397.1,599.4 L1420.5,622.3 L1436.6,649.0 L1444.0,678.6 L1443.2,709.2 L1436.6,739.1 L1428.2,766.9 L1422.0,792.6 L1420.3,817.0 Z"/>
<path class="c" d="M1478.2,817.0 L1481.2,845.6 L1485.8,875.2 L1486.8,905.7 L1479.0,935.2 L1459.9,961.3 L1430.3,982.0 L1394.4,997.1 L1358.3,1008.5 L1327.1,1020.3 L1303.9,1037.2 L1287.8,1062.4 L1274.7,1096.5 L1259.4,1136.8 L1237.1,1177.6 L1205.4,1212.3 L1165.1,1235.0 L1119.6,1242.8 L1073.0,1236.1 L1029.1,1218.1 L990.0,1193.7 L955.6,1167.4 L925.0,1142.3 L896.7,1119.4 L870.3,1097.9 L845.8,1076.6 L823.8,1054.6 L804.3,1032.0 L786.2,1009.5 L767.4,988.2 L745.5,968.3 L719.2,949.0 L689.2,928.8 L658.7,905.8 L632.6,879.1 L615.4,849.0 L610.2,817.0 L616.5,785.1 L631.0,754.7 L648.4,726.0 L663.4,697.7 L673.2,667.9 L678.6,634.8 L683.4,598.8 L693.3,562.1 L713.4,529.3 L746.0,505.2 L789.9,493.5 L840.7,495.1 L892.6,507.5 L940.2,525.1 L980.7,541.5 L1014.4,551.2 L1043.9,551.1 L1073.0,541.7 L1104.8,526.3 L1140.7,509.8 L1180.3,496.7 L1221.9,489.8 L1263.6,490.0 L1304.3,496.5 L1343.7,507.8 L1381.7,522.7 L1418.1,540.9 L1451.1,563.2 L1478.4,589.9 L1497.2,621.1 L1505.9,655.5 L1504.9,691.3 L1497.2,726.1 L1487.4,758.5 L1480.1,788.5 L1478.2,817.0 Z"/>
<path class="ix" d="M1536.1,817.0 L1539.5,849.7 L1544.8,883.6 L1545.9,918.4 L1537.0,952.1 L1515.2,982.0 L1481.3,1005.6 L1440.4,1022.8 L1399.0,1035.8 L1363.5,1049.4 L1336.9,1068.6 L1318.4,1097.4 L1303.5,1136.4 L1286.0,1182.5 L1260.5,1229.2 L1224.3,1268.8 L1178.3,1294.7 L1126.2,1303.7 L1073.0,1295.9 L1022.9,1275.4 L978.1,1247.5 L938.9,1217.5 L903.8,1188.8 L871.6,1162.6 L841.3,1138.0 L813.3,1113.7 L788.2,1088.5 L765.9,1062.7 L745.3,1037.0 L723.8,1012.6 L698.7,989.9 L668.6,967.8 L634.4,944.7 L599.6,918.5 L569.7,888.0 L550.1,853.6 L544.1,817.0 L551.3,780.5 L567.9,745.7 L587.7,713.0 L604.8,680.7 L616.1,646.6 L622.3,608.8 L627.8,567.6 L639.1,525.7 L662.0,488.2 L699.3,460.7 L749.4,447.3 L807.5,449.2 L866.8,463.2 L921.2,483.4 L967.6,502.2 L1006.0,513.2 L1039.8,513.1 L1073.0,502.3 L1109.3,484.8 L1150.4,465.9 L1195.6,450.9 L1243.1,443.1 L1290.8,443.3 L1337.3,450.7 L1382.3,463.6 L1425.8,480.6 L1467.4,501.5 L1505.2,526.9 L1536.4,557.4 L1557.8,593.1 L1567.7,632.5 L1566.6,673.3 L1557.8,713.1 L1546.6,750.2 L1538.3,784.4 L1536.1,817.0 Z"/>
<path class="c" d="M1593.9,817.0 L1597.8,853.7 L1603.8,891.9 L1605.0,931.0 L1595.0,969.0 L1570.4,1002.6 L1532.4,1029.2 L1486.3,1048.5 L1439.8,1063.2 L1399.8,1078.4 L1369.9,1100.1 L1349.1,1132.5 L1332.4,1176.4 L1312.7,1228.2 L1284.0,1280.7 L1243.2,1325.2 L1191.5,1354.5 L1132.9,1364.5 L1073.0,1355.8 L1016.6,1332.7 L966.3,1301.3 L922.1,1267.5 L882.7,1235.3 L846.4,1205.8 L812.4,1178.1 L780.9,1150.8 L752.6,1122.5 L727.5,1093.4 L704.3,1064.5 L680.1,1037.1 L652.0,1011.5 L618.1,986.7 L579.6,960.7 L540.4,931.2 L506.7,896.9 L484.7,858.2 L477.9,817.0 L486.1,775.9 L504.7,736.8 L527.0,700.0 L546.3,663.6 L559.0,625.3 L565.9,582.8 L572.1,536.4 L584.9,489.3 L610.6,447.1 L652.5,416.1 L709.0,401.1 L774.4,403.2 L841.0,419.0 L902.3,441.7 L954.4,462.8 L997.7,475.2 L1035.6,475.1 L1073.0,463.0 L1113.9,443.3 L1160.1,422.1 L1210.9,405.2 L1264.4,396.3 L1318.0,396.6 L1370.4,405.0 L1421.0,419.4 L1469.9,438.6 L1516.7,462.1 L1559.2,490.6 L1594.3,525.0 L1618.4,565.1 L1629.5,609.4 L1628.3,655.3 L1618.4,700.1 L1605.8,741.8 L1596.5,780.4 L1593.9,817.0 Z"/>
<path class="c" d="M1651.8,817.0 L1656.2,857.8 L1662.8,900.2 L1664.1,943.7 L1653.0,985.9 L1625.7,1023.2 L1583.4,1052.8 L1532.2,1074.2 L1480.5,1090.6 L1436.1,1107.5 L1402.9,1131.5 L1379.8,1167.5 L1361.2,1216.3 L1339.3,1273.9 L1307.4,1332.2 L1262.1,1381.7 L1204.6,1414.2 L1139.5,1425.3 L1073.0,1415.7 L1010.3,1390.0 L954.4,1355.1 L905.3,1317.6 L861.6,1281.8 L821.2,1249.0 L783.4,1218.3 L748.4,1187.8 L717.0,1156.4 L689.1,1124.1 L663.3,1092.0 L636.5,1061.5 L605.2,1033.1 L567.6,1005.6 L524.7,976.6 L481.2,943.9 L443.8,905.8 L419.3,862.8 L411.8,817.0 L420.9,771.4 L441.6,727.9 L466.4,687.0 L487.8,646.6 L501.9,604.0 L509.6,556.8 L516.5,505.2 L530.6,452.9 L559.3,406.0 L605.8,371.6 L668.6,354.9 L741.2,357.2 L815.3,374.8 L883.3,400.0 L941.2,423.5 L989.3,437.3 L1031.5,437.1 L1073.0,423.7 L1118.4,401.7 L1169.7,378.2 L1226.3,359.4 L1285.7,349.6 L1345.3,349.9 L1403.4,359.2 L1459.7,375.2 L1514.0,396.5 L1565.9,422.6 L1613.2,454.4 L1652.2,492.6 L1679.0,537.1 L1691.4,586.3 L1689.9,637.4 L1679.0,687.1 L1665.0,733.5 L1654.6,776.3 L1651.8,817.0 Z"/>
<path class="c" d="M1709.7,817.0 L1714.5,861.9 L1721.7,908.5 L1723.2,956.4 L1711.0,1002.8 L1681.0,1043.8 L1634.5,1076.3 L1578.1,1100.0 L1521.3,1117.9 L1472.4,1136.5 L1435.9,1163.0 L1410.5,1202.6 L1390.0,1256.2 L1365.9,1319.6 L1330.8,1383.7 L1281.0,1438.2 L1217.8,1473.9 L1146.2,1486.2 L1073.0,1475.5 L1004.1,1447.3 L942.5,1408.9 L888.6,1367.7 L840.4,1328.2 L796.0,1292.2 L754.4,1258.4 L716.0,1224.9 L681.4,1190.4 L650.8,1154.8 L622.3,1119.5 L592.8,1086.0 L558.4,1054.7 L517.0,1024.4 L469.9,992.6 L422.0,956.5 L380.9,914.6 L354.0,867.3 L345.7,817.0 L355.7,766.8 L378.5,719.0 L405.7,674.0 L429.3,629.6 L444.8,582.6 L453.2,530.7 L460.8,474.1 L476.4,416.5 L507.9,364.9 L559.1,327.0 L628.1,308.7 L708.0,311.2 L789.5,330.6 L864.3,358.3 L928.0,384.1 L980.9,399.3 L1027.3,399.1 L1073.0,384.3 L1123.0,360.2 L1179.4,334.3 L1241.6,313.6 L1306.9,302.8 L1372.5,303.2 L1436.4,313.4 L1498.3,331.1 L1558.1,354.5 L1615.2,383.2 L1667.2,418.1 L1710.1,460.1 L1739.6,509.1 L1753.2,563.2 L1751.6,619.4 L1739.6,674.1 L1724.2,725.1 L1712.8,772.2 L1709.7,817.0 Z"/>
<path class="ix" d="M1767.6,817.0 L1772.8,866.0 L1780.7,916.8 L1782.3,969.1 L1769.0,1019.7 L1736.3,1064.4 L1685.5,1099.9 L1624.0,1125.7 L1562.0,1145.3 L1508.7,1165.5 L1468.9,1194.4 L1441.1,1237.6 L1418.8,1296.2 L1392.6,1365.2 L1354.3,1435.2 L1300.0,1494.6 L1230.9,1533.6 L1152.8,1547.0 L1073.0,1535.4 L997.8,1504.6 L930.7,1462.7 L871.8,1417.7 L819.3,1374.7 L770.9,1335.4 L725.5,1298.5 L683.5,1262.0 L645.8,1224.3 L612.4,1185.5 L581.4,1147.0 L549.1,1110.4 L511.6,1076.3 L466.5,1043.3 L415.1,1008.6 L362.9,969.2 L318.0,923.5 L288.6,871.9 L279.6,817.0 L290.5,762.2 L315.3,710.1 L345.0,661.0 L370.8,612.5 L387.7,561.3 L396.9,504.7 L405.1,442.9 L422.1,380.1 L456.5,323.8 L512.4,282.5 L587.7,262.5 L674.8,265.3 L763.7,286.4 L845.3,316.6 L914.8,344.8 L972.6,361.3 L1023.1,361.1 L1073.0,345.0 L1127.5,318.7 L1189.1,290.4 L1256.9,267.9 L1328.2,256.1 L1399.7,256.5 L1469.5,267.6 L1537.0,286.9 L1602.2,312.4 L1664.5,343.8 L1721.3,381.8 L1768.0,427.7 L1800.2,481.1 L1815.1,540.2 L1813.3,601.4 L1800.2,661.1 L1783.4,716.8 L1770.9,768.2 L1767.6,817.0 Z"/>
<path class="c" d="M1825.5,817.0 L1831.1,870.1 L1839.7,925.2 L1841.4,981.7 L1827.0,1036.6 L1791.5,1085.0 L1736.6,1123.5 L1670.0,1151.4 L1602.8,1172.6 L1545.0,1194.6 L1501.8,1225.9 L1471.8,1272.7 L1447.6,1336.1 L1419.2,1410.9 L1377.7,1486.7 L1318.9,1551.1 L1244.1,1593.3 L1159.5,1607.8 L1073.0,1595.3 L991.5,1561.9 L918.8,1516.5 L855.0,1467.8 L798.1,1421.2 L745.7,1378.6 L696.5,1338.7 L651.0,1299.1 L610.2,1258.3 L574.0,1216.2 L540.4,1174.5 L505.5,1134.9 L464.8,1097.9 L415.9,1062.1 L360.2,1024.5 L303.7,981.9 L255.1,932.4 L223.2,876.5 L213.5,817.0 L225.2,757.7 L252.2,701.2 L284.4,648.0 L312.3,595.5 L330.6,540.0 L340.5,478.7 L349.5,411.7 L367.9,343.7 L405.1,282.7 L465.7,238.0 L547.2,216.3 L641.6,219.3 L737.9,242.2 L826.4,274.9 L901.7,305.4 L964.2,323.3 L1019.0,323.1 L1073.0,305.7 L1132.0,277.2 L1198.7,246.5 L1272.2,222.1 L1349.5,209.4 L1426.9,209.8 L1502.5,221.8 L1575.6,242.7 L1646.4,270.4 L1713.8,304.3 L1775.3,345.6 L1826.0,395.2 L1860.9,453.1 L1876.9,517.1 L1875.0,583.5 L1860.7,648.1 L1842.6,708.4 L1829.1,764.1 L1825.5,817.0 Z"/>
<path class="c" d="M1883.3,817.0 L1889.4,874.1 L1898.7,933.5 L1900.6,994.4 L1885.0,1053.4 L1846.8,1105.7 L1787.6,1147.1 L1715.9,1177.1 L1643.5,1200.0 L1581.3,1223.6 L1534.8,1257.3 L1502.5,1307.7 L1476.4,1376.0 L1445.8,1456.6 L1401.2,1538.3 L1337.8,1607.6 L1257.3,1653.1 L1166.1,1668.7 L1073.0,1655.1 L985.3,1619.2 L907.0,1570.3 L838.3,1517.8 L777.0,1467.7 L720.5,1421.8 L667.6,1378.8 L618.6,1336.2 L574.6,1292.2 L535.6,1246.9 L499.4,1202.0 L461.8,1159.4 L418.0,1119.5 L365.4,1081.0 L305.4,1040.5 L244.5,994.6 L192.2,941.3 L157.9,881.1 L147.3,817.0 L160.0,753.1 L189.1,692.3 L223.7,634.9 L253.7,578.4 L273.4,518.7 L284.2,452.7 L293.8,380.5 L313.7,307.3 L353.8,241.6 L418.9,193.4 L506.8,170.1 L608.4,173.3 L712.2,197.9 L807.4,233.2 L888.5,266.1 L955.8,285.4 L1014.8,285.1 L1073.0,266.3 L1136.6,235.6 L1208.4,202.6 L1287.6,176.4 L1370.7,162.6 L1454.2,163.1 L1535.6,176.0 L1614.3,198.5 L1690.5,228.3 L1763.1,264.9 L1829.3,309.3 L1883.9,362.8 L1921.5,425.1 L1938.7,494.0 L1936.7,565.5 L1921.3,635.1 L1901.8,700.1 L1887.3,760.0 L1883.3,817.0 Z"/>
<path class="c" d="M1941.2,817.0 L1947.7,878.2 L1957.7,941.8 L1959.7,1007.1 L1943.0,1070.3 L1902.1,1126.3 L1838.7,1170.6 L1761.8,1202.8 L1684.3,1227.3 L1617.6,1252.7 L1567.8,1288.8 L1533.2,1342.8 L1505.3,1416.0 L1472.5,1502.3 L1424.6,1589.8 L1356.7,1664.0 L1270.4,1712.8 L1172.8,1729.5 L1073.0,1715.0 L979.0,1676.5 L895.1,1624.1 L821.5,1567.9 L755.8,1514.1 L695.3,1465.0 L638.6,1418.9 L586.1,1373.3 L539.0,1326.1 L497.2,1277.6 L458.5,1229.5 L418.2,1183.8 L371.3,1141.1 L314.8,1099.8 L250.6,1056.5 L185.3,1007.3 L129.2,950.1 L92.5,885.6 L81.2,817.0 L94.8,748.5 L125.9,683.4 L163.0,621.9 L195.2,561.4 L216.3,497.4 L227.8,426.6 L238.2,349.4 L259.4,270.9 L302.4,200.5 L372.2,148.9 L466.3,123.9 L575.3,127.3 L686.4,153.7 L788.4,191.5 L875.3,226.7 L947.5,247.4 L1010.7,247.1 L1073.0,227.0 L1141.1,194.1 L1218.1,158.8 L1302.9,130.6 L1392.0,115.9 L1481.4,116.4 L1568.6,130.3 L1653.0,154.4 L1734.6,186.3 L1812.4,225.5 L1883.3,273.1 L1941.8,330.3 L1982.1,397.1 L2000.6,471.0 L1998.4,547.5 L1981.9,622.2 L1961.0,691.7 L1945.4,755.9 L1941.2,817.0 Z"/>
<path class="ix" d="M1999.1,817.0 L2006.1,882.3 L2016.6,950.1 L2018.8,1019.7 L2001.0,1087.2 L1957.3,1146.9 L1889.7,1194.2 L1807.7,1228.6 L1725.0,1254.7 L1653.9,1281.7 L1600.8,1320.2 L1563.9,1377.8 L1534.1,1455.9 L1499.1,1548.0 L1448.0,1641.3 L1375.6,1720.5 L1283.6,1772.5 L1179.4,1790.3 L1073.0,1774.9 L972.7,1733.8 L883.2,1678.0 L804.7,1617.9 L734.7,1560.6 L670.1,1508.1 L609.7,1459.0 L553.7,1410.4 L503.4,1360.1 L458.8,1308.3 L417.5,1257.0 L374.5,1208.3 L324.5,1162.7 L264.3,1118.7 L195.8,1072.4 L126.1,1020.0 L66.3,959.0 L27.1,890.2 L15.1,817.0 L29.6,744.0 L62.8,674.5 L102.4,608.9 L136.7,544.4 L159.2,476.1 L171.5,400.6 L182.5,318.2 L205.2,234.4 L251.0,159.4 L325.5,104.3 L425.9,77.7 L542.1,81.3 L660.6,109.5 L769.5,149.8 L862.1,187.4 L939.1,209.4 L1006.5,209.2 L1073.0,187.7 L1145.7,152.6 L1227.8,114.9 L1318.2,84.8 L1413.2,69.1 L1508.6,69.7 L1601.7,84.5 L1691.6,110.2 L1778.7,144.2 L1861.7,186.0 L1937.3,236.8 L1999.7,297.9 L2042.7,369.1 L2062.4,447.9 L2060.1,529.6 L2042.5,609.2 L2020.2,683.4 L2003.6,751.9 L1999.1,817.0 Z"/>
<path class="c" d="M2057.0,817.0 L2064.4,886.4 L2075.6,958.4 L2077.9,1032.4 L2059.0,1104.1 L2012.6,1167.5 L1940.7,1217.8 L1853.6,1254.3 L1765.8,1282.0 L1690.2,1310.8 L1633.8,1351.7 L1594.5,1412.9 L1562.9,1495.8 L1525.7,1593.7 L1471.5,1692.8 L1394.5,1777.0 L1296.8,1832.2 L1186.1,1851.1 L1073.0,1834.7 L966.5,1791.1 L871.4,1731.8 L788.0,1668.0 L713.5,1607.1 L645.0,1551.3 L580.7,1499.2 L521.2,1447.4 L467.8,1394.0 L420.4,1339.1 L376.5,1284.5 L330.9,1232.7 L277.7,1184.3 L213.7,1137.5 L140.9,1088.4 L67.0,1032.7 L3.4,967.9 L-38.2,894.8 L-51.0,817.0 L-35.6,739.4 L-0.4,665.6 L41.7,595.9 L78.2,527.3 L102.1,454.8 L115.2,374.6 L126.9,287.0 L150.9,198.0 L199.6,118.3 L278.8,59.8 L385.4,31.5 L508.9,35.4 L634.8,65.3 L750.5,108.1 L848.9,148.0 L930.7,171.4 L1002.4,171.2 L1073.0,148.3 L1150.2,111.1 L1237.4,71.0 L1333.6,39.1 L1434.5,22.4 L1535.8,22.9 L1634.7,38.7 L1730.3,66.0 L1822.8,102.2 L1911.0,146.6 L1991.4,200.5 L2057.6,265.4 L2103.3,341.1 L2124.2,424.8 L2121.8,511.6 L2103.1,596.2 L2079.4,675.0 L2061.7,747.8 L2057.0,817.0 Z"/>
<path class="c" d="M2114.9,817.0 L2122.7,890.5 L2134.6,966.7 L2137.0,1045.1 L2117.1,1121.0 L2067.9,1188.1 L1991.8,1241.4 L1899.6,1280.0 L1806.5,1309.4 L1726.5,1339.8 L1666.8,1383.1 L1625.2,1447.9 L1591.7,1535.8 L1552.3,1639.4 L1494.9,1744.3 L1413.4,1833.4 L1309.9,1891.9 L1192.7,1912.0 L1073.0,1894.6 L960.2,1848.4 L859.5,1785.6 L771.2,1718.1 L692.4,1653.6 L619.8,1594.5 L551.7,1539.3 L488.7,1484.5 L432.2,1428.0 L382.0,1369.8 L335.6,1312.0 L287.2,1257.2 L230.9,1205.9 L163.2,1156.4 L86.1,1104.4 L7.8,1045.3 L-59.5,976.8 L-103.6,899.4 L-117.1,817.0 L-100.8,734.8 L-63.5,656.7 L-18.9,582.9 L19.7,510.3 L45.0,433.5 L58.8,348.6 L71.2,255.8 L96.7,161.6 L148.3,77.2 L232.1,15.3 L345.0,-14.8 L475.7,-10.6 L609.1,21.1 L731.5,66.4 L835.8,108.7 L922.3,133.5 L998.2,133.2 L1073.0,109.0 L1154.7,69.5 L1247.1,27.1 L1348.9,-6.7 L1455.8,-24.3 L1563.1,-23.8 L1667.7,-7.1 L1769.0,21.8 L1866.9,60.1 L1960.3,107.2 L2045.4,164.3 L2115.6,233.0 L2163.9,313.1 L2186.1,401.8 L2183.5,493.6 L2163.7,583.2 L2138.6,666.7 L2119.9,743.7 L2114.9,817.0 Z"/>
<path class="c" d="M2172.7,817.0 L2181.0,894.6 L2193.6,975.1 L2196.1,1057.8 L2175.1,1137.9 L2123.2,1208.8 L2042.8,1264.9 L1945.5,1305.7 L1847.3,1336.7 L1762.8,1368.9 L1699.8,1414.6 L1655.9,1483.0 L1620.5,1575.7 L1579.0,1685.0 L1518.3,1795.9 L1432.4,1889.9 L1323.1,1951.6 L1199.4,1972.8 L1073.0,1954.5 L953.9,1905.6 L847.7,1839.4 L754.4,1768.1 L671.2,1700.0 L594.6,1637.7 L522.8,1579.4 L456.3,1521.6 L396.6,1461.9 L343.7,1400.5 L294.6,1339.5 L243.6,1281.6 L184.1,1227.6 L112.7,1175.3 L31.3,1120.3 L-51.4,1058.0 L-122.4,985.6 L-169.0,903.9 L-183.3,817.0 L-166.0,730.3 L-126.6,647.8 L-79.6,569.9 L-38.9,493.3 L-12.1,412.2 L2.5,322.5 L15.6,224.7 L42.5,125.2 L96.9,36.1 L185.4,-29.3 L304.6,-61.0 L442.5,-56.6 L583.3,-23.2 L712.5,24.7 L822.6,69.3 L914.0,95.5 L994.1,95.2 L1073.0,69.7 L1159.3,28.0 L1256.8,-16.8 L1364.2,-52.5 L1477.0,-71.1 L1590.3,-70.5 L1700.8,-52.9 L1807.6,-22.3 L1911.0,18.1 L2009.6,67.7 L2099.4,128.0 L2173.5,200.5 L2224.5,285.2 L2247.9,378.7 L2245.2,475.7 L2224.3,570.2 L2197.8,658.3 L2178.1,739.7 L2172.7,817.0 Z"/>
<path class="ix" d="M2230.6,817.0 L2239.3,898.6 L2252.5,983.4 L2255.2,1070.4 L2233.1,1154.8 L2178.4,1229.4 L2093.9,1288.5 L1991.4,1331.5 L1888.0,1364.1 L1799.1,1397.9 L1732.8,1446.0 L1686.6,1518.0 L1649.4,1615.6 L1605.6,1730.7 L1541.8,1847.4 L1451.3,1946.4 L1336.2,2011.4 L1206.1,2033.6 L1073.0,2014.3 L947.7,1962.9 L835.8,1893.2 L737.7,1818.2 L650.1,1746.5 L569.4,1680.9 L493.8,1619.5 L423.8,1558.7 L361.0,1495.9 L305.3,1431.2 L253.6,1367.0 L199.9,1306.1 L137.3,1249.2 L62.1,1194.1 L-23.5,1136.3 L-110.6,1070.7 L-185.4,994.5 L-234.3,908.5 L-249.4,817.0 L-231.2,725.7 L-189.8,638.9 L-140.3,556.9 L-97.4,476.2 L-69.2,390.9 L-53.9,296.5 L-40.1,193.5 L-11.8,88.8 L45.5,-5.0 L138.6,-73.8 L264.1,-107.2 L409.4,-102.6 L557.5,-67.4 L693.6,-17.0 L809.4,30.0 L905.6,57.5 L989.9,57.2 L1073.0,30.3 L1163.8,-13.5 L1266.4,-60.7 L1379.5,-98.2 L1498.3,-117.8 L1617.5,-117.2 L1733.8,-98.7 L1846.3,-66.5 L1955.1,-24.0 L2058.9,28.3 L2153.4,91.7 L2231.4,168.1 L2285.1,257.2 L2309.8,355.6 L2306.9,457.7 L2284.9,557.2 L2257.0,650.0 L2236.2,735.6 L2230.6,817.0 Z"/>
<path class="c" d="M2288.5,817.0 L2297.6,902.7 L2311.5,991.7 L2314.3,1083.1 L2291.1,1171.7 L2233.7,1250.0 L2144.9,1312.1 L2037.3,1357.2 L1928.8,1391.5 L1835.4,1427.0 L1765.7,1477.5 L1717.3,1553.1 L1678.2,1655.5 L1632.2,1776.4 L1565.2,1898.9 L1470.2,2002.9 L1349.4,2071.1 L1212.7,2094.5 L1073.0,2074.2 L941.4,2020.2 L823.9,1947.0 L720.9,1868.2 L629.0,1793.0 L544.2,1724.1 L464.9,1659.7 L391.4,1595.8 L325.4,1529.8 L266.9,1461.9 L212.7,1394.5 L156.3,1330.5 L90.6,1270.8 L11.6,1213.0 L-78.4,1152.3 L-169.8,1083.4 L-248.3,1003.4 L-299.7,913.1 L-315.5,817.0 L-296.5,721.2 L-252.9,630.0 L-200.9,543.9 L-155.9,459.2 L-126.3,369.6 L-110.2,270.5 L-95.8,162.3 L-66.0,52.4 L-5.9,-46.1 L91.9,-118.4 L223.7,-153.4 L376.2,-148.6 L531.7,-111.6 L674.6,-58.7 L796.2,-9.4 L897.2,19.5 L985.8,19.2 L1073.0,-9.0 L1168.4,-55.0 L1276.1,-104.5 L1394.9,-144.0 L1519.6,-164.6 L1644.7,-163.9 L1766.9,-144.4 L1885.0,-110.7 L1999.2,-66.0 L2108.2,-11.2 L2207.4,55.5 L2289.3,135.7 L2345.7,229.2 L2371.6,332.6 L2368.6,439.8 L2345.5,544.2 L2316.2,641.6 L2294.4,731.5 L2288.5,817.0 Z"/>
<path class="c" d="M2346.4,817.0 L2356.0,906.8 L2370.5,1000.0 L2373.5,1095.8 L2349.1,1188.6 L2289.0,1270.6 L2196.0,1335.7 L2083.2,1382.9 L1969.5,1418.8 L1871.8,1456.0 L1798.7,1508.9 L1747.9,1588.1 L1707.0,1695.5 L1658.9,1822.1 L1588.7,1950.4 L1489.1,2059.3 L1362.6,2130.8 L1219.4,2155.3 L1073.0,2134.1 L935.1,2077.5 L812.1,2000.8 L704.1,1918.3 L607.8,1839.5 L519.1,1767.3 L435.9,1699.8 L358.9,1632.9 L289.8,1563.7 L228.5,1492.6 L171.7,1422.0 L112.6,1355.0 L43.8,1292.4 L-39.0,1231.8 L-133.2,1168.2 L-228.9,1096.1 L-311.2,1012.3 L-365.1,917.7 L-381.6,817.0 L-361.7,716.6 L-316.1,621.1 L-261.6,530.9 L-214.4,442.1 L-183.4,348.3 L-166.6,244.5 L-151.4,131.1 L-120.3,16.0 L-57.2,-87.2 L45.2,-162.9 L183.2,-199.6 L343.0,-194.5 L506.0,-155.8 L655.6,-100.4 L783.0,-48.7 L888.9,-18.4 L981.6,-18.8 L1073.0,-48.3 L1172.9,-96.6 L1285.8,-148.4 L1410.2,-189.7 L1540.8,-211.3 L1672.0,-210.6 L1799.9,-190.2 L1923.6,-154.9 L2043.3,-108.1 L2157.5,-50.6 L2261.5,19.2 L2347.2,103.2 L2406.3,201.2 L2433.4,309.5 L2430.3,421.8 L2406.1,531.2 L2375.4,633.3 L2352.5,727.4 L2346.4,817.0 Z"/>
<path class="c" d="M2404.3,817.0 L2414.3,910.9 L2429.5,1008.3 L2432.6,1108.4 L2407.1,1205.4 L2344.2,1291.2 L2247.0,1359.2 L2129.2,1408.6 L2010.3,1446.2 L1908.1,1485.0 L1831.7,1540.4 L1778.6,1623.2 L1735.8,1735.4 L1685.5,1867.8 L1612.1,2001.9 L1508.0,2115.8 L1375.7,2190.5 L1226.0,2216.1 L1073.0,2194.0 L928.9,2134.8 L800.2,2054.6 L687.4,1968.4 L586.7,1886.0 L493.9,1810.5 L406.9,1739.9 L326.5,1669.9 L254.2,1597.7 L190.1,1523.3 L130.7,1449.5 L68.9,1379.4 L-3.0,1314.0 L-89.5,1250.7 L-188.0,1184.2 L-288.1,1108.8 L-374.1,1021.1 L-430.4,922.2 L-447.7,817.0 L-426.9,712.0 L-379.2,612.2 L-322.3,517.9 L-272.9,425.1 L-240.5,327.0 L-222.9,218.4 L-207.1,100.0 L-174.5,-20.4 L-108.6,-128.3 L-1.5,-207.4 L142.8,-245.8 L309.8,-240.5 L480.2,-200.0 L636.7,-142.1 L769.9,-88.1 L880.5,-56.4 L977.4,-56.8 L1073.0,-87.6 L1177.4,-138.1 L1295.5,-192.3 L1425.5,-235.5 L1562.1,-258.1 L1699.2,-257.3 L1832.9,-236.0 L1962.3,-199.0 L2087.4,-150.1 L2206.8,-90.0 L2315.5,-17.1 L2405.2,70.8 L2466.9,173.2 L2495.3,286.4 L2492.0,403.8 L2466.7,518.2 L2434.6,624.9 L2410.7,723.4 L2404.3,817.0 Z"/>
<path class="ix" d="M2462.2,817.0 L2472.6,915.0 L2488.5,1016.7 L2491.7,1121.1 L2465.1,1222.3 L2399.5,1311.9 L2298.0,1382.8 L2175.1,1434.3 L2051.0,1473.5 L1944.4,1514.1 L1864.7,1571.8 L1809.3,1658.2 L1764.6,1775.3 L1712.1,1913.5 L1635.5,2053.5 L1526.9,2172.3 L1388.9,2250.2 L1232.7,2277.0 L1073.0,2253.8 L922.6,2192.1 L788.4,2108.4 L670.6,2018.4 L565.5,1932.4 L468.7,1853.7 L378.0,1780.1 L294.0,1707.0 L218.6,1631.6 L151.7,1554.0 L89.8,1477.0 L25.3,1403.9 L-49.8,1335.6 L-140.1,1269.5 L-242.9,1200.1 L-347.3,1121.5 L-437.0,1030.0 L-495.8,926.8 L-513.8,817.0 L-492.1,707.5 L-442.3,603.2 L-382.9,504.9 L-331.5,408.1 L-297.7,305.7 L-279.2,192.4 L-262.7,68.8 L-228.7,-56.8 L-160.0,-169.4 L-48.2,-252.0 L102.3,-292.0 L276.6,-286.5 L454.4,-244.3 L617.7,-183.8 L756.7,-127.4 L872.1,-94.4 L973.3,-94.8 L1073.0,-127.0 L1182.0,-179.6 L1305.1,-236.2 L1440.8,-281.3 L1583.4,-304.8 L1726.4,-304.0 L1866.0,-281.8 L2001.0,-243.2 L2131.5,-192.2 L2256.1,-129.5 L2369.5,-53.3 L2463.1,38.3 L2527.5,145.2 L2557.1,263.4 L2553.7,385.9 L2527.3,505.3 L2493.8,616.6 L2468.9,719.3 L2462.2,817.0 Z"/>
<path class="c" d="M2520.0,817.0 L2530.9,919.0 L2547.4,1025.0 L2550.8,1133.8 L2523.1,1239.2 L2454.8,1332.5 L2349.1,1406.4 L2221.0,1460.1 L2091.8,1500.9 L1980.7,1543.1 L1897.7,1603.3 L1840.0,1693.3 L1793.4,1815.3 L1738.8,1959.2 L1659.0,2105.0 L1545.8,2228.7 L1402.1,2310.0 L1239.3,2337.8 L1073.0,2313.7 L916.3,2249.4 L776.5,2162.2 L653.8,2068.5 L544.4,1978.9 L443.5,1896.9 L349.0,1820.2 L261.5,1744.1 L183.0,1665.6 L113.3,1584.7 L48.8,1504.5 L-18.4,1428.3 L-96.6,1357.2 L-190.6,1288.4 L-297.7,1216.1 L-406.5,1134.1 L-499.9,1038.9 L-561.2,931.4 L-580.0,817.0 L-557.3,702.9 L-505.5,594.3 L-443.6,491.9 L-390.0,391.0 L-354.8,284.4 L-335.6,166.4 L-318.4,37.6 L-283.0,-93.2 L-211.4,-210.5 L-94.9,-296.5 L61.9,-338.2 L243.4,-332.5 L428.6,-288.5 L598.7,-225.5 L743.5,-166.8 L863.8,-132.4 L969.1,-132.8 L1073.0,-166.3 L1186.5,-221.1 L1314.8,-280.1 L1456.2,-327.0 L1604.6,-351.5 L1753.6,-350.7 L1899.0,-327.6 L2039.6,-287.4 L2175.6,-234.2 L2305.4,-168.9 L2423.5,-89.6 L2521.0,5.9 L2588.1,117.2 L2618.9,240.3 L2615.4,367.9 L2587.9,492.3 L2553.0,608.2 L2527.0,715.2 L2520.0,817.0 Z"/>
<path class="c" d="M2577.9,817.0 L2589.2,923.1 L2606.4,1033.3 L2609.9,1146.4 L2581.1,1256.1 L2510.1,1353.1 L2400.1,1430.0 L2266.9,1485.8 L2132.5,1528.2 L2017.0,1572.2 L1930.7,1634.7 L1870.7,1728.3 L1822.3,1855.2 L1765.4,2004.9 L1682.4,2156.5 L1564.8,2285.2 L1415.2,2369.7 L1246.0,2398.6 L1073.0,2373.6 L910.1,2306.7 L764.6,2216.1 L637.1,2118.5 L523.2,2025.4 L418.4,1940.1 L320.1,1860.3 L229.1,1781.2 L147.4,1699.5 L75.0,1615.4 L7.8,1532.0 L-62.0,1452.8 L-143.4,1378.8 L-241.2,1307.2 L-352.5,1232.1 L-465.7,1146.8 L-562.9,1047.8 L-626.5,936.0 L-646.1,817.0 L-622.5,698.3 L-568.6,585.4 L-504.2,478.9 L-448.5,374.0 L-411.9,263.1 L-391.9,140.4 L-374.0,6.4 L-337.2,-129.6 L-262.7,-251.6 L-141.7,-341.1 L21.4,-384.4 L210.3,-378.4 L402.9,-332.7 L579.7,-267.2 L730.3,-206.1 L855.4,-170.3 L965.0,-170.7 L1073.0,-205.6 L1191.1,-262.7 L1324.5,-324.0 L1471.5,-372.8 L1625.9,-398.3 L1780.9,-397.4 L1932.1,-373.3 L2078.3,-331.6 L2219.7,-276.3 L2354.7,-208.3 L2477.5,-125.8 L2578.9,-26.6 L2648.7,89.2 L2680.8,217.2 L2677.1,349.9 L2648.5,479.3 L2612.2,599.9 L2585.2,711.2 L2577.9,817.0 Z"/>
<path class="c" d="M2635.8,817.0 L2647.5,927.2 L2665.4,1041.6 L2669.0,1159.1 L2639.1,1273.0 L2565.3,1373.7 L2451.2,1453.6 L2312.8,1511.5 L2173.3,1555.6 L2053.3,1601.2 L1963.7,1666.2 L1901.3,1763.4 L1851.1,1895.1 L1792.0,2050.5 L1705.9,2208.0 L1583.7,2341.7 L1428.4,2429.4 L1252.6,2459.5 L1073.0,2433.4 L903.8,2364.0 L752.8,2269.9 L620.3,2168.6 L502.1,2071.9 L393.2,1983.3 L291.1,1900.4 L196.6,1818.3 L111.8,1733.5 L36.6,1646.1 L-33.1,1559.5 L-105.7,1477.3 L-190.1,1400.4 L-291.7,1326.1 L-407.3,1248.0 L-524.8,1159.5 L-625.8,1056.6 L-691.9,940.5 L-712.2,817.0 L-687.7,693.8 L-631.8,576.5 L-564.9,465.9 L-507.0,356.9 L-469.0,241.8 L-448.3,114.4 L-429.7,-24.8 L-391.4,-166.1 L-314.1,-292.7 L-188.4,-385.6 L-19.0,-430.6 L177.1,-424.4 L377.1,-376.9 L560.8,-308.9 L717.1,-245.5 L847.0,-208.3 L960.8,-208.7 L1073.0,-245.0 L1195.6,-304.2 L1334.2,-367.8 L1486.8,-418.5 L1647.2,-445.0 L1808.1,-444.1 L1965.1,-419.1 L2117.0,-375.7 L2263.8,-318.3 L2404.0,-247.8 L2531.6,-162.1 L2636.8,-59.0 L2709.3,61.2 L2742.6,194.2 L2738.8,332.0 L2709.1,466.3 L2671.4,591.5 L2643.4,707.1 L2635.8,817.0 Z"/>
<path class="ix" d="M2693.7,817.0 L2705.9,931.3 L2724.4,1049.9 L2728.1,1171.8 L2697.1,1289.9 L2620.6,1394.3 L2502.2,1477.1 L2358.8,1537.2 L2214.0,1582.9 L2089.6,1630.3 L1996.7,1697.6 L1932.0,1798.4 L1879.9,1935.1 L1818.6,2096.2 L1729.3,2259.5 L1602.6,2398.1 L1441.5,2489.1 L1259.3,2520.3 L1073.0,2493.3 L897.5,2421.3 L740.9,2323.7 L603.5,2218.7 L480.9,2118.3 L368.0,2026.5 L262.1,1940.6 L164.2,1855.4 L76.2,1767.4 L-1.8,1676.9 L-74.1,1587.0 L-149.3,1501.7 L-236.9,1422.0 L-342.2,1345.0 L-462.2,1264.0 L-584.0,1172.2 L-688.7,1065.5 L-757.3,945.1 L-778.3,817.0 L-752.9,689.2 L-694.9,567.6 L-625.6,452.9 L-565.5,339.9 L-526.1,220.5 L-504.6,88.3 L-485.3,-55.9 L-445.7,-202.5 L-365.5,-333.8 L-235.1,-430.1 L-59.4,-476.8 L143.9,-470.4 L351.3,-421.1 L541.8,-350.6 L704.0,-284.8 L838.6,-246.3 L956.7,-246.7 L1073.0,-284.3 L1200.2,-345.7 L1343.8,-411.7 L1502.2,-464.3 L1668.4,-491.8 L1835.3,-490.8 L1998.1,-464.9 L2155.6,-419.9 L2307.9,-360.4 L2453.3,-287.2 L2585.6,-198.4 L2694.8,-91.5 L2769.9,33.2 L2804.5,171.1 L2800.5,314.0 L2769.7,453.3 L2730.6,583.2 L2701.5,703.0 L2693.7,817.0 Z"/>
<path class="c" d="M2751.6,817.0 L2764.2,935.4 L2783.3,1058.3 L2787.2,1184.5 L2755.1,1306.8 L2675.9,1414.9 L2553.3,1500.7 L2404.7,1563.0 L2254.8,1610.3 L2125.9,1659.3 L2029.6,1729.1 L1962.7,1833.5 L1908.7,1975.0 L1845.3,2141.9 L1752.7,2311.1 L1621.5,2454.6 L1454.7,2548.8 L1265.9,2581.1 L1073.0,2553.2 L891.3,2478.6 L729.1,2377.5 L586.8,2268.7 L459.8,2164.8 L342.8,2069.7 L233.2,1980.7 L131.7,1892.4 L40.5,1801.3 L-40.2,1707.6 L-115.1,1614.5 L-193.0,1526.2 L-283.7,1443.6 L-392.8,1363.8 L-517.0,1280.0 L-643.2,1184.9 L-751.6,1074.4 L-822.6,949.7 L-844.4,817.0 L-818.1,684.6 L-758.0,558.7 L-686.2,439.9 L-624.1,322.9 L-583.2,199.2 L-561.0,62.3 L-541.0,-87.1 L-499.9,-238.9 L-416.9,-374.9 L-281.8,-474.7 L-99.9,-523.0 L110.7,-516.4 L325.5,-465.3 L522.8,-392.3 L690.8,-324.2 L830.3,-284.3 L952.5,-284.7 L1073.0,-323.6 L1204.7,-387.2 L1353.5,-455.6 L1517.5,-510.1 L1689.7,-538.5 L1862.6,-537.6 L2031.2,-510.7 L2194.3,-464.1 L2352.0,-402.4 L2502.6,-326.6 L2639.6,-234.6 L2752.7,-123.9 L2830.5,5.2 L2866.3,148.0 L2862.1,296.0 L2830.3,440.3 L2789.8,574.8 L2759.7,698.9 L2751.6,817.0 Z"/>
<path class="c" d="M2809.4,817.0 L2822.5,939.4 L2842.3,1066.6 L2846.3,1197.1 L2813.1,1323.7 L2731.1,1435.6 L2604.3,1524.3 L2450.6,1588.7 L2295.5,1637.7 L2162.2,1688.4 L2062.6,1760.5 L1993.4,1868.5 L1937.5,2014.9 L1871.9,2187.6 L1776.2,2362.6 L1640.4,2511.1 L1467.9,2608.5 L1272.6,2642.0 L1073.0,2613.0 L885.0,2535.9 L717.2,2431.3 L570.0,2318.8 L438.7,2211.3 L317.6,2112.9 L204.2,2020.8 L99.2,1929.5 L4.9,1835.3 L-78.6,1738.3 L-156.1,1642.0 L-236.6,1550.6 L-330.5,1465.2 L-443.3,1382.7 L-571.8,1295.9 L-702.4,1197.6 L-814.5,1083.3 L-888.0,954.3 L-910.6,817.0 L-883.4,680.1 L-821.2,549.8 L-746.9,426.9 L-682.6,305.8 L-640.3,177.9 L-617.3,36.3 L-596.6,-118.3 L-554.2,-275.3 L-468.2,-416.0 L-328.5,-519.2 L-140.3,-569.3 L77.5,-562.4 L299.8,-509.6 L503.9,-434.0 L677.6,-363.5 L821.9,-322.2 L948.4,-322.7 L1073.0,-363.0 L1209.2,-428.8 L1363.2,-499.5 L1532.8,-555.8 L1711.0,-585.2 L1889.8,-584.3 L2064.2,-556.5 L2233.0,-508.3 L2396.1,-444.5 L2551.8,-366.1 L2693.6,-270.9 L2810.6,-156.3 L2891.1,-22.8 L2928.1,124.9 L2923.8,278.1 L2890.9,427.3 L2849.0,566.5 L2817.8,694.9 L2809.4,817.0 Z"/>
<text class="ct" x="1278" y="914" text-anchor="middle">12,800</text>
<text class="ct" x="938" y="1220" text-anchor="middle">11,200</text>
<text class="ct" x="280" y="814" text-anchor="middle">9,600</text>
<circle class="dot" cx="1073" cy="793" r="2.4"/>
<text class="pk" x="1073" y="813" text-anchor="middle">GRAYS PEAK</text>
<text class="el" x="1073" y="834" text-anchor="middle">14,278&#8242;</text>
</svg>