<svg xmlns="http://www.w3.org/2000/svg" width="2000" height="1400" viewBox="0 0 2000 1400">
<style>
  .c  { fill:none; stroke:#2A1B11; stroke-opacity:0.07; stroke-width:1.1; }
  .ix { fill:none; stroke:#2A1B11; stroke-opacity:0.12; stroke-width:1.6; }
  .ct { font:500 10px 'IBM Plex Mono',ui-monospace,monospace; fill:#2A1B11; fill-opacity:0.32;
        stroke:#F4ECDB; stroke-width:3; paint-order:stroke; }
  .pk { font:600 11.5px 'Inter Tight','Helvetica Neue',sans-serif; letter-spacing:0.15em; fill:#2A1B11; fill-opacity:0.2; }
  .el { font:500 10.5px 'IBM Plex Mono',ui-monospace,monospace; fill:#9C6A33; fill-opacity:0.34; }
  .dot { fill:#2A1B11; fill-opacity:0.24; }
</style>
<path class="c" d="M1340.6,507.0 L1342.9,511.2 L1343.6,515.5 L1342.7,519.8 L1340.7,523.8 L1338.1,527.6 L1335.5,531.3 L1333.2,535.1 L1331.1,539.3 L1328.7,543.6 L1325.8,547.8 L1322.1,551.6 L1317.4,554.7 L1312.1,556.9 L1306.3,558.3 L1300.4,559.1 L1294.6,559.5 L1288.8,559.7 L1283.0,559.4 L1277.4,558.4 L1272.1,556.3 L1267.5,553.2 L1263.8,549.2 L1260.9,544.9 L1258.5,541.0 L1255.9,538.0 L1252.3,536.3 L1247.3,535.6 L1240.7,535.4 L1232.9,535.1 L1225.0,533.8 L1218.2,531.2 L1213.4,527.3 L1211.3,522.4 L1211.6,517.1 L1213.7,511.9 L1216.6,507.0 L1219.3,502.5 L1221.5,498.3 L1223.0,494.1 L1224.2,489.9 L1225.7,485.6 L1228.2,481.7 L1231.7,478.2 L1236.1,475.5 L1241.1,473.5 L1246.1,471.8 L1250.9,470.4 L1255.4,468.8 L1259.7,466.9 L1263.9,465.0 L1268.3,463.3 L1273.0,461.9 L1278.0,460.9 L1283.0,460.2 L1288.2,459.5 L1293.7,458.6 L1299.6,457.4 L1306.2,456.0 L1313.3,455.0 L1320.5,455.1 L1327.0,456.8 L1332.0,460.3 L1335.0,465.4 L1335.6,471.7 L1334.5,478.2 L1332.4,484.2 L1330.6,489.2 L1330.0,493.3 L1331.0,496.7 L1333.7,499.9 L1337.2,503.2 L1340.6,507.0 Z"/>
<path class="c" d="M1398.1,507.0 L1402.7,515.4 L1404.2,524.1 L1402.5,532.6 L1398.4,540.6 L1393.2,548.1 L1388.1,555.5 L1383.5,563.3 L1379.2,571.5 L1374.5,580.2 L1368.7,588.7 L1361.1,596.2 L1351.8,602.3 L1341.1,606.7 L1329.6,609.5 L1317.9,611.2 L1306.2,612.1 L1294.5,612.4 L1283.0,611.8 L1271.8,609.7 L1261.3,605.6 L1252.1,599.4 L1244.6,591.5 L1238.8,582.9 L1233.9,575.0 L1228.7,569.0 L1221.6,565.5 L1211.6,564.2 L1198.3,563.9 L1182.8,563.1 L1167.1,560.5 L1153.4,555.3 L1143.9,547.5 L1139.5,537.8 L1140.1,527.2 L1144.3,516.7 L1150.1,507.0 L1155.7,498.1 L1160.0,489.6 L1162.9,481.3 L1165.4,472.7 L1168.5,464.3 L1173.3,456.3 L1180.3,449.5 L1189.2,444.0 L1199.1,439.9 L1209.2,436.7 L1218.9,433.7 L1227.8,430.5 L1236.3,426.9 L1244.8,423.1 L1253.7,419.5 L1263.1,416.7 L1272.9,414.7 L1283.0,413.4 L1293.4,412.1 L1304.3,410.3 L1316.2,407.8 L1329.4,405.0 L1343.6,403.1 L1357.9,403.2 L1371.0,406.5 L1381.0,413.5 L1386.9,423.9 L1388.3,436.3 L1386.0,449.3 L1381.8,461.3 L1378.2,471.5 L1376.9,479.7 L1379.1,486.4 L1384.4,492.7 L1391.4,499.4 L1398.1,507.0 Z"/>
<path class="c" d="M1455.7,507.0 L1462.6,519.6 L1464.8,532.6 L1462.2,545.4 L1456.1,557.4 L1448.4,568.7 L1440.6,579.8 L1433.7,591.4 L1427.2,603.8 L1420.2,616.8 L1411.5,629.5 L1400.2,640.9 L1386.2,650.0 L1370.2,656.6 L1353.0,660.8 L1335.3,663.2 L1317.7,664.6 L1300.3,665.1 L1283.0,664.2 L1266.1,661.1 L1250.4,655.0 L1236.6,645.6 L1225.4,633.7 L1216.7,620.8 L1209.4,609.0 L1201.6,600.0 L1190.9,594.8 L1175.8,592.7 L1156.0,592.3 L1132.7,591.2 L1109.1,587.3 L1088.6,579.5 L1074.3,567.8 L1067.8,553.1 L1068.7,537.2 L1075.0,521.6 L1083.7,507.0 L1092.0,493.6 L1098.5,481.0 L1102.9,468.4 L1106.6,455.6 L1111.2,442.9 L1118.5,431.0 L1129.0,420.7 L1142.3,412.5 L1157.2,406.4 L1172.4,401.5 L1186.8,397.1 L1200.2,392.3 L1213.0,386.8 L1225.7,381.1 L1239.0,375.8 L1253.1,371.6 L1267.9,368.6 L1283.0,366.6 L1298.6,364.6 L1315.0,361.9 L1332.9,358.1 L1352.6,354.0 L1373.9,351.1 L1395.4,351.3 L1414.9,356.3 L1430.0,366.8 L1438.9,382.3 L1440.9,401.0 L1437.5,420.5 L1431.3,438.5 L1425.8,453.7 L1423.9,466.0 L1427.1,476.1 L1435.0,485.6 L1445.6,495.6 L1455.7,507.0 Z"/>
<path class="ix" d="M1513.2,507.0 L1522.5,523.8 L1525.4,541.2 L1522.0,558.2 L1513.8,574.2 L1503.5,589.3 L1493.2,604.1 L1483.9,619.5 L1475.3,636.1 L1466.0,653.4 L1454.3,670.3 L1439.2,685.5 L1420.6,697.7 L1399.2,706.4 L1376.3,712.0 L1352.8,715.3 L1329.3,717.2 L1306.1,717.8 L1283.0,716.6 L1260.5,712.5 L1239.5,704.3 L1221.1,691.8 L1206.2,675.9 L1194.6,658.7 L1184.9,643.0 L1174.4,631.1 L1160.2,624.0 L1140.1,621.3 L1113.6,620.7 L1082.7,619.2 L1051.1,614.1 L1023.8,603.7 L1004.7,588.0 L996.1,568.5 L997.3,547.3 L1005.6,526.4 L1017.2,507.0 L1028.4,489.2 L1037.0,472.3 L1042.9,455.5 L1047.7,438.5 L1054.0,421.6 L1063.6,405.7 L1077.6,391.9 L1095.3,381.0 L1115.3,372.8 L1135.5,366.4 L1154.7,360.5 L1172.6,354.0 L1189.6,346.8 L1206.6,339.1 L1224.4,332.0 L1243.2,326.4 L1262.8,322.5 L1283.0,319.8 L1303.8,317.2 L1325.6,313.5 L1349.5,308.5 L1375.8,303.0 L1404.2,299.1 L1432.9,299.4 L1458.9,306.0 L1479.1,320.1 L1490.8,340.7 L1493.6,365.7 L1489.0,391.6 L1480.7,415.7 L1473.3,436.0 L1470.8,452.3 L1475.2,465.8 L1485.7,478.4 L1499.7,491.8 L1513.2,507.0 Z"/>
<path class="c" d="M1570.8,507.0 L1582.4,528.0 L1586.0,549.7 L1581.7,571.0 L1571.5,591.0 L1558.6,609.8 L1545.7,628.3 L1534.1,647.7 L1523.4,668.4 L1511.7,690.0 L1497.1,711.2 L1478.3,730.1 L1455.0,745.4 L1428.3,756.3 L1399.6,763.3 L1370.2,767.4 L1340.9,769.7 L1311.8,770.5 L1283.0,769.0 L1254.9,763.8 L1228.6,753.6 L1205.6,738.0 L1186.9,718.1 L1172.4,696.7 L1160.3,677.0 L1147.3,662.1 L1129.6,653.3 L1104.4,649.9 L1071.3,649.1 L1032.6,647.3 L993.2,640.9 L959.0,627.9 L935.2,608.3 L924.3,583.9 L925.8,557.4 L936.3,531.3 L950.8,507.0 L964.7,484.7 L975.5,463.6 L982.9,442.7 L988.9,421.4 L996.7,400.2 L1008.8,380.3 L1026.3,363.2 L1048.4,349.5 L1073.3,339.3 L1098.6,331.2 L1122.7,323.8 L1145.0,315.8 L1166.3,306.7 L1187.5,297.2 L1209.7,288.3 L1233.2,281.3 L1257.8,276.4 L1283.0,273.0 L1309.0,269.7 L1336.3,265.2 L1366.1,258.9 L1399.0,252.0 L1434.5,247.1 L1470.3,247.4 L1502.9,255.8 L1528.1,273.3 L1542.8,299.2 L1546.2,330.3 L1540.4,362.8 L1530.1,392.9 L1520.9,418.2 L1517.8,438.6 L1523.2,455.5 L1536.4,471.3 L1553.9,488.0 L1570.8,507.0 Z"/>
<path class="c" d="M1628.3,507.0 L1642.2,532.1 L1646.7,558.3 L1641.5,583.8 L1629.2,607.8 L1613.7,630.4 L1598.3,652.6 L1584.4,675.8 L1571.5,700.6 L1557.5,726.6 L1540.0,752.0 L1517.3,774.7 L1489.4,793.0 L1457.3,806.1 L1422.9,814.5 L1387.7,819.5 L1352.5,822.3 L1317.6,823.2 L1283.0,821.4 L1249.3,815.2 L1217.8,802.9 L1190.2,784.2 L1167.7,760.4 L1150.3,734.6 L1135.8,711.0 L1120.1,693.1 L1098.9,682.6 L1068.7,678.5 L1028.9,677.6 L982.5,675.3 L935.2,667.6 L894.2,652.0 L865.6,628.5 L852.6,599.3 L854.4,567.5 L866.9,536.1 L884.3,507.0 L901.1,480.3 L914.0,454.9 L922.8,429.8 L930.1,404.2 L939.5,378.8 L953.9,355.0 L974.9,334.4 L1001.5,318.1 L1031.4,305.7 L1061.7,296.0 L1090.6,287.2 L1117.4,277.6 L1142.9,266.7 L1168.4,255.2 L1195.1,244.6 L1223.3,236.1 L1252.7,230.2 L1283.0,226.2 L1314.1,222.2 L1347.0,216.8 L1382.7,209.3 L1422.2,201.1 L1464.8,195.2 L1507.8,195.5 L1546.9,205.5 L1577.1,226.6 L1594.7,257.6 L1598.8,295.0 L1591.9,334.0 L1579.5,370.0 L1568.5,400.5 L1564.7,425.0 L1571.2,445.2 L1587.1,464.1 L1608.1,484.2 L1628.3,507.0 Z"/>
<path class="c" d="M1685.9,507.0 L1702.1,536.3 L1707.3,566.8 L1701.2,596.6 L1687.0,624.6 L1668.9,650.9 L1650.8,676.9 L1634.6,703.9 L1619.5,732.9 L1603.2,763.2 L1582.8,792.8 L1556.4,819.4 L1523.8,840.7 L1486.4,856.0 L1446.2,865.8 L1405.1,871.6 L1364.1,874.8 L1323.3,875.9 L1283.0,873.8 L1243.7,866.5 L1206.9,852.3 L1174.7,830.4 L1148.5,802.6 L1128.2,772.5 L1111.2,745.0 L1093.0,724.1 L1068.2,711.8 L1032.9,707.1 L986.6,706.0 L932.4,703.4 L877.2,694.4 L829.4,676.2 L796.1,648.8 L780.8,614.6 L783.0,577.5 L797.6,541.0 L817.9,507.0 L837.4,475.8 L852.4,446.3 L862.8,416.9 L871.3,387.1 L882.2,357.5 L899.1,329.7 L923.6,305.7 L954.6,286.6 L989.4,272.2 L1024.9,260.9 L1058.5,250.5 L1089.8,239.3 L1119.6,226.6 L1149.3,213.2 L1180.4,200.8 L1213.3,191.0 L1247.7,184.1 L1283.0,179.4 L1319.3,174.8 L1357.6,168.4 L1399.3,159.7 L1445.4,150.1 L1495.1,143.2 L1545.2,143.6 L1590.8,155.3 L1626.1,179.9 L1646.7,216.0 L1651.5,259.6 L1643.4,305.1 L1629.0,347.2 L1616.1,382.7 L1611.7,411.3 L1619.3,434.9 L1637.8,457.0 L1662.3,480.5 L1685.9,507.0 Z"/>
<path class="ix" d="M1743.4,507.0 L1762.0,540.5 L1767.9,575.4 L1761.0,609.5 L1744.7,641.4 L1724.0,671.5 L1703.4,701.2 L1684.8,732.1 L1667.6,765.2 L1649.0,799.8 L1625.6,833.7 L1595.5,864.0 L1558.2,888.4 L1515.5,905.8 L1469.5,917.0 L1422.5,923.6 L1375.6,927.3 L1329.1,928.6 L1283.0,926.2 L1238.1,917.9 L1196.0,901.6 L1159.2,876.6 L1129.3,844.8 L1106.1,810.5 L1086.7,779.0 L1065.8,755.1 L1037.5,741.1 L997.2,735.6 L944.2,734.4 L882.3,731.5 L819.3,721.2 L764.6,700.4 L726.5,669.0 L709.1,630.0 L711.5,587.6 L728.3,545.8 L751.4,507.0 L773.8,471.4 L790.9,437.6 L802.8,404.1 L812.5,370.0 L824.9,336.1 L844.3,304.4 L872.2,276.9 L907.7,255.1 L947.5,238.6 L988.0,225.7 L1026.5,213.9 L1062.2,201.1 L1096.2,186.6 L1130.3,171.3 L1165.8,157.1 L1203.4,145.8 L1242.6,138.0 L1283.0,132.6 L1324.5,127.3 L1368.3,120.0 L1416.0,110.0 L1468.6,99.1 L1525.4,91.2 L1582.7,91.7 L1634.8,105.0 L1675.1,133.1 L1698.7,174.5 L1704.1,224.3 L1694.9,276.3 L1678.4,324.4 L1663.7,365.0 L1658.7,397.6 L1667.3,424.6 L1688.5,449.8 L1716.5,476.7 L1743.4,507.0 Z"/>
<path class="c" d="M1801.0,507.0 L1821.8,544.7 L1828.5,583.9 L1820.7,622.3 L1802.4,658.2 L1779.1,692.1 L1755.9,725.4 L1735.0,760.2 L1715.7,797.5 L1694.7,836.4 L1668.5,874.5 L1634.5,908.6 L1592.6,936.0 L1544.5,955.7 L1492.9,968.3 L1440.0,975.7 L1387.2,979.9 L1334.9,981.3 L1283.0,978.6 L1232.4,969.3 L1185.2,950.9 L1143.7,922.8 L1110.1,887.0 L1084.0,848.4 L1062.2,813.0 L1038.7,786.1 L1006.8,770.3 L961.5,764.2 L901.9,762.9 L832.2,759.5 L761.3,748.0 L699.8,724.5 L656.9,689.3 L637.4,645.4 L640.1,597.7 L658.9,550.7 L685.0,507.0 L710.1,466.9 L729.4,428.9 L742.7,391.2 L753.7,352.9 L767.7,314.8 L789.4,279.0 L820.9,248.1 L860.8,223.6 L905.6,205.1 L951.1,190.6 L994.4,177.3 L1034.6,162.8 L1072.9,146.5 L1111.2,129.3 L1151.1,113.3 L1193.4,100.7 L1237.6,91.9 L1283.0,85.8 L1329.7,79.9 L1378.9,71.7 L1432.6,60.4 L1491.8,48.1 L1555.6,39.2 L1620.2,39.8 L1678.8,54.8 L1724.1,86.4 L1750.6,132.9 L1756.8,189.0 L1746.4,247.4 L1727.8,301.6 L1711.3,347.2 L1705.6,383.9 L1715.3,414.3 L1739.1,442.7 L1770.7,472.9 L1801.0,507.0 Z"/>
<path class="c" d="M1858.5,507.0 L1881.7,548.9 L1889.1,592.5 L1880.5,635.1 L1860.1,675.0 L1834.2,712.6 L1808.4,749.7 L1785.3,788.4 L1763.8,829.7 L1740.5,873.0 L1711.3,915.3 L1673.6,953.2 L1627.0,983.7 L1573.6,1005.5 L1516.2,1019.5 L1457.4,1027.8 L1398.8,1032.4 L1340.6,1034.0 L1283.0,1031.0 L1226.8,1020.6 L1174.3,1000.2 L1128.3,969.0 L1090.9,929.3 L1061.9,886.3 L1037.6,847.0 L1011.5,817.1 L976.1,799.6 L925.8,792.8 L859.5,791.3 L782.1,787.6 L703.4,774.7 L635.0,748.7 L587.4,709.6 L565.6,660.8 L568.7,607.8 L589.6,555.5 L618.5,507.0 L646.4,462.4 L667.9,420.2 L682.7,378.3 L694.9,335.7 L710.4,293.4 L734.6,253.7 L769.5,219.4 L813.9,192.1 L863.6,171.5 L914.2,155.4 L962.3,140.6 L1007.0,124.6 L1049.5,106.5 L1092.1,87.3 L1136.5,69.6 L1183.5,55.5 L1232.6,45.7 L1283.0,39.0 L1334.9,32.4 L1389.6,23.3 L1449.2,10.8 L1515.0,-2.9 L1585.9,-12.7 L1657.6,-12.1 L1722.8,4.5 L1773.2,39.7 L1802.6,91.3 L1809.4,153.6 L1797.9,218.6 L1777.2,278.7 L1758.9,329.5 L1752.6,370.3 L1763.4,404.0 L1789.8,435.5 L1824.8,469.1 L1858.5,507.0 Z"/>
<path class="c" d="M1916.1,507.0 L1941.6,553.1 L1949.7,601.0 L1940.2,647.9 L1917.8,691.8 L1889.4,733.2 L1861.0,774.0 L1835.5,816.5 L1811.8,862.0 L1786.2,909.6 L1754.1,956.2 L1712.6,997.9 L1661.4,1031.4 L1602.6,1055.4 L1539.5,1070.8 L1474.9,1079.9 L1410.4,1085.0 L1346.4,1086.7 L1283.0,1083.4 L1221.2,1072.0 L1163.4,1049.6 L1112.8,1015.2 L1071.7,971.5 L1039.8,924.3 L1013.1,881.0 L984.4,848.2 L945.4,828.9 L890.0,821.4 L817.2,819.7 L732.0,815.6 L645.4,801.5 L570.2,772.9 L517.8,729.8 L493.9,676.2 L497.2,617.8 L520.2,560.4 L552.1,507.0 L582.8,458.0 L606.4,411.6 L622.7,365.5 L636.0,318.6 L653.2,272.0 L679.7,228.4 L718.2,190.6 L767.0,160.6 L821.7,138.0 L877.3,120.3 L930.3,104.0 L979.4,86.4 L1026.2,66.4 L1073.0,45.4 L1121.8,25.9 L1173.5,10.4 L1227.5,-0.4 L1283.0,-7.8 L1340.1,-15.0 L1400.3,-25.1 L1465.8,-38.8 L1538.2,-53.9 L1616.2,-64.7 L1695.1,-64.0 L1766.8,-45.7 L1822.2,-7.1 L1854.5,49.8 L1862.0,118.3 L1849.4,189.7 L1826.7,255.9 L1806.4,311.7 L1799.5,356.6 L1811.4,393.7 L1840.5,428.4 L1879.0,465.3 L1916.1,507.0 Z"/>
<path class="ix" d="M1973.6,507.0 L2001.5,557.3 L2010.3,609.6 L1999.9,660.7 L1975.5,708.6 L1944.5,753.8 L1913.5,798.2 L1885.7,844.6 L1859.9,894.3 L1831.9,946.2 L1796.9,997.0 L1751.7,1042.5 L1695.8,1079.0 L1631.7,1105.2 L1562.8,1122.0 L1492.3,1132.0 L1422.0,1137.5 L1352.2,1139.4 L1283.0,1135.8 L1215.6,1123.4 L1152.5,1098.9 L1097.3,1061.4 L1052.5,1013.7 L1017.7,962.2 L988.6,915.0 L957.3,879.2 L914.7,858.1 L854.3,849.9 L774.8,848.1 L682.0,843.7 L587.4,828.3 L505.4,797.1 L448.2,750.1 L422.2,691.5 L425.8,627.9 L450.9,565.2 L485.6,507.0 L519.1,453.5 L544.9,402.9 L562.7,352.6 L577.2,301.5 L595.9,250.7 L624.9,203.0 L666.8,161.8 L720.0,129.1 L779.8,104.4 L840.5,85.1 L898.2,67.4 L951.8,48.1 L1002.8,26.3 L1053.9,3.4 L1107.2,-17.9 L1163.6,-34.8 L1222.5,-46.5 L1283.0,-54.6 L1345.3,-62.5 L1410.9,-73.4 L1482.4,-88.4 L1561.4,-104.9 L1646.5,-116.7 L1732.6,-115.9 L1810.7,-95.9 L1871.2,-53.8 L1906.5,8.2 L1914.7,83.0 L1900.9,160.9 L1876.1,233.1 L1854.0,294.0 L1846.5,342.9 L1859.5,383.4 L1891.2,421.2 L1933.2,461.5 L1973.6,507.0 Z"/>
<path class="c" d="M2031.2,507.0 L2061.3,561.5 L2070.9,618.1 L2059.7,673.5 L2033.2,725.4 L1999.6,774.3 L1966.1,822.5 L1936.0,872.8 L1908.0,926.5 L1877.7,982.8 L1839.8,1037.8 L1790.7,1087.1 L1730.2,1126.7 L1660.7,1155.1 L1586.1,1173.3 L1509.8,1184.0 L1433.6,1190.1 L1357.9,1192.1 L1283.0,1188.2 L1210.0,1174.7 L1141.7,1148.2 L1081.8,1107.6 L1033.3,1055.9 L995.6,1000.1 L964.0,949.0 L930.1,910.2 L884.0,887.4 L818.6,878.5 L732.5,876.6 L631.9,871.7 L529.5,855.0 L440.6,821.2 L378.7,770.3 L350.4,706.9 L354.4,638.0 L381.5,570.1 L419.2,507.0 L455.5,449.1 L483.4,394.2 L502.6,339.7 L518.4,284.4 L538.6,229.3 L570.1,177.7 L615.5,133.1 L673.1,97.6 L737.8,70.9 L803.6,49.9 L866.1,30.7 L924.2,9.9 L979.5,-13.7 L1034.8,-38.6 L1092.5,-61.6 L1153.6,-79.9 L1217.4,-92.6 L1283.0,-101.4 L1350.5,-110.0 L1421.6,-121.8 L1499.1,-138.1 L1584.6,-155.9 L1676.8,-168.6 L1770.0,-167.8 L1854.7,-146.2 L1920.2,-100.5 L1958.4,-33.4 L1967.3,47.6 L1952.3,132.1 L1925.5,210.2 L1901.6,276.2 L1893.5,329.2 L1907.5,373.1 L1941.9,414.1 L1987.4,457.7 L2031.2,507.0 Z"/>
<path class="c" d="M2088.7,507.0 L2121.2,565.7 L2131.5,626.7 L2119.4,686.3 L2090.9,742.2 L2054.7,794.9 L2018.6,846.8 L1986.2,900.9 L1956.1,958.8 L1923.4,1019.3 L1882.6,1078.7 L1829.8,1131.7 L1764.6,1174.4 L1689.8,1204.9 L1609.4,1224.5 L1527.2,1236.1 L1445.1,1242.6 L1363.7,1244.8 L1283.0,1240.6 L1204.4,1226.1 L1130.8,1197.5 L1066.4,1153.8 L1014.0,1098.2 L973.4,1038.1 L939.5,983.0 L903.0,941.2 L853.4,916.6 L782.9,907.1 L690.1,905.0 L581.8,899.8 L471.5,881.8 L375.8,845.4 L309.1,790.6 L278.7,722.3 L282.9,648.1 L312.2,574.9 L352.7,507.0 L391.8,444.6 L421.9,385.5 L442.6,326.9 L459.6,267.2 L481.4,208.0 L515.2,152.4 L564.1,104.3 L626.2,66.1 L695.9,37.3 L766.7,14.8 L834.1,-5.9 L896.6,-28.4 L956.1,-53.8 L1015.7,-80.5 L1077.9,-105.4 L1143.7,-125.1 L1212.4,-138.8 L1283.0,-148.2 L1355.7,-157.4 L1432.3,-170.2 L1515.7,-187.7 L1607.8,-206.9 L1707.1,-220.6 L1807.5,-219.8 L1898.7,-196.4 L1969.2,-147.3 L2010.4,-74.9 L2020.0,12.3 L2003.8,103.2 L1974.9,187.4 L1949.2,258.5 L1940.4,315.6 L1955.5,362.8 L1992.6,406.9 L2041.6,453.9 L2088.7,507.0 Z"/>
<path class="c" d="M2146.3,507.0 L2181.1,569.9 L2192.1,635.2 L2179.2,699.1 L2148.6,759.0 L2109.9,815.5 L2071.2,871.0 L2036.4,929.0 L2004.2,991.1 L1969.2,1055.9 L1925.4,1119.5 L1868.9,1176.4 L1799.0,1222.1 L1718.9,1254.8 L1632.8,1275.8 L1544.7,1288.2 L1456.7,1295.1 L1369.4,1297.5 L1283.0,1293.0 L1198.7,1277.5 L1119.9,1246.9 L1050.9,1200.0 L994.8,1140.4 L951.3,1076.0 L915.0,1017.0 L875.8,972.2 L822.7,945.9 L747.1,935.7 L647.8,933.4 L531.7,927.9 L413.5,908.6 L311.0,869.6 L239.5,810.8 L207.0,737.7 L211.5,658.1 L242.8,579.8 L286.3,507.0 L328.2,440.2 L360.4,376.9 L382.6,314.0 L400.8,250.1 L424.1,186.6 L460.4,127.0 L512.8,75.6 L579.3,34.6 L654.0,3.8 L729.8,-20.4 L802.0,-42.5 L869.0,-66.6 L932.8,-93.8 L996.6,-122.5 L1063.2,-149.1 L1133.7,-170.2 L1207.3,-184.9 L1283.0,-195.0 L1360.9,-204.9 L1442.9,-218.5 L1532.3,-237.3 L1631.0,-257.9 L1737.4,-272.6 L1845.0,-271.7 L1942.7,-246.7 L2018.2,-194.0 L2062.4,-116.5 L2072.6,-23.0 L2055.3,74.4 L2024.3,164.6 L1996.8,240.7 L1987.4,301.9 L2003.6,352.5 L2043.2,399.8 L2095.8,450.1 L2146.3,507.0 Z"/>
<text class="ct" x="1073" y="528" text-anchor="middle">7,600</text>
<text class="ct" x="1025" y="681" text-anchor="middle">7,000</text>
<text class="ct" x="1129" y="912" text-anchor="middle">6,400</text>
<text class="ct" x="1512" y="1133" text-anchor="middle">5,800</text>
<text class="ct" x="2003" y="996" text-anchor="middle">5,200</text>
<circle class="dot" cx="1283" cy="483" r="2.4"/>
<text class="pk" x="1283" y="503" text-anchor="middle">GREEN MOUNTAIN</text>
<text class="el" x="1283" y="524" text-anchor="middle">8,144&#8242;</text>
</svg>