<svg xmlns="http://www.w3.org/2000/svg" width="1200" height="900" viewBox="0 0 1200 900">
<style>
  .c  { fill:none; stroke:#2A1B11; stroke-opacity:0.07; stroke-width:1.1; }
  .ix { fill:none; stroke:#2A1B11; stroke-opacity:0.12; stroke-width:1.6; }
  .ct { font:500 10px 'IBM Plex Mono',ui-monospace,monospace; fill:#2A1B11; fill-opacity:0.32;
        stroke:#F4ECDB; stroke-width:3; paint-order:stroke; }
  .pk { font:600 11.5px 'Inter Tight','Helvetica Neue',sans-serif; letter-spacing:0.15em; fill:#2A1B11; fill-opacity:0.2; }
  .el { font:500 10.5px 'IBM Plex Mono',ui-monospace,monospace; fill:#9C6A33; fill-opacity:0.34; }
  .dot { fill:#2A1B11; fill-opacity:0.24; }
</style>
<path class="c" d="M645.7,427.0 L647.4,430.1 L648.0,433.3 L647.3,436.5 L645.8,439.5 L643.9,442.3 L642.0,445.0 L640.3,447.9 L638.7,450.9 L636.9,454.2 L634.8,457.3 L632.0,460.1 L628.5,462.4 L624.6,464.0 L620.3,465.0 L615.9,465.6 L611.6,466.0 L607.3,466.1 L603.0,465.9 L598.8,465.1 L594.9,463.6 L591.5,461.3 L588.7,458.3 L586.6,455.1 L584.8,452.2 L582.9,450.0 L580.2,448.7 L576.5,448.2 L571.6,448.1 L565.8,447.8 L560.0,446.9 L554.9,444.9 L551.4,442.0 L549.8,438.4 L550.0,434.5 L551.6,430.6 L553.7,427.0 L555.8,423.7 L557.4,420.6 L558.5,417.5 L559.4,414.3 L560.5,411.2 L562.3,408.2 L564.9,405.7 L568.2,403.6 L571.9,402.1 L575.6,400.9 L579.2,399.8 L582.5,398.6 L585.7,397.3 L588.8,395.9 L592.1,394.5 L595.6,393.5 L599.3,392.8 L603.0,392.3 L606.9,391.8 L610.9,391.1 L615.3,390.2 L620.2,389.2 L625.5,388.4 L630.8,388.5 L635.6,389.7 L639.4,392.3 L641.5,396.2 L642.1,400.8 L641.2,405.6 L639.7,410.1 L638.3,413.8 L637.8,416.9 L638.6,419.4 L640.6,421.7 L643.2,424.2 L645.7,427.0 Z"/>
<path class="c" d="M688.4,427.0 L691.8,433.2 L692.9,439.7 L691.7,446.0 L688.6,451.9 L684.8,457.5 L681.0,463.0 L677.5,468.7 L674.3,474.9 L670.9,481.3 L666.6,487.6 L661.0,493.2 L654.0,497.7 L646.1,501.0 L637.6,503.0 L628.9,504.3 L620.2,505.0 L611.6,505.2 L603.0,504.8 L594.7,503.2 L586.9,500.2 L580.0,495.6 L574.5,489.7 L570.2,483.3 L566.6,477.5 L562.7,473.0 L557.5,470.4 L550.0,469.4 L540.2,469.2 L528.7,468.6 L517.0,466.7 L506.8,462.9 L499.8,457.1 L496.6,449.8 L497.0,442.0 L500.1,434.2 L504.4,427.0 L508.5,420.4 L511.7,414.1 L513.9,407.9 L515.7,401.6 L518.0,395.3 L521.6,389.4 L526.8,384.3 L533.4,380.3 L540.8,377.2 L548.3,374.8 L555.4,372.6 L562.0,370.3 L568.4,367.6 L574.7,364.7 L581.3,362.1 L588.2,360.0 L595.5,358.6 L603.0,357.6 L610.7,356.6 L618.8,355.2 L627.7,353.4 L637.4,351.3 L648.0,349.9 L658.6,350.0 L668.3,352.4 L675.7,357.7 L680.1,365.3 L681.1,374.6 L679.4,384.2 L676.3,393.1 L673.6,400.7 L672.7,406.7 L674.3,411.7 L678.2,416.4 L683.4,421.4 L688.4,427.0 Z"/>
<path class="c" d="M731.1,427.0 L736.3,436.3 L737.9,446.0 L736.0,455.5 L731.4,464.4 L725.7,472.8 L720.0,481.0 L714.8,489.6 L710.0,498.8 L704.8,508.5 L698.3,517.9 L689.9,526.3 L679.6,533.1 L667.7,538.0 L654.9,541.1 L641.8,542.9 L628.8,544.0 L615.8,544.3 L603.0,543.6 L590.5,541.3 L578.8,536.8 L568.6,529.8 L560.2,521.0 L553.8,511.4 L548.4,502.7 L542.6,496.0 L534.7,492.1 L523.5,490.6 L508.7,490.3 L491.5,489.4 L474.0,486.6 L458.8,480.8 L448.2,472.1 L443.3,461.2 L444.0,449.4 L448.7,437.8 L455.1,427.0 L461.3,417.1 L466.1,407.7 L469.4,398.4 L472.1,388.9 L475.6,379.5 L480.9,370.6 L488.7,363.0 L498.6,356.9 L509.7,352.3 L520.9,348.7 L531.6,345.5 L541.6,341.9 L551.0,337.8 L560.5,333.6 L570.4,329.6 L580.9,326.5 L591.8,324.3 L603.0,322.8 L614.6,321.4 L626.7,319.3 L640.0,316.6 L654.6,313.5 L670.4,311.3 L686.4,311.5 L700.9,315.2 L712.1,323.0 L718.6,334.5 L720.2,348.3 L717.6,362.8 L713.0,376.2 L708.9,387.5 L707.5,396.6 L709.9,404.1 L715.8,411.1 L723.6,418.6 L731.1,427.0 Z"/>
<path class="ix" d="M773.8,427.0 L780.7,439.4 L782.9,452.4 L780.3,465.0 L774.3,476.9 L766.6,488.0 L758.9,499.0 L752.1,510.5 L745.7,522.8 L738.8,535.6 L730.1,548.2 L718.9,559.4 L705.1,568.5 L689.2,574.9 L672.2,579.1 L654.8,581.6 L637.4,582.9 L620.1,583.4 L603.0,582.5 L586.3,579.4 L570.7,573.4 L557.1,564.1 L546.0,552.3 L537.4,539.6 L530.2,527.9 L522.4,519.0 L511.9,513.8 L497.0,511.8 L477.3,511.4 L454.4,510.3 L431.0,506.5 L410.7,498.7 L396.6,487.1 L390.1,472.6 L391.0,456.9 L397.2,441.4 L405.8,427.0 L414.1,413.8 L420.5,401.3 L424.8,388.8 L428.5,376.2 L433.1,363.6 L440.2,351.8 L450.6,341.6 L463.8,333.5 L478.5,327.4 L493.6,322.7 L507.8,318.3 L521.1,313.5 L533.7,308.1 L546.3,302.5 L559.5,297.2 L573.5,293.0 L588.0,290.1 L603.0,288.1 L618.4,286.2 L634.6,283.5 L652.3,279.7 L671.8,275.7 L692.9,272.8 L714.2,272.9 L733.5,277.9 L748.5,288.3 L757.2,303.6 L759.2,322.1 L755.8,341.4 L749.7,359.3 L744.2,374.3 L742.4,386.4 L745.6,396.4 L753.4,405.8 L763.8,415.7 L773.8,427.0 Z"/>
<path class="c" d="M816.5,427.0 L825.1,442.5 L827.8,458.7 L824.6,474.5 L817.1,489.3 L807.5,503.3 L797.9,517.0 L789.3,531.4 L781.3,546.7 L772.7,562.8 L761.9,578.5 L747.9,592.5 L730.6,603.8 L710.8,611.9 L689.5,617.1 L667.7,620.2 L646.0,621.9 L624.4,622.5 L603.0,621.4 L582.2,617.5 L562.7,610.0 L545.6,598.4 L531.7,583.6 L521.0,567.7 L512.0,553.1 L502.3,542.1 L489.2,535.5 L470.5,533.0 L445.9,532.5 L417.2,531.1 L388.0,526.3 L362.6,516.7 L344.9,502.1 L336.9,484.0 L338.0,464.4 L345.8,445.0 L356.5,427.0 L366.9,410.5 L374.8,394.8 L380.3,379.3 L384.8,363.5 L390.6,347.8 L399.6,333.0 L412.5,320.3 L429.0,310.2 L447.4,302.5 L466.2,296.6 L484.0,291.1 L500.6,285.1 L516.4,278.4 L532.2,271.3 L548.7,264.7 L566.1,259.5 L584.3,255.9 L603.0,253.4 L622.3,250.9 L642.5,247.6 L664.7,242.9 L689.1,237.8 L715.4,234.2 L742.0,234.4 L766.1,240.6 L784.8,253.6 L795.7,272.8 L798.3,295.9 L794.0,320.0 L786.3,342.3 L779.5,361.1 L777.2,376.3 L781.2,388.8 L791.0,400.5 L804.0,412.9 L816.5,427.0 Z"/>
<path class="c" d="M859.2,427.0 L869.5,445.7 L872.8,465.1 L869.0,484.0 L859.9,501.8 L848.4,518.5 L836.9,535.0 L826.6,552.2 L817.0,570.7 L806.6,589.9 L793.7,608.8 L776.9,625.6 L756.1,639.2 L732.4,648.9 L706.8,655.1 L680.7,658.8 L654.6,660.9 L628.7,661.6 L603.0,660.3 L578.0,655.7 L554.6,646.6 L534.1,632.7 L517.5,615.0 L504.6,595.9 L493.8,578.4 L482.2,565.1 L466.4,557.3 L444.0,554.2 L414.5,553.6 L380.0,551.9 L345.0,546.2 L314.5,534.6 L293.3,517.2 L283.7,495.5 L285.0,471.9 L294.3,448.6 L307.2,427.0 L319.6,407.2 L329.2,388.4 L335.8,369.7 L341.2,350.8 L348.1,331.9 L358.9,314.2 L374.4,299.0 L394.2,286.8 L416.3,277.7 L438.8,270.5 L460.3,263.9 L480.1,256.8 L499.1,248.7 L518.0,240.2 L537.8,232.3 L558.7,226.0 L580.5,221.7 L603.0,218.7 L626.1,215.7 L650.5,211.7 L677.0,206.1 L706.3,200.0 L737.9,195.6 L769.8,195.9 L798.8,203.3 L821.2,219.0 L834.3,242.0 L837.3,269.7 L832.2,298.6 L823.0,325.4 L814.8,348.0 L812.0,366.1 L816.8,381.2 L828.6,395.2 L844.2,410.1 L859.2,427.0 Z"/>
<path class="c" d="M901.9,427.0 L913.9,448.8 L917.8,471.4 L913.3,493.5 L902.7,514.3 L889.3,533.8 L875.9,553.0 L863.9,573.1 L852.7,594.6 L840.6,617.1 L825.4,639.1 L805.8,658.8 L781.7,674.6 L753.9,685.9 L724.1,693.2 L693.6,697.5 L663.1,699.9 L632.9,700.7 L603.0,699.1 L573.8,693.8 L546.5,683.2 L522.6,666.9 L503.2,646.3 L488.2,624.0 L475.6,603.6 L462.0,588.1 L443.6,579.0 L417.5,575.4 L383.1,574.6 L342.9,572.7 L302.0,566.0 L266.5,552.5 L241.7,532.2 L230.4,506.9 L232.0,479.3 L242.9,452.2 L257.9,427.0 L272.4,403.9 L283.6,381.9 L291.2,360.2 L297.5,338.1 L305.6,316.1 L318.2,295.4 L336.3,277.6 L359.4,263.4 L385.2,252.8 L411.5,244.4 L436.5,236.7 L459.7,228.4 L481.7,219.0 L503.8,209.0 L526.9,199.8 L551.3,192.5 L576.8,187.4 L603.0,183.9 L630.0,180.5 L658.4,175.8 L689.3,169.3 L723.5,162.2 L760.3,157.1 L797.6,157.4 L831.4,166.0 L857.6,184.3 L872.8,211.1 L876.4,243.5 L870.4,277.2 L859.7,308.4 L850.1,334.8 L846.9,356.0 L852.5,373.5 L866.2,389.9 L884.4,407.3 L901.9,427.0 Z"/>
<path class="ix" d="M944.6,427.0 L958.4,451.9 L962.7,477.7 L957.6,503.0 L945.5,526.7 L930.2,549.1 L914.9,571.1 L901.1,594.0 L888.4,618.6 L874.5,644.2 L857.2,669.4 L834.8,691.9 L807.2,709.9 L775.5,722.9 L741.4,731.2 L706.5,736.1 L671.7,738.9 L637.2,739.8 L603.0,738.0 L569.7,731.9 L538.5,719.8 L511.2,701.2 L489.0,677.6 L471.8,652.2 L457.4,628.8 L441.9,611.1 L420.8,600.7 L391.0,596.6 L351.6,595.7 L305.7,593.5 L259.0,585.9 L218.4,570.5 L190.1,547.2 L177.2,518.3 L179.0,486.8 L191.4,455.8 L208.6,427.0 L225.2,400.6 L237.9,375.5 L246.7,350.6 L253.9,325.4 L263.1,300.2 L277.5,276.7 L298.2,256.3 L324.6,240.1 L354.1,227.9 L384.1,218.3 L412.7,209.5 L439.2,200.0 L464.4,189.3 L489.7,177.9 L516.0,167.4 L543.9,159.0 L573.1,153.2 L603.0,149.2 L633.8,145.3 L666.3,139.9 L701.6,132.5 L740.7,124.3 L782.8,118.5 L825.4,118.9 L864.0,128.8 L893.9,149.6 L911.4,180.3 L915.4,217.3 L908.6,255.8 L896.3,291.5 L885.4,321.6 L881.7,345.8 L888.1,365.9 L903.8,384.6 L924.6,404.5 L944.6,427.0 Z"/>
<path class="c" d="M987.3,427.0 L1002.8,455.0 L1007.7,484.1 L1001.9,512.5 L988.3,539.2 L971.1,564.3 L953.9,589.1 L938.4,614.9 L924.0,642.5 L908.5,671.4 L889.0,699.7 L863.8,725.0 L832.7,745.3 L797.0,759.9 L758.7,769.2 L719.5,774.8 L680.3,777.9 L641.5,778.9 L603.0,776.9 L565.5,770.0 L530.4,756.4 L499.7,735.5 L474.7,709.0 L455.4,680.3 L439.2,654.0 L421.7,634.1 L398.1,622.4 L364.5,617.8 L320.2,616.8 L268.5,614.3 L215.9,605.8 L170.3,588.4 L138.5,562.3 L124.0,529.7 L126.0,494.3 L140.0,459.4 L159.3,427.0 L177.9,397.2 L192.3,369.1 L202.2,341.1 L210.3,312.6 L220.7,284.4 L236.8,257.9 L260.1,234.9 L289.7,216.7 L323.0,203.0 L356.8,192.2 L388.9,182.4 L418.7,171.7 L447.1,159.5 L475.5,146.8 L505.2,134.9 L536.6,125.5 L569.3,119.0 L603.0,114.5 L637.7,110.1 L674.2,104.0 L714.0,95.7 L757.9,86.5 L805.3,80.0 L853.2,80.4 L896.7,91.5 L930.3,114.9 L949.9,149.4 L954.5,191.0 L946.8,234.4 L933.0,274.6 L920.7,308.5 L916.6,335.7 L923.8,358.2 L941.4,379.3 L964.8,401.7 L987.3,427.0 Z"/>
<text class="ct" x="646" y="504" text-anchor="middle">7,800</text>
<text class="ct" x="644" y="285" text-anchor="middle">7,400</text>
<text class="ct" x="412" y="557" text-anchor="middle">7,000</text>
<text class="ct" x="938" y="421" text-anchor="middle">6,600</text>
<circle class="dot" cx="603" cy="403" r="2.4"/>
<text class="pk" x="603" y="423" text-anchor="middle">GREEN MOUNTAIN</text>
<text class="el" x="603" y="444" text-anchor="middle">8,144&#8242;</text>
</svg>