<svg xmlns="http://www.w3.org/2000/svg" width="2000" height="1400" viewBox="0 0 2000 1400">
<style>
  .c  { fill:none; stroke:#2A1B11; stroke-opacity:0.07; stroke-width:1.1; }
  .ix { fill:none; stroke:#2A1B11; stroke-opacity:0.12; stroke-width:1.6; }
  .ct { font:500 10px 'IBM Plex Mono',ui-monospace,monospace; fill:#2A1B11; fill-opacity:0.32;
        stroke:#F4ECDB; stroke-width:3; paint-order:stroke; }
  .pk { font:600 11.5px 'Inter Tight','Helvetica Neue',sans-serif; letter-spacing:0.15em; fill:#2A1B11; fill-opacity:0.2; }
  .el { font:500 10.5px 'IBM Plex Mono',ui-monospace,monospace; fill:#9C6A33; fill-opacity:0.34; }
  .dot { fill:#2A1B11; fill-opacity:0.24; }
</style>
<path class="c" d="M1088.9,773.0 L1087.9,776.6 L1087.7,780.2 L1087.8,783.9 L1087.6,787.7 L1087.1,791.7 L1086.2,795.7 L1085.0,799.9 L1083.6,804.3 L1081.9,808.9 L1079.6,813.7 L1076.5,818.1 L1072.3,821.9 L1067.0,824.5 L1061.0,825.7 L1054.6,825.5 L1048.4,824.5 L1042.5,823.2 L1037.0,822.3 L1031.6,821.9 L1026.2,822.2 L1020.4,822.5 L1014.6,822.2 L1009.2,820.7 L1004.7,817.8 L1001.6,813.4 L999.9,808.3 L999.3,803.2 L998.8,798.6 L997.6,795.1 L994.9,792.5 L990.4,790.4 L984.5,788.3 L978.0,785.6 L972.0,782.2 L967.5,777.9 L964.9,773.0 L964.4,767.9 L965.6,762.9 L968.0,758.2 L971.1,753.8 L974.7,749.8 L978.8,746.1 L983.5,743.0 L988.6,740.5 L994.2,738.8 L999.9,737.7 L1005.4,736.9 L1010.3,736.0 L1014.6,734.6 L1018.6,732.5 L1022.5,729.7 L1026.8,726.8 L1031.7,724.4 L1037.0,723.1 L1042.5,723.1 L1047.7,724.5 L1052.5,726.7 L1057.0,729.0 L1061.6,730.8 L1066.7,731.9 L1072.7,732.2 L1079.7,732.3 L1087.0,733.0 L1093.8,734.9 L1099.2,738.2 L1102.3,742.9 L1102.8,748.5 L1101.0,754.4 L1097.8,760.0 L1094.1,764.9 L1091.0,769.2 L1088.9,773.0 Z"/>
<path class="c" d="M1140.8,773.0 L1138.9,780.1 L1138.4,787.3 L1138.5,794.8 L1138.3,802.5 L1137.3,810.4 L1135.4,818.5 L1133.1,826.8 L1130.2,835.6 L1126.8,844.9 L1122.3,854.3 L1116.0,863.3 L1107.6,870.8 L1097.0,876.0 L1084.9,878.4 L1072.2,878.1 L1059.7,876.0 L1048.0,873.5 L1037.0,871.5 L1026.3,870.9 L1015.3,871.3 L1003.9,872.0 L992.2,871.4 L981.4,868.5 L972.4,862.5 L966.2,853.9 L962.9,843.7 L961.6,833.3 L960.7,824.2 L958.2,817.1 L952.7,811.9 L943.7,807.8 L931.9,803.6 L919.0,798.3 L907.1,791.3 L898.0,782.7 L892.8,773.0 L891.8,762.8 L894.2,752.9 L899.0,743.4 L905.2,734.6 L912.5,726.6 L920.7,719.3 L929.9,713.0 L940.3,708.1 L951.5,704.6 L962.9,702.3 L973.8,700.8 L983.6,699.0 L992.2,696.2 L1000.1,691.9 L1008.0,686.5 L1016.6,680.7 L1026.4,675.8 L1037.0,673.1 L1047.9,673.2 L1058.4,675.9 L1068.0,680.3 L1077.0,685.0 L1086.2,688.7 L1096.4,690.7 L1108.5,691.4 L1122.3,691.7 L1137.0,693.0 L1150.7,696.7 L1161.4,703.3 L1167.5,712.7 L1168.5,723.9 L1165.0,735.7 L1158.6,746.9 L1151.3,756.9 L1145.0,765.4 L1140.8,773.0 Z"/>
<path class="c" d="M1192.8,773.0 L1189.8,783.7 L1189.1,794.5 L1189.3,805.6 L1188.9,817.2 L1187.4,829.1 L1184.7,841.2 L1181.1,853.7 L1176.9,866.9 L1171.7,880.8 L1164.9,895.0 L1155.5,908.4 L1142.9,919.7 L1127.0,927.5 L1108.9,931.0 L1089.8,930.6 L1071.1,927.6 L1053.5,923.7 L1037.0,920.8 L1020.9,919.8 L1004.5,920.5 L987.3,921.4 L969.8,920.6 L953.5,916.2 L940.1,907.3 L930.8,894.3 L925.8,879.0 L923.9,863.5 L922.5,849.9 L918.8,839.2 L910.6,831.4 L897.1,825.2 L879.4,818.9 L860.0,810.9 L842.1,800.5 L828.5,787.6 L820.8,773.0 L819.2,757.8 L822.8,742.8 L829.9,728.6 L839.4,715.5 L850.2,703.3 L862.5,692.4 L876.4,683.0 L891.9,675.6 L908.7,670.4 L925.8,667.0 L942.1,664.6 L956.9,662.0 L969.8,657.8 L981.7,651.4 L993.5,643.2 L1006.5,634.5 L1021.1,627.2 L1037.0,623.2 L1053.4,623.3 L1069.1,627.4 L1083.6,634.0 L1097.1,641.0 L1110.7,646.5 L1126.1,649.6 L1144.2,650.5 L1165.0,651.0 L1186.9,653.0 L1207.5,658.6 L1223.5,668.5 L1232.8,682.6 L1234.3,699.4 L1229.0,717.1 L1219.3,733.9 L1208.4,748.8 L1199.1,761.7 L1192.8,773.0 Z"/>
<path class="ix" d="M1244.7,773.0 L1240.7,787.3 L1239.8,801.6 L1240.0,816.5 L1239.6,832.0 L1237.5,847.8 L1233.9,863.9 L1229.1,880.6 L1223.5,898.2 L1216.6,916.7 L1207.6,935.6 L1195.0,953.5 L1178.2,968.6 L1157.1,979.0 L1132.9,983.7 L1107.4,983.2 L1082.4,979.1 L1059.0,973.9 L1037.0,970.0 L1015.6,968.7 L993.7,969.7 L970.7,970.9 L947.5,969.8 L925.7,963.9 L907.8,952.0 L895.4,934.8 L888.8,914.3 L886.2,893.6 L884.4,875.5 L879.4,861.3 L868.5,850.8 L850.5,842.6 L826.9,834.2 L801.0,823.6 L777.1,809.7 L759.0,792.5 L748.7,773.0 L746.6,752.7 L751.4,732.7 L760.9,713.8 L773.5,696.3 L788.0,680.1 L804.3,665.5 L822.8,653.0 L843.5,643.1 L865.9,636.1 L888.7,631.7 L910.5,628.5 L930.2,624.9 L947.4,619.3 L963.2,610.8 L979.0,599.9 L996.3,588.3 L1015.7,578.6 L1037.0,573.2 L1058.8,573.4 L1079.8,578.9 L1099.1,587.6 L1117.1,597.0 L1135.3,604.3 L1155.8,608.4 L1179.9,609.7 L1207.6,610.3 L1236.9,613.1 L1264.3,620.4 L1285.7,633.7 L1298.0,652.4 L1300.0,674.9 L1293.0,698.5 L1280.1,720.9 L1265.6,740.8 L1253.1,757.9 L1244.7,773.0 Z"/>
<path class="c" d="M1296.6,773.0 L1291.6,790.8 L1290.5,808.8 L1290.8,827.4 L1290.2,846.7 L1287.6,866.5 L1283.1,886.7 L1277.2,907.5 L1270.1,929.5 L1261.6,952.6 L1250.2,976.3 L1234.5,998.7 L1213.4,1017.5 L1187.1,1030.5 L1156.8,1036.4 L1125.0,1035.7 L1093.8,1030.6 L1064.5,1024.1 L1037.0,1019.3 L1010.2,1017.7 L982.8,1018.8 L954.1,1020.4 L925.1,1019.0 L897.9,1011.7 L875.5,996.8 L860.0,975.2 L851.7,949.6 L848.5,923.8 L846.2,901.1 L840.0,883.3 L826.3,870.3 L803.9,860.0 L774.4,849.5 L742.0,836.2 L712.2,818.8 L689.4,797.3 L676.6,773.0 L674.0,747.6 L679.9,722.6 L691.9,699.0 L707.6,677.1 L725.7,656.9 L746.2,638.7 L769.3,623.0 L795.2,610.7 L823.1,601.9 L851.7,596.3 L878.9,592.4 L903.4,587.9 L925.0,580.9 L944.8,570.3 L964.5,556.6 L986.1,542.1 L1010.4,530.0 L1037.0,523.3 L1064.3,523.5 L1090.5,530.3 L1114.6,541.3 L1137.1,552.9 L1159.9,562.1 L1185.5,567.3 L1215.6,568.9 L1250.3,569.7 L1286.9,573.1 L1321.1,582.3 L1347.9,598.8 L1363.3,622.3 L1365.8,650.3 L1357.0,679.8 L1340.9,707.9 L1322.7,732.7 L1307.1,754.1 L1296.6,773.0 Z"/>
<path class="c" d="M1348.5,773.0 L1342.6,794.4 L1341.2,815.9 L1341.5,838.3 L1340.8,861.5 L1337.8,885.2 L1332.3,909.4 L1325.2,934.4 L1316.7,960.8 L1306.5,988.6 L1292.9,1016.9 L1274.0,1043.8 L1248.7,1066.4 L1217.1,1081.9 L1180.8,1089.1 L1142.6,1088.3 L1105.1,1082.1 L1070.0,1074.4 L1037.0,1068.6 L1004.9,1066.6 L972.0,1068.0 L937.6,1069.9 L902.7,1068.2 L870.1,1059.4 L843.2,1041.6 L824.6,1015.7 L814.7,985.0 L810.8,954.0 L808.0,926.7 L800.6,905.4 L784.2,889.8 L757.2,877.4 L721.8,864.8 L683.0,848.9 L647.2,828.0 L619.9,802.2 L604.5,773.0 L601.4,742.5 L608.5,712.6 L622.9,684.2 L641.7,657.9 L663.5,633.7 L688.0,611.8 L715.7,593.0 L746.8,578.2 L780.4,567.7 L814.6,561.0 L847.3,556.3 L876.7,550.9 L902.7,542.5 L926.3,529.8 L950.0,513.4 L975.9,496.0 L1005.1,481.4 L1037.0,473.4 L1069.7,473.7 L1101.2,481.8 L1130.1,495.0 L1157.1,508.9 L1184.5,520.0 L1215.2,526.1 L1251.4,528.1 L1292.9,529.0 L1336.9,533.1 L1378.0,544.1 L1410.1,564.0 L1428.5,592.2 L1431.5,625.8 L1421.0,661.2 L1401.7,694.8 L1379.9,724.6 L1361.1,750.3 L1348.5,773.0 Z"/>
<path class="c" d="M1400.5,773.0 L1393.5,798.0 L1391.9,823.1 L1392.3,849.2 L1391.5,876.2 L1387.9,903.9 L1381.6,932.1 L1373.2,961.3 L1363.4,992.1 L1351.4,1024.5 L1335.5,1057.6 L1313.5,1088.9 L1284.0,1115.3 L1247.1,1133.4 L1204.8,1141.7 L1160.2,1140.8 L1116.5,1133.6 L1075.5,1124.6 L1037.0,1117.8 L999.5,1115.5 L961.1,1117.1 L921.0,1119.4 L880.3,1117.4 L842.2,1107.1 L810.9,1086.3 L789.2,1056.1 L777.6,1020.3 L773.1,984.1 L769.9,952.3 L761.3,927.5 L742.1,909.2 L710.6,894.8 L669.3,880.1 L624.0,861.5 L582.2,837.1 L550.4,807.1 L532.5,773.0 L528.8,737.4 L537.1,702.5 L553.9,669.4 L575.8,638.7 L601.2,610.4 L629.8,584.9 L662.2,563.0 L698.4,545.7 L737.6,533.5 L777.6,525.6 L815.7,520.1 L850.0,513.9 L880.3,504.1 L907.9,489.2 L935.5,470.1 L965.8,449.8 L999.8,432.8 L1037.0,423.4 L1075.2,423.8 L1111.9,433.3 L1145.6,448.6 L1177.2,464.9 L1209.1,477.8 L1244.9,485.0 L1287.1,487.3 L1335.6,488.3 L1386.9,493.1 L1434.8,506.0 L1472.3,529.2 L1493.8,562.0 L1497.3,601.3 L1485.0,642.6 L1462.5,681.8 L1437.0,716.6 L1415.1,746.5 L1400.5,773.0 Z"/>
<path class="ix" d="M1452.4,773.0 L1444.4,801.5 L1442.6,830.2 L1443.0,860.0 L1442.1,891.0 L1438.0,922.6 L1430.8,954.9 L1421.2,988.2 L1410.0,1023.4 L1396.3,1060.4 L1378.1,1098.2 L1353.0,1134.1 L1319.3,1164.2 L1277.1,1184.9 L1228.7,1194.4 L1177.8,1193.4 L1127.8,1185.2 L1080.9,1174.8 L1037.0,1167.1 L994.2,1164.5 L950.3,1166.3 L904.4,1168.8 L857.9,1166.7 L814.4,1154.9 L778.6,1131.1 L753.8,1096.5 L740.6,1055.6 L735.4,1014.3 L731.7,977.9 L721.9,949.5 L700.0,928.7 L664.0,912.1 L616.8,895.4 L565.0,874.2 L517.3,846.3 L480.9,811.9 L460.4,773.0 L456.2,732.3 L465.7,692.4 L484.9,654.6 L509.9,619.5 L539.0,587.2 L571.7,558.1 L608.6,533.0 L650.1,513.3 L694.8,499.3 L740.5,490.3 L784.1,484.0 L823.3,476.9 L857.9,465.7 L889.4,448.7 L921.0,426.8 L955.6,403.6 L994.5,384.3 L1037.0,373.5 L1080.6,373.9 L1122.6,384.8 L1161.2,402.3 L1197.2,420.9 L1233.7,435.6 L1274.6,443.8 L1322.8,446.5 L1378.2,447.7 L1436.9,453.1 L1491.6,467.8 L1534.5,494.3 L1559.1,531.9 L1563.1,576.8 L1549.0,623.9 L1523.2,668.8 L1494.2,708.5 L1469.1,742.8 L1452.4,773.0 Z"/>
<path class="c" d="M1504.3,773.0 L1495.4,805.1 L1493.4,837.4 L1493.8,870.9 L1492.8,905.7 L1488.2,941.3 L1480.0,977.6 L1469.3,1015.1 L1456.6,1054.7 L1441.2,1096.4 L1420.8,1138.9 L1392.5,1179.2 L1354.6,1213.1 L1307.1,1236.4 L1252.7,1247.1 L1195.4,1245.9 L1139.2,1236.7 L1086.4,1225.1 L1037.0,1216.3 L988.8,1213.4 L939.5,1215.5 L887.8,1218.3 L835.5,1215.9 L786.6,1202.6 L746.3,1175.8 L718.4,1137.0 L703.5,1090.9 L697.7,1044.4 L693.5,1003.6 L682.5,971.6 L657.8,948.1 L617.4,929.5 L564.3,910.7 L506.1,886.8 L452.3,855.5 L411.4,816.8 L388.3,773.0 L383.6,727.3 L394.3,682.3 L415.8,639.8 L444.1,600.4 L476.7,564.0 L513.5,531.2 L555.1,503.1 L601.7,480.8 L652.1,465.1 L703.4,455.0 L752.4,447.9 L796.6,439.9 L835.5,427.3 L871.0,408.1 L906.6,383.5 L945.4,357.5 L989.2,335.7 L1037.0,323.5 L1086.1,324.0 L1133.3,336.2 L1176.7,355.9 L1217.2,376.9 L1258.2,393.4 L1304.3,402.7 L1358.5,405.6 L1420.9,407.0 L1486.8,413.1 L1548.4,429.7 L1596.6,459.5 L1624.3,501.7 L1628.8,552.2 L1612.9,605.3 L1584.0,655.7 L1551.3,700.4 L1523.2,739.0 L1504.3,773.0 Z"/>
<path class="c" d="M1556.2,773.0 L1546.3,808.6 L1544.1,844.5 L1544.6,881.8 L1543.4,920.5 L1538.3,960.0 L1529.2,1000.3 L1517.3,1042.0 L1503.2,1086.0 L1486.1,1132.3 L1463.4,1179.6 L1432.1,1224.4 L1389.9,1262.0 L1337.1,1287.9 L1276.7,1299.8 L1213.0,1298.5 L1150.6,1288.2 L1091.9,1275.3 L1037.0,1265.6 L983.5,1262.3 L928.6,1264.6 L871.3,1267.8 L813.1,1265.1 L758.8,1250.3 L714.0,1220.6 L683.0,1177.4 L666.5,1126.3 L660.0,1074.6 L655.4,1029.2 L643.1,993.7 L615.7,967.6 L570.7,946.9 L511.7,925.9 L447.1,899.5 L387.3,864.6 L341.9,821.7 L316.2,773.0 L311.0,722.2 L322.9,672.3 L346.8,625.1 L378.2,581.2 L414.5,540.8 L455.4,504.3 L501.6,473.1 L553.3,448.3 L609.3,430.8 L666.4,419.6 L720.8,411.8 L769.9,402.9 L813.1,388.9 L852.6,367.6 L892.1,340.3 L935.2,311.3 L983.9,287.1 L1037.0,273.6 L1091.6,274.1 L1144.0,287.7 L1192.2,309.6 L1237.2,332.9 L1282.8,351.3 L1334.0,361.5 L1394.3,364.8 L1463.5,366.3 L1536.8,373.1 L1605.3,391.5 L1658.8,424.7 L1689.6,471.6 L1694.6,527.7 L1676.9,586.7 L1644.8,642.7 L1608.5,692.4 L1577.2,735.2 L1556.2,773.0 Z"/>
<path class="c" d="M1608.2,773.0 L1597.2,812.2 L1594.8,851.7 L1595.3,892.7 L1594.0,935.2 L1588.4,978.7 L1578.4,1023.1 L1565.3,1069.0 L1549.8,1117.3 L1531.0,1168.2 L1506.1,1220.2 L1471.6,1269.5 L1425.2,1310.9 L1367.1,1339.4 L1300.6,1352.5 L1230.6,1351.0 L1161.9,1339.7 L1097.4,1325.5 L1037.0,1314.8 L978.1,1311.2 L917.8,1313.8 L854.7,1317.3 L790.7,1314.3 L731.0,1298.1 L681.7,1265.4 L647.6,1217.9 L629.4,1161.6 L622.3,1104.8 L617.2,1054.8 L603.7,1015.7 L573.6,987.1 L524.1,964.3 L459.2,941.2 L388.1,912.1 L322.4,873.8 L272.4,826.5 L244.2,773.0 L238.4,717.1 L251.5,662.2 L277.8,610.3 L312.3,562.0 L352.2,517.5 L397.2,477.5 L448.0,443.1 L505.0,415.9 L566.5,396.6 L629.3,384.3 L689.2,375.6 L743.2,365.9 L790.7,350.4 L834.1,327.1 L877.6,297.0 L925.1,265.1 L978.5,238.5 L1037.0,223.6 L1097.0,224.2 L1154.7,239.2 L1207.7,263.3 L1257.3,288.9 L1307.4,309.1 L1363.7,320.4 L1430.0,324.0 L1506.2,325.7 L1586.8,333.2 L1662.1,353.4 L1721.0,389.8 L1754.8,441.5 L1760.3,503.2 L1740.9,568.0 L1705.6,629.7 L1665.6,684.3 L1631.2,731.4 L1608.2,773.0 Z"/>
<path class="ix" d="M1660.1,773.0 L1648.1,815.8 L1645.5,858.8 L1646.1,903.6 L1644.7,949.9 L1638.6,997.4 L1627.7,1045.8 L1613.4,1095.9 L1596.5,1148.6 L1575.9,1204.1 L1548.7,1260.9 L1511.1,1314.6 L1460.5,1359.8 L1397.2,1390.9 L1324.6,1405.1 L1248.2,1403.5 L1173.3,1391.3 L1102.9,1375.7 L1037.0,1364.1 L972.8,1360.2 L907.0,1363.0 L838.1,1366.8 L768.4,1363.5 L703.1,1345.8 L649.4,1310.1 L612.2,1258.3 L592.4,1196.9 L584.6,1134.9 L579.1,1080.4 L564.3,1037.8 L531.4,1006.5 L477.5,981.7 L406.7,956.5 L329.1,924.8 L257.4,883.0 L202.9,831.4 L172.1,773.0 L165.8,712.0 L180.1,652.1 L208.8,595.5 L246.4,542.8 L290.0,494.3 L339.0,450.6 L394.5,413.1 L456.6,383.4 L523.8,362.4 L592.2,349.0 L657.6,339.5 L716.5,328.8 L768.3,312.0 L815.7,286.5 L863.1,253.7 L914.9,218.9 L973.2,189.9 L1037.0,173.7 L1102.5,174.3 L1165.4,190.6 L1223.3,216.9 L1277.3,244.9 L1332.0,266.9 L1393.4,279.2 L1465.7,283.2 L1548.8,285.0 L1636.8,293.2 L1718.9,315.2 L1783.2,355.0 L1820.1,411.3 L1826.1,478.6 L1804.9,549.4 L1766.4,616.7 L1722.8,676.3 L1685.2,727.6 L1660.1,773.0 Z"/>
<path class="c" d="M1712.0,773.0 L1699.1,819.3 L1696.2,866.0 L1696.8,914.4 L1695.3,964.7 L1688.7,1016.1 L1676.9,1068.6 L1661.4,1122.8 L1643.1,1179.9 L1620.8,1240.1 L1591.4,1301.5 L1550.6,1359.8 L1495.7,1408.7 L1427.2,1442.4 L1348.6,1457.8 L1265.8,1456.1 L1184.6,1442.8 L1108.4,1426.0 L1037.0,1413.4 L967.4,1409.1 L896.1,1412.1 L821.6,1416.2 L746.0,1412.7 L675.3,1393.5 L617.1,1354.9 L576.8,1298.8 L555.3,1232.2 L546.9,1165.1 L540.9,1106.0 L524.9,1059.9 L489.3,1026.0 L430.9,999.1 L354.1,971.8 L270.1,937.4 L192.4,892.1 L133.4,836.2 L100.0,773.0 L93.2,706.9 L108.7,642.0 L139.8,580.7 L180.5,523.6 L227.7,471.1 L280.9,423.8 L340.9,383.1 L408.2,350.9 L481.0,328.2 L555.2,313.6 L626.0,303.4 L689.7,291.8 L745.9,273.6 L797.2,246.0 L848.6,210.4 L904.7,172.8 L967.9,141.3 L1037.0,123.8 L1107.9,124.4 L1176.1,142.1 L1238.8,170.6 L1297.3,200.9 L1356.6,224.7 L1423.1,238.1 L1501.4,242.4 L1591.5,244.3 L1686.8,253.2 L1775.8,277.1 L1845.4,320.2 L1885.3,381.2 L1891.8,454.1 L1868.9,530.8 L1827.2,603.6 L1779.9,668.2 L1739.2,723.9 L1712.0,773.0 Z"/>
<path class="c" d="M1763.9,773.0 L1750.0,822.9 L1746.9,873.1 L1747.6,925.3 L1746.0,979.4 L1738.8,1034.8 L1726.1,1091.3 L1709.4,1149.7 L1689.7,1211.2 L1665.7,1276.0 L1634.0,1342.2 L1590.1,1404.9 L1531.0,1457.6 L1457.2,1493.9 L1372.5,1510.5 L1283.4,1508.6 L1196.0,1494.3 L1113.9,1476.2 L1037.0,1462.6 L962.1,1458.0 L885.3,1461.3 L805.0,1465.7 L723.6,1461.9 L647.5,1441.2 L584.8,1399.6 L541.4,1339.2 L518.3,1267.6 L509.2,1195.2 L502.7,1131.6 L485.5,1081.9 L447.2,1045.4 L384.2,1016.5 L301.6,987.1 L211.1,950.0 L127.5,901.3 L63.9,841.1 L27.9,773.0 L20.6,701.9 L37.3,632.0 L70.7,565.9 L114.7,504.4 L165.5,447.9 L222.7,396.9 L287.4,353.1 L359.9,318.4 L438.2,294.0 L518.1,278.3 L594.3,267.3 L663.0,254.8 L723.5,235.2 L778.8,205.4 L834.1,167.2 L894.5,126.6 L962.6,92.7 L1037.0,73.8 L1113.4,74.5 L1186.8,93.6 L1254.3,124.2 L1317.3,156.8 L1381.2,182.6 L1452.8,196.9 L1537.2,201.6 L1634.1,203.7 L1736.7,213.2 L1832.6,238.9 L1907.6,285.3 L1950.6,351.0 L1957.6,429.6 L1932.9,512.1 L1887.9,590.6 L1837.1,660.1 L1793.2,720.1 L1763.9,773.0 Z"/>
<path class="c" d="M1815.8,773.0 L1800.9,826.5 L1797.6,880.3 L1798.3,936.2 L1796.6,994.2 L1788.9,1053.5 L1775.3,1114.0 L1757.5,1176.6 L1736.3,1242.4 L1710.7,1311.9 L1676.6,1382.8 L1629.6,1450.0 L1566.3,1506.5 L1487.2,1545.4 L1396.5,1563.2 L1301.0,1561.2 L1207.3,1545.8 L1119.4,1526.4 L1037.0,1511.9 L956.7,1507.0 L874.5,1510.4 L788.4,1515.2 L701.2,1511.1 L619.7,1489.0 L552.5,1444.4 L506.0,1379.6 L481.2,1302.9 L471.5,1225.4 L464.6,1157.3 L446.1,1104.0 L405.0,1064.9 L337.6,1033.9 L249.1,1002.4 L152.1,962.7 L62.5,910.5 L-5.7,846.0 L-44.2,773.0 L-52.0,696.8 L-34.2,621.9 L1.7,551.1 L48.8,485.3 L103.2,424.7 L164.5,370.0 L233.8,323.1 L311.5,286.0 L395.4,259.8 L481.1,243.0 L562.7,231.1 L636.3,217.8 L701.1,196.8 L760.3,164.9 L819.6,123.9 L884.4,80.4 L957.3,44.1 L1037.0,23.9 L1118.8,24.6 L1197.4,45.0 L1269.8,77.9 L1337.3,112.8 L1405.7,140.4 L1482.5,155.8 L1572.9,160.7 L1676.8,163.0 L1786.7,173.2 L1889.4,200.8 L1969.7,250.5 L2015.9,320.9 L2023.3,405.0 L1996.9,493.5 L1948.7,577.6 L1894.2,652.1 L1847.3,716.3 L1815.8,773.0 Z"/>
<path class="ix" d="M1867.8,773.0 L1851.9,830.0 L1848.3,887.4 L1849.1,947.1 L1847.2,1008.9 L1839.1,1072.2 L1824.6,1136.8 L1805.5,1203.5 L1783.0,1273.7 L1755.6,1347.9 L1719.3,1423.5 L1669.1,1495.2 L1601.6,1555.3 L1517.2,1596.9 L1420.5,1615.8 L1318.6,1613.7 L1218.7,1597.3 L1124.9,1576.7 L1037.0,1561.1 L951.4,1555.9 L863.6,1559.6 L771.8,1564.7 L678.8,1560.3 L591.8,1536.7 L520.1,1489.2 L470.6,1420.1 L444.2,1338.2 L433.8,1255.6 L426.4,1182.9 L406.7,1126.1 L362.9,1084.3 L291.0,1051.3 L196.6,1017.7 L93.1,975.3 L-2.5,919.6 L-75.2,850.8 L-116.2,773.0 L-124.6,691.7 L-105.6,611.8 L-67.3,536.3 L-17.1,466.1 L41.0,401.4 L106.4,343.2 L180.3,293.1 L263.1,253.5 L352.7,225.5 L444.0,207.6 L531.1,195.0 L609.6,180.8 L678.7,158.4 L741.9,124.4 L805.1,80.6 L874.2,34.3 L952.0,-4.5 L1037.0,-26.1 L1124.3,-25.3 L1208.1,-3.5 L1285.3,31.6 L1357.4,68.8 L1430.3,98.2 L1512.1,114.6 L1608.6,119.9 L1719.4,122.4 L1836.7,133.2 L1946.2,162.6 L2031.9,215.7 L2081.1,290.7 L2089.1,380.5 L2060.9,474.9 L2009.5,564.5 L1951.4,644.0 L1901.3,712.5 L1867.8,773.0 Z"/>
<path class="c" d="M1919.7,773.0 L1902.8,833.6 L1899.0,894.6 L1899.9,958.0 L1897.9,1023.7 L1889.2,1090.9 L1873.8,1159.5 L1853.5,1230.4 L1829.6,1305.0 L1800.5,1383.8 L1761.9,1464.1 L1708.6,1540.3 L1636.9,1604.2 L1547.2,1648.4 L1444.4,1668.5 L1336.2,1666.3 L1230.0,1648.9 L1130.4,1626.9 L1037.0,1610.4 L946.0,1604.8 L852.8,1608.8 L755.3,1614.2 L656.4,1609.5 L564.0,1584.4 L487.8,1533.9 L435.2,1460.5 L407.1,1373.5 L396.1,1285.7 L388.2,1208.5 L367.3,1148.1 L320.8,1103.8 L244.4,1068.7 L144.0,1033.0 L34.1,988.0 L-67.4,928.8 L-144.7,855.7 L-188.3,773.0 L-197.2,686.6 L-177.0,601.8 L-136.3,521.5 L-83.0,446.9 L-21.3,378.2 L48.2,316.3 L126.7,263.1 L214.8,221.0 L309.9,191.3 L406.9,172.3 L499.5,158.9 L582.9,143.8 L656.4,120.0 L723.4,83.8 L790.6,37.3 L864.0,-11.9 L946.7,-53.1 L1037.0,-76.0 L1129.8,-75.1 L1218.8,-52.0 L1300.9,-14.8 L1377.4,24.8 L1454.9,56.0 L1541.8,73.5 L1644.3,79.1 L1762.1,81.7 L1886.7,93.3 L2003.1,124.5 L2094.1,180.8 L2146.4,260.6 L2154.9,356.0 L2124.9,456.2 L2070.3,551.5 L2008.5,636.0 L1955.3,708.7 L1919.7,773.0 Z"/>
<path class="c" d="M1971.6,773.0 L1953.7,837.2 L1949.7,901.7 L1950.6,968.8 L1948.5,1038.4 L1939.3,1109.6 L1923.0,1182.2 L1901.5,1257.3 L1876.2,1336.3 L1845.4,1419.7 L1804.6,1504.8 L1748.1,1585.4 L1672.2,1653.1 L1577.2,1699.8 L1468.4,1721.2 L1353.8,1718.8 L1241.4,1700.4 L1135.9,1677.1 L1037.0,1659.7 L940.7,1653.8 L842.0,1657.9 L738.7,1663.6 L634.0,1658.7 L536.2,1632.2 L455.5,1578.7 L399.8,1501.0 L370.1,1408.9 L358.4,1315.9 L350.1,1234.1 L327.9,1170.2 L278.7,1123.3 L197.7,1086.1 L91.5,1048.3 L-24.9,1000.6 L-132.4,938.0 L-214.2,860.6 L-260.4,773.0 L-269.8,681.5 L-248.4,591.7 L-205.3,506.7 L-148.9,427.7 L-83.5,355.0 L-10.0,289.4 L73.2,233.1 L166.4,188.6 L267.1,157.1 L369.9,136.9 L467.9,122.8 L556.2,106.8 L634.0,81.5 L705.0,43.3 L776.1,-5.9 L853.8,-58.1 L941.3,-101.7 L1037.0,-125.9 L1135.2,-125.0 L1229.5,-100.5 L1316.4,-61.1 L1397.4,-19.2 L1479.5,13.9 L1571.5,32.3 L1680.1,38.3 L1804.8,41.0 L1936.7,53.3 L2059.9,86.4 L2156.3,146.0 L2211.6,230.5 L2220.6,331.5 L2188.9,437.6 L2131.1,538.5 L2065.7,627.9 L2009.3,704.9 L1971.6,773.0 Z"/>
<path class="c" d="M2023.5,773.0 L2004.6,840.7 L2000.4,908.9 L2001.4,979.7 L1999.2,1053.2 L1989.5,1128.3 L1972.2,1205.0 L1949.6,1284.2 L1922.8,1367.6 L1890.3,1455.6 L1847.2,1545.5 L1787.6,1630.6 L1707.5,1702.0 L1607.3,1751.3 L1492.4,1773.9 L1371.4,1771.4 L1252.8,1751.9 L1141.4,1727.3 L1037.0,1708.9 L935.3,1702.7 L831.1,1707.1 L722.1,1713.1 L611.6,1707.9 L508.4,1679.9 L423.2,1623.5 L364.4,1541.4 L333.0,1444.2 L320.7,1346.0 L311.9,1259.7 L288.5,1192.3 L236.5,1142.7 L151.1,1103.5 L39.0,1063.6 L-83.9,1013.3 L-197.4,947.1 L-283.7,865.4 L-332.5,773.0 L-342.4,676.5 L-319.8,581.6 L-274.4,491.9 L-214.8,408.5 L-145.8,331.8 L-68.1,262.6 L19.7,203.1 L118.0,156.1 L224.4,122.9 L332.8,101.6 L436.3,86.6 L529.5,69.8 L611.6,43.1 L686.6,2.7 L761.6,-49.2 L843.6,-104.3 L936.0,-150.3 L1037.0,-175.9 L1140.7,-174.9 L1240.2,-149.1 L1331.9,-107.5 L1417.4,-63.2 L1504.1,-28.3 L1601.2,-8.8 L1715.8,-2.5 L1847.4,0.4 L1986.6,13.3 L2116.7,48.2 L2218.5,111.2 L2276.9,200.3 L2286.4,306.9 L2252.9,419.0 L2191.8,525.4 L2122.8,619.8 L2063.3,701.2 L2023.5,773.0 Z"/>
<path class="ix" d="M2075.5,773.0 L2055.6,844.3 L2051.1,916.1 L2052.1,990.6 L2049.8,1067.9 L2039.6,1147.0 L2021.4,1227.7 L1997.6,1311.1 L1969.4,1398.9 L1935.2,1491.6 L1889.8,1586.1 L1827.1,1675.7 L1742.8,1750.9 L1637.3,1802.8 L1516.3,1826.5 L1389.0,1823.9 L1264.1,1803.4 L1146.9,1777.6 L1037.0,1758.2 L930.0,1751.6 L820.3,1756.3 L705.5,1762.6 L589.3,1757.1 L480.6,1727.6 L390.9,1668.2 L329.0,1581.8 L295.9,1479.5 L283.0,1376.2 L273.8,1285.4 L249.2,1214.3 L194.4,1162.2 L104.5,1120.9 L-13.6,1078.9 L-142.9,1025.9 L-262.3,956.3 L-353.2,870.3 L-404.5,773.0 L-415.0,671.4 L-391.2,571.5 L-343.4,477.1 L-280.6,389.3 L-208.1,308.5 L-126.3,235.7 L-33.9,173.1 L69.7,123.6 L181.6,88.7 L295.7,66.3 L404.6,50.5 L502.8,32.7 L589.2,4.7 L668.1,-37.8 L747.1,-92.5 L833.5,-150.4 L930.7,-198.9 L1037.0,-225.8 L1146.1,-224.8 L1250.9,-197.6 L1347.4,-153.8 L1437.5,-107.2 L1528.6,-70.5 L1630.9,-50.0 L1751.5,-43.3 L1890.1,-40.3 L2036.6,-26.7 L2173.5,10.1 L2280.6,76.3 L2342.1,170.2 L2352.1,282.4 L2316.9,400.3 L2252.6,512.4 L2180.0,611.8 L2117.4,697.4 L2075.5,773.0 Z"/>
<path class="c" d="M2127.4,773.0 L2106.5,847.9 L2101.8,923.2 L2102.9,1001.5 L2100.4,1082.6 L2089.7,1165.7 L2070.7,1250.4 L2045.6,1338.0 L2016.1,1430.2 L1980.1,1527.5 L1932.5,1626.8 L1866.6,1720.8 L1778.1,1799.8 L1667.3,1854.3 L1540.3,1879.2 L1406.6,1876.5 L1275.5,1854.9 L1152.4,1827.8 L1037.0,1807.4 L924.6,1800.6 L809.4,1805.4 L689.0,1812.1 L566.9,1806.3 L452.7,1775.4 L358.6,1713.0 L293.7,1622.3 L258.9,1514.8 L245.3,1406.4 L235.6,1311.0 L209.8,1236.4 L152.3,1181.6 L57.9,1138.3 L-66.1,1094.2 L-201.9,1038.6 L-327.3,965.4 L-422.7,875.2 L-476.6,773.0 L-487.6,666.3 L-462.6,561.5 L-412.4,462.3 L-346.5,370.2 L-270.3,285.3 L-184.5,208.8 L-87.4,143.1 L21.3,91.2 L138.8,54.5 L258.7,30.9 L373.0,14.4 L476.1,-4.3 L566.8,-33.7 L649.7,-78.3 L732.6,-135.8 L823.3,-196.6 L925.4,-247.5 L1037.0,-275.8 L1151.6,-274.7 L1261.6,-246.1 L1362.9,-200.1 L1457.5,-151.2 L1553.2,-112.6 L1660.6,-91.1 L1787.2,-84.2 L1932.7,-81.0 L2086.6,-66.7 L2230.4,-28.1 L2342.8,41.5 L2407.4,140.0 L2417.9,257.9 L2380.9,381.7 L2313.4,499.4 L2237.1,603.7 L2171.4,693.6 L2127.4,773.0 Z"/>
<path class="c" d="M2179.3,773.0 L2157.4,851.4 L2152.5,930.4 L2153.6,1012.4 L2151.1,1097.4 L2139.8,1184.4 L2119.9,1273.2 L2093.7,1364.9 L2062.7,1461.5 L2025.0,1563.4 L1975.1,1667.4 L1906.1,1766.0 L1813.3,1848.7 L1697.3,1905.8 L1564.3,1931.9 L1424.2,1929.0 L1286.8,1906.5 L1157.8,1878.0 L1037.0,1856.7 L919.3,1849.5 L798.6,1854.6 L672.4,1861.6 L544.5,1855.5 L424.9,1823.1 L326.3,1757.7 L258.3,1662.7 L221.8,1550.2 L207.6,1436.5 L197.4,1336.6 L170.4,1258.5 L110.1,1201.1 L11.2,1155.7 L-118.6,1109.5 L-260.9,1051.2 L-392.3,974.6 L-492.2,880.0 L-548.7,773.0 L-560.2,661.2 L-534.0,551.4 L-481.4,447.5 L-412.4,351.0 L-332.6,262.1 L-242.6,182.0 L-141.0,113.1 L-27.1,58.7 L96.0,20.2 L221.6,-4.4 L341.4,-21.7 L449.3,-41.3 L544.4,-72.1 L631.2,-118.9 L718.1,-179.0 L813.1,-242.8 L920.1,-296.1 L1037.0,-325.7 L1157.0,-324.6 L1272.3,-294.7 L1378.5,-246.5 L1477.5,-195.2 L1577.8,-154.8 L1690.3,-132.3 L1823.0,-125.0 L1975.4,-121.6 L2136.6,-106.7 L2287.2,-66.2 L2405.0,6.7 L2472.6,109.9 L2483.6,233.3 L2444.9,363.1 L2374.2,486.4 L2294.3,595.6 L2225.4,689.8 L2179.3,773.0 Z"/>
<path class="c" d="M2231.2,773.0 L2208.3,855.0 L2203.2,937.5 L2204.4,1023.2 L2201.7,1112.1 L2190.0,1203.1 L2169.1,1295.9 L2141.7,1391.8 L2109.3,1492.8 L2069.9,1599.4 L2017.8,1708.1 L1945.6,1811.1 L1848.6,1897.6 L1727.3,1957.3 L1588.2,1984.6 L1441.8,1981.5 L1298.2,1958.0 L1163.3,1928.3 L1037.0,1905.9 L913.9,1898.4 L787.8,1903.7 L655.8,1911.0 L522.1,1904.8 L397.1,1870.8 L294.0,1802.5 L222.9,1703.2 L184.8,1585.5 L169.9,1466.7 L159.3,1362.2 L131.0,1280.5 L68.0,1220.6 L-35.4,1173.1 L-171.1,1124.8 L-319.9,1063.9 L-457.2,983.8 L-561.7,884.9 L-620.8,773.0 L-632.8,656.1 L-605.4,541.3 L-550.4,432.7 L-478.3,331.8 L-394.8,238.9 L-300.8,155.1 L-194.5,83.1 L-75.4,26.2 L53.3,-14.0 L184.5,-39.7 L309.8,-57.9 L422.6,-78.3 L522.0,-110.5 L612.8,-159.4 L703.6,-222.3 L802.9,-288.9 L914.8,-344.7 L1037.0,-375.7 L1162.5,-374.5 L1283.0,-343.2 L1394.0,-292.8 L1497.5,-239.2 L1602.4,-197.0 L1720.0,-173.4 L1858.7,-165.8 L2018.0,-162.3 L2186.6,-146.7 L2344.0,-104.4 L2467.2,-28.1 L2537.9,79.8 L2549.4,208.8 L2508.9,344.4 L2435.0,473.3 L2351.4,587.6 L2279.4,686.0 L2231.2,773.0 Z"/>
<path class="ix" d="M2283.2,773.0 L2259.3,858.5 L2253.9,944.7 L2255.1,1034.1 L2252.4,1126.9 L2240.1,1221.8 L2218.3,1318.6 L2189.7,1418.7 L2155.9,1524.1 L2114.9,1635.3 L2060.4,1748.7 L1985.1,1856.3 L1883.9,1946.5 L1757.3,2008.8 L1612.2,2037.3 L1459.4,2034.1 L1309.5,2009.5 L1168.8,1978.5 L1037.0,1955.2 L908.6,1947.4 L776.9,1952.9 L639.3,1960.5 L499.7,1954.0 L369.3,1918.6 L261.7,1847.3 L187.5,1743.6 L147.7,1620.8 L132.2,1496.8 L121.1,1387.8 L91.6,1302.6 L25.9,1240.0 L-82.0,1190.4 L-223.7,1140.1 L-378.9,1076.5 L-522.2,992.9 L-631.3,889.8 L-692.8,773.0 L-705.4,651.0 L-676.8,531.2 L-619.4,417.9 L-544.2,312.6 L-457.1,215.6 L-359.0,128.2 L-248.1,53.1 L-123.8,-6.2 L10.5,-48.2 L147.5,-75.1 L278.2,-94.0 L395.9,-115.3 L499.6,-148.9 L594.3,-200.0 L689.1,-265.6 L792.8,-335.1 L909.5,-393.2 L1037.0,-425.6 L1167.9,-424.4 L1293.7,-391.7 L1409.5,-339.2 L1517.6,-283.3 L1627.0,-239.2 L1749.7,-214.6 L1894.4,-206.6 L2060.7,-203.0 L2236.6,-186.6 L2400.9,-142.5 L2529.4,-63.0 L2603.2,49.6 L2615.2,184.3 L2572.9,325.8 L2495.7,460.3 L2408.6,579.5 L2333.4,682.3 L2283.2,773.0 Z"/>
<path class="c" d="M2335.1,773.0 L2310.2,862.1 L2304.6,951.8 L2305.9,1045.0 L2303.0,1141.6 L2290.2,1240.5 L2267.6,1341.4 L2237.8,1445.6 L2202.6,1555.4 L2159.8,1671.2 L2103.1,1789.4 L2024.6,1901.4 L1919.2,1995.4 L1787.3,2060.3 L1636.2,2089.9 L1477.0,2086.6 L1320.9,2061.0 L1174.3,2028.7 L1037.0,2004.5 L903.2,1996.3 L766.1,2002.1 L622.7,2010.0 L477.3,2003.2 L341.4,1966.3 L229.4,1892.0 L152.1,1784.1 L110.7,1656.2 L94.5,1527.0 L82.9,1413.4 L52.2,1324.7 L-16.3,1259.5 L-128.6,1207.8 L-276.2,1155.4 L-437.8,1089.1 L-587.2,1002.1 L-700.8,894.6 L-764.9,773.0 L-778.0,646.0 L-748.3,521.2 L-688.5,403.1 L-610.1,293.4 L-519.3,192.4 L-417.1,101.4 L-301.6,23.2 L-172.2,-38.7 L-32.3,-82.4 L110.4,-110.4 L246.5,-130.1 L369.2,-152.3 L477.2,-187.4 L575.9,-240.5 L674.6,-308.9 L782.6,-381.3 L904.1,-441.8 L1037.0,-475.5 L1173.4,-474.3 L1304.4,-440.3 L1425.0,-385.5 L1537.6,-327.3 L1651.6,-281.3 L1779.4,-255.7 L1930.1,-247.4 L2103.3,-243.6 L2286.5,-226.6 L2457.7,-180.7 L2591.6,-97.8 L2668.4,19.5 L2680.9,159.7 L2636.9,307.2 L2556.5,447.3 L2465.7,571.5 L2387.4,678.5 L2335.1,773.0 Z"/>
<path class="c" d="M2387.0,773.0 L2361.1,865.7 L2355.4,959.0 L2356.7,1055.9 L2353.6,1156.4 L2340.4,1259.2 L2316.8,1364.1 L2285.8,1472.5 L2249.2,1586.7 L2204.7,1707.1 L2145.7,1830.0 L2064.1,1946.5 L1954.5,2044.3 L1817.4,2111.8 L1660.1,2142.6 L1494.6,2139.2 L1332.2,2112.6 L1179.8,2078.9 L1037.0,2053.7 L897.9,2045.2 L755.3,2051.2 L606.1,2059.5 L454.9,2052.4 L313.6,2014.0 L197.1,1936.8 L116.7,1824.5 L73.6,1691.5 L56.8,1557.2 L44.8,1439.1 L12.8,1346.7 L-58.4,1278.9 L-175.3,1225.2 L-328.7,1170.7 L-496.8,1101.8 L-652.1,1011.3 L-770.3,899.5 L-837.0,773.0 L-850.6,640.9 L-819.7,511.1 L-757.5,388.3 L-675.9,274.2 L-581.6,169.2 L-475.3,74.5 L-355.2,-6.8 L-220.5,-71.2 L-75.0,-116.6 L73.4,-145.7 L214.9,-166.2 L342.5,-189.3 L454.8,-225.8 L557.5,-281.0 L660.2,-352.1 L772.4,-427.5 L898.8,-490.4 L1037.0,-525.5 L1178.9,-524.2 L1315.1,-488.8 L1440.5,-431.8 L1557.6,-371.3 L1676.1,-323.5 L1809.1,-296.9 L1965.9,-288.3 L2146.0,-284.3 L2336.5,-266.6 L2514.5,-218.8 L2653.7,-132.6 L2733.7,-10.7 L2746.7,135.2 L2700.8,288.5 L2617.3,434.2 L2522.9,563.4 L2441.5,674.7 L2387.0,773.0 Z"/>
<path class="c" d="M2438.9,773.0 L2412.1,869.2 L2406.1,966.1 L2407.4,1066.8 L2404.3,1171.1 L2390.5,1277.9 L2366.0,1386.8 L2333.8,1499.4 L2295.8,1618.0 L2249.6,1743.1 L2188.3,1870.7 L2103.6,1991.7 L1989.8,2093.2 L1847.4,2163.3 L1684.1,2195.3 L1512.2,2191.7 L1343.6,2164.1 L1185.3,2129.2 L1037.0,2103.0 L892.5,2094.2 L744.4,2100.4 L589.5,2109.0 L432.5,2101.6 L285.8,2061.8 L164.8,1981.5 L81.3,1864.9 L36.6,1726.8 L19.1,1587.3 L6.6,1464.7 L-26.6,1368.8 L-100.5,1298.4 L-221.9,1242.6 L-381.2,1186.0 L-555.8,1114.4 L-717.1,1020.4 L-839.8,904.4 L-909.1,773.0 L-923.2,635.8 L-891.1,501.0 L-826.5,373.5 L-741.8,255.1 L-643.8,146.0 L-533.5,47.6 L-408.7,-36.8 L-268.9,-103.6 L-117.8,-150.8 L36.3,-181.1 L183.3,-202.4 L315.8,-226.4 L432.4,-264.2 L539.0,-321.6 L645.7,-395.4 L762.2,-473.6 L893.5,-539.0 L1037.0,-575.4 L1184.3,-574.1 L1325.8,-537.3 L1456.1,-478.2 L1577.6,-415.3 L1700.7,-365.7 L1838.8,-338.0 L2001.6,-329.1 L2188.6,-325.0 L2386.5,-306.6 L2571.3,-257.0 L2715.9,-167.5 L2798.9,-40.8 L2812.4,110.7 L2764.8,269.9 L2678.1,421.2 L2580.0,555.3 L2495.5,670.9 L2438.9,773.0 Z"/>
<path class="ix" d="M2490.9,773.0 L2463.0,872.8 L2456.8,973.3 L2458.2,1077.6 L2454.9,1185.9 L2440.6,1296.6 L2415.2,1409.6 L2381.8,1526.3 L2342.4,1649.3 L2294.5,1779.0 L2231.0,1911.4 L2143.1,2036.8 L2025.1,2142.1 L1877.4,2214.8 L1708.1,2248.0 L1529.8,2244.3 L1355.0,2215.6 L1190.8,2179.4 L1037.0,2152.2 L887.2,2143.1 L733.6,2149.6 L573.0,2158.4 L410.2,2150.8 L258.0,2109.5 L132.5,2026.3 L45.9,1905.4 L-0.5,1762.1 L-18.6,1617.5 L-31.5,1490.3 L-66.0,1390.9 L-142.7,1317.9 L-268.5,1260.0 L-433.8,1201.3 L-614.8,1127.1 L-782.1,1029.6 L-909.3,909.2 L-981.1,773.0 L-995.8,630.7 L-962.5,490.9 L-895.5,358.7 L-807.7,235.9 L-706.1,122.8 L-591.6,20.8 L-462.3,-66.8 L-317.3,-136.1 L-160.6,-185.1 L-0.8,-216.4 L151.7,-238.5 L289.1,-263.4 L410.0,-302.6 L520.6,-362.1 L631.2,-438.7 L752.1,-519.8 L888.2,-587.6 L1037.0,-625.4 L1189.8,-623.9 L1336.5,-585.8 L1471.6,-524.5 L1597.7,-459.3 L1725.3,-407.9 L1868.5,-379.2 L2037.3,-369.9 L2231.3,-365.6 L2436.5,-346.6 L2628.2,-295.1 L2778.1,-202.3 L2864.2,-70.9 L2878.2,86.2 L2828.8,251.3 L2738.9,408.2 L2637.2,547.3 L2549.5,667.1 L2490.9,773.0 Z"/>
<path class="c" d="M2542.8,773.0 L2513.9,876.4 L2507.5,980.4 L2508.9,1088.5 L2505.6,1200.6 L2490.8,1315.3 L2464.4,1432.3 L2429.9,1553.2 L2389.0,1680.6 L2339.4,1814.9 L2273.6,1952.0 L2182.7,2081.9 L2060.4,2191.0 L1907.4,2266.2 L1732.0,2300.6 L1547.4,2296.8 L1366.3,2267.1 L1196.3,2229.6 L1037.0,2201.5 L881.8,2192.0 L722.8,2198.7 L556.4,2207.9 L387.8,2200.0 L230.2,2157.2 L100.2,2071.1 L10.5,1945.8 L-37.5,1797.5 L-56.3,1647.6 L-69.7,1515.9 L-105.4,1412.9 L-184.8,1337.3 L-315.1,1277.4 L-486.3,1216.6 L-673.8,1139.7 L-847.0,1038.8 L-978.8,914.1 L-1053.2,773.0 L-1068.4,625.6 L-1033.9,480.9 L-964.5,344.0 L-873.6,216.7 L-768.3,99.5 L-649.8,-6.1 L-515.8,-96.8 L-365.6,-168.6 L-203.3,-219.3 L-37.8,-251.7 L120.1,-274.6 L262.4,-300.4 L387.7,-341.0 L502.1,-402.7 L616.7,-482.0 L741.9,-566.0 L882.9,-636.2 L1037.0,-675.3 L1195.2,-673.8 L1347.2,-634.4 L1487.1,-570.9 L1617.7,-503.3 L1749.9,-450.0 L1898.2,-420.3 L2073.1,-410.7 L2273.9,-406.3 L2486.5,-386.6 L2685.0,-333.3 L2840.3,-237.1 L2929.4,-101.1 L2943.9,61.6 L2892.8,232.6 L2799.6,395.2 L2694.3,539.2 L2603.5,663.4 L2542.8,773.0 Z"/>
<path class="c" d="M2594.7,773.0 L2564.8,879.9 L2558.2,987.6 L2559.7,1099.4 L2556.2,1215.4 L2540.9,1334.0 L2513.7,1455.0 L2477.9,1580.1 L2435.7,1711.9 L2384.3,1850.9 L2316.3,1992.7 L2222.2,2127.1 L2095.6,2239.9 L1937.4,2317.7 L1756.0,2353.3 L1565.0,2349.4 L1377.7,2318.6 L1201.8,2279.9 L1037.0,2250.8 L876.5,2240.9 L711.9,2247.9 L539.8,2257.4 L365.4,2249.2 L202.3,2205.0 L67.9,2115.8 L-24.9,1986.3 L-74.6,1832.8 L-94.0,1677.8 L-107.9,1541.5 L-144.8,1435.0 L-226.9,1356.8 L-361.8,1294.8 L-538.8,1231.8 L-732.8,1152.4 L-912.0,1047.9 L-1048.3,919.0 L-1125.3,773.0 L-1141.0,620.6 L-1105.3,470.8 L-1033.6,329.2 L-939.5,197.5 L-830.6,76.3 L-707.9,-33.0 L-569.3,-126.8 L-414.0,-201.0 L-246.1,-253.5 L-74.9,-287.1 L88.5,-310.7 L235.6,-337.4 L365.3,-379.4 L483.7,-443.2 L602.2,-525.2 L731.7,-612.1 L877.6,-684.8 L1037.0,-725.2 L1200.7,-723.7 L1357.9,-682.9 L1502.6,-617.2 L1637.7,-547.3 L1774.5,-492.2 L1927.9,-461.5 L2108.8,-451.5 L2316.6,-447.0 L2536.4,-426.6 L2741.8,-371.4 L2902.5,-272.0 L2994.7,-131.2 L3009.7,37.1 L2956.8,214.0 L2860.4,382.1 L2751.5,531.2 L2657.5,659.6 L2594.7,773.0 Z"/>
<text class="ct" x="888" y="914" text-anchor="middle">12,800</text>
<text class="ct" x="547" y="582" text-anchor="middle">11,200</text>
<text class="ct" x="1186" y="202" text-anchor="middle">9,600</text>
<circle class="dot" cx="1037" cy="749" r="2.4"/>
<text class="pk" x="1037" y="769" text-anchor="middle">LONGS PEAK</text>
<text class="el" x="1037" y="790" text-anchor="middle">14,259&#8242;</text>
</svg>