<svg xmlns="http://www.w3.org/2000/svg" width="2000" height="1400" viewBox="0 0 2000 1400">
<style>
  .c  { fill:none; stroke:#2A1B11; stroke-opacity:0.07; stroke-width:1.1; }
  .ix { fill:none; stroke:#2A1B11; stroke-opacity:0.12; stroke-width:1.6; }
  .ct { font:500 10px 'IBM Plex Mono',ui-monospace,monospace; fill:#2A1B11; fill-opacity:0.32;
        stroke:#F4ECDB; stroke-width:3; paint-order:stroke; }
  .pk { font:600 11.5px 'Inter Tight','Helvetica Neue',sans-serif; letter-spacing:0.15em; fill:#2A1B11; fill-opacity:0.2; }
  .el { font:500 10.5px 'IBM Plex Mono',ui-monospace,monospace; fill:#9C6A33; fill-opacity:0.34; }
  .dot { fill:#2A1B11; fill-opacity:0.24; }
</style>
<path class="c" d="M1088.9,773.0 L1087.9,776.6 L1087.7,780.2 L1087.8,783.9 L1087.6,787.7 L1087.1,791.7 L1086.2,795.7 L1085.0,799.9 L1083.6,804.3 L1081.9,808.9 L1079.6,813.7 L1076.5,818.1 L1072.3,821.9 L1067.0,824.5 L1061.0,825.7 L1054.6,825.5 L1048.4,824.5 L1042.5,823.2 L1037.0,822.3 L1031.6,821.9 L1026.2,822.2 L1020.4,822.5 L1014.6,822.2 L1009.2,820.7 L1004.7,817.8 L1001.6,813.4 L999.9,808.3 L999.3,803.2 L998.8,798.6 L997.6,795.1 L994.9,792.5 L990.4,790.4 L984.5,788.3 L978.0,785.6 L972.0,782.2 L967.5,777.9 L964.9,773.0 L964.4,767.9 L965.6,762.9 L968.0,758.2 L971.1,753.8 L974.7,749.8 L978.8,746.1 L983.5,743.0 L988.6,740.5 L994.2,738.8 L999.9,737.7 L1005.4,736.9 L1010.3,736.0 L1014.6,734.6 L1018.6,732.5 L1022.5,729.7 L1026.8,726.8 L1031.7,724.4 L1037.0,723.1 L1042.5,723.1 L1047.7,724.5 L1052.5,726.7 L1057.0,729.0 L1061.6,730.8 L1066.7,731.9 L1072.7,732.2 L1079.7,732.3 L1087.0,733.0 L1093.8,734.9 L1099.2,738.2 L1102.3,742.9 L1102.8,748.5 L1101.0,754.4 L1097.8,760.0 L1094.1,764.9 L1091.0,769.2 L1088.9,773.0 Z"/>
<path class="c" d="M1140.8,773.0 L1138.9,780.1 L1138.4,787.3 L1138.5,794.8 L1138.3,802.5 L1137.3,810.4 L1135.4,818.5 L1133.1,826.8 L1130.2,835.6 L1126.8,844.9 L1122.3,854.3 L1116.0,863.3 L1107.6,870.8 L1097.0,876.0 L1084.9,878.4 L1072.2,878.1 L1059.7,876.0 L1048.0,873.5 L1037.0,871.5 L1026.3,870.9 L1015.3,871.3 L1003.9,872.0 L992.2,871.4 L981.4,868.5 L972.4,862.5 L966.2,853.9 L962.9,843.7 L961.6,833.3 L960.7,824.2 L958.2,817.1 L952.7,811.9 L943.7,807.8 L931.9,803.6 L919.0,798.3 L907.1,791.3 L898.0,782.7 L892.8,773.0 L891.8,762.8 L894.2,752.9 L899.0,743.4 L905.2,734.6 L912.5,726.6 L920.7,719.3 L929.9,713.0 L940.3,708.1 L951.5,704.6 L962.9,702.3 L973.8,700.8 L983.6,699.0 L992.2,696.2 L1000.1,691.9 L1008.0,686.5 L1016.6,680.7 L1026.4,675.8 L1037.0,673.1 L1047.9,673.2 L1058.4,675.9 L1068.0,680.3 L1077.0,685.0 L1086.2,688.7 L1096.4,690.7 L1108.5,691.4 L1122.3,691.7 L1137.0,693.0 L1150.7,696.7 L1161.4,703.3 L1167.5,712.7 L1168.5,723.9 L1165.0,735.7 L1158.6,746.9 L1151.3,756.9 L1145.0,765.4 L1140.8,773.0 Z"/>
<path class="c" d="M1192.8,773.0 L1189.8,783.7 L1189.1,794.5 L1189.3,805.6 L1188.9,817.2 L1187.4,829.1 L1184.7,841.2 L1181.1,853.7 L1176.9,866.9 L1171.7,880.8 L1164.9,895.0 L1155.5,908.4 L1142.9,919.7 L1127.0,927.5 L1108.9,931.0 L1089.8,930.6 L1071.1,927.6 L1053.5,923.7 L1037.0,920.8 L1020.9,919.8 L1004.5,920.5 L987.3,921.4 L969.8,920.6 L953.5,916.2 L940.1,907.3 L930.8,894.3 L925.8,879.0 L923.9,863.5 L922.5,849.9 L918.8,839.2 L910.6,831.4 L897.1,825.2 L879.4,818.9 L860.0,810.9 L842.1,800.5 L828.5,787.6 L820.8,773.0 L819.2,757.8 L822.8,742.8 L829.9,728.6 L839.4,715.5 L850.2,703.3 L862.5,692.4 L876.4,683.0 L891.9,675.6 L908.7,670.4 L925.8,667.0 L942.1,664.6 L956.9,662.0 L969.8,657.8 L981.7,651.4 L993.5,643.2 L1006.5,634.5 L1021.1,627.2 L1037.0,623.2 L1053.4,623.3 L1069.1,627.4 L1083.6,634.0 L1097.1,641.0 L1110.7,646.5 L1126.1,649.6 L1144.2,650.5 L1165.0,651.0 L1186.9,653.0 L1207.5,658.6 L1223.5,668.5 L1232.8,682.6 L1234.3,699.4 L1229.0,717.1 L1219.3,733.9 L1208.4,748.8 L1199.1,761.7 L1192.8,773.0 Z"/>
<path class="ix" d="M1244.7,773.0 L1240.7,787.3 L1239.8,801.6 L1240.0,816.5 L1239.6,832.0 L1237.5,847.8 L1233.9,863.9 L1229.1,880.6 L1223.5,898.2 L1216.6,916.7 L1207.6,935.6 L1195.0,953.5 L1178.2,968.6 L1157.1,979.0 L1132.9,983.7 L1107.4,983.2 L1082.4,979.1 L1059.0,973.9 L1037.0,970.0 L1015.6,968.7 L993.7,969.7 L970.7,970.9 L947.5,969.8 L925.7,963.9 L907.8,952.0 L895.4,934.8 L888.8,914.3 L886.2,893.6 L884.4,875.5 L879.4,861.3 L868.5,850.8 L850.5,842.6 L826.9,834.2 L801.0,823.6 L777.1,809.7 L759.0,792.5 L748.7,773.0 L746.6,752.7 L751.4,732.7 L760.9,713.8 L773.5,696.3 L788.0,680.1 L804.3,665.5 L822.8,653.0 L843.5,643.1 L865.9,636.1 L888.7,631.7 L910.5,628.5 L930.2,624.9 L947.4,619.3 L963.2,610.8 L979.0,599.9 L996.3,588.3 L1015.7,578.6 L1037.0,573.2 L1058.8,573.4 L1079.8,578.9 L1099.1,587.6 L1117.1,597.0 L1135.3,604.3 L1155.8,608.4 L1179.9,609.7 L1207.6,610.3 L1236.9,613.1 L1264.3,620.4 L1285.7,633.7 L1298.0,652.4 L1300.0,674.9 L1293.0,698.5 L1280.1,720.9 L1265.6,740.8 L1253.1,757.9 L1244.7,773.0 Z"/>
<path class="c" d="M1296.6,773.0 L1291.6,790.8 L1290.5,808.8 L1290.8,827.4 L1290.2,846.7 L1287.6,866.5 L1283.1,886.7 L1277.2,907.5 L1270.1,929.5 L1261.6,952.6 L1250.2,976.3 L1234.5,998.7 L1213.4,1017.5 L1187.1,1030.5 L1156.8,1036.4 L1125.0,1035.7 L1093.8,1030.6 L1064.5,1024.1 L1037.0,1019.3 L1010.2,1017.7 L982.8,1018.8 L954.1,1020.4 L925.1,1019.0 L897.9,1011.7 L875.5,996.8 L860.0,975.2 L851.7,949.6 L848.5,923.8 L846.2,901.1 L840.0,883.3 L826.3,870.3 L803.9,860.0 L774.4,849.5 L742.0,836.2 L712.2,818.8 L689.4,797.3 L676.6,773.0 L674.0,747.6 L679.9,722.6 L691.9,699.0 L707.6,677.1 L725.7,656.9 L746.2,638.7 L769.3,623.0 L795.2,610.7 L823.1,601.9 L851.7,596.3 L878.9,592.4 L903.4,587.9 L925.0,580.9 L944.8,570.3 L964.5,556.6 L986.1,542.1 L1010.4,530.0 L1037.0,523.3 L1064.3,523.5 L1090.5,530.3 L1114.6,541.3 L1137.1,552.9 L1159.9,562.1 L1185.5,567.3 L1215.6,568.9 L1250.3,569.7 L1286.9,573.1 L1321.1,582.3 L1347.9,598.8 L1363.3,622.3 L1365.8,650.3 L1357.0,679.8 L1340.9,707.9 L1322.7,732.7 L1307.1,754.1 L1296.6,773.0 Z"/>
<path class="c" d="M1348.5,773.0 L1342.6,794.4 L1341.2,815.9 L1341.5,838.3 L1340.8,861.5 L1337.8,885.2 L1332.3,909.4 L1325.2,934.4 L1316.7,960.8 L1306.5,988.6 L1292.9,1016.9 L1274.0,1043.8 L1248.7,1066.4 L1217.1,1081.9 L1180.8,1089.1 L1142.6,1088.3 L1105.1,1082.1 L1070.0,1074.4 L1037.0,1068.6 L1004.9,1066.6 L972.0,1068.0 L937.6,1069.9 L902.7,1068.2 L870.1,1059.4 L843.2,1041.6 L824.6,1015.7 L814.7,985.0 L810.8,954.0 L808.0,926.7 L800.6,905.4 L784.2,889.8 L757.2,877.4 L721.8,864.8 L683.0,848.9 L647.2,828.0 L619.9,802.2 L604.5,773.0 L601.4,742.5 L608.5,712.6 L622.9,684.2 L641.7,657.9 L663.5,633.7 L688.0,611.8 L715.7,593.0 L746.8,578.2 L780.4,567.7 L814.6,561.0 L847.3,556.3 L876.7,550.9 L902.7,542.5 L926.3,529.8 L950.0,513.4 L975.9,496.0 L1005.1,481.4 L1037.0,473.4 L1069.7,473.7 L1101.2,481.8 L1130.1,495.0 L1157.1,508.9 L1184.5,520.0 L1215.2,526.1 L1251.4,528.1 L1292.9,529.0 L1336.9,533.1 L1378.0,544.1 L1410.1,564.0 L1428.5,592.2 L1431.5,625.8 L1421.0,661.2 L1401.7,694.8 L1379.9,724.6 L1361.1,750.3 L1348.5,773.0 Z"/>
<path class="c" d="M1400.5,773.0 L1393.5,798.0 L1391.9,823.1 L1392.3,849.2 L1391.5,876.2 L1387.9,903.9 L1381.6,932.1 L1373.2,961.3 L1363.4,992.1 L1351.4,1024.5 L1335.5,1057.6 L1313.5,1088.9 L1284.0,1115.3 L1247.1,1133.4 L1204.8,1141.7 L1160.2,1140.8 L1116.5,1133.6 L1075.5,1124.6 L1037.0,1117.8 L999.5,1115.5 L961.1,1117.1 L921.0,1119.4 L880.3,1117.4 L842.2,1107.1 L810.9,1086.3 L789.2,1056.1 L777.6,1020.3 L773.1,984.1 L769.9,952.3 L761.3,927.5 L742.1,909.2 L710.6,894.8 L669.3,880.1 L624.0,861.5 L582.2,837.1 L550.4,807.1 L532.5,773.0 L528.8,737.4 L537.1,702.5 L553.9,669.4 L575.8,638.7 L601.2,610.4 L629.8,584.9 L662.2,563.0 L698.4,545.7 L737.6,533.5 L777.6,525.6 L815.7,520.1 L850.0,513.9 L880.3,504.1 L907.9,489.2 L935.5,470.1 L965.8,449.8 L999.8,432.8 L1037.0,423.4 L1075.2,423.8 L1111.9,433.3 L1145.6,448.6 L1177.2,464.9 L1209.1,477.8 L1244.9,485.0 L1287.1,487.3 L1335.6,488.3 L1386.9,493.1 L1434.8,506.0 L1472.3,529.2 L1493.8,562.0 L1497.3,601.3 L1485.0,642.6 L1462.5,681.8 L1437.0,716.6 L1415.1,746.5 L1400.5,773.0 Z"/>
<path class="ix" d="M1452.4,773.0 L1444.4,801.5 L1442.6,830.2 L1443.0,860.0 L1442.1,891.0 L1438.0,922.6 L1430.8,954.9 L1421.2,988.2 L1410.0,1023.4 L1396.3,1060.4 L1378.1,1098.2 L1353.0,1134.1 L1319.3,1164.2 L1277.1,1184.9 L1228.7,1194.4 L1177.8,1193.4 L1127.8,1185.2 L1080.9,1174.8 L1037.0,1167.1 L994.2,1164.5 L950.3,1166.3 L904.4,1168.8 L857.9,1166.7 L814.4,1154.9 L778.6,1131.1 L753.8,1096.5 L740.6,1055.6 L735.4,1014.3 L731.7,977.9 L721.9,949.5 L700.0,928.7 L664.0,912.1 L616.8,895.4 L565.0,874.2 L517.3,846.3 L480.9,811.9 L460.4,773.0 L456.2,732.3 L465.7,692.4 L484.9,654.6 L509.9,619.5 L539.0,587.2 L571.7,558.1 L608.6,533.0 L650.1,513.3 L694.8,499.3 L740.5,490.3 L784.1,484.0 L823.3,476.9 L857.9,465.7 L889.4,448.7 L921.0,426.8 L955.6,403.6 L994.5,384.3 L1037.0,373.5 L1080.6,373.9 L1122.6,384.8 L1161.2,402.3 L1197.2,420.9 L1233.7,435.6 L1274.6,443.8 L1322.8,446.5 L1378.2,447.7 L1436.9,453.1 L1491.6,467.8 L1534.5,494.3 L1559.1,531.9 L1563.1,576.8 L1549.0,623.9 L1523.2,668.8 L1494.2,708.5 L1469.1,742.8 L1452.4,773.0 Z"/>
<path class="c" d="M1504.3,773.0 L1495.4,805.1 L1493.4,837.4 L1493.8,870.9 L1492.8,905.7 L1488.2,941.3 L1480.0,977.6 L1469.3,1015.1 L1456.6,1054.7 L1441.2,1096.4 L1420.8,1138.9 L1392.5,1179.2 L1354.6,1213.1 L1307.1,1236.4 L1252.7,1247.1 L1195.4,1245.9 L1139.2,1236.7 L1086.4,1225.1 L1037.0,1216.3 L988.8,1213.4 L939.5,1215.5 L887.8,1218.3 L835.5,1215.9 L786.6,1202.6 L746.3,1175.8 L718.4,1137.0 L703.5,1090.9 L697.7,1044.4 L693.5,1003.6 L682.5,971.6 L657.8,948.1 L617.4,929.5 L564.3,910.7 L506.1,886.8 L452.3,855.5 L411.4,816.8 L388.3,773.0 L383.6,727.3 L394.3,682.3 L415.8,639.8 L444.1,600.4 L476.7,564.0 L513.5,531.2 L555.1,503.1 L601.7,480.8 L652.1,465.1 L703.4,455.0 L752.4,447.9 L796.6,439.9 L835.5,427.3 L871.0,408.1 L906.6,383.5 L945.4,357.5 L989.2,335.7 L1037.0,323.5 L1086.1,324.0 L1133.3,336.2 L1176.7,355.9 L1217.2,376.9 L1258.2,393.4 L1304.3,402.7 L1358.5,405.6 L1420.9,407.0 L1486.8,413.1 L1548.4,429.7 L1596.6,459.5 L1624.3,501.7 L1628.8,552.2 L1612.9,605.3 L1584.0,655.7 L1551.3,700.4 L1523.2,739.0 L1504.3,773.0 Z"/>
<path class="c" d="M1556.2,773.0 L1546.3,808.6 L1544.1,844.5 L1544.6,881.8 L1543.4,920.5 L1538.3,960.0 L1529.2,1000.3 L1517.3,1042.0 L1503.2,1086.0 L1486.1,1132.3 L1463.4,1179.6 L1432.1,1224.4 L1389.9,1262.0 L1337.1,1287.9 L1276.7,1299.8 L1213.0,1298.5 L1150.6,1288.2 L1091.9,1275.3 L1037.0,1265.6 L983.5,1262.3 L928.6,1264.6 L871.3,1267.8 L813.1,1265.1 L758.8,1250.3 L714.0,1220.6 L683.0,1177.4 L666.5,1126.3 L660.0,1074.6 L655.4,1029.2 L643.1,993.7 L615.7,967.6 L570.7,946.9 L511.7,925.9 L447.1,899.5 L387.3,864.6 L341.9,821.7 L316.2,773.0 L311.0,722.2 L322.9,672.3 L346.8,625.1 L378.2,581.2 L414.5,540.8 L455.4,504.3 L501.6,473.1 L553.3,448.3 L609.3,430.8 L666.4,419.6 L720.8,411.8 L769.9,402.9 L813.1,388.9 L852.6,367.6 L892.1,340.3 L935.2,311.3 L983.9,287.1 L1037.0,273.6 L1091.6,274.1 L1144.0,287.7 L1192.2,309.6 L1237.2,332.9 L1282.8,351.3 L1334.0,361.5 L1394.3,364.8 L1463.5,366.3 L1536.8,373.1 L1605.3,391.5 L1658.8,424.7 L1689.6,471.6 L1694.6,527.7 L1676.9,586.7 L1644.8,642.7 L1608.5,692.4 L1577.2,735.2 L1556.2,773.0 Z"/>
<path class="c" d="M1608.2,773.0 L1597.2,812.2 L1594.8,851.7 L1595.3,892.7 L1594.0,935.2 L1588.4,978.7 L1578.4,1023.1 L1565.3,1069.0 L1549.8,1117.3 L1531.0,1168.2 L1506.1,1220.2 L1471.6,1269.5 L1425.2,1310.9 L1367.1,1339.4 L1300.6,1352.5 L1230.6,1351.0 L1161.9,1339.7 L1097.4,1325.5 L1037.0,1314.8 L978.1,1311.2 L917.8,1313.8 L854.7,1317.3 L790.7,1314.3 L731.0,1298.1 L681.7,1265.4 L647.6,1217.9 L629.4,1161.6 L622.3,1104.8 L617.2,1054.8 L603.7,1015.7 L573.6,987.1 L524.1,964.3 L459.2,941.2 L388.1,912.1 L322.4,873.8 L272.4,826.5 L244.2,773.0 L238.4,717.1 L251.5,662.2 L277.8,610.3 L312.3,562.0 L352.2,517.5 L397.2,477.5 L448.0,443.1 L505.0,415.9 L566.5,396.6 L629.3,384.3 L689.2,375.6 L743.2,365.9 L790.7,350.4 L834.1,327.1 L877.6,297.0 L925.1,265.1 L978.5,238.5 L1037.0,223.6 L1097.0,224.2 L1154.7,239.2 L1207.7,263.3 L1257.3,288.9 L1307.4,309.1 L1363.7,320.4 L1430.0,324.0 L1506.2,325.7 L1586.8,333.2 L1662.1,353.4 L1721.0,389.8 L1754.8,441.5 L1760.3,503.2 L1740.9,568.0 L1705.6,629.7 L1665.6,684.3 L1631.2,731.4 L1608.2,773.0 Z"/>
<path class="ix" d="M1660.1,773.0 L1648.1,815.8 L1645.5,858.8 L1646.1,903.6 L1644.7,949.9 L1638.6,997.4 L1627.7,1045.8 L1613.4,1095.9 L1596.5,1148.6 L1575.9,1204.1 L1548.7,1260.9 L1511.1,1314.6 L1460.5,1359.8 L1397.2,1390.9 L1324.6,1405.1 L1248.2,1403.5 L1173.3,1391.3 L1102.9,1375.7 L1037.0,1364.1 L972.8,1360.2 L907.0,1363.0 L838.1,1366.8 L768.4,1363.5 L703.1,1345.8 L649.4,1310.1 L612.2,1258.3 L592.4,1196.9 L584.6,1134.9 L579.1,1080.4 L564.3,1037.8 L531.4,1006.5 L477.5,981.7 L406.7,956.5 L329.1,924.8 L257.4,883.0 L202.9,831.4 L172.1,773.0 L165.8,712.0 L180.1,652.1 L208.8,595.5 L246.4,542.8 L290.0,494.3 L339.0,450.6 L394.5,413.1 L456.6,383.4 L523.8,362.4 L592.2,349.0 L657.6,339.5 L716.5,328.8 L768.3,312.0 L815.7,286.5 L863.1,253.7 L914.9,218.9 L973.2,189.9 L1037.0,173.7 L1102.5,174.3 L1165.4,190.6 L1223.3,216.9 L1277.3,244.9 L1332.0,266.9 L1393.4,279.2 L1465.7,283.2 L1548.8,285.0 L1636.8,293.2 L1718.9,315.2 L1783.2,355.0 L1820.1,411.3 L1826.1,478.6 L1804.9,549.4 L1766.4,616.7 L1722.8,676.3 L1685.2,727.6 L1660.1,773.0 Z"/>
<path class="c" d="M1712.0,773.0 L1699.1,819.3 L1696.2,866.0 L1696.8,914.4 L1695.3,964.7 L1688.7,1016.1 L1676.9,1068.6 L1661.4,1122.8 L1643.1,1179.9 L1620.8,1240.1 L1591.4,1301.5 L1550.6,1359.8 L1495.7,1408.7 L1427.2,1442.4 L1348.6,1457.8 L1265.8,1456.1 L1184.6,1442.8 L1108.4,1426.0 L1037.0,1413.4 L967.4,1409.1 L896.1,1412.1 L821.6,1416.2 L746.0,1412.7 L675.3,1393.5 L617.1,1354.9 L576.8,1298.8 L555.3,1232.2 L546.9,1165.1 L540.9,1106.0 L524.9,1059.9 L489.3,1026.0 L430.9,999.1 L354.1,971.8 L270.1,937.4 L192.4,892.1 L133.4,836.2 L100.0,773.0 L93.2,706.9 L108.7,642.0 L139.8,580.7 L180.5,523.6 L227.7,471.1 L280.9,423.8 L340.9,383.1 L408.2,350.9 L481.0,328.2 L555.2,313.6 L626.0,303.4 L689.7,291.8 L745.9,273.6 L797.2,246.0 L848.6,210.4 L904.7,172.8 L967.9,141.3 L1037.0,123.8 L1107.9,124.4 L1176.1,142.1 L1238.8,170.6 L1297.3,200.9 L1356.6,224.7 L1423.1,238.1 L1501.4,242.4 L1591.5,244.3 L1686.8,253.2 L1775.8,277.1 L1845.4,320.2 L1885.3,381.2 L1891.8,454.1 L1868.9,530.8 L1827.2,603.6 L1779.9,668.2 L1739.2,723.9 L1712.0,773.0 Z"/>
<path class="c" d="M1763.9,773.0 L1750.0,822.9 L1746.9,873.1 L1747.6,925.3 L1746.0,979.4 L1738.8,1034.8 L1726.1,1091.3 L1709.4,1149.7 L1689.7,1211.2 L1665.7,1276.0 L1634.0,1342.2 L1590.1,1404.9 L1531.0,1457.6 L1457.2,1493.9 L1372.5,1510.5 L1283.4,1508.6 L1196.0,1494.3 L1113.9,1476.2 L1037.0,1462.6 L962.1,1458.0 L885.3,1461.3 L805.0,1465.7 L723.6,1461.9 L647.5,1441.2 L584.8,1399.6 L541.4,1339.2 L518.3,1267.6 L509.2,1195.2 L502.7,1131.6 L485.5,1081.9 L447.2,1045.4 L384.2,1016.5 L301.6,987.1 L211.1,950.0 L127.5,901.3 L63.9,841.1 L27.9,773.0 L20.6,701.9 L37.3,632.0 L70.7,565.9 L114.7,504.4 L165.5,447.9 L222.7,396.9 L287.4,353.1 L359.9,318.4 L438.2,294.0 L518.1,278.3 L594.3,267.3 L663.0,254.8 L723.5,235.2 L778.8,205.4 L834.1,167.2 L894.5,126.6 L962.6,92.7 L1037.0,73.8 L1113.4,74.5 L1186.8,93.6 L1254.3,124.2 L1317.3,156.8 L1381.2,182.6 L1452.8,196.9 L1537.2,201.6 L1634.1,203.7 L1736.7,213.2 L1832.6,238.9 L1907.6,285.3 L1950.6,351.0 L1957.6,429.6 L1932.9,512.1 L1887.9,590.6 L1837.1,660.1 L1793.2,720.1 L1763.9,773.0 Z"/>
<path class="c" d="M1815.8,773.0 L1800.9,826.5 L1797.6,880.3 L1798.3,936.2 L1796.6,994.2 L1788.9,1053.5 L1775.3,1114.0 L1757.5,1176.6 L1736.3,1242.4 L1710.7,1311.9 L1676.6,1382.8 L1629.6,1450.0 L1566.3,1506.5 L1487.2,1545.4 L1396.5,1563.2 L1301.0,1561.2 L1207.3,1545.8 L1119.4,1526.4 L1037.0,1511.9 L956.7,1507.0 L874.5,1510.4 L788.4,1515.2 L701.2,1511.1 L619.7,1489.0 L552.5,1444.4 L506.0,1379.6 L481.2,1302.9 L471.5,1225.4 L464.6,1157.3 L446.1,1104.0 L405.0,1064.9 L337.6,1033.9 L249.1,1002.4 L152.1,962.7 L62.5,910.5 L-5.7,846.0 L-44.2,773.0 L-52.0,696.8 L-34.2,621.9 L1.7,551.1 L48.8,485.3 L103.2,424.7 L164.5,370.0 L233.8,323.1 L311.5,286.0 L395.4,259.8 L481.1,243.0 L562.7,231.1 L636.3,217.8 L701.1,196.8 L760.3,164.9 L819.6,123.9 L884.4,80.4 L957.3,44.1 L1037.0,23.9 L1118.8,24.6 L1197.4,45.0 L1269.8,77.9 L1337.3,112.8 L1405.7,140.4 L1482.5,155.8 L1572.9,160.7 L1676.8,163.0 L1786.7,173.2 L1889.4,200.8 L1969.7,250.5 L2015.9,320.9 L2023.3,405.0 L1996.9,493.5 L1948.7,577.6 L1894.2,652.1 L1847.3,716.3 L1815.8,773.0 Z"/>
<text class="ct" x="1188" y="825" text-anchor="middle">13,200</text>
<text class="ct" x="1386" y="720" text-anchor="middle">12,000</text>
<text class="ct" x="1489" y="417" text-anchor="middle">10,800</text>
<text class="ct" x="1186" y="202" text-anchor="middle">9,600</text>
<text class="ct" x="741" y="180" text-anchor="middle">8,400</text>
<circle class="dot" cx="1037" cy="749" r="2.4"/>
<text class="pk" x="1037" y="769" text-anchor="middle">LONGS PEAK</text>
<text class="el" x="1037" y="790" text-anchor="middle">14,259&#8242;</text>
</svg>