<svg xmlns="http://www.w3.org/2000/svg" width="1200" height="900" viewBox="0 0 1200 900">
<style>
  .c  { fill:none; stroke:#2A1B11; stroke-opacity:0.07; stroke-width:1.1; }
  .ix { fill:none; stroke:#2A1B11; stroke-opacity:0.12; stroke-width:1.6; }
  .ct { font:500 10px 'IBM Plex Mono',ui-monospace,monospace; fill:#2A1B11; fill-opacity:0.32;
        stroke:#F4ECDB; stroke-width:3; paint-order:stroke; }
  .pk { font:600 11.5px 'Inter Tight','Helvetica Neue',sans-serif; letter-spacing:0.15em; fill:#2A1B11; fill-opacity:0.2; }
  .el { font:500 10.5px 'IBM Plex Mono',ui-monospace,monospace; fill:#9C6A33; fill-opacity:0.34; }
  .dot { fill:#2A1B11; fill-opacity:0.24; }
</style>
<path class="c" d="M455.5,533.0 L454.8,535.6 L454.6,538.3 L454.7,541.1 L454.6,543.9 L454.2,546.9 L453.5,549.9 L452.6,553.0 L451.6,556.2 L450.3,559.7 L448.6,563.2 L446.3,566.5 L443.2,569.3 L439.3,571.2 L434.8,572.1 L430.1,572.0 L425.4,571.2 L421.1,570.3 L417.0,569.5 L413.0,569.3 L409.0,569.5 L404.7,569.7 L400.4,569.5 L396.4,568.4 L393.0,566.2 L390.7,563.0 L389.5,559.2 L389.0,555.4 L388.7,552.0 L387.8,549.4 L385.7,547.4 L382.4,545.9 L378.0,544.3 L373.2,542.4 L368.8,539.8 L365.4,536.6 L363.5,533.0 L363.1,529.2 L364.0,525.5 L365.8,522.0 L368.1,518.8 L370.8,515.8 L373.8,513.1 L377.3,510.7 L381.1,508.9 L385.3,507.6 L389.5,506.8 L393.5,506.2 L397.2,505.5 L400.4,504.5 L403.3,502.9 L406.2,500.9 L409.4,498.7 L413.1,496.9 L417.0,495.9 L421.0,496.0 L424.9,497.0 L428.5,498.6 L431.9,500.3 L435.2,501.7 L439.0,502.5 L443.5,502.7 L448.6,502.8 L454.1,503.3 L459.2,504.7 L463.1,507.2 L465.4,510.6 L465.8,514.8 L464.5,519.2 L462.1,523.3 L459.4,527.0 L457.1,530.2 L455.5,533.0 Z"/>
<path class="c" d="M494.0,533.0 L492.6,538.3 L492.2,543.6 L492.3,549.1 L492.1,554.9 L491.4,560.7 L490.0,566.7 L488.3,572.9 L486.2,579.4 L483.6,586.3 L480.3,593.3 L475.6,600.0 L469.4,605.6 L461.5,609.4 L452.6,611.2 L443.1,611.0 L433.9,609.5 L425.2,607.5 L417.0,606.1 L409.1,605.6 L400.9,606.0 L392.4,606.4 L383.8,606.0 L375.7,603.8 L369.1,599.4 L364.5,593.0 L362.0,585.4 L361.1,577.8 L360.4,571.0 L358.5,565.7 L354.5,561.9 L347.8,558.8 L339.1,555.7 L329.5,551.8 L320.6,546.6 L313.9,540.2 L310.0,533.0 L309.3,525.5 L311.0,518.1 L314.6,511.0 L319.2,504.5 L324.6,498.5 L330.7,493.1 L337.5,488.5 L345.2,484.8 L353.5,482.2 L362.0,480.6 L370.1,479.4 L377.4,478.1 L383.8,476.0 L389.6,472.8 L395.5,468.8 L401.9,464.5 L409.1,460.9 L417.0,458.9 L425.1,459.0 L432.9,461.0 L440.0,464.2 L446.7,467.7 L453.5,470.4 L461.1,471.9 L470.0,472.4 L480.3,472.7 L491.2,473.7 L501.3,476.4 L509.3,481.3 L513.8,488.3 L514.6,496.6 L512.0,505.4 L507.2,513.7 L501.8,521.0 L497.2,527.4 L494.0,533.0 Z"/>
<path class="c" d="M532.6,533.0 L530.4,540.9 L529.9,548.9 L530.0,557.2 L529.7,565.8 L528.6,574.6 L526.6,583.6 L523.9,592.9 L520.8,602.7 L517.0,613.0 L511.9,623.5 L504.9,633.5 L495.5,641.8 L483.8,647.6 L470.3,650.2 L456.2,650.0 L442.3,647.7 L429.2,644.8 L417.0,642.6 L405.1,641.9 L392.9,642.4 L380.1,643.1 L367.2,642.5 L355.1,639.2 L345.1,632.6 L338.2,623.0 L334.5,611.6 L333.1,600.1 L332.1,590.0 L329.3,582.1 L323.2,576.3 L313.2,571.7 L300.1,567.0 L285.7,561.1 L272.4,553.4 L262.3,543.8 L256.6,533.0 L255.4,521.7 L258.1,510.6 L263.4,500.1 L270.4,490.3 L278.4,481.3 L287.5,473.2 L297.8,466.2 L309.3,460.7 L321.8,456.8 L334.5,454.3 L346.6,452.6 L357.5,450.6 L367.2,447.5 L375.9,442.8 L384.7,436.7 L394.3,430.2 L405.2,424.8 L417.0,421.8 L429.1,422.0 L440.8,425.0 L451.5,429.9 L461.6,435.0 L471.7,439.1 L483.1,441.4 L496.5,442.1 L511.9,442.5 L528.2,444.0 L543.5,448.1 L555.4,455.5 L562.2,465.9 L563.4,478.4 L559.4,491.5 L552.3,504.0 L544.2,515.1 L537.2,524.6 L532.6,533.0 Z"/>
<path class="ix" d="M571.1,533.0 L568.1,543.6 L567.5,554.2 L567.6,565.3 L567.3,576.8 L565.8,588.5 L563.1,600.5 L559.5,612.8 L555.4,625.9 L550.3,639.6 L543.6,653.7 L534.2,667.0 L521.7,678.1 L506.1,685.8 L488.1,689.3 L469.2,688.9 L450.7,685.9 L433.3,682.1 L417.0,679.2 L401.1,678.2 L384.8,678.9 L367.8,679.8 L350.6,679.0 L334.4,674.7 L321.1,665.8 L311.9,653.0 L307.0,637.8 L305.1,622.5 L303.7,609.0 L300.1,598.5 L292.0,590.7 L278.6,584.6 L261.1,578.4 L241.9,570.5 L224.2,560.2 L210.7,547.4 L203.1,533.0 L201.5,517.9 L205.1,503.1 L212.2,489.1 L221.5,476.1 L232.2,464.1 L244.4,453.3 L258.1,444.0 L273.5,436.6 L290.1,431.5 L307.0,428.1 L323.2,425.8 L337.7,423.2 L350.5,419.0 L362.3,412.7 L374.0,404.6 L386.8,396.0 L401.2,388.8 L417.0,384.8 L433.2,384.9 L448.7,389.0 L463.1,395.5 L476.4,402.4 L490.0,407.8 L505.1,410.9 L523.0,411.9 L543.6,412.3 L565.3,414.3 L585.6,419.8 L601.5,429.6 L610.7,443.5 L612.1,460.2 L606.9,477.7 L597.4,494.3 L586.6,509.1 L577.3,521.8 L571.1,533.0 Z"/>
<path class="c" d="M609.6,533.0 L605.9,546.2 L605.1,559.5 L605.3,573.4 L604.9,587.7 L603.0,602.4 L599.6,617.3 L595.2,632.8 L590.0,649.1 L583.6,666.3 L575.2,683.8 L563.6,700.4 L547.9,714.4 L528.3,724.0 L505.9,728.4 L482.3,727.9 L459.1,724.1 L437.4,719.3 L417.0,715.7 L397.1,714.5 L376.8,715.4 L355.5,716.6 L334.0,715.5 L313.8,710.1 L297.2,699.0 L285.7,683.0 L279.5,664.0 L277.1,644.9 L275.4,628.0 L270.9,614.9 L260.7,605.2 L244.0,597.5 L222.1,589.7 L198.2,579.9 L176.0,567.0 L159.1,551.0 L149.6,533.0 L147.7,514.1 L152.1,495.6 L161.0,478.1 L172.6,461.8 L186.1,446.8 L201.2,433.3 L218.4,421.7 L237.6,412.6 L258.3,406.1 L279.5,401.9 L299.7,399.0 L317.9,395.7 L333.9,390.5 L348.6,382.6 L363.2,372.5 L379.2,361.7 L397.3,352.7 L417.0,347.7 L437.2,347.9 L456.7,353.0 L474.6,361.1 L491.3,369.7 L508.2,376.5 L527.2,380.4 L549.5,381.6 L575.2,382.1 L602.4,384.7 L627.8,391.5 L647.7,403.8 L659.1,421.2 L660.9,442.0 L654.4,463.9 L642.5,484.7 L629.0,503.1 L617.4,519.0 L609.6,533.0 Z"/>
<path class="c" d="M648.1,533.0 L643.7,548.9 L642.7,564.8 L642.9,581.4 L642.4,598.6 L640.2,616.2 L636.1,634.2 L630.8,652.8 L624.5,672.3 L616.9,692.9 L606.8,714.0 L592.9,733.9 L574.1,750.7 L550.6,762.2 L523.7,767.5 L495.3,766.9 L467.6,762.4 L441.5,756.6 L417.0,752.3 L393.2,750.8 L368.8,751.9 L343.2,753.3 L317.3,752.0 L293.1,745.5 L273.2,732.3 L259.4,713.0 L252.1,690.3 L249.2,667.3 L247.1,647.0 L241.6,631.2 L229.5,619.6 L209.4,610.4 L183.2,601.1 L154.4,589.3 L127.8,573.8 L107.6,554.7 L96.1,533.0 L93.8,510.4 L99.1,488.2 L109.8,467.1 L123.7,447.6 L139.9,429.6 L158.1,413.4 L178.6,399.5 L201.7,388.5 L226.6,380.7 L252.0,375.7 L276.2,372.2 L298.1,368.2 L317.3,362.0 L334.9,352.5 L352.5,340.4 L371.7,327.5 L393.3,316.7 L417.0,310.7 L441.3,310.9 L464.6,317.0 L486.1,326.7 L506.1,337.1 L526.4,345.3 L549.2,349.8 L576.0,351.3 L606.9,352.0 L639.5,355.0 L670.0,363.2 L693.8,377.9 L707.5,398.8 L709.7,423.8 L701.9,450.1 L687.6,475.0 L671.4,497.1 L657.5,516.2 L648.1,533.0 Z"/>
<path class="c" d="M686.7,533.0 L681.5,551.5 L680.3,570.1 L680.6,589.5 L680.0,609.6 L677.3,630.1 L672.6,651.1 L666.4,672.7 L659.1,695.5 L650.2,719.6 L638.5,744.1 L622.2,767.4 L600.3,786.9 L572.9,800.4 L541.5,806.6 L508.4,805.9 L476.0,800.6 L445.5,793.9 L417.0,788.8 L389.2,787.1 L360.7,788.3 L330.9,790.0 L300.7,788.6 L272.5,780.9 L249.2,765.5 L233.2,743.0 L224.6,716.5 L221.2,689.6 L218.8,666.0 L212.4,647.6 L198.2,634.1 L174.8,623.3 L144.2,612.4 L110.6,598.7 L79.6,580.6 L56.0,558.3 L42.7,533.0 L39.9,506.6 L46.1,480.7 L58.5,456.2 L74.8,433.4 L93.7,412.4 L114.9,393.5 L138.9,377.2 L165.8,364.4 L194.9,355.3 L224.5,349.5 L252.8,345.4 L278.3,340.8 L300.7,333.5 L321.2,322.5 L341.7,308.3 L364.1,293.2 L389.4,280.6 L417.0,273.6 L445.3,273.9 L472.6,281.0 L497.6,292.3 L521.0,304.4 L544.7,314.0 L571.2,319.3 L602.5,321.0 L638.5,321.8 L676.6,325.3 L712.1,334.9 L739.9,352.1 L755.9,376.5 L758.5,405.6 L749.4,436.2 L732.7,465.3 L713.8,491.1 L697.5,513.4 L686.7,533.0 Z"/>
<path class="ix" d="M725.2,533.0 L719.3,554.2 L718.0,575.5 L718.3,597.6 L717.6,620.5 L714.5,644.0 L709.2,667.9 L702.1,692.7 L693.7,718.8 L683.6,746.3 L670.1,774.3 L651.5,800.9 L626.5,823.2 L595.1,838.6 L559.3,845.7 L521.5,844.9 L484.4,838.8 L449.6,831.1 L417.0,825.4 L385.2,823.4 L352.7,824.8 L318.6,826.7 L284.1,825.1 L251.9,816.3 L225.3,798.7 L206.9,773.0 L197.1,742.7 L193.2,712.0 L190.5,685.1 L183.2,664.0 L166.9,648.5 L140.3,636.2 L105.2,623.8 L66.8,608.1 L31.4,587.4 L4.4,561.9 L-10.8,533.0 L-13.9,502.8 L-6.9,473.2 L7.3,445.2 L26.0,419.1 L47.5,395.2 L71.8,373.5 L99.2,355.0 L129.9,340.3 L163.1,329.9 L197.0,323.3 L229.3,318.6 L258.5,313.3 L284.1,305.0 L307.5,292.4 L331.0,276.1 L356.6,258.9 L385.5,244.6 L417.0,236.6 L449.4,236.9 L480.5,244.9 L509.1,257.9 L535.8,271.8 L562.9,282.7 L593.3,288.8 L629.1,290.7 L670.2,291.6 L713.7,295.7 L754.3,306.6 L786.1,326.3 L804.3,354.1 L807.3,387.4 L796.8,422.4 L777.8,455.7 L756.2,485.2 L737.6,510.6 L725.2,533.0 Z"/>
<path class="c" d="M763.7,533.0 L757.1,556.8 L755.6,580.8 L755.9,605.7 L755.1,631.5 L751.7,657.9 L745.7,684.8 L737.7,712.7 L728.3,742.0 L716.9,772.9 L701.7,804.5 L680.8,834.4 L652.6,859.5 L617.4,876.8 L577.0,884.7 L534.5,883.9 L492.8,877.0 L453.7,868.4 L417.0,861.9 L381.3,859.7 L344.6,861.3 L306.3,863.4 L267.5,861.6 L231.2,851.7 L201.3,831.9 L180.6,803.1 L169.6,768.9 L165.3,734.4 L162.2,704.1 L154.0,680.3 L135.7,662.9 L105.7,649.1 L66.3,635.1 L23.1,617.4 L-16.8,594.2 L-47.2,565.5 L-64.3,533.0 L-67.8,499.1 L-59.8,465.7 L-43.9,434.2 L-22.9,404.9 L1.3,377.9 L28.6,353.6 L59.5,332.7 L94.0,316.2 L131.4,304.5 L169.5,297.0 L205.9,291.8 L238.6,285.8 L267.5,276.5 L293.8,262.3 L320.2,244.0 L349.0,224.7 L381.5,208.5 L417.0,199.5 L453.4,199.9 L488.4,208.9 L520.6,223.6 L550.7,239.1 L581.1,251.4 L615.3,258.2 L655.6,260.4 L701.8,261.5 L750.7,266.0 L796.5,278.3 L832.2,300.4 L852.7,331.7 L856.1,369.2 L844.3,408.6 L822.9,446.0 L798.6,479.2 L777.7,507.8 L763.7,533.0 Z"/>
<text class="ct" x="422" y="462" text-anchor="middle">13,600</text>
<text class="ct" x="307" y="638" text-anchor="middle">12,800</text>
<text class="ct" x="676" y="494" text-anchor="middle">12,000</text>
<text class="ct" x="54" y="392" text-anchor="middle">11,200</text>
<circle class="dot" cx="417" cy="509" r="2.4"/>
<text class="pk" x="417" y="529" text-anchor="middle">LONGS PEAK</text>
<text class="el" x="417" y="550" text-anchor="middle">14,259&#8242;</text>
</svg>