<svg xmlns="http://www.w3.org/2000/svg" width="2000" height="1400" viewBox="0 0 2000 1400">
<style>
  .c  { fill:none; stroke:#2A1B11; stroke-opacity:0.07; stroke-width:1.1; }
  .ix { fill:none; stroke:#2A1B11; stroke-opacity:0.12; stroke-width:1.6; }
  .ct { font:500 10px 'IBM Plex Mono',ui-monospace,monospace; fill:#2A1B11; fill-opacity:0.32;
        stroke:#F4ECDB; stroke-width:3; paint-order:stroke; }
  .pk { font:600 11.5px 'Inter Tight','Helvetica Neue',sans-serif; letter-spacing:0.15em; fill:#2A1B11; fill-opacity:0.2; }
  .el { font:500 10.5px 'IBM Plex Mono',ui-monospace,monospace; fill:#9C6A33; fill-opacity:0.34; }
  .dot { fill:#2A1B11; fill-opacity:0.24; }
</style>
<path class="c" d="M776.7,551.0 L775.3,554.9 L773.3,558.7 L770.7,562.1 L767.9,565.2 L765.5,568.3 L763.8,571.7 L763.2,575.8 L763.3,580.8 L763.6,586.7 L763.1,593.1 L761.1,599.1 L757.3,604.0 L751.6,607.0 L744.8,607.7 L737.6,606.4 L730.6,603.8 L724.4,600.7 L719.0,598.1 L714.0,596.4 L709.1,595.7 L704.1,595.6 L698.8,595.4 L693.6,594.6 L688.8,592.8 L684.8,590.0 L681.6,586.6 L679.0,583.0 L676.5,579.6 L673.6,576.4 L670.3,573.5 L666.5,570.6 L662.7,567.4 L659.1,563.8 L656.2,559.9 L654.1,555.5 L652.7,551.0 L651.8,546.3 L651.2,541.4 L650.9,536.4 L651.4,531.3 L653.1,526.4 L656.4,522.1 L661.6,518.9 L668.4,517.0 L675.9,516.5 L683.4,517.1 L690.0,517.9 L695.3,518.1 L699.2,517.1 L702.4,514.5 L705.5,510.6 L709.1,506.1 L713.6,501.9 L719.0,498.9 L724.8,497.6 L730.7,498.0 L736.2,499.8 L741.2,502.2 L746.0,504.7 L750.8,506.9 L756.0,508.8 L761.3,510.6 L766.7,512.9 L771.4,515.8 L775.2,519.5 L777.7,523.9 L778.9,528.6 L779.2,533.5 L778.9,538.2 L778.3,542.6 L777.7,546.9 L776.7,551.0 Z"/>
<path class="c" d="M834.5,551.0 L831.7,558.9 L827.6,566.3 L822.4,573.2 L816.8,579.5 L811.9,585.7 L808.7,592.4 L807.4,600.5 L807.7,610.5 L808.2,622.4 L807.2,635.1 L803.3,647.3 L795.5,657.1 L784.3,663.0 L770.6,664.4 L756.1,661.8 L742.3,656.5 L729.9,650.4 L719.0,645.2 L709.1,641.8 L699.3,640.5 L689.1,640.2 L678.6,639.9 L668.2,638.2 L658.7,634.6 L650.7,629.1 L644.2,622.3 L638.9,615.0 L633.9,608.1 L628.3,601.8 L621.6,596.0 L614.1,590.1 L606.3,583.8 L599.2,576.7 L593.4,568.7 L589.3,560.1 L586.5,551.0 L584.6,541.6 L583.4,531.9 L582.9,521.8 L583.8,511.6 L587.2,501.8 L593.9,493.2 L604.3,486.7 L617.7,483.0 L632.8,482.1 L647.8,483.1 L661.0,484.8 L671.5,485.2 L679.5,483.2 L685.8,478.0 L691.9,470.2 L699.2,461.1 L708.3,452.8 L719.0,446.8 L730.7,444.2 L742.3,445.1 L753.3,448.6 L763.4,453.4 L773.0,458.4 L782.7,462.8 L792.9,466.6 L803.7,470.3 L814.3,474.8 L823.9,480.6 L831.4,488.0 L836.4,496.8 L838.9,506.3 L839.4,516.0 L838.8,525.3 L837.7,534.3 L836.3,542.8 L834.5,551.0 Z"/>
<path class="c" d="M892.2,551.0 L888.0,562.8 L881.9,574.0 L874.1,584.2 L865.7,593.7 L858.4,603.0 L853.5,613.1 L851.6,625.3 L852.0,640.3 L852.8,658.0 L851.3,677.2 L845.4,695.4 L833.8,710.1 L816.9,719.0 L796.4,721.2 L774.7,717.2 L753.9,709.3 L735.3,700.1 L719.0,692.3 L704.1,687.3 L689.4,685.2 L674.2,684.8 L658.4,684.3 L642.8,681.8 L628.5,676.4 L616.5,668.1 L606.9,657.9 L598.9,647.1 L591.4,636.7 L582.9,627.2 L572.9,618.5 L561.6,609.7 L550.0,600.2 L539.3,589.5 L530.7,577.6 L524.4,564.6 L520.2,551.0 L517.4,536.9 L515.5,522.3 L514.8,507.2 L516.2,491.9 L521.2,477.2 L531.3,464.3 L546.9,454.6 L567.1,449.0 L589.8,447.6 L612.2,449.2 L632.0,451.6 L647.8,452.4 L659.7,449.3 L669.2,441.5 L678.4,429.8 L689.3,416.2 L702.9,403.7 L719.0,394.7 L736.5,390.8 L754.0,392.1 L770.5,397.4 L785.6,404.6 L800.0,412.1 L814.5,418.7 L829.9,424.3 L846.0,429.9 L862.0,436.6 L876.3,445.4 L887.7,456.5 L895.1,469.7 L898.8,483.9 L899.6,498.4 L898.6,512.5 L897.0,525.9 L895.0,538.7 L892.2,551.0 Z"/>
<path class="ix" d="M950.0,551.0 L944.4,566.8 L936.2,581.6 L925.8,595.3 L914.6,608.0 L904.8,620.3 L898.3,633.8 L895.8,650.1 L896.4,670.1 L897.4,693.7 L895.5,719.2 L887.5,743.6 L872.1,763.1 L849.6,775.0 L822.2,777.9 L793.2,772.6 L765.5,762.1 L740.7,749.8 L719.0,739.4 L699.1,732.7 L679.6,729.9 L659.2,729.4 L638.2,728.7 L617.3,725.4 L598.3,718.2 L582.3,707.2 L569.5,693.5 L558.9,679.1 L548.8,665.2 L537.6,652.6 L524.3,640.9 L509.2,629.3 L493.6,616.6 L479.4,602.4 L467.9,586.4 L459.6,569.2 L454.0,551.0 L450.3,532.2 L447.7,512.7 L446.7,492.6 L448.5,472.3 L455.3,452.6 L468.8,435.4 L489.5,422.5 L516.4,415.0 L546.7,413.1 L576.6,415.3 L603.0,418.5 L624.1,419.5 L639.9,415.4 L652.6,405.0 L664.9,389.4 L679.4,371.3 L697.5,354.5 L719.0,342.6 L742.4,337.4 L765.7,339.1 L787.6,346.1 L807.8,355.8 L827.0,365.8 L846.3,374.6 L866.8,382.1 L888.3,389.6 L909.6,398.5 L928.8,410.2 L943.9,425.0 L953.8,442.5 L958.7,461.6 L959.7,480.9 L958.5,499.7 L956.4,517.5 L953.7,534.6 L950.0,551.0 Z"/>
<path class="c" d="M1007.7,551.0 L1000.7,570.7 L990.5,589.3 L977.5,606.4 L963.5,622.2 L951.3,637.7 L943.1,654.5 L940.0,674.8 L940.7,699.8 L942.0,729.4 L939.6,761.3 L929.7,791.7 L910.4,816.1 L882.2,831.0 L848.0,834.6 L811.8,828.1 L777.2,814.8 L746.2,799.5 L719.0,786.5 L694.2,778.1 L669.7,774.6 L644.3,774.0 L617.9,773.1 L591.9,769.0 L568.2,760.0 L548.2,746.2 L532.1,729.2 L518.9,711.1 L506.3,693.8 L492.2,678.0 L475.6,663.4 L456.7,648.8 L437.3,633.0 L419.5,615.2 L405.1,595.3 L394.7,573.7 L387.7,551.0 L383.1,527.5 L379.9,503.2 L378.6,478.0 L380.9,452.6 L389.4,428.0 L406.2,406.5 L432.2,390.3 L465.8,381.0 L503.6,378.7 L541.0,381.3 L574.1,385.4 L600.4,386.6 L620.2,381.4 L636.0,368.5 L651.3,349.0 L669.5,326.4 L692.1,305.4 L719.0,290.5 L748.2,284.0 L777.4,286.2 L804.8,294.9 L830.0,307.0 L854.0,319.5 L878.2,330.4 L903.8,339.9 L930.6,349.2 L957.3,360.4 L981.2,375.0 L1000.1,393.5 L1012.5,415.4 L1018.6,439.2 L1019.9,463.4 L1018.4,486.8 L1015.7,509.1 L1012.4,530.5 L1007.7,551.0 Z"/>
<path class="c" d="M1065.5,551.0 L1057.1,574.7 L1044.8,597.0 L1029.2,617.5 L1012.5,636.4 L997.8,655.0 L988.0,675.2 L984.2,699.6 L985.1,729.6 L986.6,765.1 L983.7,803.4 L971.8,839.8 L948.6,869.2 L914.8,887.0 L873.8,891.3 L830.4,883.5 L788.8,867.6 L751.6,849.3 L719.0,833.5 L689.2,823.5 L659.9,819.4 L629.4,818.6 L597.7,817.6 L566.5,812.6 L538.0,801.8 L514.0,785.2 L494.7,764.8 L478.8,743.1 L463.7,722.4 L446.9,703.4 L426.9,685.9 L404.3,668.4 L381.0,649.4 L359.6,628.0 L342.3,604.1 L329.9,578.2 L321.5,551.0 L315.9,522.8 L312.1,493.6 L310.6,463.4 L313.3,432.9 L323.5,403.4 L343.6,377.6 L374.8,358.2 L415.1,347.0 L460.5,344.2 L505.5,347.4 L545.1,352.3 L576.6,353.7 L600.4,347.5 L619.4,332.0 L637.8,308.6 L659.6,281.4 L686.8,256.3 L719.0,238.3 L754.0,230.6 L789.0,233.2 L821.9,243.7 L852.2,258.3 L880.9,273.2 L910.0,286.3 L940.7,297.7 L973.0,308.9 L1004.9,322.3 L1033.7,339.8 L1056.3,362.1 L1071.2,388.3 L1078.6,416.9 L1080.1,445.9 L1078.3,474.0 L1075.0,500.8 L1071.0,526.4 L1065.5,551.0 Z"/>
<path class="c" d="M1123.2,551.0 L1113.4,578.6 L1099.1,604.6 L1080.9,628.6 L1061.4,650.7 L1044.2,672.3 L1032.8,695.9 L1028.4,724.3 L1029.4,759.4 L1031.2,800.8 L1027.8,845.4 L1013.9,888.0 L986.9,922.2 L947.5,943.0 L899.6,948.0 L848.9,938.9 L800.4,920.4 L757.1,899.0 L719.0,880.6 L684.2,868.9 L650.0,864.1 L614.4,863.2 L577.5,862.0 L541.1,856.2 L507.8,843.6 L479.8,824.3 L457.4,800.4 L438.8,775.1 L421.2,750.9 L401.5,728.9 L378.2,708.4 L351.8,688.0 L324.6,665.8 L299.7,640.9 L279.6,613.0 L265.0,582.8 L255.2,551.0 L248.7,518.1 L244.3,484.0 L242.5,448.9 L245.7,413.2 L257.5,378.9 L281.1,348.7 L317.4,326.0 L364.5,313.0 L417.4,309.7 L469.9,313.5 L516.1,319.2 L552.9,320.8 L580.6,313.6 L602.8,295.5 L624.3,268.1 L649.7,236.5 L681.4,207.2 L719.0,186.2 L759.9,177.2 L800.7,180.2 L839.1,192.5 L874.4,209.5 L907.9,226.9 L941.8,242.2 L977.7,255.5 L1015.3,268.5 L1052.6,284.1 L1086.1,304.6 L1112.5,330.6 L1129.9,361.2 L1138.5,394.5 L1140.3,428.3 L1138.2,461.1 L1134.4,492.4 L1129.7,522.3 L1123.2,551.0 Z"/>
<path class="ix" d="M1181.0,551.0 L1169.8,582.5 L1153.4,612.3 L1132.6,639.7 L1110.3,664.9 L1090.7,689.7 L1077.6,716.6 L1072.6,749.1 L1073.8,789.1 L1075.8,836.4 L1071.9,887.5 L1056.1,936.1 L1025.2,975.2 L980.1,999.0 L925.4,1004.7 L867.5,994.3 L812.0,973.1 L762.5,948.7 L719.0,927.7 L679.3,914.4 L640.1,908.8 L599.5,907.8 L557.3,906.4 L515.7,899.8 L477.7,885.4 L445.6,863.3 L420.0,836.1 L398.8,807.2 L378.6,779.5 L356.1,754.3 L329.5,730.9 L299.4,707.5 L268.3,682.2 L239.8,653.7 L216.8,621.8 L200.1,587.3 L189.0,551.0 L181.5,513.4 L176.5,474.5 L174.4,434.3 L178.1,393.5 L191.6,354.3 L218.5,319.8 L260.0,293.9 L313.9,279.0 L374.4,275.3 L434.3,279.5 L487.1,286.0 L529.2,288.0 L560.9,279.7 L586.2,259.0 L610.7,227.7 L639.8,191.6 L676.0,158.1 L719.0,134.1 L765.7,123.8 L812.4,127.3 L856.2,141.3 L896.6,160.7 L934.9,180.6 L973.7,198.1 L1014.6,213.2 L1057.6,228.1 L1100.2,246.0 L1138.5,269.4 L1168.7,299.1 L1188.6,334.1 L1198.4,372.2 L1200.5,410.8 L1198.0,448.3 L1193.7,484.0 L1188.4,518.1 L1181.0,551.0 Z"/>
<path class="c" d="M1238.7,551.0 L1226.1,586.5 L1207.7,619.9 L1184.3,650.7 L1159.2,679.2 L1137.1,707.0 L1122.5,737.3 L1116.9,773.9 L1118.1,818.9 L1120.4,872.1 L1116.0,929.5 L1098.2,984.3 L1063.4,1028.3 L1012.7,1055.0 L951.2,1061.5 L886.0,1049.7 L823.7,1025.9 L767.9,998.4 L719.0,974.8 L674.3,959.8 L630.3,953.5 L584.5,952.4 L537.1,950.8 L490.3,943.4 L447.5,927.2 L411.5,902.3 L382.6,871.7 L358.8,839.2 L336.1,808.0 L310.8,779.7 L280.8,753.4 L246.9,727.1 L212.0,698.6 L180.0,666.5 L154.0,630.7 L135.3,591.9 L122.7,551.0 L114.3,508.7 L108.6,464.9 L106.3,419.7 L110.5,373.8 L125.7,329.7 L156.0,290.9 L202.7,261.8 L263.2,245.0 L331.3,240.8 L398.7,245.6 L458.1,252.9 L505.4,255.1 L541.1,245.8 L569.5,222.5 L597.2,187.3 L629.9,146.7 L670.7,109.0 L719.0,82.0 L771.6,70.4 L824.1,74.3 L873.4,90.1 L918.8,111.9 L961.9,134.3 L1005.5,154.0 L1051.6,171.0 L1100.0,187.8 L1147.9,207.9 L1191.0,234.2 L1225.0,267.6 L1247.3,307.0 L1258.3,349.8 L1260.7,393.3 L1257.9,435.5 L1253.1,475.7 L1247.0,514.0 L1238.7,551.0 Z"/>
<path class="c" d="M1296.5,551.0 L1282.4,590.4 L1262.0,627.6 L1236.0,661.8 L1208.1,693.4 L1183.6,724.3 L1167.3,758.1 L1161.1,798.6 L1162.5,848.7 L1165.0,907.8 L1160.2,971.6 L1140.4,1032.4 L1101.7,1081.3 L1045.4,1111.0 L977.0,1118.2 L904.6,1105.1 L835.3,1078.7 L773.4,1048.1 L719.0,1021.9 L669.3,1005.2 L620.4,998.3 L569.6,997.0 L516.9,995.3 L464.9,987.0 L417.3,969.0 L377.3,941.4 L345.2,907.3 L318.7,871.2 L293.5,836.6 L265.4,805.1 L232.2,775.9 L194.4,746.7 L155.6,715.0 L120.1,679.4 L91.2,639.6 L70.4,596.4 L56.5,551.0 L47.2,504.0 L40.8,455.3 L38.3,405.1 L42.9,354.1 L59.8,305.1 L93.4,262.1 L145.3,229.6 L212.6,211.0 L288.2,206.4 L363.1,211.7 L429.1,219.8 L481.7,222.2 L521.3,211.9 L552.9,186.0 L583.7,146.9 L620.0,101.7 L665.3,59.9 L719.0,29.9 L777.4,17.0 L835.7,21.3 L890.5,38.8 L941.0,63.1 L988.9,88.0 L1037.3,109.9 L1088.5,128.8 L1142.3,147.4 L1195.5,169.8 L1243.4,199.0 L1281.2,236.1 L1306.0,279.9 L1318.3,327.4 L1320.8,375.8 L1317.8,422.6 L1312.4,467.3 L1305.7,509.9 L1296.5,551.0 Z"/>
<path class="c" d="M1354.2,551.0 L1338.8,594.4 L1316.3,635.3 L1287.7,672.9 L1257.0,707.7 L1230.0,741.6 L1212.1,778.8 L1205.3,823.4 L1206.8,878.5 L1209.6,943.5 L1204.3,1013.7 L1182.5,1080.5 L1140.0,1134.3 L1078.0,1166.9 L1002.8,1174.9 L923.2,1160.5 L846.9,1131.4 L778.8,1097.8 L719.0,1069.0 L664.4,1050.6 L610.6,1043.0 L554.7,1041.7 L496.7,1039.7 L439.4,1030.6 L387.2,1010.8 L343.1,980.4 L307.9,943.0 L278.7,903.2 L251.0,865.2 L220.1,830.5 L183.5,798.3 L142.0,766.2 L99.3,731.4 L60.2,692.2 L28.5,648.4 L5.6,600.9 L-9.8,551.0 L-20.0,499.3 L-27.0,445.8 L-29.8,390.5 L-24.7,334.4 L-6.2,280.5 L30.9,233.2 L87.9,197.5 L161.9,177.0 L245.1,171.9 L327.5,177.8 L400.1,186.7 L458.0,189.3 L501.6,178.0 L536.3,149.5 L570.1,106.5 L610.1,56.8 L659.9,10.7 L719.0,-22.2 L783.2,-36.4 L847.4,-31.6 L907.7,-12.4 L963.2,14.3 L1015.9,41.6 L1069.2,65.8 L1125.5,86.6 L1184.6,107.1 L1243.2,131.6 L1295.9,163.8 L1337.4,204.6 L1364.7,252.7 L1378.2,305.1 L1381.0,358.2 L1377.7,409.8 L1371.8,458.9 L1364.4,505.8 L1354.2,551.0 Z"/>
<path class="ix" d="M1412.0,551.0 L1395.1,598.3 L1370.6,642.9 L1339.4,684.0 L1305.9,721.9 L1276.5,759.0 L1256.9,799.5 L1249.5,848.2 L1251.2,908.2 L1254.2,979.2 L1248.4,1055.7 L1224.6,1128.7 L1178.3,1187.4 L1110.7,1222.9 L1028.7,1231.6 L941.7,1215.9 L858.6,1184.2 L784.2,1147.5 L719.0,1116.1 L659.4,1096.0 L600.7,1087.7 L539.7,1086.3 L476.5,1084.1 L414.0,1074.2 L357.0,1052.6 L309.0,1019.5 L270.5,978.6 L238.7,935.3 L208.4,893.7 L174.7,855.9 L134.8,820.8 L89.5,785.8 L42.9,747.8 L0.3,705.1 L-34.3,657.3 L-59.3,605.5 L-76.0,551.0 L-87.2,494.6 L-94.8,436.2 L-97.9,375.9 L-92.4,314.8 L-72.1,255.9 L-31.7,204.3 L30.6,165.4 L111.3,143.1 L202.0,137.4 L291.9,143.8 L371.1,153.6 L434.3,156.4 L481.8,144.1 L519.7,113.0 L556.6,66.1 L600.2,11.9 L654.5,-38.4 L719.0,-74.3 L789.1,-89.8 L859.1,-84.6 L924.8,-63.6 L985.4,-34.5 L1042.9,-4.7 L1101.0,21.7 L1162.5,44.3 L1227.0,66.7 L1290.9,93.5 L1348.3,128.5 L1393.6,173.1 L1423.4,225.6 L1438.1,282.7 L1441.2,340.7 L1437.6,397.0 L1431.1,450.6 L1423.1,501.7 L1412.0,551.0 Z"/>
<path class="c" d="M1469.7,551.0 L1451.5,602.3 L1424.9,650.6 L1391.1,695.1 L1354.8,736.1 L1323.0,776.3 L1301.8,820.2 L1293.7,872.9 L1295.5,938.0 L1298.8,1014.8 L1292.5,1097.8 L1266.8,1176.8 L1216.5,1240.4 L1143.3,1278.9 L1054.5,1288.3 L960.3,1271.4 L870.2,1237.0 L789.7,1197.2 L719.0,1163.2 L654.4,1141.5 L590.8,1132.4 L524.8,1130.9 L456.2,1128.5 L388.6,1117.8 L326.9,1094.4 L274.8,1058.5 L233.1,1014.3 L198.7,967.3 L165.9,922.3 L129.4,881.3 L86.1,843.3 L37.1,805.4 L-13.4,764.3 L-59.6,717.9 L-97.1,666.1 L-124.1,610.0 L-142.3,551.0 L-154.4,489.9 L-162.6,426.6 L-166.0,361.3 L-160.0,295.1 L-138.0,231.3 L-94.3,175.4 L-26.8,133.2 L60.6,109.1 L158.9,103.0 L256.3,109.9 L342.2,120.4 L410.5,123.6 L462.0,110.2 L503.1,76.5 L543.1,25.7 L590.3,-33.0 L649.2,-87.5 L719.0,-126.4 L794.9,-143.2 L870.8,-137.6 L942.0,-114.8 L1007.6,-83.3 L1069.9,-51.0 L1132.9,-22.5 L1199.4,2.1 L1269.3,26.4 L1338.5,55.4 L1400.8,93.3 L1449.8,141.6 L1482.1,198.5 L1498.1,260.4 L1501.4,323.2 L1497.5,384.1 L1490.4,442.2 L1481.7,497.6 L1469.7,551.0 Z"/>
<path class="c" d="M1527.5,551.0 L1507.8,606.2 L1479.2,658.2 L1442.8,706.2 L1403.7,750.4 L1369.4,793.6 L1346.6,840.9 L1337.9,897.7 L1339.8,967.8 L1343.4,1050.5 L1336.6,1139.8 L1308.9,1225.0 L1254.8,1293.4 L1175.9,1334.9 L1080.3,1345.0 L978.8,1326.8 L881.8,1289.7 L795.1,1246.9 L719.0,1210.3 L649.5,1186.9 L581.0,1177.2 L509.8,1175.5 L436.0,1173.0 L363.2,1161.4 L296.7,1136.2 L240.6,1097.5 L195.7,1049.9 L158.6,999.3 L123.4,950.8 L84.0,906.7 L37.4,865.8 L-15.4,825.0 L-69.7,780.7 L-119.5,730.7 L-159.9,675.0 L-189.0,614.6 L-208.5,551.0 L-221.6,485.2 L-230.4,417.1 L-234.0,346.7 L-227.6,275.4 L-203.9,206.7 L-156.8,146.5 L-84.2,101.1 L10.0,75.1 L115.9,68.5 L220.7,76.0 L313.2,87.3 L386.8,90.7 L442.3,76.3 L486.5,40.0 L529.5,-14.7 L580.4,-78.0 L643.8,-136.6 L719.0,-178.5 L800.8,-196.6 L882.4,-190.5 L959.2,-166.0 L1029.8,-132.1 L1096.9,-97.3 L1164.7,-66.6 L1236.4,-40.1 L1311.6,-14.0 L1386.2,17.3 L1453.2,58.1 L1506.0,110.1 L1540.8,171.4 L1558.0,238.0 L1561.6,305.7 L1557.3,371.3 L1549.8,433.8 L1540.4,493.5 L1527.5,551.0 Z"/>
<path class="c" d="M1585.2,551.0 L1564.2,610.2 L1533.5,665.9 L1494.5,717.2 L1452.6,764.6 L1415.9,811.0 L1391.4,861.6 L1382.1,922.4 L1384.2,997.5 L1388.0,1086.2 L1380.7,1181.9 L1351.0,1273.1 L1293.1,1346.4 L1208.6,1390.9 L1106.1,1401.8 L997.4,1382.2 L893.5,1342.5 L800.5,1296.6 L719.0,1257.4 L644.5,1232.3 L571.1,1221.9 L494.9,1220.1 L415.8,1217.4 L337.8,1205.0 L266.5,1178.0 L206.5,1136.6 L158.4,1085.5 L118.6,1031.3 L80.8,979.4 L38.6,932.1 L-11.3,888.3 L-67.8,844.5 L-126.1,797.1 L-179.4,743.6 L-222.6,683.8 L-253.8,619.1 L-274.8,551.0 L-288.8,480.5 L-298.3,407.5 L-302.1,332.1 L-295.2,255.7 L-269.8,182.1 L-219.4,117.6 L-141.5,69.0 L-40.6,41.1 L72.8,34.0 L185.1,42.0 L284.2,54.2 L363.1,57.8 L422.5,42.3 L469.9,3.5 L516.0,-55.1 L570.5,-122.9 L638.4,-185.7 L719.0,-230.6 L806.6,-250.0 L894.1,-243.5 L976.3,-217.2 L1052.0,-180.9 L1123.9,-143.6 L1196.5,-110.7 L1273.3,-82.3 L1353.9,-54.4 L1433.8,-20.9 L1505.7,22.9 L1562.3,78.6 L1599.5,144.3 L1617.9,215.7 L1621.8,288.1 L1617.2,358.5 L1609.1,425.4 L1599.1,489.4 L1585.2,551.0 Z"/>
<path class="ix" d="M1643.0,551.0 L1620.5,614.1 L1587.8,673.6 L1546.2,728.3 L1501.5,778.9 L1462.3,828.3 L1436.3,882.3 L1426.3,947.2 L1428.5,1027.3 L1432.6,1121.9 L1424.9,1224.0 L1393.2,1321.2 L1331.3,1399.5 L1241.2,1446.9 L1131.9,1458.5 L1016.0,1437.6 L905.1,1395.3 L806.0,1346.3 L719.0,1304.4 L639.5,1277.7 L561.3,1266.6 L480.0,1264.7 L395.6,1261.8 L312.4,1248.6 L236.4,1219.8 L172.3,1175.6 L121.0,1121.2 L78.6,1063.3 L38.3,1008.0 L-6.7,957.5 L-59.9,910.8 L-120.3,864.1 L-182.4,813.5 L-239.3,756.4 L-285.4,692.7 L-318.7,623.6 L-341.0,551.0 L-355.9,475.8 L-366.1,397.9 L-370.2,317.5 L-362.8,236.0 L-335.8,157.5 L-281.9,88.7 L-198.9,36.8 L-91.3,7.1 L29.7,-0.4 L149.6,8.1 L255.2,21.1 L339.3,24.9 L402.7,8.4 L453.3,-33.0 L502.5,-95.5 L560.6,-167.8 L633.1,-234.8 L719.0,-282.8 L812.4,-303.4 L905.8,-296.5 L993.5,-268.4 L1074.2,-229.7 L1150.8,-189.9 L1228.4,-154.8 L1310.3,-124.5 L1396.3,-94.7 L1481.5,-59.0 L1558.1,-12.3 L1618.5,47.1 L1658.2,117.2 L1677.8,193.3 L1681.9,270.6 L1677.1,345.6 L1668.5,417.1 L1657.7,485.3 L1643.0,551.0 Z"/>
<path class="c" d="M1700.7,551.0 L1676.8,618.0 L1642.1,681.2 L1597.9,739.4 L1550.5,793.1 L1508.8,845.6 L1481.1,903.0 L1470.5,972.0 L1472.9,1057.1 L1477.2,1157.6 L1469.0,1266.0 L1435.3,1369.4 L1369.6,1452.5 L1273.9,1502.9 L1157.7,1515.2 L1034.5,1493.0 L916.7,1448.0 L811.4,1396.0 L719.0,1351.5 L634.6,1323.1 L551.4,1311.3 L465.0,1309.3 L375.4,1306.2 L287.0,1292.2 L206.2,1261.6 L138.1,1214.7 L83.6,1156.8 L38.5,1095.4 L-4.3,1036.5 L-52.1,982.9 L-108.6,933.3 L-172.7,883.7 L-238.7,829.9 L-299.2,769.3 L-348.2,701.5 L-383.6,628.2 L-407.3,551.0 L-423.1,471.1 L-433.9,388.4 L-438.3,302.9 L-430.4,216.3 L-401.7,132.9 L-344.5,59.8 L-256.3,4.7 L-141.9,-26.9 L-13.4,-34.9 L114.0,-25.8 L226.2,-12.0 L315.6,-8.0 L383.0,-25.5 L436.7,-69.5 L488.9,-135.9 L550.7,-212.7 L627.7,-283.9 L719.0,-334.9 L818.3,-356.8 L917.5,-349.4 L1010.6,-319.7 L1096.4,-278.5 L1177.8,-236.2 L1260.2,-198.9 L1347.2,-166.8 L1438.6,-135.1 L1529.1,-97.1 L1610.5,-47.5 L1674.7,15.6 L1717.0,90.1 L1737.8,171.0 L1742.1,253.1 L1737.0,332.8 L1727.8,408.7 L1716.4,481.2 L1700.7,551.0 Z"/>
<path class="c" d="M1758.5,551.0 L1733.2,622.0 L1696.4,688.9 L1649.6,750.5 L1599.4,807.3 L1555.3,863.0 L1525.9,923.7 L1514.7,996.7 L1517.2,1086.8 L1521.8,1193.2 L1513.1,1308.1 L1477.4,1417.5 L1407.9,1505.5 L1306.5,1558.9 L1183.5,1571.9 L1053.1,1548.4 L928.3,1500.8 L816.9,1445.8 L719.0,1398.6 L629.6,1368.6 L541.6,1356.1 L450.1,1353.9 L355.2,1350.7 L261.5,1335.8 L176.0,1303.4 L104.0,1253.7 L46.2,1192.4 L-1.5,1127.4 L-46.8,1065.1 L-97.4,1008.3 L-157.3,955.8 L-225.2,903.2 L-295.1,846.3 L-359.1,782.1 L-411.0,710.4 L-448.4,632.7 L-473.5,551.0 L-490.3,466.4 L-501.7,378.8 L-506.3,288.3 L-498.0,196.6 L-467.6,108.3 L-407.1,30.9 L-313.6,-27.5 L-192.6,-60.9 L-56.5,-69.4 L78.4,-59.8 L197.2,-45.1 L291.9,-40.8 L363.2,-59.4 L420.1,-106.0 L475.4,-176.3 L540.8,-257.7 L622.3,-333.0 L719.0,-387.0 L824.1,-410.2 L929.1,-402.4 L1027.8,-370.9 L1118.6,-327.2 L1204.8,-282.5 L1292.0,-243.0 L1384.2,-209.0 L1480.9,-175.4 L1576.8,-135.2 L1663.0,-82.7 L1730.9,-15.8 L1775.7,63.0 L1797.7,148.6 L1802.3,235.6 L1796.9,320.0 L1787.1,400.3 L1775.1,477.1 L1758.5,551.0 Z"/>
<path class="c" d="M1816.2,551.0 L1789.5,625.9 L1750.7,696.5 L1701.3,761.6 L1648.3,821.6 L1601.7,880.3 L1570.7,944.4 L1558.9,1021.5 L1561.6,1116.6 L1566.4,1228.9 L1557.2,1350.1 L1519.6,1465.7 L1446.1,1558.6 L1339.1,1614.9 L1209.3,1628.6 L1071.6,1603.8 L940.0,1553.6 L822.3,1495.5 L719.0,1445.7 L624.6,1414.0 L531.7,1400.8 L435.1,1398.5 L335.0,1395.1 L236.1,1379.4 L145.9,1345.2 L69.8,1292.7 L8.9,1228.1 L-41.5,1159.4 L-89.4,1093.6 L-142.8,1033.7 L-206.0,978.2 L-277.6,922.8 L-351.4,862.7 L-419.0,794.9 L-473.7,719.2 L-513.3,637.2 L-539.8,551.0 L-557.5,461.7 L-569.5,369.2 L-574.4,273.7 L-565.6,176.9 L-533.5,83.7 L-469.6,2.0 L-371.0,-59.6 L-243.2,-94.9 L-99.5,-103.8 L42.8,-93.7 L168.2,-78.3 L268.1,-73.7 L343.4,-93.3 L403.5,-142.5 L461.9,-216.7 L530.9,-302.6 L616.9,-382.2 L719.0,-439.1 L830.0,-463.6 L940.8,-455.4 L1044.9,-422.1 L1140.8,-376.0 L1231.8,-328.8 L1323.9,-287.1 L1421.1,-251.2 L1523.3,-215.8 L1624.4,-173.4 L1715.4,-117.9 L1787.1,-47.3 L1834.4,35.8 L1857.6,126.2 L1862.5,218.0 L1856.7,307.1 L1846.5,392.0 L1833.8,473.0 L1816.2,551.0 Z"/>
<path class="ix" d="M1874.0,551.0 L1845.9,629.9 L1805.0,704.2 L1753.0,772.6 L1697.2,835.8 L1648.2,897.6 L1615.6,965.1 L1603.1,1046.3 L1605.9,1146.4 L1611.0,1264.6 L1601.3,1392.2 L1561.7,1513.8 L1484.4,1611.6 L1371.8,1670.9 L1235.1,1685.3 L1090.2,1659.2 L951.6,1606.3 L827.7,1545.2 L719.0,1492.8 L619.7,1459.4 L521.8,1445.5 L420.2,1443.1 L314.8,1439.5 L210.7,1423.0 L115.7,1387.0 L35.6,1331.8 L-28.5,1263.7 L-81.5,1191.4 L-131.9,1122.2 L-188.1,1059.1 L-254.7,1000.7 L-330.1,942.4 L-407.8,879.1 L-478.9,807.8 L-536.5,728.1 L-578.1,641.8 L-606.0,551.0 L-624.7,457.0 L-637.3,359.7 L-642.5,259.2 L-633.3,157.3 L-599.5,59.2 L-532.2,-26.9 L-428.4,-91.7 L-293.9,-128.9 L-142.6,-138.3 L7.2,-127.6 L139.2,-111.4 L244.4,-106.6 L323.7,-127.2 L386.9,-179.0 L448.3,-257.1 L521.0,-347.5 L611.6,-431.3 L719.0,-491.2 L835.8,-517.0 L952.5,-508.3 L1062.1,-473.3 L1163.0,-424.8 L1258.8,-375.1 L1355.7,-331.2 L1458.1,-293.4 L1565.6,-256.1 L1672.1,-211.5 L1767.9,-153.1 L1843.4,-78.8 L1893.1,8.7 L1917.5,103.9 L1922.7,200.5 L1916.6,294.3 L1905.8,383.6 L1892.4,468.9 L1874.0,551.0 Z"/>
<path class="c" d="M1931.7,551.0 L1902.2,633.8 L1859.3,711.9 L1804.7,783.7 L1746.1,850.1 L1694.6,915.0 L1660.4,985.8 L1647.3,1071.0 L1650.3,1176.1 L1655.6,1300.3 L1645.4,1434.3 L1603.8,1562.0 L1522.7,1664.6 L1404.4,1726.9 L1260.9,1742.1 L1108.8,1714.7 L963.2,1659.1 L833.2,1594.9 L719.0,1539.9 L614.7,1504.8 L512.0,1490.2 L405.3,1487.7 L294.5,1484.0 L185.3,1466.6 L85.5,1428.8 L1.5,1370.8 L-65.9,1299.3 L-121.6,1223.4 L-174.5,1150.8 L-233.5,1084.6 L-303.4,1023.2 L-382.6,961.9 L-464.1,895.5 L-538.8,820.6 L-599.3,737.0 L-643.0,646.3 L-672.3,551.0 L-691.9,452.3 L-705.2,350.1 L-710.6,244.6 L-700.9,137.6 L-665.4,34.6 L-594.7,-55.8 L-485.7,-123.9 L-344.5,-162.9 L-185.7,-172.8 L-28.4,-161.6 L110.3,-144.5 L220.7,-139.5 L303.9,-161.1 L370.3,-215.5 L434.8,-297.6 L511.1,-392.4 L606.2,-480.4 L719.0,-543.3 L841.6,-570.4 L964.2,-561.3 L1079.2,-524.5 L1185.2,-473.6 L1285.8,-421.4 L1387.5,-375.3 L1495.0,-335.6 L1607.9,-296.5 L1719.7,-249.6 L1820.3,-188.3 L1899.6,-110.3 L1951.8,-18.4 L1977.5,81.5 L1982.9,183.0 L1976.5,281.4 L1965.2,375.2 L1951.1,464.8 L1931.7,551.0 Z"/>
<path class="c" d="M1989.5,551.0 L1958.6,637.8 L1913.6,719.5 L1856.4,794.8 L1795.0,864.3 L1741.1,932.3 L1705.2,1006.5 L1691.5,1095.8 L1694.6,1205.9 L1700.2,1336.0 L1689.5,1476.3 L1646.0,1610.1 L1561.0,1717.7 L1437.1,1782.9 L1286.7,1798.8 L1127.3,1770.1 L974.9,1711.9 L838.6,1644.6 L719.0,1587.0 L609.7,1550.2 L502.1,1535.0 L390.3,1532.3 L274.3,1528.4 L159.9,1510.2 L55.4,1470.6 L-32.7,1409.8 L-103.3,1335.0 L-161.6,1255.5 L-217.0,1179.3 L-278.9,1110.0 L-352.1,1045.7 L-435.0,981.5 L-520.4,911.9 L-598.7,833.5 L-662.1,745.8 L-707.8,650.9 L-738.5,551.0 L-759.1,447.5 L-773.0,340.5 L-778.6,230.0 L-768.5,117.9 L-731.3,10.0 L-657.3,-84.7 L-543.1,-156.0 L-395.2,-196.9 L-228.8,-207.2 L-64.0,-195.5 L81.3,-177.6 L197.0,-172.4 L284.1,-195.0 L353.7,-252.0 L421.3,-338.0 L501.2,-437.4 L600.8,-529.5 L719.0,-595.4 L847.5,-623.8 L975.8,-614.3 L1096.4,-575.7 L1207.4,-522.4 L1312.8,-467.7 L1419.4,-419.5 L1532.0,-377.9 L1650.2,-336.9 L1767.4,-287.7 L1872.8,-223.5 L1955.8,-141.8 L2010.5,-45.5 L2037.4,59.2 L2043.1,165.5 L2036.4,268.6 L2024.5,366.8 L2009.8,460.7 L1989.5,551.0 Z"/>
<path class="c" d="M2047.2,551.0 L2014.9,641.7 L1967.9,727.2 L1908.1,805.9 L1843.9,878.5 L1787.6,949.6 L1750.1,1027.2 L1735.7,1120.5 L1739.0,1235.7 L1744.8,1371.6 L1733.7,1518.4 L1688.1,1658.2 L1599.2,1770.7 L1469.7,1838.9 L1312.5,1855.5 L1145.9,1825.5 L986.5,1764.7 L844.0,1694.3 L719.0,1634.1 L604.8,1595.7 L492.3,1579.7 L375.4,1576.9 L254.1,1572.8 L134.5,1553.8 L25.2,1512.4 L-66.9,1448.9 L-140.7,1370.6 L-201.6,1287.5 L-259.6,1207.9 L-324.2,1135.4 L-400.7,1068.2 L-487.5,1001.1 L-576.8,928.3 L-658.6,846.3 L-724.8,754.7 L-772.7,655.4 L-804.8,551.0 L-826.2,442.8 L-840.8,331.0 L-846.7,215.4 L-836.1,98.2 L-797.2,-14.6 L-719.9,-113.6 L-600.5,-188.1 L-445.8,-230.9 L-271.9,-241.7 L-99.6,-229.4 L52.3,-210.7 L173.2,-205.2 L264.4,-228.9 L337.1,-288.5 L407.7,-378.4 L491.3,-482.3 L595.5,-578.6 L719.0,-647.5 L853.3,-677.2 L987.5,-667.2 L1113.5,-626.9 L1229.6,-571.2 L1339.8,-514.0 L1451.2,-463.6 L1569.0,-420.1 L1692.6,-377.2 L1815.1,-325.8 L1925.2,-258.7 L2012.0,-173.3 L2069.2,-72.6 L2097.3,36.8 L2103.2,147.9 L2096.3,255.8 L2083.8,358.5 L2068.4,456.6 L2047.2,551.0 Z"/>
<path class="ix" d="M2105.0,551.0 L2071.3,645.6 L2022.2,734.8 L1959.8,817.0 L1892.8,892.8 L1834.0,967.0 L1794.9,1047.9 L1779.9,1145.3 L1783.3,1265.4 L1789.4,1407.3 L1777.8,1560.4 L1730.3,1706.4 L1637.5,1823.7 L1502.3,1894.9 L1338.3,1912.2 L1164.4,1880.9 L998.1,1817.4 L849.5,1744.0 L719.0,1681.2 L599.8,1641.1 L482.4,1624.4 L360.4,1621.5 L233.9,1617.2 L109.1,1597.4 L-5.0,1554.2 L-101.1,1487.9 L-178.0,1406.2 L-241.6,1319.5 L-302.1,1236.4 L-369.6,1160.8 L-449.4,1090.7 L-539.9,1020.6 L-633.1,944.7 L-718.5,859.1 L-787.6,763.5 L-837.6,659.9 L-871.0,551.0 L-893.4,438.1 L-908.6,321.4 L-914.8,200.8 L-903.7,78.5 L-863.2,-39.2 L-782.4,-142.5 L-657.9,-220.3 L-496.4,-264.9 L-314.9,-276.2 L-135.2,-263.4 L23.3,-243.9 L149.5,-238.1 L244.6,-262.9 L320.5,-325.0 L394.2,-418.8 L481.4,-527.2 L590.1,-627.7 L719.0,-699.6 L859.2,-730.7 L999.2,-720.2 L1130.7,-678.2 L1251.8,-620.0 L1366.8,-560.3 L1483.0,-507.7 L1605.9,-462.3 L1734.9,-417.6 L1862.7,-364.0 L1977.6,-293.9 L2068.2,-204.8 L2127.9,-99.7 L2157.2,14.5 L2163.4,130.4 L2156.1,242.9 L2143.2,350.1 L2127.1,452.4 L2105.0,551.0 Z"/>
<path class="c" d="M2162.7,551.0 L2127.6,649.6 L2076.5,742.5 L2011.5,828.1 L1941.7,907.0 L1880.5,984.3 L1839.7,1068.6 L1824.1,1170.1 L1827.7,1295.2 L1834.0,1443.0 L1821.9,1602.5 L1772.4,1754.5 L1675.8,1876.7 L1535.0,1950.9 L1364.1,1968.9 L1183.0,1936.3 L1009.8,1870.2 L854.9,1793.7 L719.0,1728.3 L594.8,1686.5 L472.5,1669.2 L345.5,1666.1 L213.7,1661.7 L83.6,1641.0 L-35.1,1595.9 L-135.2,1527.0 L-215.4,1441.9 L-281.7,1351.5 L-344.7,1265.0 L-414.9,1186.2 L-498.1,1113.2 L-592.4,1040.2 L-689.4,961.1 L-778.3,872.0 L-850.4,772.4 L-902.4,664.5 L-937.3,551.0 L-960.6,433.4 L-976.4,311.8 L-982.9,186.2 L-971.3,58.8 L-929.1,-63.8 L-845.0,-171.4 L-715.2,-252.4 L-547.1,-298.9 L-358.0,-310.6 L-170.8,-297.3 L-5.7,-277.0 L125.8,-271.0 L224.8,-296.8 L303.8,-361.5 L380.7,-459.2 L471.5,-572.1 L584.7,-676.8 L719.0,-751.7 L865.0,-784.1 L1010.9,-773.2 L1147.8,-729.4 L1274.0,-668.8 L1393.8,-606.6 L1514.9,-551.8 L1642.9,-504.5 L1777.2,-457.9 L1910.4,-402.1 L2030.1,-329.1 L2124.4,-236.3 L2186.6,-126.8 L2217.2,-7.9 L2223.6,112.9 L2216.0,230.1 L2202.5,341.7 L2185.8,448.3 L2162.7,551.0 Z"/>
<path class="c" d="M2220.5,551.0 L2183.9,653.5 L2130.8,750.1 L2063.2,839.1 L1990.6,921.3 L1926.9,1001.6 L1884.5,1089.3 L1868.4,1194.8 L1872.0,1325.0 L1878.6,1478.7 L1866.0,1644.6 L1814.5,1802.7 L1714.0,1929.8 L1567.6,2006.9 L1389.9,2025.6 L1201.6,1991.7 L1021.4,1923.0 L860.3,1843.4 L719.0,1775.4 L589.9,1731.9 L462.7,1713.9 L330.6,1710.7 L193.5,1706.1 L58.2,1684.6 L-65.3,1637.7 L-169.4,1566.0 L-252.8,1477.5 L-321.7,1383.6 L-387.2,1293.6 L-460.3,1211.6 L-546.8,1135.6 L-644.8,1059.8 L-745.8,977.5 L-838.2,884.8 L-913.2,781.2 L-967.3,669.0 L-1003.5,551.0 L-1027.8,428.7 L-1044.2,302.3 L-1050.9,171.6 L-1038.9,39.1 L-995.0,-88.4 L-907.5,-200.3 L-772.6,-284.5 L-597.7,-332.9 L-401.1,-345.1 L-206.3,-331.2 L-34.7,-310.1 L102.0,-303.9 L205.1,-330.7 L287.2,-398.0 L367.1,-499.6 L461.5,-617.1 L579.4,-726.0 L719.0,-803.8 L870.8,-837.5 L1022.5,-826.1 L1165.0,-780.6 L1296.2,-717.6 L1420.7,-652.9 L1546.7,-595.9 L1679.8,-546.8 L1819.6,-498.3 L1958.0,-440.2 L2082.5,-364.3 L2180.7,-267.8 L2245.3,-154.0 L2277.1,-30.2 L2283.8,95.4 L2275.9,217.3 L2261.9,333.4 L2244.5,444.2 L2220.5,551.0 Z"/>
<path class="c" d="M2278.2,551.0 L2240.3,657.5 L2185.1,757.8 L2114.9,850.2 L2039.6,935.5 L1973.4,1018.9 L1929.4,1110.0 L1912.6,1219.6 L1916.3,1354.8 L1923.2,1514.4 L1910.1,1686.6 L1856.7,1850.8 L1752.3,1982.8 L1600.2,2062.9 L1415.7,2082.4 L1220.1,2047.1 L1033.0,1975.7 L865.8,1893.1 L719.0,1822.4 L584.9,1777.3 L452.8,1758.6 L315.6,1755.3 L173.3,1750.5 L32.8,1728.2 L-95.5,1679.5 L-203.6,1605.0 L-290.2,1513.1 L-361.7,1415.6 L-429.7,1322.1 L-505.6,1237.0 L-595.5,1158.1 L-697.3,1079.3 L-802.1,993.9 L-898.1,897.6 L-975.9,790.1 L-1032.1,673.6 L-1069.8,551.0 L-1095.0,424.0 L-1112.1,292.7 L-1119.0,157.0 L-1106.5,19.4 L-1060.9,-113.0 L-970.1,-229.2 L-830.0,-316.7 L-648.4,-366.9 L-444.2,-379.6 L-241.9,-365.2 L-63.7,-343.2 L78.3,-336.8 L185.3,-364.6 L270.6,-434.5 L353.6,-540.0 L451.6,-662.0 L574.0,-775.1 L719.0,-856.0 L876.7,-890.9 L1034.2,-879.1 L1182.2,-831.8 L1318.4,-766.4 L1447.7,-699.2 L1578.5,-640.0 L1716.8,-589.0 L1861.9,-538.6 L2005.7,-478.3 L2135.0,-399.5 L2236.9,-299.3 L2304.0,-181.1 L2337.0,-52.6 L2344.0,77.8 L2335.8,204.4 L2321.2,325.0 L2303.1,440.1 L2278.2,551.0 Z"/>
<path class="ix" d="M2336.0,551.0 L2296.6,661.4 L2239.4,765.5 L2166.6,861.3 L2088.5,949.8 L2019.8,1036.3 L1974.2,1130.8 L1956.8,1244.4 L1960.7,1384.5 L1967.8,1550.0 L1954.2,1728.7 L1898.8,1898.9 L1790.6,2035.8 L1632.9,2118.9 L1441.5,2139.1 L1238.7,2102.5 L1044.7,2028.5 L871.2,1942.8 L719.0,1869.5 L579.9,1822.8 L443.0,1803.3 L300.7,1799.9 L153.1,1794.9 L7.4,1771.8 L-125.6,1721.3 L-237.7,1644.1 L-327.5,1548.8 L-401.7,1447.6 L-472.3,1350.7 L-551.0,1262.4 L-644.2,1180.6 L-749.7,1098.9 L-858.5,1010.3 L-958.0,910.5 L-1038.7,798.9 L-1097.0,678.1 L-1136.0,551.0 L-1162.2,419.3 L-1179.9,283.1 L-1187.1,142.4 L-1174.2,-0.2 L-1126.9,-137.6 L-1032.6,-258.0 L-887.3,-348.8 L-699.0,-400.9 L-487.3,-414.0 L-277.5,-399.1 L-92.7,-376.3 L54.6,-369.6 L165.6,-398.5 L254.0,-471.0 L340.1,-580.4 L441.7,-706.9 L568.6,-824.2 L719.0,-908.1 L882.5,-944.3 L1045.9,-932.1 L1199.3,-883.0 L1340.5,-815.2 L1474.7,-745.5 L1610.4,-684.1 L1753.7,-631.2 L1904.2,-579.0 L2053.3,-516.5 L2187.4,-434.7 L2293.1,-330.8 L2362.7,-208.2 L2397.0,-75.0 L2404.2,60.3 L2395.7,191.6 L2380.6,316.6 L2361.8,436.0 L2336.0,551.0 Z"/>
<path class="c" d="M2393.7,551.0 L2353.0,665.4 L2293.7,773.1 L2218.3,872.4 L2137.4,964.0 L2066.3,1053.6 L2019.0,1151.5 L2001.0,1269.1 L2005.0,1414.3 L2012.4,1585.7 L1998.4,1770.7 L1940.9,1947.1 L1828.9,2088.9 L1665.5,2174.9 L1467.3,2195.8 L1257.2,2158.0 L1056.3,2081.3 L876.6,1992.6 L719.0,1916.6 L575.0,1868.2 L433.1,1848.1 L285.7,1844.5 L132.8,1839.4 L-18.0,1815.4 L-155.8,1763.1 L-271.9,1683.1 L-364.9,1584.4 L-441.8,1479.6 L-514.8,1379.3 L-596.4,1287.8 L-692.8,1203.1 L-802.2,1118.5 L-914.8,1026.7 L-1017.9,923.3 L-1101.5,807.8 L-1161.8,682.6 L-1202.3,551.0 L-1229.3,414.6 L-1247.7,273.6 L-1255.2,127.8 L-1241.8,-19.9 L-1192.8,-162.2 L-1095.2,-286.9 L-944.7,-380.9 L-749.7,-434.9 L-530.4,-448.5 L-313.1,-433.0 L-121.7,-409.5 L30.9,-402.5 L145.8,-432.4 L237.4,-507.5 L326.5,-620.8 L431.8,-751.8 L563.2,-873.3 L719.0,-960.2 L888.4,-997.7 L1057.6,-985.0 L1216.5,-934.2 L1362.7,-863.9 L1501.7,-791.8 L1642.2,-728.2 L1790.7,-673.4 L1946.6,-619.4 L2101.0,-554.6 L2239.9,-469.9 L2349.3,-362.2 L2421.4,-235.3 L2456.9,-97.3 L2464.3,42.8 L2455.5,178.8 L2439.9,308.2 L2420.5,431.9 L2393.7,551.0 Z"/>
<path class="c" d="M2451.5,551.0 L2409.3,669.3 L2348.0,780.8 L2270.0,883.5 L2186.3,978.2 L2112.8,1070.9 L2063.9,1172.2 L2045.2,1293.9 L2049.4,1444.1 L2057.0,1621.4 L2042.5,1812.8 L1983.1,1995.2 L1867.1,2141.9 L1698.2,2230.9 L1493.1,2252.5 L1275.8,2213.4 L1067.9,2134.0 L882.1,2042.3 L719.0,1963.7 L570.0,1913.6 L423.3,1892.8 L270.8,1889.1 L112.6,1883.8 L-43.4,1859.0 L-186.0,1804.9 L-306.1,1722.2 L-402.3,1620.0 L-481.8,1511.6 L-557.4,1407.8 L-641.7,1313.2 L-741.5,1225.6 L-854.7,1138.0 L-971.1,1043.1 L-1077.8,936.2 L-1164.3,816.7 L-1226.7,687.2 L-1268.5,551.0 L-1296.5,409.9 L-1315.5,264.0 L-1323.2,113.2 L-1309.4,-39.6 L-1258.7,-186.8 L-1157.8,-315.8 L-1002.1,-413.1 L-800.3,-468.9 L-573.4,-482.9 L-348.7,-466.9 L-150.6,-442.6 L7.1,-435.4 L126.0,-466.3 L220.8,-544.0 L313.0,-661.2 L421.9,-796.8 L557.9,-922.4 L719.0,-1012.3 L894.2,-1051.1 L1069.2,-1038.0 L1233.6,-985.5 L1384.9,-912.7 L1528.7,-838.1 L1674.0,-772.4 L1827.6,-715.6 L1988.9,-659.7 L2148.6,-592.7 L2292.3,-505.1 L2405.5,-393.7 L2480.1,-262.4 L2516.8,-119.7 L2524.5,25.3 L2515.4,165.9 L2499.2,299.9 L2479.1,427.8 L2451.5,551.0 Z"/>
<text class="ct" x="453" y="549" text-anchor="middle">6,200</text>
<text class="ct" x="621" y="217" text-anchor="middle">5,400</text>
<circle class="dot" cx="719" cy="527" r="2.4"/>
<text class="pk" x="719" y="547" text-anchor="middle">MOUNT SANITAS</text>
<text class="el" x="719" y="568" text-anchor="middle">6,863&#8242;</text>
</svg>