<svg xmlns="http://www.w3.org/2000/svg" width="2000" height="1400" viewBox="0 0 2000 1400">
<style>
  .c  { fill:none; stroke:#2A1B11; stroke-opacity:0.07; stroke-width:1.1; }
  .ix { fill:none; stroke:#2A1B11; stroke-opacity:0.12; stroke-width:1.6; }
  .ct { font:500 10px 'IBM Plex Mono',ui-monospace,monospace; fill:#2A1B11; fill-opacity:0.32;
        stroke:#F4ECDB; stroke-width:3; paint-order:stroke; }
  .pk { font:600 11.5px 'Inter Tight','Helvetica Neue',sans-serif; letter-spacing:0.15em; fill:#2A1B11; fill-opacity:0.2; }
  .el { font:500 10.5px 'IBM Plex Mono',ui-monospace,monospace; fill:#9C6A33; fill-opacity:0.34; }
  .dot { fill:#2A1B11; fill-opacity:0.24; }
</style>
<path class="c" d="M918.9,669.0 L919.2,673.1 L918.8,677.2 L917.9,681.2 L917.1,685.3 L916.5,689.7 L916.3,694.6 L916.3,700.0 L915.7,705.7 L913.8,711.3 L910.2,715.9 L904.7,719.0 L897.8,719.9 L890.0,718.8 L882.5,716.2 L875.7,713.0 L870.1,710.1 L865.3,708.5 L861.0,708.3 L856.6,709.5 L851.7,711.3 L846.3,713.0 L840.6,713.8 L835.1,713.5 L830.0,712.0 L825.4,709.7 L821.2,706.9 L817.1,704.1 L812.9,701.3 L808.5,698.4 L804.1,695.3 L800.1,691.7 L797.0,687.6 L795.1,683.1 L794.3,678.4 L794.3,673.7 L794.9,669.0 L795.7,664.4 L796.7,659.9 L798.2,655.5 L800.5,651.4 L804.1,647.8 L808.9,645.0 L814.7,643.1 L820.7,641.9 L826.2,641.1 L830.5,639.9 L833.6,637.7 L835.8,634.0 L837.6,628.9 L840.1,623.0 L843.6,617.2 L848.5,612.4 L854.5,609.6 L861.0,609.1 L867.4,610.6 L873.2,613.6 L878.4,617.1 L883.0,620.6 L887.5,623.6 L892.0,626.1 L896.5,628.4 L900.9,630.9 L904.8,633.9 L907.9,637.5 L910.0,641.5 L911.4,645.7 L912.5,649.8 L913.5,653.7 L914.8,657.5 L916.4,661.2 L917.9,665.0 L918.9,669.0 Z"/>
<path class="c" d="M976.8,669.0 L977.4,677.1 L976.6,685.3 L974.9,693.4 L973.1,701.6 L972.0,710.4 L971.7,720.1 L971.5,730.9 L970.4,742.4 L966.7,753.5 L959.5,762.9 L948.5,768.9 L934.5,770.9 L919.1,768.7 L904.0,763.4 L890.5,756.9 L879.1,751.3 L869.6,747.9 L861.0,747.6 L852.1,749.9 L842.4,753.6 L831.5,756.9 L820.2,758.6 L809.1,758.0 L798.9,755.0 L789.8,750.3 L781.4,744.8 L773.3,739.2 L764.8,733.6 L755.9,727.9 L747.1,721.6 L739.2,714.4 L733.0,706.3 L729.1,697.3 L727.5,687.8 L727.7,678.3 L728.8,669.0 L730.4,659.9 L732.4,650.9 L735.3,642.1 L740.1,633.8 L747.2,626.6 L756.9,620.9 L768.4,617.1 L780.4,614.9 L791.3,613.3 L800.0,610.9 L806.2,606.4 L810.5,599.1 L814.3,588.9 L819.1,577.0 L826.3,565.3 L836.1,555.9 L848.0,550.3 L861.0,549.2 L873.8,552.3 L885.4,558.2 L895.7,565.3 L905.0,572.2 L913.9,578.2 L922.9,583.2 L932.1,587.8 L940.9,592.9 L948.6,598.9 L954.8,606.1 L959.1,614.1 L961.9,622.4 L963.9,630.6 L966.1,638.4 L968.7,645.9 L971.8,653.4 L974.7,661.0 L976.8,669.0 Z"/>
<path class="c" d="M1034.7,669.0 L1035.6,681.2 L1034.4,693.5 L1031.8,705.6 L1029.2,718.0 L1027.5,731.1 L1027.0,745.7 L1026.8,761.9 L1025.0,779.1 L1019.5,795.8 L1008.7,809.8 L992.2,818.9 L971.3,821.8 L948.1,818.5 L925.4,810.6 L905.2,800.9 L888.2,792.4 L873.9,787.4 L861.0,786.9 L847.7,790.4 L833.0,795.8 L816.8,800.9 L799.8,803.5 L783.2,802.5 L767.9,798.0 L754.2,791.0 L741.7,782.8 L729.4,774.3 L716.7,765.9 L703.4,757.3 L690.2,747.9 L678.3,737.2 L669.0,724.9 L663.2,711.4 L660.8,697.2 L661.0,683.0 L662.7,669.0 L665.1,655.3 L668.1,641.8 L672.5,628.6 L679.6,616.2 L690.3,605.3 L704.8,596.9 L722.1,591.2 L740.1,587.8 L756.5,585.4 L769.6,581.8 L778.9,575.1 L785.3,564.1 L790.9,548.8 L798.2,531.0 L808.9,513.5 L823.6,499.3 L841.5,490.9 L861.0,489.3 L880.1,493.9 L897.6,502.8 L913.1,513.4 L927.1,523.8 L940.4,532.8 L953.9,540.3 L967.6,547.2 L980.8,554.8 L992.5,563.8 L1001.7,574.6 L1008.1,586.6 L1012.3,599.1 L1015.4,611.4 L1018.6,623.1 L1022.5,634.4 L1027.1,645.6 L1031.6,657.1 L1034.7,669.0 Z"/>
<path class="ix" d="M1092.6,669.0 L1093.9,685.3 L1092.2,701.6 L1088.8,717.8 L1085.2,734.3 L1083.0,751.8 L1082.3,771.2 L1082.1,792.8 L1079.7,815.8 L1072.4,838.1 L1057.9,856.7 L1036.0,868.9 L1008.0,872.7 L977.2,868.4 L946.9,857.9 L919.9,844.9 L897.3,833.5 L878.3,826.9 L861.0,826.3 L843.3,830.9 L823.7,838.1 L802.1,844.9 L779.4,848.3 L757.3,847.0 L736.9,841.0 L718.6,831.7 L701.9,820.7 L685.6,809.4 L668.6,798.2 L650.8,786.7 L633.2,774.2 L617.4,759.9 L605.0,743.5 L597.3,725.5 L594.1,706.7 L594.3,687.7 L596.6,669.0 L599.7,650.7 L603.8,632.7 L609.7,615.1 L619.1,598.6 L633.4,584.1 L652.8,572.8 L675.8,565.2 L699.8,560.8 L721.6,557.5 L739.1,552.8 L751.5,543.9 L760.0,529.1 L767.6,508.7 L777.3,485.0 L791.5,461.6 L811.1,442.7 L835.0,431.6 L861.0,429.5 L886.5,435.6 L909.9,447.4 L930.5,461.6 L949.1,475.4 L966.9,487.3 L984.9,497.4 L1003.1,506.6 L1020.7,516.7 L1036.3,528.8 L1048.5,543.1 L1057.1,559.1 L1062.8,575.8 L1066.9,592.2 L1071.1,607.8 L1076.4,622.8 L1082.5,637.8 L1088.4,653.1 L1092.6,669.0 Z"/>
<path class="c" d="M1150.5,669.0 L1152.1,689.4 L1150.0,709.8 L1145.7,730.0 L1141.3,750.6 L1138.5,772.5 L1137.7,796.8 L1137.3,823.8 L1134.4,852.5 L1125.2,880.4 L1107.2,903.7 L1079.7,918.9 L1044.8,923.7 L1006.2,918.2 L968.4,905.1 L934.6,888.9 L906.3,874.6 L882.6,866.3 L861.0,865.6 L838.9,871.3 L814.4,880.4 L787.4,888.8 L759.0,893.1 L731.3,891.5 L705.8,884.0 L683.0,872.4 L662.1,858.6 L641.7,844.4 L620.5,830.5 L598.3,816.2 L576.3,800.5 L556.4,782.6 L541.0,762.2 L531.3,739.7 L527.3,716.1 L527.6,692.3 L530.5,669.0 L534.4,646.1 L539.5,623.6 L546.9,601.7 L558.7,581.0 L576.5,562.9 L600.7,548.8 L629.5,539.3 L659.4,533.7 L686.8,529.6 L708.6,523.7 L724.1,512.6 L734.8,494.1 L744.2,468.7 L756.3,439.0 L774.2,409.8 L798.7,386.2 L828.5,372.2 L861.0,369.6 L892.9,377.2 L922.1,391.9 L947.8,409.7 L971.1,427.0 L993.4,441.9 L1015.8,454.5 L1038.6,466.1 L1060.6,478.7 L1080.1,493.7 L1095.4,511.6 L1106.2,531.7 L1113.2,552.5 L1118.4,573.0 L1123.6,592.5 L1130.2,611.3 L1137.9,629.9 L1145.3,649.1 L1150.5,669.0 Z"/>
<path class="c" d="M1208.4,669.0 L1210.3,693.4 L1207.9,717.9 L1202.7,742.2 L1197.3,766.9 L1193.9,793.2 L1193.0,822.3 L1192.6,854.8 L1189.1,889.2 L1178.0,922.6 L1156.4,950.6 L1123.4,968.8 L1081.6,974.6 L1035.3,968.0 L989.9,952.3 L949.4,932.8 L915.4,915.8 L886.9,905.8 L861.0,904.9 L834.4,911.8 L805.1,922.7 L772.6,932.8 L738.6,937.9 L705.4,936.0 L674.8,927.0 L647.4,913.0 L622.3,896.5 L597.8,879.5 L572.4,862.7 L545.8,845.6 L519.3,826.8 L495.5,805.3 L477.0,780.8 L465.4,753.8 L460.6,725.5 L461.0,697.0 L464.4,669.0 L469.1,641.6 L475.2,614.6 L484.0,588.2 L498.2,563.4 L519.7,541.7 L548.7,524.7 L583.2,513.4 L619.1,506.6 L652.0,501.8 L678.1,494.7 L696.7,481.3 L709.6,459.2 L720.9,428.6 L735.4,393.0 L756.8,357.9 L786.2,329.6 L822.1,312.8 L861.0,309.7 L899.3,318.8 L934.3,336.5 L965.2,357.9 L993.1,378.6 L1019.8,396.5 L1046.8,411.5 L1074.2,425.5 L1100.6,440.6 L1123.9,458.7 L1142.3,480.2 L1155.2,504.2 L1163.6,529.2 L1169.8,553.8 L1176.2,577.2 L1184.1,599.7 L1193.3,622.1 L1202.1,645.1 L1208.4,669.0 Z"/>
<path class="c" d="M1266.2,669.0 L1268.5,697.5 L1265.7,726.1 L1259.6,754.5 L1253.4,783.3 L1249.4,813.9 L1248.3,847.9 L1247.9,885.7 L1243.7,925.9 L1230.9,964.9 L1205.6,997.6 L1167.2,1018.8 L1118.3,1025.5 L1064.3,1017.9 L1011.4,999.5 L964.1,976.8 L924.5,956.9 L891.2,945.2 L861.0,944.2 L830.0,952.2 L795.8,965.0 L757.9,976.8 L718.3,982.8 L679.5,980.4 L643.8,970.0 L611.8,953.7 L582.6,934.5 L554.0,914.6 L524.3,895.0 L493.2,875.0 L462.4,853.1 L434.6,828.1 L413.0,799.4 L399.5,767.9 L393.9,734.9 L394.3,701.7 L398.2,669.0 L403.8,637.0 L410.9,605.5 L421.2,574.7 L437.7,545.8 L462.8,520.4 L496.6,500.7 L536.8,487.4 L578.8,479.6 L617.1,473.9 L647.7,465.6 L669.3,450.0 L684.3,424.2 L697.5,388.5 L714.5,347.0 L739.4,306.1 L773.7,273.0 L815.6,253.5 L861.0,249.8 L905.7,260.5 L946.5,281.1 L982.6,306.0 L1015.1,330.2 L1046.3,351.1 L1077.8,368.6 L1109.7,384.9 L1140.5,402.5 L1167.7,423.6 L1189.2,448.7 L1204.2,476.7 L1214.1,505.9 L1221.3,534.6 L1228.7,561.9 L1237.9,588.2 L1248.7,614.3 L1259.0,641.1 L1266.2,669.0 Z"/>
<path class="ix" d="M1324.1,669.0 L1326.7,701.6 L1323.5,734.2 L1316.6,766.7 L1309.5,799.6 L1304.9,834.6 L1303.6,873.4 L1303.1,916.7 L1298.4,962.6 L1283.7,1007.2 L1254.8,1044.5 L1210.9,1068.8 L1155.1,1076.5 L1093.4,1067.7 L1032.8,1046.7 L978.8,1020.8 L933.5,998.0 L895.5,984.7 L861.0,983.5 L825.6,992.7 L786.4,1007.3 L743.2,1020.7 L697.9,1027.6 L653.5,1024.9 L612.7,1013.0 L576.2,994.4 L542.8,972.4 L510.1,949.7 L476.2,927.3 L440.7,904.5 L405.4,879.4 L373.7,850.8 L349.1,818.1 L333.6,782.1 L327.1,744.3 L327.6,706.3 L332.1,669.0 L338.5,632.4 L346.5,596.4 L358.4,561.3 L377.3,528.2 L405.9,499.2 L444.5,476.6 L490.5,461.5 L538.5,452.5 L582.3,446.0 L617.2,436.6 L641.9,418.7 L659.1,389.2 L674.2,348.5 L693.6,301.0 L722.1,254.2 L761.3,216.5 L809.1,194.1 L861.0,189.9 L912.1,202.1 L958.7,225.7 L999.9,254.2 L1037.1,281.8 L1072.8,305.7 L1108.7,325.7 L1145.2,344.3 L1180.4,364.4 L1211.6,388.6 L1236.1,417.2 L1253.3,449.3 L1264.5,482.6 L1272.8,515.4 L1281.2,546.6 L1291.8,576.7 L1304.1,606.5 L1315.9,637.2 L1324.1,669.0 Z"/>
<path class="c" d="M1382.0,669.0 L1384.9,705.7 L1381.3,742.4 L1373.5,778.9 L1365.5,815.9 L1360.4,855.3 L1359.0,899.0 L1358.4,947.6 L1353.1,999.3 L1336.6,1049.5 L1304.1,1091.4 L1254.7,1118.8 L1191.8,1127.4 L1122.4,1117.5 L1054.3,1093.9 L993.6,1064.8 L942.6,1039.1 L899.8,1024.2 L861.0,1022.8 L821.2,1033.2 L777.1,1049.5 L728.5,1064.7 L677.5,1072.4 L627.6,1069.4 L581.7,1056.0 L540.6,1035.0 L503.0,1010.3 L466.2,984.8 L428.1,959.6 L388.1,933.9 L348.5,905.7 L312.8,873.5 L285.1,836.7 L267.6,796.2 L260.4,753.7 L261.0,711.0 L266.0,669.0 L273.2,627.9 L282.2,587.4 L295.6,547.8 L316.8,510.5 L349.0,478.0 L392.5,452.6 L444.2,435.5 L498.2,425.5 L547.4,418.1 L586.7,407.5 L614.6,387.4 L633.8,354.2 L650.8,308.4 L672.6,255.0 L704.7,202.4 L748.8,159.9 L802.6,134.8 L861.0,130.0 L918.4,143.8 L970.9,170.3 L1017.3,202.3 L1059.2,233.4 L1099.2,260.3 L1139.7,282.8 L1180.7,303.7 L1220.4,326.4 L1255.4,353.5 L1283.0,385.7 L1302.3,421.8 L1314.9,459.3 L1324.2,496.2 L1333.8,531.3 L1345.6,565.1 L1359.4,598.7 L1372.7,633.2 L1382.0,669.0 Z"/>
<path class="c" d="M1439.9,669.0 L1443.1,709.7 L1439.1,750.5 L1430.5,791.1 L1421.6,832.2 L1415.9,876.0 L1414.3,924.6 L1413.7,978.6 L1407.8,1036.0 L1389.4,1091.7 L1353.3,1138.4 L1298.4,1168.7 L1228.6,1178.4 L1151.5,1167.4 L1075.8,1141.1 L1008.3,1108.7 L951.6,1080.3 L904.2,1063.6 L861.0,1062.1 L816.7,1073.6 L767.8,1091.8 L713.7,1108.6 L657.1,1117.2 L601.7,1113.9 L550.7,1099.0 L505.0,1075.7 L463.2,1048.2 L422.4,1019.9 L380.0,991.9 L335.6,963.3 L291.5,932.0 L251.9,896.2 L221.1,855.3 L201.7,810.3 L193.7,763.1 L194.3,715.7 L199.9,669.0 L207.9,623.3 L217.9,578.3 L232.7,534.3 L256.3,492.9 L292.1,456.8 L340.4,428.6 L397.9,409.6 L457.9,398.4 L512.6,390.3 L556.2,378.4 L587.2,356.1 L608.6,319.3 L627.5,268.3 L651.7,209.0 L687.3,150.5 L736.3,103.3 L796.1,75.4 L861.0,70.1 L924.8,85.4 L983.1,114.9 L1034.7,150.4 L1081.2,185.0 L1125.7,214.9 L1170.7,239.9 L1216.3,263.1 L1260.3,288.3 L1299.2,318.4 L1329.9,354.3 L1351.3,394.3 L1365.4,436.0 L1375.7,477.0 L1386.3,516.1 L1399.4,553.6 L1414.8,590.9 L1429.6,629.2 L1439.9,669.0 Z"/>
<path class="c" d="M1497.8,669.0 L1501.4,713.8 L1496.9,758.7 L1487.4,803.3 L1477.6,848.5 L1471.4,896.7 L1469.6,950.1 L1468.9,1009.5 L1462.5,1072.7 L1442.2,1134.0 L1402.5,1185.3 L1342.1,1218.7 L1265.4,1229.3 L1180.5,1217.2 L1097.3,1188.3 L1023.0,1152.7 L960.7,1121.4 L908.5,1103.1 L861.0,1101.4 L812.3,1114.1 L758.5,1134.1 L699.0,1152.6 L636.7,1162.0 L575.7,1158.4 L519.6,1142.0 L469.4,1116.4 L423.5,1086.1 L378.5,1055.0 L331.9,1024.2 L283.1,992.7 L234.6,958.3 L191.0,919.0 L157.1,874.0 L135.8,824.5 L126.9,772.5 L127.6,720.3 L133.8,669.0 L142.5,618.7 L153.6,569.2 L169.9,520.9 L195.9,475.3 L235.2,435.5 L288.4,404.5 L351.6,383.7 L417.6,371.3 L477.8,362.4 L525.8,349.4 L559.8,324.9 L583.4,284.3 L604.1,228.3 L630.8,163.0 L670.0,98.7 L723.9,46.8 L789.6,16.1 L861.0,10.2 L931.2,27.1 L995.3,59.5 L1052.1,98.6 L1103.2,136.6 L1152.2,169.4 L1201.6,197.0 L1251.8,222.5 L1300.2,250.2 L1343.0,283.4 L1376.7,322.8 L1400.4,366.9 L1415.8,412.7 L1427.2,457.8 L1438.8,500.8 L1453.3,542.0 L1470.2,583.1 L1486.4,625.2 L1497.8,669.0 Z"/>
<path class="ix" d="M1555.7,669.0 L1559.6,717.9 L1554.7,766.9 L1544.4,815.5 L1533.7,864.9 L1526.9,917.4 L1525.0,975.7 L1524.2,1040.5 L1517.1,1109.4 L1495.1,1176.3 L1451.8,1232.2 L1385.9,1268.7 L1302.1,1280.2 L1209.6,1267.1 L1118.8,1235.6 L1037.7,1196.7 L969.8,1162.5 L912.8,1142.6 L861.0,1140.8 L807.9,1154.6 L749.2,1176.4 L684.3,1196.6 L616.3,1206.9 L549.8,1202.9 L488.6,1185.0 L433.8,1157.0 L383.7,1124.1 L334.7,1090.1 L283.8,1056.5 L230.5,1022.2 L177.6,984.6 L130.1,941.7 L93.1,892.6 L69.8,838.6 L60.2,782.0 L61.0,725.0 L67.7,669.0 L77.2,614.1 L89.3,560.1 L107.1,507.4 L135.4,457.7 L178.3,414.3 L236.3,380.5 L305.3,357.7 L377.3,344.3 L442.9,334.5 L495.3,320.3 L532.4,293.6 L558.1,249.3 L580.7,188.2 L609.8,117.0 L652.6,46.8 L711.4,-9.8 L783.1,-43.3 L861.0,-49.6 L937.6,-31.3 L1007.6,4.1 L1069.4,46.7 L1125.2,88.2 L1178.7,124.0 L1232.6,154.1 L1287.3,181.9 L1340.2,212.2 L1386.8,248.3 L1423.6,291.3 L1449.4,339.4 L1466.3,389.4 L1478.6,438.6 L1491.3,485.5 L1507.1,530.5 L1525.6,575.3 L1543.3,621.2 L1555.7,669.0 Z"/>
<path class="c" d="M1613.6,669.0 L1617.8,722.0 L1612.5,775.0 L1601.3,827.7 L1589.7,881.2 L1582.4,938.1 L1580.3,1001.2 L1579.5,1071.5 L1571.8,1146.1 L1547.9,1218.5 L1501.0,1279.2 L1429.6,1318.7 L1338.9,1331.2 L1238.6,1316.9 L1140.2,1282.8 L1052.5,1240.6 L978.8,1203.6 L917.1,1182.0 L861.0,1180.1 L803.5,1195.0 L739.8,1218.7 L669.6,1240.5 L595.9,1251.7 L523.9,1247.4 L457.6,1228.0 L398.2,1197.7 L343.9,1162.0 L290.8,1125.2 L235.7,1088.8 L178.0,1051.6 L120.7,1010.9 L69.1,964.4 L29.1,911.2 L3.9,852.7 L-6.5,791.4 L-5.7,729.7 L1.6,669.0 L11.9,609.6 L25.0,551.1 L44.3,493.9 L74.9,440.1 L121.4,393.1 L184.3,356.4 L259.0,331.8 L336.9,317.2 L408.1,306.7 L464.8,291.3 L505.0,262.3 L532.9,214.3 L557.4,148.1 L588.9,70.9 L635.2,-5.0 L698.9,-66.4 L776.6,-102.7 L861.0,-109.5 L944.0,-89.7 L1019.8,-51.3 L1086.8,-5.1 L1147.2,39.9 L1205.1,78.6 L1263.6,111.2 L1322.8,141.3 L1380.1,174.1 L1430.6,213.3 L1470.5,259.8 L1498.4,311.9 L1516.7,366.1 L1530.1,419.4 L1543.9,470.2 L1561.0,519.0 L1581.0,567.4 L1600.1,617.3 L1613.6,669.0 Z"/>
<path class="c" d="M1671.5,669.0 L1676.0,726.0 L1670.3,783.2 L1658.3,839.9 L1645.8,897.5 L1637.9,958.8 L1635.6,1026.8 L1634.7,1102.4 L1626.5,1182.9 L1600.8,1260.8 L1550.2,1326.1 L1473.4,1368.6 L1375.6,1382.1 L1267.7,1366.7 L1161.7,1330.0 L1067.2,1284.6 L987.9,1244.8 L921.4,1221.5 L861.0,1219.4 L799.0,1235.5 L730.5,1261.0 L654.8,1284.5 L575.5,1296.5 L497.9,1291.9 L426.5,1271.0 L362.6,1238.4 L304.1,1199.9 L246.9,1160.3 L187.6,1121.1 L125.4,1081.0 L63.7,1037.2 L8.2,987.1 L-34.9,929.9 L-62.0,866.9 L-73.3,800.8 L-72.4,734.3 L-64.5,669.0 L-53.4,605.0 L-39.3,542.0 L-18.6,480.5 L14.5,422.5 L64.5,371.9 L132.2,332.4 L212.7,305.8 L296.6,290.1 L373.2,278.8 L434.3,262.2 L477.6,231.0 L507.6,179.4 L534.0,108.1 L568.0,24.9 L617.9,-56.9 L686.5,-122.9 L770.1,-162.0 L861.0,-169.4 L950.3,-148.0 L1032.0,-106.7 L1104.2,-57.0 L1169.3,-8.5 L1231.6,33.2 L1294.5,68.3 L1358.4,100.7 L1420.0,136.0 L1474.5,178.2 L1517.4,228.4 L1547.5,284.5 L1567.1,342.8 L1581.6,400.2 L1596.4,454.9 L1614.8,507.4 L1636.3,559.6 L1657.0,613.3 L1671.5,669.0 Z"/>
<path class="c" d="M1729.4,669.0 L1734.2,730.1 L1728.1,791.3 L1715.2,852.1 L1701.8,913.8 L1693.4,979.5 L1691.0,1052.3 L1690.0,1133.4 L1681.2,1219.6 L1653.6,1303.1 L1599.5,1373.0 L1517.1,1418.6 L1412.4,1433.0 L1296.7,1416.6 L1183.2,1377.2 L1081.9,1328.6 L997.0,1285.9 L925.7,1261.0 L861.0,1258.7 L794.6,1276.0 L721.2,1303.2 L640.1,1328.5 L555.1,1341.3 L472.0,1336.4 L395.5,1314.0 L327.0,1279.1 L264.4,1237.8 L203.1,1195.3 L139.5,1153.4 L72.9,1110.5 L6.8,1063.6 L-52.7,1009.8 L-98.9,948.5 L-128.0,881.0 L-140.0,810.2 L-139.1,739.0 L-130.6,669.0 L-118.7,600.4 L-103.6,532.9 L-81.4,467.0 L-46.0,404.9 L7.6,350.7 L80.2,308.3 L166.4,279.9 L256.3,263.1 L338.4,250.9 L403.9,233.2 L450.3,199.7 L482.4,144.4 L510.7,68.0 L547.0,-21.1 L600.5,-108.7 L674.0,-179.5 L763.6,-221.4 L861.0,-229.3 L956.7,-206.4 L1044.2,-162.2 L1121.5,-108.8 L1191.3,-56.9 L1258.1,-12.2 L1325.5,25.4 L1393.9,60.2 L1459.9,98.0 L1518.3,143.2 L1564.3,196.9 L1596.5,257.0 L1617.6,319.6 L1633.1,381.0 L1648.9,439.6 L1668.7,495.9 L1691.7,551.8 L1713.9,609.3 L1729.4,669.0 Z"/>
<path class="ix" d="M1787.3,669.0 L1792.4,734.2 L1786.0,799.5 L1772.2,864.3 L1757.9,930.2 L1748.9,1000.2 L1746.3,1077.9 L1745.3,1164.3 L1735.8,1256.3 L1706.5,1345.4 L1648.7,1420.0 L1560.8,1468.6 L1449.2,1484.0 L1325.8,1466.4 L1204.7,1424.4 L1096.6,1372.6 L1006.0,1327.0 L930.1,1300.4 L861.0,1298.0 L790.2,1316.4 L711.9,1345.5 L625.4,1372.4 L534.7,1386.1 L446.1,1380.9 L364.5,1357.0 L291.4,1319.7 L224.6,1275.8 L159.2,1230.4 L91.3,1185.7 L20.4,1139.9 L-50.2,1089.9 L-113.6,1032.6 L-162.9,967.1 L-193.9,895.1 L-206.7,819.6 L-205.7,743.7 L-196.7,669.0 L-184.0,595.9 L-167.9,523.9 L-144.2,453.5 L-106.4,387.3 L-49.3,329.4 L28.1,284.3 L120.1,254.0 L216.0,236.0 L303.6,223.0 L373.4,204.1 L422.9,168.4 L457.2,109.4 L487.3,27.9 L526.1,-67.1 L583.2,-160.6 L661.5,-236.1 L757.1,-280.7 L861.0,-289.2 L963.1,-264.7 L1056.4,-217.6 L1138.9,-160.7 L1213.3,-105.3 L1284.5,-57.6 L1356.5,-17.5 L1429.4,19.6 L1499.9,59.9 L1562.1,108.1 L1611.2,165.4 L1645.6,229.5 L1668.0,296.3 L1684.5,361.8 L1701.5,424.3 L1722.5,484.3 L1747.1,544.0 L1770.7,605.3 L1787.3,669.0 Z"/>
<path class="c" d="M1845.2,669.0 L1850.6,738.3 L1843.8,807.6 L1829.1,876.5 L1814.0,946.5 L1804.4,1020.9 L1801.6,1103.5 L1800.5,1195.3 L1790.5,1293.0 L1759.3,1387.6 L1697.9,1466.9 L1604.6,1518.6 L1485.9,1534.9 L1354.8,1516.2 L1226.2,1471.6 L1111.4,1416.5 L1015.1,1368.1 L934.4,1339.9 L861.0,1337.3 L785.8,1356.9 L702.6,1387.8 L610.7,1416.4 L514.3,1431.0 L420.1,1425.4 L333.4,1400.0 L255.9,1360.4 L184.8,1313.7 L115.3,1265.5 L43.2,1217.9 L-32.2,1169.3 L-107.1,1116.2 L-174.5,1055.3 L-226.9,985.8 L-259.8,909.3 L-273.5,829.0 L-272.4,748.3 L-262.8,669.0 L-249.3,591.3 L-232.2,514.8 L-207.0,440.1 L-166.9,369.7 L-106.1,308.2 L-24.0,260.3 L73.8,228.0 L175.7,209.0 L268.7,195.2 L342.9,175.1 L395.5,137.1 L431.9,74.4 L464.0,-12.2 L505.2,-113.1 L565.8,-212.4 L649.0,-292.6 L750.6,-340.1 L861.0,-349.1 L969.5,-323.1 L1068.6,-273.0 L1156.3,-212.5 L1235.3,-153.7 L1311.0,-103.0 L1387.4,-60.4 L1465.0,-21.0 L1539.8,21.8 L1605.9,73.1 L1658.1,133.9 L1694.6,202.1 L1718.5,273.0 L1736.0,342.6 L1754.0,409.0 L1776.4,472.8 L1802.5,536.2 L1827.6,601.3 L1845.2,669.0 Z"/>
<path class="c" d="M1903.1,669.0 L1908.8,742.3 L1901.6,815.8 L1886.1,888.7 L1870.0,962.8 L1859.8,1041.6 L1857.0,1129.0 L1855.8,1226.3 L1845.2,1329.7 L1812.1,1429.9 L1747.1,1513.9 L1648.3,1568.5 L1522.7,1585.8 L1383.9,1566.1 L1247.6,1518.8 L1126.1,1460.5 L1024.2,1409.3 L938.7,1379.3 L861.0,1376.6 L781.3,1397.4 L693.3,1430.1 L595.9,1460.4 L493.9,1475.8 L394.2,1469.9 L302.4,1443.0 L220.3,1401.1 L145.0,1351.6 L71.5,1300.6 L-4.9,1250.2 L-84.7,1198.8 L-164.1,1142.5 L-235.4,1078.0 L-290.9,1004.4 L-325.7,923.4 L-340.2,838.4 L-339.1,753.0 L-328.9,669.0 L-314.7,586.7 L-296.5,505.7 L-269.9,426.6 L-227.4,352.1 L-163.0,287.0 L-76.0,236.2 L27.5,202.1 L135.4,181.9 L233.9,167.3 L312.4,146.0 L368.1,105.9 L406.7,39.5 L440.6,-52.2 L484.3,-159.1 L548.4,-264.3 L636.6,-349.2 L744.2,-399.5 L861.0,-409.0 L975.9,-381.5 L1080.8,-328.4 L1173.6,-264.4 L1257.3,-202.1 L1337.5,-148.5 L1418.4,-103.4 L1500.5,-61.6 L1579.7,-16.2 L1649.7,38.0 L1705.0,102.5 L1743.6,174.6 L1768.9,249.7 L1787.5,323.4 L1806.5,393.7 L1830.2,461.2 L1857.9,528.4 L1884.4,597.4 L1903.1,669.0 Z"/>
<path class="c" d="M1960.9,669.0 L1967.1,746.4 L1959.4,823.9 L1943.0,900.9 L1926.1,979.1 L1915.3,1062.3 L1912.3,1154.6 L1911.1,1257.2 L1899.9,1366.4 L1865.0,1472.2 L1796.4,1560.8 L1692.1,1618.5 L1559.4,1636.8 L1412.9,1615.9 L1269.1,1566.1 L1140.8,1504.5 L1033.2,1450.4 L943.0,1418.8 L861.0,1416.0 L776.9,1437.8 L683.9,1472.4 L581.2,1504.3 L473.6,1520.6 L368.3,1514.3 L271.4,1486.0 L184.7,1441.7 L105.3,1389.5 L27.6,1335.7 L-53.0,1282.5 L-137.3,1228.2 L-221.0,1168.8 L-296.3,1100.7 L-354.9,1023.0 L-391.7,937.5 L-406.9,847.9 L-405.7,757.7 L-395.1,669.0 L-380.0,582.1 L-360.8,496.6 L-332.7,413.1 L-287.8,334.5 L-219.9,265.8 L-128.1,212.2 L-18.8,176.1 L95.1,154.8 L199.0,139.4 L282.0,116.9 L340.7,74.6 L381.4,4.5 L417.3,-92.3 L463.3,-205.1 L531.1,-316.1 L624.1,-405.8 L737.7,-458.8 L861.0,-468.8 L982.3,-439.8 L1093.0,-383.8 L1191.0,-316.3 L1279.3,-250.5 L1364.0,-193.9 L1449.4,-146.3 L1536.0,-102.2 L1619.7,-54.3 L1693.6,3.0 L1751.8,71.0 L1792.7,147.1 L1819.3,226.4 L1838.9,304.2 L1859.0,378.4 L1884.0,449.7 L1913.3,520.6 L1941.3,593.4 L1960.9,669.0 Z"/>
<path class="ix" d="M2018.8,669.0 L2025.3,750.5 L2017.2,832.1 L2000.0,913.2 L1982.1,995.4 L1970.8,1083.0 L1967.6,1180.1 L1966.4,1288.2 L1954.5,1403.1 L1917.8,1514.5 L1845.6,1607.7 L1735.8,1668.5 L1596.2,1687.7 L1442.0,1665.8 L1290.6,1613.3 L1155.6,1548.5 L1042.3,1491.5 L947.3,1458.3 L861.0,1455.3 L772.5,1478.3 L674.6,1514.6 L566.5,1548.3 L453.2,1565.4 L342.3,1558.8 L240.3,1529.0 L149.1,1482.4 L65.5,1427.5 L-16.2,1370.8 L-101.1,1314.8 L-189.8,1257.6 L-278.0,1195.1 L-357.2,1123.5 L-418.9,1041.7 L-457.6,951.7 L-473.7,857.3 L-472.4,762.3 L-461.2,669.0 L-445.3,577.6 L-425.1,487.6 L-395.5,399.7 L-348.3,316.9 L-276.8,244.5 L-180.1,188.1 L-65.1,150.2 L54.8,127.8 L164.2,111.6 L251.5,87.9 L313.3,43.3 L356.2,-30.5 L393.9,-132.4 L442.4,-251.1 L513.7,-367.9 L611.6,-462.3 L731.2,-518.2 L861.0,-528.7 L988.6,-498.2 L1105.3,-439.2 L1208.4,-368.1 L1301.4,-298.9 L1390.4,-239.3 L1480.3,-189.2 L1571.5,-142.8 L1659.6,-92.4 L1737.4,-32.1 L1798.7,39.5 L1841.7,119.7 L1869.8,203.1 L1890.4,285.0 L1911.6,363.1 L1937.9,438.2 L1968.6,512.8 L1998.1,589.4 L2018.8,669.0 Z"/>
<path class="c" d="M2076.7,669.0 L2083.5,754.6 L2075.0,840.2 L2056.9,925.4 L2038.2,1011.8 L2026.3,1103.7 L2022.9,1205.7 L2021.6,1319.1 L2009.2,1439.8 L1970.7,1556.7 L1894.8,1654.7 L1779.5,1718.5 L1633.0,1738.6 L1471.0,1715.6 L1312.1,1660.5 L1170.3,1592.4 L1051.4,1532.6 L951.6,1497.7 L861.0,1494.6 L768.1,1518.7 L665.3,1556.9 L551.8,1592.3 L432.8,1610.3 L316.4,1603.3 L209.3,1572.0 L113.5,1523.1 L25.7,1465.4 L-60.1,1405.9 L-149.2,1347.1 L-242.3,1287.1 L-334.9,1221.4 L-418.1,1146.2 L-482.9,1060.3 L-523.5,965.8 L-540.4,866.7 L-539.1,767.0 L-527.3,669.0 L-510.6,573.0 L-489.4,478.5 L-458.3,386.2 L-408.8,299.3 L-333.7,223.3 L-232.2,164.1 L-111.5,124.3 L14.4,100.7 L129.3,83.7 L221.0,58.8 L286.0,12.0 L331.0,-65.5 L370.5,-172.4 L421.5,-297.1 L496.3,-419.8 L599.2,-518.9 L724.7,-577.5 L861.0,-588.6 L995.0,-556.5 L1117.5,-494.6 L1225.7,-420.0 L1323.4,-347.3 L1416.9,-284.7 L1511.3,-232.1 L1607.1,-183.4 L1699.5,-130.4 L1781.2,-67.2 L1845.6,8.1 L1890.7,92.2 L1920.2,179.8 L1941.9,265.8 L1964.1,347.8 L1991.7,426.6 L2024.0,504.9 L2055.0,585.4 L2076.7,669.0 Z"/>
<path class="c" d="M2134.6,669.0 L2141.7,758.6 L2132.8,848.4 L2113.9,937.6 L2094.2,1028.1 L2081.8,1124.4 L2078.3,1231.2 L2076.9,1350.1 L2063.9,1476.5 L2023.5,1599.0 L1944.1,1701.6 L1823.3,1768.4 L1669.7,1789.6 L1500.1,1765.4 L1333.6,1707.7 L1185.0,1636.4 L1060.4,1573.8 L955.9,1537.2 L861.0,1533.9 L763.6,1559.2 L656.0,1599.2 L537.0,1636.2 L412.4,1655.1 L290.5,1647.8 L178.3,1615.0 L77.9,1563.7 L-14.1,1503.3 L-104.0,1441.0 L-197.3,1379.4 L-294.9,1316.5 L-391.9,1247.7 L-479.1,1168.9 L-546.9,1078.9 L-589.5,979.9 L-607.1,876.1 L-605.8,771.7 L-593.4,669.0 L-575.9,568.4 L-553.7,469.4 L-521.2,372.7 L-469.2,281.7 L-390.6,202.1 L-284.2,140.0 L-157.8,98.3 L-25.9,73.7 L94.5,55.8 L190.5,29.8 L258.6,-19.3 L305.7,-100.4 L347.2,-212.5 L400.5,-343.1 L479.0,-471.6 L586.7,-575.5 L718.2,-636.9 L861.0,-648.5 L1001.4,-614.9 L1129.7,-550.0 L1243.1,-471.8 L1345.4,-395.7 L1443.4,-330.1 L1542.3,-275.0 L1642.6,-224.0 L1739.5,-168.5 L1825.0,-102.2 L1892.5,-23.4 L1939.8,64.7 L1970.6,156.5 L1993.4,246.6 L2016.6,332.5 L2045.6,415.1 L2079.4,497.1 L2111.9,581.5 L2134.6,669.0 Z"/>
<path class="c" d="M2192.5,669.0 L2199.9,762.7 L2190.6,856.6 L2170.8,949.8 L2150.3,1044.4 L2137.3,1145.1 L2133.6,1256.8 L2132.2,1381.1 L2118.6,1513.2 L2076.3,1641.3 L1993.3,1748.5 L1867.0,1818.4 L1706.5,1840.5 L1529.1,1815.3 L1355.0,1754.9 L1199.7,1680.4 L1069.5,1614.9 L960.3,1576.7 L861.0,1573.2 L759.2,1599.7 L646.7,1641.5 L522.3,1680.2 L392.0,1699.9 L264.5,1692.3 L147.2,1658.0 L42.3,1604.4 L-53.9,1541.2 L-147.8,1476.1 L-245.4,1411.7 L-347.4,1345.9 L-448.8,1274.0 L-540.0,1191.6 L-610.9,1097.6 L-655.4,994.1 L-673.9,885.5 L-672.4,776.3 L-659.5,669.0 L-641.2,563.9 L-618.0,460.4 L-584.0,359.3 L-529.7,264.1 L-447.5,180.9 L-336.3,116.0 L-204.1,72.4 L-66.2,46.6 L59.7,27.9 L160.1,0.7 L231.2,-50.6 L280.5,-135.4 L323.8,-252.6 L379.6,-389.1 L461.6,-523.5 L574.2,-632.0 L711.7,-696.3 L861.0,-708.4 L1007.8,-673.2 L1141.9,-605.4 L1260.5,-523.7 L1367.4,-444.1 L1469.8,-375.5 L1573.2,-317.9 L1678.1,-264.6 L1779.4,-206.6 L1868.8,-137.3 L1939.4,-54.9 L1988.8,37.2 L2021.1,133.2 L2044.8,227.4 L2069.1,317.2 L2099.4,403.5 L2134.8,489.3 L2168.7,577.5 L2192.5,669.0 Z"/>
<path class="ix" d="M2250.4,669.0 L2258.1,766.8 L2248.4,864.7 L2227.8,962.0 L2206.4,1060.7 L2192.8,1165.8 L2188.9,1282.3 L2187.4,1412.0 L2173.3,1549.9 L2129.2,1683.5 L2042.5,1795.5 L1910.8,1868.4 L1743.2,1891.5 L1558.2,1865.1 L1376.5,1802.1 L1214.5,1724.3 L1078.5,1656.0 L964.6,1616.1 L861.0,1612.5 L754.8,1640.1 L637.3,1683.8 L507.6,1724.1 L371.6,1744.7 L238.6,1736.8 L116.2,1701.0 L6.7,1645.1 L-93.6,1579.1 L-191.7,1511.2 L-293.5,1444.0 L-400.0,1375.4 L-505.8,1300.3 L-600.9,1214.3 L-674.8,1116.2 L-721.3,1008.2 L-740.6,894.9 L-739.1,781.0 L-725.6,669.0 L-706.5,559.3 L-682.4,451.3 L-646.8,345.8 L-590.2,246.5 L-504.4,159.6 L-388.4,91.9 L-250.4,46.4 L-106.5,19.5 L24.8,0.1 L129.6,-28.3 L203.8,-81.9 L255.2,-170.4 L300.5,-292.6 L358.7,-435.1 L444.2,-575.3 L561.8,-688.6 L705.2,-755.6 L861.0,-768.3 L1014.2,-731.6 L1154.1,-660.9 L1277.8,-575.5 L1389.4,-492.5 L1496.3,-420.9 L1604.2,-360.8 L1713.6,-305.2 L1819.3,-244.7 L1912.7,-172.3 L1986.3,-86.4 L2037.8,9.8 L2071.5,109.9 L2096.3,208.2 L2121.7,301.9 L2153.3,392.0 L2190.2,481.5 L2225.6,573.5 L2250.4,669.0 Z"/>
<path class="c" d="M2308.3,669.0 L2316.3,770.9 L2306.2,872.9 L2284.7,974.2 L2262.4,1077.1 L2248.3,1186.5 L2244.3,1307.9 L2242.7,1443.0 L2227.9,1586.6 L2182.0,1725.8 L2091.8,1842.4 L1954.5,1918.4 L1780.0,1942.4 L1587.2,1914.9 L1398.0,1849.3 L1229.2,1768.3 L1087.6,1697.2 L968.9,1655.6 L861.0,1651.8 L750.4,1680.6 L628.0,1726.1 L492.9,1768.1 L351.2,1789.5 L212.7,1781.3 L85.2,1744.0 L-28.9,1685.8 L-133.4,1617.1 L-235.6,1546.2 L-341.6,1476.3 L-452.5,1404.8 L-562.7,1326.6 L-661.8,1237.1 L-738.8,1134.8 L-787.3,1022.3 L-807.4,904.3 L-805.8,785.7 L-791.7,669.0 L-771.9,554.7 L-746.7,442.2 L-709.6,332.3 L-650.6,228.8 L-561.3,138.4 L-440.4,67.9 L-296.7,20.5 L-146.8,-7.5 L-10.0,-27.8 L99.1,-57.4 L176.4,-113.1 L230.0,-205.4 L277.1,-332.7 L337.7,-481.1 L426.9,-627.2 L549.3,-745.2 L698.7,-815.0 L861.0,-828.2 L1020.6,-790.0 L1166.3,-716.3 L1295.2,-627.4 L1411.5,-540.9 L1522.8,-466.4 L1635.2,-403.7 L1749.2,-345.7 L1859.2,-282.7 L1956.5,-207.4 L2033.2,-117.8 L2086.9,-17.7 L2122.0,86.6 L2147.8,189.0 L2174.2,286.6 L2207.1,380.4 L2245.6,473.7 L2282.4,569.5 L2308.3,669.0 Z"/>
<path class="c" d="M2366.2,669.0 L2374.6,774.9 L2364.1,881.0 L2341.7,986.4 L2318.5,1093.4 L2303.8,1207.2 L2299.6,1333.5 L2298.0,1473.9 L2282.6,1623.3 L2234.9,1768.1 L2141.0,1889.3 L1998.3,1968.3 L1816.8,1993.3 L1616.3,1964.8 L1419.5,1896.5 L1243.9,1812.3 L1096.7,1738.3 L973.2,1695.1 L861.0,1691.1 L745.9,1721.1 L618.7,1768.3 L478.1,1812.1 L330.8,1834.4 L186.7,1825.8 L54.1,1787.0 L-64.5,1726.4 L-173.2,1655.0 L-279.4,1581.3 L-389.7,1508.6 L-505.1,1434.2 L-619.7,1352.9 L-722.7,1259.8 L-802.8,1153.5 L-853.2,1036.5 L-874.1,913.8 L-872.4,790.3 L-857.8,669.0 L-837.2,550.1 L-811.0,433.1 L-772.5,318.9 L-711.1,211.2 L-618.2,117.2 L-492.5,43.9 L-343.0,-5.4 L-187.1,-34.6 L-44.9,-55.7 L68.6,-86.4 L149.0,-144.4 L204.8,-240.3 L253.8,-372.8 L316.8,-527.1 L409.5,-679.0 L536.8,-801.7 L692.2,-874.3 L861.0,-888.1 L1026.9,-848.3 L1178.5,-771.7 L1312.6,-679.2 L1433.5,-589.3 L1549.2,-511.8 L1666.1,-446.6 L1784.7,-386.3 L1899.2,-320.8 L2000.3,-242.4 L2080.0,-149.3 L2135.9,-45.2 L2172.4,63.3 L2199.2,169.8 L2226.7,271.3 L2261.0,368.9 L2300.9,465.9 L2339.3,565.5 L2366.2,669.0 Z"/>
<path class="c" d="M2424.1,669.0 L2432.8,779.0 L2421.9,889.2 L2398.6,998.6 L2374.5,1109.7 L2359.3,1227.9 L2354.9,1359.0 L2353.2,1504.9 L2337.3,1660.0 L2287.7,1810.4 L2190.2,1936.3 L2042.0,2018.3 L1853.5,2044.3 L1645.3,2014.6 L1441.0,1943.8 L1258.7,1856.3 L1105.7,1779.4 L977.5,1734.5 L861.0,1730.5 L741.5,1761.5 L609.4,1810.6 L463.4,1856.0 L310.4,1879.2 L160.8,1870.3 L23.1,1830.0 L-100.1,1767.1 L-213.0,1692.9 L-323.3,1616.4 L-437.8,1540.8 L-557.6,1463.6 L-676.6,1379.2 L-783.6,1282.5 L-866.8,1172.1 L-919.1,1050.6 L-940.8,923.2 L-939.1,795.0 L-923.9,669.0 L-902.5,545.6 L-875.3,424.1 L-835.3,305.4 L-771.6,193.6 L-675.1,96.0 L-544.5,19.8 L-389.3,-31.4 L-227.4,-61.6 L-79.7,-83.6 L38.2,-115.5 L121.7,-175.7 L179.5,-275.3 L230.4,-412.8 L295.9,-573.1 L392.1,-730.9 L524.4,-858.3 L685.7,-933.7 L861.0,-947.9 L1033.3,-906.7 L1190.7,-827.1 L1329.9,-731.1 L1455.5,-637.7 L1575.7,-557.2 L1697.1,-489.5 L1820.2,-426.9 L1939.1,-358.9 L2044.1,-277.5 L2126.9,-180.8 L2184.9,-72.6 L2222.8,40.0 L2250.7,150.6 L2279.3,256.0 L2314.8,357.4 L2356.3,458.1 L2396.1,561.6 L2424.1,669.0 Z"/>
<path class="ix" d="M2482.0,669.0 L2491.0,783.1 L2479.7,897.3 L2455.6,1010.8 L2430.6,1126.0 L2414.8,1248.6 L2410.3,1384.6 L2408.5,1535.9 L2392.0,1696.7 L2340.5,1852.6 L2239.4,1983.2 L2085.7,2068.3 L1890.3,2095.2 L1674.4,2064.5 L1462.4,1991.0 L1273.4,1900.2 L1114.8,1820.5 L981.8,1774.0 L861.0,1769.8 L737.1,1802.0 L600.1,1852.9 L448.7,1900.0 L290.0,1924.0 L134.9,1914.8 L-7.9,1873.0 L-135.7,1807.8 L-252.7,1730.8 L-367.1,1651.5 L-485.9,1573.1 L-610.1,1493.1 L-733.6,1405.5 L-844.5,1305.2 L-930.8,1190.7 L-985.0,1064.7 L-1007.6,932.6 L-1005.8,799.7 L-990.0,669.0 L-967.8,541.0 L-939.6,415.0 L-898.1,291.9 L-832.0,176.0 L-731.9,74.8 L-596.6,-4.2 L-435.6,-57.3 L-267.7,-88.7 L-114.5,-111.4 L7.7,-144.5 L94.3,-207.0 L154.3,-310.3 L207.1,-452.9 L275.0,-619.1 L374.8,-782.7 L511.9,-914.9 L679.2,-993.0 L861.0,-1007.8 L1039.7,-965.0 L1203.0,-882.5 L1347.3,-783.0 L1477.5,-686.1 L1602.2,-602.6 L1728.1,-532.4 L1855.7,-467.5 L1979.0,-396.9 L2087.9,-312.5 L2173.8,-212.3 L2234.0,-100.1 L2273.3,16.7 L2302.2,131.4 L2331.8,240.7 L2368.6,345.8 L2411.7,450.3 L2453.0,557.6 L2482.0,669.0 Z"/>
<path class="c" d="M2539.9,669.0 L2549.2,787.2 L2537.5,905.5 L2512.5,1023.0 L2486.6,1142.3 L2470.2,1269.3 L2465.6,1410.1 L2463.8,1566.8 L2446.6,1733.4 L2393.4,1894.9 L2288.7,2030.2 L2129.5,2118.3 L1927.0,2146.1 L1703.4,2114.3 L1483.9,2038.2 L1288.1,1944.2 L1123.9,1861.7 L986.2,1813.4 L861.0,1809.1 L732.7,1842.5 L590.7,1895.2 L434.0,1944.0 L269.6,1968.8 L108.9,1959.3 L-39.0,1916.0 L-171.3,1848.4 L-292.5,1768.8 L-411.0,1686.6 L-534.0,1605.4 L-662.7,1522.5 L-790.5,1431.8 L-905.4,1328.0 L-994.8,1209.4 L-1051.0,1078.8 L-1074.3,942.0 L-1072.5,804.3 L-1056.1,669.0 L-1033.1,536.4 L-1003.9,405.9 L-960.9,278.4 L-892.5,158.4 L-788.8,53.5 L-648.6,-28.3 L-481.9,-83.3 L-308.1,-115.8 L-149.4,-139.3 L-22.8,-173.6 L66.9,-238.3 L129.0,-345.2 L183.7,-493.0 L254.0,-665.1 L357.4,-834.6 L499.4,-971.4 L672.7,-1052.4 L861.0,-1067.7 L1046.1,-1023.4 L1215.2,-937.9 L1364.7,-834.8 L1499.5,-734.5 L1628.7,-648.0 L1759.0,-575.3 L1891.3,-508.1 L2019.0,-435.0 L2131.7,-347.6 L2220.7,-243.7 L2283.0,-127.6 L2323.7,-6.6 L2353.6,112.2 L2384.3,225.4 L2422.5,334.3 L2467.1,442.4 L2509.9,553.6 L2539.9,669.0 Z"/>
<path class="c" d="M2597.8,669.0 L2607.4,791.2 L2595.3,913.6 L2569.5,1035.2 L2542.7,1158.7 L2525.7,1290.0 L2520.9,1435.7 L2519.0,1597.8 L2501.3,1770.1 L2446.2,1937.2 L2337.9,2077.1 L2173.2,2168.2 L1963.8,2197.1 L1732.5,2164.1 L1505.4,2085.4 L1302.8,1988.2 L1132.9,1902.8 L990.5,1852.9 L861.0,1848.4 L728.2,1882.9 L581.4,1937.5 L419.2,1987.9 L249.2,2013.6 L83.0,2003.8 L-70.0,1959.0 L-206.9,1889.1 L-332.3,1806.7 L-454.9,1721.7 L-582.1,1637.7 L-715.2,1551.9 L-847.5,1458.1 L-966.3,1350.7 L-1058.8,1228.0 L-1116.9,1093.0 L-1141.0,951.4 L-1139.1,809.0 L-1122.2,669.0 L-1098.4,531.9 L-1068.2,396.9 L-1023.8,265.0 L-953.0,140.8 L-845.7,32.3 L-700.7,-52.3 L-528.2,-109.2 L-348.4,-142.8 L-184.2,-167.2 L-53.3,-202.7 L39.5,-269.6 L103.8,-380.2 L160.4,-533.0 L233.1,-711.1 L340.0,-886.4 L487.0,-1028.0 L666.3,-1111.8 L861.0,-1127.6 L1052.5,-1081.8 L1227.4,-993.3 L1382.0,-886.7 L1521.6,-782.9 L1655.1,-693.4 L1790.0,-618.3 L1926.8,-548.7 L2058.9,-473.1 L2175.6,-382.7 L2267.6,-275.2 L2332.0,-155.0 L2374.2,-29.9 L2405.1,93.0 L2436.8,210.2 L2476.3,322.7 L2522.5,434.6 L2566.7,549.6 L2597.8,669.0 Z"/>
<text class="ct" x="599" y="660" text-anchor="middle">12,800</text>
<text class="ct" x="751" y="227" text-anchor="middle">11,200</text>
<text class="ct" x="1477" y="435" text-anchor="middle">9,600</text>
<circle class="dot" cx="861" cy="645" r="2.4"/>
<text class="pk" x="861" y="665" text-anchor="middle">MOUNT BLUE SKY</text>
<text class="el" x="861" y="686" text-anchor="middle">14,264&#8242;</text>
</svg>