<svg xmlns="http://www.w3.org/2000/svg" width="1200" height="900" viewBox="0 0 1200 900">
<style>
  .c  { fill:none; stroke:#2A1B11; stroke-opacity:0.07; stroke-width:1.1; }
  .ix { fill:none; stroke:#2A1B11; stroke-opacity:0.12; stroke-width:1.6; }
  .ct { font:500 10px 'IBM Plex Mono',ui-monospace,monospace; fill:#2A1B11; fill-opacity:0.32;
        stroke:#F4ECDB; stroke-width:3; paint-order:stroke; }
  .pk { font:600 11.5px 'Inter Tight','Helvetica Neue',sans-serif; letter-spacing:0.15em; fill:#2A1B11; fill-opacity:0.2; }
  .el { font:500 10.5px 'IBM Plex Mono',ui-monospace,monospace; fill:#9C6A33; fill-opacity:0.34; }
  .dot { fill:#2A1B11; fill-opacity:0.24; }
</style>
<path class="c" d="M521.8,311.0 L520.8,313.9 L519.3,316.7 L517.4,319.2 L515.3,321.6 L513.5,323.9 L512.3,326.4 L511.8,329.4 L511.9,333.1 L512.1,337.5 L511.7,342.2 L510.3,346.7 L507.4,350.3 L503.2,352.5 L498.1,353.1 L492.8,352.1 L487.6,350.2 L483.0,347.9 L479.0,345.9 L475.3,344.7 L471.7,344.2 L467.9,344.1 L464.0,344.0 L460.1,343.3 L456.6,342.0 L453.6,340.0 L451.3,337.4 L449.3,334.8 L447.4,332.2 L445.3,329.9 L442.9,327.7 L440.1,325.5 L437.2,323.2 L434.6,320.5 L432.4,317.6 L430.9,314.4 L429.8,311.0 L429.2,307.5 L428.7,303.9 L428.5,300.2 L428.8,296.4 L430.1,292.8 L432.6,289.6 L436.4,287.2 L441.4,285.8 L447.0,285.4 L452.6,285.8 L457.5,286.4 L461.4,286.6 L464.3,285.8 L466.7,283.9 L469.0,281.0 L471.7,277.7 L475.0,274.6 L479.0,272.3 L483.3,271.4 L487.7,271.7 L491.7,273.0 L495.5,274.8 L499.0,276.6 L502.6,278.3 L506.4,279.7 L510.4,281.1 L514.4,282.7 L517.9,284.9 L520.7,287.6 L522.6,290.9 L523.5,294.4 L523.7,298.0 L523.4,301.5 L523.0,304.8 L522.5,308.0 L521.8,311.0 Z"/>
<path class="c" d="M564.7,311.0 L562.6,316.9 L559.6,322.4 L555.7,327.4 L551.6,332.1 L547.9,336.7 L545.5,341.7 L544.6,347.7 L544.8,355.2 L545.2,363.9 L544.5,373.4 L541.5,382.4 L535.8,389.7 L527.4,394.1 L517.3,395.2 L506.5,393.2 L496.3,389.3 L487.1,384.8 L479.0,380.9 L471.6,378.4 L464.4,377.4 L456.8,377.2 L449.0,376.9 L441.3,375.7 L434.2,373.0 L428.3,368.9 L423.5,363.9 L419.6,358.5 L415.9,353.4 L411.7,348.7 L406.8,344.4 L401.2,340.0 L395.4,335.3 L390.1,330.1 L385.8,324.1 L382.8,317.7 L380.7,311.0 L379.3,304.0 L378.4,296.8 L378.0,289.3 L378.7,281.8 L381.2,274.5 L386.2,268.1 L393.9,263.3 L403.9,260.6 L415.1,259.9 L426.2,260.6 L436.0,261.9 L443.8,262.2 L449.7,260.7 L454.4,256.8 L458.9,251.0 L464.3,244.3 L471.0,238.1 L479.0,233.7 L487.7,231.8 L496.3,232.4 L504.5,235.0 L511.9,238.6 L519.1,242.3 L526.2,245.5 L533.8,248.3 L541.8,251.1 L549.7,254.4 L556.8,258.8 L562.4,264.3 L566.1,270.8 L567.9,277.8 L568.3,285.0 L567.9,292.0 L567.1,298.6 L566.1,304.9 L564.7,311.0 Z"/>
<path class="c" d="M607.5,311.0 L604.4,319.8 L599.9,328.0 L594.1,335.7 L587.9,342.7 L582.4,349.6 L578.8,357.1 L577.4,366.1 L577.7,377.3 L578.3,390.4 L577.2,404.6 L572.8,418.2 L564.2,429.0 L551.6,435.6 L536.4,437.2 L520.3,434.3 L504.9,428.5 L491.1,421.6 L479.0,415.8 L467.9,412.1 L457.1,410.6 L445.7,410.3 L434.0,409.9 L422.4,408.0 L411.9,404.0 L402.9,397.9 L395.8,390.3 L389.9,382.3 L384.3,374.6 L378.0,367.6 L370.6,361.1 L362.2,354.6 L353.6,347.5 L345.7,339.6 L339.3,330.7 L334.6,321.1 L331.5,311.0 L329.5,300.5 L328.1,289.7 L327.5,278.5 L328.5,267.2 L332.3,256.3 L339.8,246.7 L351.3,239.5 L366.3,235.3 L383.1,234.3 L399.8,235.5 L414.5,237.3 L426.2,237.8 L435.0,235.5 L442.0,229.8 L448.9,221.1 L457.0,211.0 L467.0,201.7 L479.0,195.0 L492.0,192.1 L505.0,193.1 L517.2,197.0 L528.4,202.4 L539.1,207.9 L549.9,212.8 L561.3,217.0 L573.2,221.2 L585.1,226.1 L595.7,232.6 L604.1,240.9 L609.7,250.7 L612.4,261.2 L613.0,272.0 L612.3,282.4 L611.1,292.4 L609.6,301.9 L607.5,311.0 Z"/>
<path class="ix" d="M650.4,311.0 L646.2,322.7 L640.1,333.7 L632.4,343.9 L624.2,353.3 L616.9,362.4 L612.0,372.4 L610.2,384.5 L610.6,399.3 L611.4,416.9 L609.9,435.8 L604.0,453.9 L592.6,468.4 L575.9,477.2 L555.6,479.3 L534.1,475.4 L513.5,467.6 L495.1,458.5 L479.0,450.8 L464.3,445.8 L449.7,443.7 L434.7,443.4 L419.0,442.8 L403.6,440.4 L389.5,435.0 L377.6,426.9 L368.1,416.8 L360.2,406.0 L352.7,395.8 L344.4,386.4 L334.5,377.7 L323.3,369.1 L311.8,359.7 L301.3,349.1 L292.7,337.3 L286.5,324.5 L282.4,311.0 L279.6,297.0 L277.7,282.6 L277.0,267.7 L278.3,252.6 L283.4,238.0 L293.3,225.2 L308.7,215.6 L328.7,210.1 L351.1,208.7 L373.4,210.3 L393.0,212.7 L408.6,213.4 L420.3,210.4 L429.7,202.7 L438.8,191.1 L449.6,177.7 L463.1,165.2 L479.0,156.4 L496.3,152.5 L513.6,153.8 L529.9,159.0 L544.9,166.2 L559.1,173.6 L573.5,180.1 L588.7,185.7 L604.6,191.2 L620.4,197.9 L634.6,206.5 L645.8,217.5 L653.2,230.5 L656.8,244.7 L657.6,259.0 L656.7,272.9 L655.1,286.2 L653.1,298.8 L650.4,311.0 Z"/>
<path class="c" d="M693.2,311.0 L688.0,325.6 L680.4,339.4 L670.8,352.1 L660.4,363.8 L651.3,375.3 L645.3,387.8 L643.0,402.9 L643.5,421.4 L644.5,443.4 L642.7,467.0 L635.3,489.6 L621.0,507.7 L600.1,518.7 L574.7,521.4 L547.9,516.6 L522.1,506.8 L499.2,495.4 L479.0,485.7 L460.6,479.5 L442.4,476.9 L423.6,476.5 L404.0,475.8 L384.7,472.7 L367.1,466.1 L352.2,455.8 L340.3,443.2 L330.5,429.8 L321.2,416.9 L310.7,405.3 L298.4,394.4 L284.4,383.6 L270.0,371.9 L256.8,358.6 L246.1,343.8 L238.4,327.8 L233.2,311.0 L229.8,293.6 L227.4,275.5 L226.5,256.9 L228.2,238.0 L234.4,219.8 L246.9,203.8 L266.2,191.8 L291.1,184.9 L319.2,183.1 L347.0,185.1 L371.5,188.1 L391.0,189.0 L405.7,185.2 L417.4,175.6 L428.8,161.1 L442.3,144.3 L459.1,128.8 L479.0,117.7 L500.7,112.9 L522.3,114.5 L542.6,121.0 L561.3,130.0 L579.1,139.2 L597.1,147.4 L616.1,154.4 L636.0,161.3 L655.8,169.6 L673.5,180.4 L687.6,194.2 L696.8,210.4 L701.3,228.1 L702.3,246.0 L701.1,263.4 L699.1,279.9 L696.7,295.8 L693.2,311.0 Z"/>
<path class="c" d="M736.1,311.0 L729.8,328.6 L720.7,345.1 L709.1,360.3 L696.7,374.4 L685.8,388.2 L678.6,403.2 L675.8,421.2 L676.4,443.5 L677.5,469.8 L675.4,498.2 L666.6,525.3 L649.4,547.1 L624.3,560.3 L593.9,563.5 L561.6,557.7 L530.8,545.9 L503.2,532.3 L479.0,520.6 L456.9,513.2 L435.1,510.1 L412.5,509.6 L389.0,508.8 L365.9,505.1 L344.7,497.1 L326.9,484.8 L312.6,469.6 L300.8,453.5 L289.6,438.1 L277.1,424.1 L262.3,411.1 L245.5,398.1 L228.2,384.0 L212.4,368.2 L199.5,350.4 L190.3,331.2 L184.1,311.0 L179.9,290.1 L177.1,268.4 L176.0,246.0 L178.0,223.4 L185.5,201.5 L200.5,182.4 L223.6,167.9 L253.6,159.7 L287.2,157.6 L320.6,159.9 L350.0,163.6 L373.4,164.6 L391.0,160.0 L405.1,148.5 L418.8,131.1 L434.9,111.0 L455.1,92.4 L479.0,79.0 L505.0,73.3 L531.0,75.2 L555.4,83.0 L577.8,93.8 L599.2,104.9 L620.7,114.6 L643.5,123.0 L667.4,131.3 L691.1,141.3 L712.5,154.3 L729.3,170.8 L740.3,190.3 L745.8,211.5 L746.9,233.0 L745.6,253.9 L743.2,273.7 L740.2,292.7 L736.1,311.0 Z"/>
<path class="c" d="M778.9,311.0 L771.6,331.5 L761.0,350.8 L747.5,368.6 L733.0,385.0 L720.3,401.0 L711.8,418.5 L708.6,439.6 L709.3,465.6 L710.6,496.3 L708.1,529.4 L697.8,561.0 L677.8,586.4 L648.5,601.8 L613.0,605.6 L575.4,598.8 L539.4,585.1 L507.2,569.2 L479.0,555.6 L453.2,546.9 L427.8,543.3 L401.4,542.7 L374.0,541.7 L347.0,537.4 L322.3,528.1 L301.5,513.7 L284.9,496.1 L271.1,477.3 L258.0,459.3 L243.4,443.0 L226.2,427.8 L206.6,412.6 L186.4,396.2 L167.9,377.7 L153.0,357.0 L142.2,334.6 L134.9,311.0 L130.1,286.6 L126.8,261.3 L125.5,235.2 L127.9,208.8 L136.6,183.3 L154.1,160.9 L181.1,144.1 L216.0,134.4 L255.3,132.0 L294.2,134.8 L328.4,139.0 L355.8,140.2 L376.3,134.9 L392.8,121.4 L408.7,101.1 L427.6,77.7 L451.1,55.9 L479.0,40.4 L509.3,33.7 L539.6,35.9 L568.1,45.0 L594.3,57.6 L619.2,70.5 L644.3,81.9 L670.9,91.7 L698.8,101.4 L726.5,113.0 L751.4,128.2 L771.0,147.4 L783.9,170.2 L790.2,194.9 L791.6,220.0 L790.0,244.3 L787.2,267.5 L783.7,289.7 L778.9,311.0 Z"/>
<path class="ix" d="M821.8,311.0 L813.4,334.4 L801.3,356.5 L785.9,376.8 L769.3,395.5 L754.8,413.9 L745.1,433.9 L741.4,458.0 L742.2,487.7 L743.7,522.8 L740.8,560.6 L729.1,596.7 L706.2,625.8 L672.7,643.4 L632.2,647.6 L589.2,639.9 L548.0,624.2 L511.3,606.0 L479.0,590.5 L449.5,580.6 L420.5,576.5 L390.3,575.8 L359.0,574.7 L328.2,569.8 L300.0,559.1 L276.2,542.7 L257.2,522.5 L241.4,501.1 L226.5,480.5 L209.8,461.8 L190.0,444.5 L167.7,427.1 L144.6,408.4 L123.5,387.2 L106.4,363.6 L94.0,337.9 L85.8,311.0 L80.2,283.1 L76.5,254.2 L74.9,224.4 L77.7,194.1 L87.7,165.0 L107.7,139.5 L138.5,120.3 L178.4,109.2 L223.3,106.4 L267.8,109.6 L306.9,114.4 L338.2,115.8 L361.7,109.7 L380.4,94.4 L398.7,71.2 L420.2,44.3 L447.1,19.5 L479.0,1.7 L513.7,-6.0 L548.3,-3.4 L580.8,7.0 L610.8,21.4 L639.2,36.2 L668.0,49.2 L698.3,60.4 L730.2,71.5 L761.9,84.7 L790.3,102.0 L812.7,124.1 L827.4,150.1 L834.7,178.3 L836.2,207.0 L834.4,234.8 L831.2,261.3 L827.2,286.6 L821.8,311.0 Z"/>
<path class="c" d="M864.6,311.0 L855.2,337.3 L841.6,362.1 L824.2,385.0 L805.6,406.1 L789.2,426.7 L778.3,449.3 L774.2,476.4 L775.1,509.8 L776.8,549.3 L773.6,591.9 L760.4,632.5 L734.6,665.1 L696.9,684.9 L651.3,689.7 L602.9,681.0 L556.7,663.4 L515.3,642.9 L479.0,625.4 L445.8,614.3 L413.2,609.7 L379.2,608.8 L344.0,607.7 L309.3,602.1 L277.6,590.1 L250.8,571.7 L229.4,548.9 L211.7,524.8 L194.9,501.7 L176.1,480.7 L153.9,461.2 L128.7,441.7 L102.8,420.5 L79.1,396.7 L59.8,370.1 L45.9,341.3 L36.6,311.0 L30.4,279.6 L26.2,247.1 L24.4,213.6 L27.5,179.5 L38.8,146.8 L61.3,118.1 L95.9,96.4 L140.8,84.0 L191.3,80.9 L241.4,84.4 L285.4,89.8 L320.6,91.4 L347.0,84.6 L368.1,67.3 L388.6,41.2 L412.9,11.0 L443.1,-17.0 L479.0,-37.0 L518.0,-45.6 L557.0,-42.7 L593.5,-31.0 L627.2,-14.8 L659.2,1.8 L691.6,16.4 L725.8,29.1 L761.7,41.5 L797.2,56.4 L829.2,75.9 L854.4,100.7 L871.0,130.0 L879.2,161.7 L880.9,194.0 L878.9,225.3 L875.2,255.1 L870.8,283.6 L864.6,311.0 Z"/>
<text class="ct" x="561" y="266" text-anchor="middle">6,600</text>
<text class="ct" x="281" y="310" text-anchor="middle">6,200</text>
<text class="ct" x="676" y="443" text-anchor="middle">5,800</text>
<text class="ct" x="406" y="64" text-anchor="middle">5,400</text>
<circle class="dot" cx="479" cy="287" r="2.4"/>
<text class="pk" x="479" y="307" text-anchor="middle">MOUNT SANITAS</text>
<text class="el" x="479" y="328" text-anchor="middle">6,863&#8242;</text>
</svg>