<svg xmlns="http://www.w3.org/2000/svg" width="1200" height="900" viewBox="0 0 1200 900">
<style>
  .c  { fill:none; stroke:#2A1B11; stroke-opacity:0.07; stroke-width:1.1; }
  .ix { fill:none; stroke:#2A1B11; stroke-opacity:0.12; stroke-width:1.6; }
  .ct { font:500 10px 'IBM Plex Mono',ui-monospace,monospace; fill:#2A1B11; fill-opacity:0.32;
        stroke:#F4ECDB; stroke-width:3; paint-order:stroke; }
  .pk { font:600 11.5px 'Inter Tight','Helvetica Neue',sans-serif; letter-spacing:0.15em; fill:#2A1B11; fill-opacity:0.2; }
  .el { font:500 10.5px 'IBM Plex Mono',ui-monospace,monospace; fill:#9C6A33; fill-opacity:0.34; }
  .dot { fill:#2A1B11; fill-opacity:0.24; }
</style>
<path class="c" d="M571.9,327.0 L571.8,330.4 L570.3,333.7 L568.0,336.6 L565.6,339.4 L563.7,342.2 L562.6,345.3 L561.9,348.8 L561.3,352.7 L560.0,356.6 L557.7,360.1 L554.2,362.6 L549.6,363.8 L544.4,363.8 L539.2,362.7 L534.4,361.1 L530.1,359.4 L526.4,358.2 L523.0,357.5 L519.7,357.2 L516.3,357.3 L512.8,357.3 L509.2,357.3 L505.5,357.1 L501.5,356.8 L497.2,356.5 L492.6,356.0 L487.7,355.3 L482.9,353.9 L478.6,351.8 L475.5,348.9 L473.9,345.3 L473.8,341.3 L475.1,337.3 L476.9,333.5 L478.7,330.1 L479.9,327.0 L480.1,324.0 L479.7,320.9 L479.1,317.6 L479.2,314.2 L480.4,311.1 L482.9,308.5 L486.5,306.6 L490.8,305.4 L495.0,304.6 L498.6,303.7 L501.4,302.3 L503.6,300.1 L505.5,297.1 L507.8,293.5 L510.6,290.0 L514.2,286.9 L518.4,284.9 L523.0,283.9 L527.7,283.9 L532.3,284.8 L536.7,286.2 L540.7,288.1 L544.3,290.4 L547.5,293.1 L550.0,296.2 L551.7,299.6 L552.7,303.2 L553.3,306.6 L554.0,309.6 L555.2,312.1 L557.3,314.2 L560.3,316.1 L563.9,318.2 L567.5,320.7 L570.4,323.7 L571.9,327.0 Z"/>
<path class="c" d="M620.7,327.0 L620.5,333.8 L617.6,340.3 L613.0,346.3 L608.3,351.8 L604.5,357.4 L602.1,363.5 L600.8,370.6 L599.5,378.4 L597.0,386.2 L592.4,393.2 L585.3,398.2 L576.2,400.7 L565.9,400.5 L555.5,398.4 L545.8,395.1 L537.3,391.9 L529.8,389.4 L523.0,388.0 L516.4,387.5 L509.7,387.5 L502.7,387.7 L495.4,387.6 L487.9,387.2 L480.0,386.6 L471.4,386.0 L462.1,385.1 L452.4,383.5 L442.7,380.9 L434.3,376.7 L428.0,370.9 L424.8,363.6 L424.7,355.6 L427.1,347.6 L430.9,340.0 L434.5,333.2 L436.7,327.0 L437.2,321.0 L436.4,314.8 L435.3,308.2 L435.4,301.5 L437.7,295.2 L442.8,289.9 L450.1,286.1 L458.6,283.7 L466.9,282.1 L474.1,280.4 L479.8,277.6 L484.2,273.2 L488.1,267.1 L492.5,260.0 L498.2,252.9 L505.3,246.9 L513.8,242.7 L523.0,240.8 L532.4,240.9 L541.6,242.6 L550.3,245.5 L558.4,249.2 L565.7,253.8 L572.0,259.2 L576.9,265.4 L580.4,272.3 L582.5,279.4 L583.7,286.3 L585.0,292.3 L587.4,297.3 L591.5,301.4 L597.6,305.3 L604.8,309.5 L612.1,314.4 L617.8,320.4 L620.7,327.0 Z"/>
<path class="c" d="M669.6,327.0 L669.3,337.2 L664.9,347.0 L658.0,355.9 L650.9,364.2 L645.2,372.6 L641.7,381.8 L639.7,392.4 L637.8,404.0 L634.0,415.8 L627.1,426.2 L616.5,433.8 L602.7,437.5 L587.3,437.3 L571.7,434.0 L557.2,429.2 L544.4,424.3 L533.2,420.6 L523.0,418.4 L513.1,417.7 L503.0,417.8 L492.5,418.0 L481.7,417.8 L470.4,417.3 L458.4,416.5 L445.6,415.5 L431.7,414.1 L417.0,411.8 L402.6,407.8 L389.9,401.5 L380.5,392.8 L375.6,382.0 L375.5,369.9 L379.2,357.8 L384.8,346.5 L390.2,336.3 L393.6,327.0 L394.4,318.0 L393.1,308.7 L391.4,298.8 L391.5,288.7 L395.1,279.3 L402.6,271.4 L413.6,265.7 L426.3,262.1 L438.9,259.7 L449.7,257.1 L458.2,252.9 L464.7,246.3 L470.6,237.2 L477.3,226.5 L485.8,215.9 L496.5,206.8 L509.2,200.6 L523.0,197.6 L537.1,197.8 L550.9,200.4 L564.0,204.7 L576.1,210.4 L587.0,217.2 L596.4,225.2 L603.9,234.6 L609.1,244.9 L612.2,255.6 L614.0,265.9 L616.0,274.9 L619.6,282.4 L625.8,288.7 L634.9,294.4 L645.8,300.7 L656.6,308.2 L665.1,317.1 L669.6,327.0 Z"/>
<path class="ix" d="M718.5,327.0 L718.1,340.7 L712.2,353.7 L703.0,365.6 L693.5,376.7 L686.0,387.8 L681.2,400.1 L678.6,414.2 L676.0,429.7 L671.0,445.4 L661.8,459.3 L647.6,469.4 L629.3,474.3 L608.7,474.1 L587.9,469.7 L568.6,463.2 L551.6,456.7 L536.6,451.7 L523.0,448.9 L509.8,448.0 L496.3,448.1 L482.4,448.3 L467.9,448.1 L452.8,447.4 L436.9,446.3 L419.8,445.0 L401.2,443.1 L381.7,440.0 L362.5,434.7 L345.6,426.4 L333.0,414.7 L326.5,400.3 L326.3,384.3 L331.2,368.1 L338.7,353.0 L345.9,339.4 L350.5,327.0 L351.5,315.0 L349.8,302.6 L347.6,289.4 L347.7,276.0 L352.4,263.4 L362.5,252.9 L377.1,245.3 L394.1,240.5 L410.8,237.3 L425.3,233.8 L436.6,228.2 L445.3,219.4 L453.2,207.2 L462.1,193.1 L473.4,178.9 L487.7,166.8 L504.6,158.5 L523.0,154.5 L541.8,154.7 L560.2,158.2 L577.6,164.0 L593.8,171.5 L608.4,180.6 L620.9,191.3 L630.8,203.8 L637.8,217.6 L641.9,231.9 L644.4,245.5 L647.0,257.5 L651.7,267.5 L660.1,275.9 L672.1,283.6 L686.7,291.9 L701.1,301.9 L712.5,313.7 L718.5,327.0 Z"/>
<path class="c" d="M767.4,327.0 L766.8,344.1 L759.5,360.4 L748.0,375.2 L736.2,389.1 L726.7,403.0 L720.8,418.4 L717.5,435.9 L714.3,455.4 L708.1,475.0 L696.5,492.4 L678.8,505.0 L655.9,511.2 L630.1,510.8 L604.2,505.4 L580.0,497.3 L558.7,489.2 L540.1,482.9 L523.0,479.4 L506.5,478.2 L489.6,478.4 L472.2,478.7 L454.1,478.4 L435.3,477.5 L415.4,476.1 L394.0,474.4 L370.8,472.1 L346.4,468.3 L322.4,461.7 L301.2,451.2 L285.6,436.7 L277.4,418.6 L277.2,398.6 L283.3,378.4 L292.7,359.5 L301.7,342.5 L307.4,327.0 L308.6,312.0 L306.4,296.5 L303.7,280.0 L303.9,263.2 L309.8,247.5 L322.4,234.4 L340.7,224.9 L361.9,218.8 L382.8,214.8 L400.8,210.5 L414.9,203.5 L425.9,192.5 L435.7,177.3 L446.8,159.6 L461.0,141.8 L478.9,126.7 L500.0,116.3 L523.0,111.4 L546.6,111.6 L569.5,116.0 L591.3,123.2 L611.4,132.6 L629.7,144.0 L645.4,157.4 L657.8,173.0 L666.5,190.2 L671.6,208.1 L674.7,225.1 L678.0,240.2 L683.9,252.7 L694.3,263.1 L709.4,272.7 L727.6,283.1 L745.7,295.6 L759.9,310.4 L767.4,327.0 Z"/>
<path class="c" d="M816.2,327.0 L815.6,347.5 L806.7,367.0 L793.1,384.9 L778.8,401.5 L767.4,418.2 L760.3,436.6 L756.4,457.7 L752.5,481.1 L745.1,504.7 L731.2,525.5 L709.9,540.6 L682.5,548.0 L651.6,547.6 L620.4,541.1 L591.4,531.4 L565.9,521.6 L543.5,514.1 L523.0,509.9 L503.2,508.5 L483.0,508.6 L462.0,509.0 L440.3,508.7 L417.7,507.6 L393.9,505.9 L368.1,503.9 L340.3,501.2 L311.1,496.6 L282.2,488.6 L256.8,476.1 L238.1,458.6 L228.3,436.9 L228.0,412.9 L235.3,388.7 L246.6,366.0 L257.4,345.6 L264.2,327.0 L265.7,309.0 L263.1,290.3 L259.9,270.6 L260.1,250.4 L267.2,231.6 L282.3,215.8 L304.2,204.4 L329.7,197.2 L354.7,192.4 L376.4,187.2 L393.3,178.8 L406.5,165.6 L418.3,147.4 L431.6,126.1 L448.6,104.8 L470.0,86.7 L495.4,74.2 L523.0,68.3 L551.3,68.6 L578.8,73.7 L604.9,82.4 L629.1,93.7 L651.0,107.4 L669.9,123.5 L684.8,142.2 L695.1,162.9 L701.4,184.3 L705.1,204.8 L709.0,222.8 L716.1,237.8 L728.6,250.3 L746.7,261.9 L768.5,274.4 L790.2,289.3 L807.3,307.1 L816.2,327.0 Z"/>
<path class="c" d="M865.1,327.0 L864.4,350.9 L854.0,373.7 L838.1,394.5 L821.4,413.9 L808.2,433.4 L799.9,454.9 L795.3,479.5 L790.8,506.8 L782.1,534.3 L765.9,558.6 L741.1,576.2 L709.1,584.8 L673.0,584.4 L636.6,576.7 L602.9,565.4 L573.0,554.0 L546.9,545.3 L523.0,540.4 L499.8,538.7 L476.3,538.9 L451.9,539.3 L426.6,539.0 L400.2,537.7 L372.3,535.8 L342.3,533.4 L309.9,530.2 L275.7,524.8 L242.1,515.6 L212.5,500.9 L190.6,480.5 L179.2,455.3 L178.8,427.2 L187.4,398.9 L200.5,372.5 L213.1,348.7 L221.1,327.0 L222.8,306.0 L219.8,284.2 L216.0,261.2 L216.3,237.7 L224.5,215.7 L242.2,197.3 L267.8,184.0 L297.4,175.6 L326.7,170.0 L351.9,163.9 L371.7,154.2 L387.1,138.7 L400.8,117.4 L416.4,92.6 L436.2,67.8 L461.2,46.6 L490.7,32.1 L523.0,25.2 L556.0,25.5 L588.1,31.5 L618.6,41.7 L646.8,54.8 L672.4,70.7 L694.3,89.6 L711.7,111.4 L723.8,135.5 L731.1,160.5 L735.4,184.4 L740.0,205.4 L748.3,222.9 L762.8,237.5 L784.0,251.0 L809.4,265.6 L834.7,283.0 L854.7,303.8 L865.1,327.0 Z"/>
<path class="ix" d="M914.0,327.0 L913.2,354.3 L901.3,380.4 L883.1,404.2 L864.1,426.3 L848.9,448.6 L839.5,473.2 L834.2,501.3 L829.0,532.4 L819.1,563.9 L800.6,591.7 L772.3,611.8 L735.7,621.7 L694.4,621.1 L652.9,612.4 L614.3,599.5 L580.2,586.4 L550.3,576.5 L523.0,570.8 L496.5,569.0 L469.6,569.2 L441.7,569.6 L412.8,569.2 L382.7,567.8 L350.8,565.6 L316.5,562.9 L279.4,559.2 L240.4,553.1 L202.0,542.5 L168.1,525.8 L143.1,502.5 L130.1,473.6 L129.7,441.5 L139.4,409.2 L154.4,379.0 L168.9,351.8 L178.0,327.0 L180.0,303.0 L176.5,278.1 L172.2,251.8 L172.5,224.9 L181.9,199.7 L202.1,178.8 L231.3,163.6 L265.2,154.0 L298.7,147.5 L327.5,140.6 L350.1,129.5 L367.7,111.7 L383.4,87.5 L401.1,59.1 L423.8,30.7 L452.4,6.6 L486.1,-10.1 L523.0,-18.0 L560.7,-17.6 L597.4,-10.7 L632.2,0.9 L664.5,16.0 L693.7,34.1 L718.8,55.7 L738.7,80.6 L752.5,108.2 L760.8,136.7 L765.8,164.0 L771.0,188.1 L780.5,208.1 L797.1,224.7 L821.3,240.2 L850.4,256.8 L879.3,276.7 L902.1,300.5 L914.0,327.0 Z"/>
<path class="c" d="M962.8,327.0 L961.9,357.7 L948.6,387.0 L928.1,413.8 L906.7,438.7 L889.7,463.8 L879.0,491.4 L873.1,523.1 L867.3,558.1 L856.1,593.5 L835.3,624.7 L803.4,647.4 L762.2,658.5 L715.9,657.9 L669.1,648.1 L625.7,633.5 L587.3,618.9 L553.7,607.7 L523.0,601.3 L493.2,599.2 L462.9,599.4 L431.6,600.0 L399.0,599.5 L365.1,597.9 L329.3,595.4 L290.7,592.4 L249.0,588.2 L205.1,581.3 L161.9,569.4 L123.8,550.6 L95.6,524.4 L80.9,491.9 L80.5,455.8 L91.5,419.5 L108.4,385.5 L124.6,354.9 L134.8,327.0 L137.1,300.0 L133.2,272.0 L128.3,242.4 L128.6,212.2 L139.2,183.8 L161.9,160.2 L194.8,143.2 L233.0,132.3 L270.6,125.1 L303.1,117.3 L328.5,104.8 L348.2,84.8 L365.9,57.5 L385.9,25.6 L411.4,-6.3 L443.6,-33.5 L481.5,-52.2 L523.0,-61.1 L565.4,-60.7 L606.7,-52.9 L645.9,-39.9 L682.2,-22.9 L715.0,-2.5 L743.3,21.7 L765.6,49.8 L781.2,80.8 L790.6,112.9 L796.1,143.6 L802.0,170.7 L812.7,193.2 L831.4,212.0 L858.6,229.3 L891.3,248.1 L923.8,270.5 L949.4,297.2 L962.8,327.0 Z"/>
<text class="ct" x="612" y="351" text-anchor="middle">13,600</text>
<text class="ct" x="435" y="233" text-anchor="middle">12,800</text>
<text class="ct" x="516" y="512" text-anchor="middle">12,000</text>
<text class="ct" x="751" y="108" text-anchor="middle">11,200</text>
<circle class="dot" cx="523" cy="303" r="2.4"/>
<text class="pk" x="523" y="323" text-anchor="middle">PIKES PEAK</text>
<text class="el" x="523" y="344" text-anchor="middle">14,115&#8242;</text>
</svg>