<svg xmlns="http://www.w3.org/2000/svg" width="2000" height="1400" viewBox="0 0 2000 1400">
<style>
  .c  { fill:none; stroke:#2A1B11; stroke-opacity:0.07; stroke-width:1.1; }
  .ix { fill:none; stroke:#2A1B11; stroke-opacity:0.12; stroke-width:1.6; }
  .ct { font:500 10px 'IBM Plex Mono',ui-monospace,monospace; fill:#2A1B11; fill-opacity:0.32;
        stroke:#F4ECDB; stroke-width:3; paint-order:stroke; }
  .pk { font:600 11.5px 'Inter Tight','Helvetica Neue',sans-serif; letter-spacing:0.15em; fill:#2A1B11; fill-opacity:0.2; }
  .el { font:500 10.5px 'IBM Plex Mono',ui-monospace,monospace; fill:#9C6A33; fill-opacity:0.34; }
  .dot { fill:#2A1B11; fill-opacity:0.24; }
</style>
<path class="c" d="M1208.9,847.0 L1208.7,851.6 L1206.7,856.0 L1203.7,860.0 L1200.5,863.7 L1197.9,867.5 L1196.3,871.6 L1195.4,876.4 L1194.6,881.6 L1192.9,886.9 L1189.8,891.6 L1185.0,895.0 L1178.8,896.6 L1171.9,896.6 L1164.9,895.1 L1158.4,892.9 L1152.6,890.7 L1147.6,889.0 L1143.0,888.1 L1138.5,887.8 L1134.0,887.8 L1129.3,887.9 L1124.4,887.8 L1119.4,887.6 L1114.0,887.2 L1108.2,886.7 L1102.0,886.1 L1095.4,885.1 L1088.9,883.3 L1083.2,880.5 L1079.0,876.6 L1076.8,871.7 L1076.7,866.3 L1078.4,860.9 L1080.9,855.8 L1083.3,851.2 L1084.9,847.0 L1085.2,843.0 L1084.6,838.8 L1083.9,834.3 L1083.9,829.8 L1085.5,825.6 L1088.9,822.0 L1093.9,819.5 L1099.6,817.8 L1105.2,816.8 L1110.1,815.6 L1113.9,813.7 L1116.8,810.7 L1119.5,806.6 L1122.5,801.9 L1126.3,797.1 L1131.1,793.0 L1136.8,790.2 L1143.0,788.9 L1149.3,788.9 L1155.5,790.1 L1161.4,792.1 L1166.8,794.6 L1171.8,797.7 L1176.0,801.3 L1179.3,805.5 L1181.7,810.1 L1183.1,814.9 L1183.9,819.5 L1184.8,823.6 L1186.4,827.0 L1189.2,829.8 L1193.3,832.4 L1198.2,835.2 L1203.0,838.5 L1206.9,842.5 L1208.9,847.0 Z"/>
<path class="c" d="M1274.7,847.0 L1274.5,856.2 L1270.5,865.0 L1264.3,873.0 L1257.9,880.5 L1252.8,888.0 L1249.6,896.3 L1247.9,905.7 L1246.1,916.2 L1242.8,926.8 L1236.5,936.2 L1227.0,943.0 L1214.7,946.3 L1200.8,946.1 L1186.8,943.2 L1173.8,938.8 L1162.3,934.4 L1152.2,931.1 L1143.0,929.2 L1134.1,928.5 L1125.0,928.6 L1115.6,928.8 L1105.9,928.6 L1095.7,928.1 L1085.0,927.4 L1073.4,926.5 L1060.9,925.2 L1047.8,923.2 L1034.8,919.6 L1023.4,914.0 L1015.0,906.1 L1010.6,896.4 L1010.5,885.6 L1013.8,874.7 L1018.8,864.5 L1023.7,855.4 L1026.7,847.0 L1027.4,838.9 L1026.2,830.5 L1024.8,821.7 L1024.9,812.6 L1028.1,804.1 L1034.9,797.1 L1044.7,791.9 L1056.1,788.7 L1067.4,786.5 L1077.1,784.2 L1084.7,780.4 L1090.7,774.5 L1096.0,766.3 L1101.9,756.7 L1109.6,747.2 L1119.2,739.0 L1130.6,733.4 L1143.0,730.8 L1155.7,730.9 L1168.1,733.2 L1179.8,737.1 L1190.7,742.2 L1200.5,748.3 L1209.0,755.6 L1215.7,764.0 L1220.3,773.3 L1223.1,782.9 L1224.8,792.1 L1226.6,800.2 L1229.8,806.9 L1235.4,812.5 L1243.5,817.7 L1253.3,823.4 L1263.0,830.1 L1270.7,838.1 L1274.7,847.0 Z"/>
<path class="c" d="M1340.6,847.0 L1340.2,860.8 L1334.2,874.0 L1325.0,886.0 L1315.4,897.2 L1307.7,908.5 L1303.0,920.9 L1300.3,935.1 L1297.7,950.8 L1292.7,966.7 L1283.3,980.8 L1269.0,990.9 L1250.5,995.9 L1229.6,995.7 L1208.6,991.3 L1189.1,984.7 L1171.9,978.1 L1156.8,973.1 L1143.0,970.2 L1129.6,969.3 L1116.0,969.4 L1101.9,969.6 L1087.3,969.4 L1072.1,968.7 L1056.0,967.6 L1038.6,966.2 L1019.9,964.4 L1000.2,961.3 L980.8,955.9 L963.6,947.5 L951.0,935.7 L944.4,921.1 L944.2,904.9 L949.1,888.6 L956.7,873.3 L964.0,859.5 L968.6,847.0 L969.6,834.9 L967.9,822.3 L965.7,809.0 L965.8,795.4 L970.6,782.7 L980.8,772.1 L995.6,764.4 L1012.7,759.5 L1029.6,756.3 L1044.2,752.8 L1055.6,747.2 L1064.5,738.2 L1072.4,725.9 L1081.4,711.6 L1092.8,697.3 L1107.3,685.1 L1124.4,676.6 L1143.0,672.6 L1162.0,672.8 L1180.6,676.3 L1198.2,682.2 L1214.5,689.8 L1229.3,699.0 L1242.0,709.9 L1252.0,722.5 L1259.0,736.4 L1263.2,750.8 L1265.7,764.6 L1268.4,776.8 L1273.1,786.9 L1281.5,795.3 L1293.8,803.1 L1308.5,811.5 L1323.1,821.6 L1334.6,833.6 L1340.6,847.0 Z"/>
<path class="ix" d="M1406.5,847.0 L1405.9,865.4 L1398.0,883.0 L1385.7,899.0 L1372.9,913.9 L1362.6,928.9 L1356.3,945.5 L1352.7,964.5 L1349.2,985.4 L1342.5,1006.6 L1330.1,1025.4 L1311.0,1038.9 L1286.3,1045.6 L1258.5,1045.2 L1230.5,1039.3 L1204.5,1030.6 L1181.5,1021.8 L1161.4,1015.1 L1143.0,1011.3 L1125.2,1010.1 L1107.0,1010.2 L1088.2,1010.5 L1068.7,1010.3 L1048.4,1009.3 L1027.0,1007.8 L1003.9,1006.0 L978.9,1003.5 L952.6,999.4 L926.7,992.2 L903.8,981.0 L887.0,965.3 L878.2,945.8 L877.9,924.2 L884.5,902.4 L894.6,882.0 L904.3,863.7 L910.5,847.0 L911.8,830.8 L909.5,814.1 L906.6,796.3 L906.8,778.2 L913.1,761.2 L926.7,747.1 L946.4,736.9 L969.3,730.4 L991.8,726.1 L1011.3,721.4 L1026.5,713.9 L1038.3,701.9 L1048.9,685.6 L1060.9,666.5 L1076.1,647.3 L1095.4,631.1 L1118.2,619.8 L1143.0,614.5 L1168.4,614.8 L1193.2,619.4 L1216.6,627.2 L1238.4,637.4 L1258.0,649.6 L1275.0,664.1 L1288.3,680.9 L1297.7,699.5 L1303.3,718.8 L1306.6,737.2 L1310.1,753.4 L1316.5,766.9 L1327.7,778.1 L1344.0,788.5 L1363.6,799.7 L1383.1,813.1 L1398.4,829.1 L1406.5,847.0 Z"/>
<path class="c" d="M1472.3,847.0 L1471.7,870.0 L1461.7,892.0 L1446.3,912.0 L1430.3,930.7 L1417.6,949.4 L1409.6,970.1 L1405.1,993.8 L1400.8,1020.1 L1392.4,1046.5 L1376.8,1069.9 L1353.0,1086.9 L1322.1,1095.2 L1287.4,1094.8 L1252.4,1087.4 L1219.9,1076.5 L1191.2,1065.6 L1166.0,1057.2 L1143.0,1052.4 L1120.7,1050.8 L1098.0,1051.0 L1074.5,1051.4 L1050.2,1051.1 L1024.8,1049.8 L998.0,1048.0 L969.1,1045.7 L937.8,1042.6 L904.9,1037.4 L872.6,1028.5 L844.1,1014.5 L823.0,994.8 L812.0,970.5 L811.7,943.5 L819.9,916.3 L832.5,890.8 L844.7,867.9 L852.3,847.0 L854.0,826.8 L851.1,805.8 L847.5,783.6 L847.7,761.0 L855.6,739.8 L872.6,722.1 L897.3,709.3 L925.8,701.2 L954.0,695.8 L978.3,690.0 L997.4,680.6 L1012.1,665.7 L1025.4,645.2 L1040.3,621.3 L1059.4,597.4 L1083.5,577.1 L1111.9,563.0 L1143.0,556.4 L1174.7,556.7 L1205.7,562.5 L1235.0,572.3 L1262.2,585.0 L1286.8,600.3 L1308.0,618.4 L1324.7,639.4 L1336.3,662.7 L1343.4,686.7 L1347.5,709.7 L1351.9,730.0 L1359.9,746.8 L1373.9,760.9 L1394.3,773.8 L1418.8,787.9 L1443.1,804.7 L1462.3,824.7 L1472.3,847.0 Z"/>
<path class="c" d="M1538.2,847.0 L1537.4,874.6 L1525.4,900.9 L1507.0,925.0 L1487.8,947.4 L1472.5,969.9 L1462.9,994.8 L1457.6,1023.2 L1452.4,1054.7 L1442.3,1086.5 L1423.6,1114.5 L1395.0,1134.9 L1358.0,1144.9 L1316.3,1144.3 L1274.3,1135.5 L1235.3,1122.4 L1200.8,1109.3 L1170.6,1099.2 L1143.0,1093.5 L1116.3,1091.6 L1089.0,1091.8 L1060.8,1092.3 L1031.6,1091.9 L1001.1,1090.4 L969.0,1088.2 L934.3,1085.5 L896.8,1081.7 L857.3,1075.5 L818.5,1064.8 L784.3,1048.0 L759.0,1024.4 L745.8,995.2 L745.4,962.8 L755.3,930.1 L770.4,899.6 L785.0,872.1 L794.2,847.0 L796.2,822.7 L792.7,797.6 L788.3,771.0 L788.7,743.8 L798.2,718.4 L818.6,697.2 L848.1,681.8 L882.4,672.1 L916.2,665.6 L945.4,658.6 L968.2,647.3 L986.0,629.4 L1001.9,604.9 L1019.8,576.2 L1042.7,547.5 L1071.6,523.1 L1105.7,506.3 L1143.0,498.3 L1181.1,498.7 L1218.2,505.7 L1253.4,517.4 L1286.1,532.6 L1315.6,551.0 L1341.0,572.7 L1361.0,597.9 L1375.0,625.8 L1383.4,654.7 L1388.4,682.2 L1393.7,706.6 L1403.3,726.8 L1420.1,743.6 L1444.5,759.2 L1473.9,776.1 L1503.1,796.2 L1526.2,820.2 L1538.2,847.0 Z"/>
<path class="c" d="M1604.1,847.0 L1603.1,879.2 L1589.2,909.9 L1567.7,938.0 L1545.2,964.1 L1527.4,990.4 L1516.2,1019.4 L1510.0,1052.6 L1503.9,1089.3 L1492.2,1126.4 L1470.4,1159.1 L1437.0,1182.9 L1393.8,1194.5 L1345.2,1193.9 L1296.1,1183.6 L1250.6,1168.3 L1210.4,1153.0 L1175.2,1141.2 L1143.0,1134.6 L1111.8,1132.4 L1080.0,1132.6 L1047.2,1133.2 L1013.0,1132.7 L977.5,1130.9 L939.9,1128.4 L899.5,1125.2 L855.7,1120.9 L809.7,1113.6 L764.4,1101.1 L724.5,1081.4 L695.0,1053.9 L679.6,1019.9 L679.1,982.1 L690.6,944.0 L708.3,908.3 L725.3,876.2 L736.1,847.0 L738.4,818.7 L734.4,789.4 L729.2,758.3 L729.6,726.6 L740.7,696.9 L764.5,672.2 L799.0,654.3 L839.0,642.9 L878.4,635.3 L912.4,627.2 L939.1,614.0 L959.8,593.1 L978.4,564.5 L999.3,531.1 L1026.0,497.6 L1059.7,469.1 L1099.5,449.5 L1143.0,440.2 L1187.4,440.6 L1230.8,448.8 L1271.8,462.4 L1309.9,480.2 L1344.3,501.6 L1373.9,527.0 L1397.4,556.4 L1413.7,588.9 L1423.5,622.6 L1429.3,654.8 L1435.5,683.2 L1446.7,706.7 L1466.3,726.4 L1494.8,744.6 L1529.1,764.2 L1563.2,787.7 L1590.0,815.7 L1604.1,847.0 Z"/>
<path class="ix" d="M1670.0,847.0 L1668.9,883.8 L1652.9,918.9 L1628.3,951.0 L1602.7,980.9 L1582.3,1010.9 L1569.5,1044.0 L1562.4,1081.9 L1555.5,1123.9 L1542.1,1166.3 L1517.2,1203.7 L1479.0,1230.8 L1429.6,1244.2 L1374.1,1243.4 L1318.0,1231.7 L1266.0,1214.2 L1220.1,1196.7 L1179.8,1183.3 L1143.0,1175.7 L1107.3,1173.1 L1071.1,1173.4 L1033.5,1174.0 L994.5,1173.5 L953.8,1171.5 L910.9,1168.6 L864.7,1165.0 L814.7,1160.0 L762.1,1151.7 L710.3,1137.4 L664.7,1114.9 L631.0,1083.5 L613.4,1044.6 L612.8,1001.4 L626.0,957.8 L646.3,917.1 L665.7,880.4 L678.0,847.0 L680.6,814.6 L676.0,781.1 L670.1,745.6 L670.5,709.4 L683.2,675.5 L710.4,647.2 L749.8,626.8 L795.6,613.8 L840.6,605.1 L879.5,595.8 L910.0,580.8 L933.6,556.9 L954.8,524.2 L978.7,486.0 L1009.3,447.7 L1047.8,415.1 L1093.3,392.7 L1143.0,382.1 L1193.8,382.6 L1243.3,391.9 L1290.2,407.5 L1333.7,427.8 L1373.1,452.3 L1406.9,481.3 L1433.7,514.9 L1452.4,552.1 L1463.6,590.5 L1470.3,627.3 L1477.3,659.7 L1490.1,686.7 L1512.4,709.2 L1545.0,729.9 L1584.2,752.4 L1623.2,779.3 L1653.9,811.2 L1670.0,847.0 Z"/>
<path class="c" d="M1735.8,847.0 L1734.6,888.4 L1716.7,927.9 L1689.0,964.0 L1660.2,997.6 L1637.2,1031.4 L1622.9,1068.6 L1614.8,1111.3 L1607.0,1158.5 L1592.0,1206.2 L1563.9,1248.3 L1520.9,1278.8 L1465.4,1293.8 L1402.9,1293.0 L1339.9,1279.8 L1281.4,1260.1 L1229.7,1240.4 L1184.4,1225.3 L1143.0,1216.7 L1102.9,1213.9 L1062.1,1214.2 L1019.8,1214.9 L975.9,1214.3 L930.2,1212.1 L881.9,1208.8 L829.9,1204.7 L773.7,1199.1 L714.5,1189.8 L656.3,1173.7 L604.9,1148.4 L567.0,1113.1 L547.2,1069.3 L546.6,1020.7 L561.4,971.7 L584.2,925.8 L606.0,884.6 L619.8,847.0 L622.8,810.6 L617.6,772.9 L611.0,733.0 L611.5,692.2 L625.8,654.0 L656.4,622.2 L700.7,599.2 L752.1,584.6 L802.8,574.9 L846.6,564.4 L880.8,547.5 L907.4,520.6 L931.3,483.8 L958.2,440.8 L992.5,397.8 L1035.9,361.2 L1087.1,335.9 L1143.0,323.9 L1200.1,324.5 L1255.9,335.0 L1308.6,352.5 L1357.6,375.4 L1401.8,402.9 L1439.9,435.6 L1470.0,473.4 L1491.0,515.2 L1503.6,558.5 L1511.2,599.9 L1519.1,636.3 L1533.4,666.7 L1558.6,692.0 L1595.3,715.3 L1639.4,740.6 L1683.2,770.8 L1717.8,806.8 L1735.8,847.0 Z"/>
<path class="c" d="M1801.7,847.0 L1800.3,893.0 L1780.4,936.9 L1749.7,977.0 L1717.6,1014.3 L1692.1,1051.8 L1676.2,1093.3 L1667.3,1140.7 L1658.6,1193.1 L1641.9,1246.1 L1610.7,1292.9 L1562.9,1326.8 L1501.3,1343.4 L1431.8,1342.5 L1361.8,1327.9 L1296.8,1306.0 L1239.3,1284.1 L1189.0,1267.3 L1143.0,1257.8 L1098.4,1254.7 L1053.1,1255.0 L1006.1,1255.8 L957.3,1255.1 L906.6,1252.6 L852.9,1248.9 L795.1,1244.4 L732.6,1238.2 L666.9,1227.9 L602.2,1210.0 L545.1,1181.9 L502.9,1142.6 L481.0,1094.0 L480.3,1040.0 L496.8,985.5 L522.1,934.6 L546.3,888.8 L561.7,847.0 L565.0,806.5 L559.2,764.7 L551.9,720.3 L552.4,675.0 L568.3,632.6 L602.3,597.3 L651.5,571.7 L708.7,555.5 L765.0,544.6 L813.6,533.0 L851.7,514.2 L881.3,484.3 L907.8,443.5 L937.7,395.7 L975.8,347.9 L1024.0,307.2 L1080.9,279.1 L1143.0,265.8 L1206.5,266.4 L1268.4,278.1 L1327.0,297.6 L1381.4,323.0 L1430.6,353.6 L1472.9,389.8 L1506.4,431.8 L1529.7,478.3 L1543.7,526.4 L1552.1,572.4 L1560.9,612.9 L1576.8,646.6 L1604.8,674.7 L1645.5,700.7 L1694.5,728.8 L1743.2,762.3 L1781.6,802.3 L1801.7,847.0 Z"/>
<path class="c" d="M1867.6,847.0 L1866.1,897.6 L1844.1,945.9 L1810.3,990.0 L1775.1,1031.1 L1747.0,1072.3 L1729.5,1117.9 L1719.7,1170.0 L1710.2,1227.7 L1691.7,1286.0 L1657.5,1337.5 L1604.9,1374.8 L1537.1,1393.1 L1460.7,1392.1 L1383.7,1376.0 L1312.1,1352.0 L1249.0,1327.8 L1193.6,1309.4 L1143.0,1298.9 L1094.0,1295.4 L1044.1,1295.8 L992.4,1296.7 L938.7,1295.9 L882.9,1293.2 L823.9,1289.1 L760.3,1284.2 L691.6,1277.4 L619.3,1266.0 L548.1,1246.4 L485.3,1215.4 L438.9,1172.2 L414.8,1118.7 L414.0,1059.3 L432.1,999.4 L460.0,943.3 L486.7,892.9 L503.6,847.0 L507.2,802.5 L500.9,756.4 L492.8,707.6 L493.4,657.8 L510.8,611.2 L548.2,572.3 L602.4,544.2 L665.3,526.3 L727.3,514.4 L780.7,501.6 L822.6,480.9 L855.1,448.1 L884.3,403.1 L917.1,350.6 L959.1,297.9 L1012.1,253.2 L1074.7,222.3 L1143.0,207.7 L1212.8,208.4 L1280.9,221.2 L1345.4,242.7 L1405.3,270.6 L1459.4,304.2 L1505.9,344.1 L1542.7,390.3 L1568.4,441.5 L1583.8,494.4 L1593.0,544.9 L1602.6,589.5 L1620.2,626.6 L1651.0,657.5 L1695.8,686.0 L1749.7,717.0 L1803.2,753.9 L1845.5,797.8 L1867.6,847.0 Z"/>
<path class="ix" d="M1933.4,847.0 L1931.8,902.2 L1907.9,954.9 L1871.0,1003.0 L1832.6,1047.8 L1801.9,1092.8 L1782.8,1142.5 L1772.1,1199.4 L1761.7,1262.3 L1741.6,1325.9 L1704.2,1382.1 L1646.9,1422.7 L1572.9,1442.7 L1489.6,1441.6 L1405.5,1424.0 L1327.5,1397.9 L1258.6,1371.5 L1198.2,1351.4 L1143.0,1340.0 L1089.5,1336.2 L1035.1,1336.6 L978.7,1337.6 L920.2,1336.8 L859.3,1333.8 L794.9,1329.3 L725.6,1323.9 L650.6,1316.5 L571.7,1304.1 L494.0,1282.7 L425.5,1248.9 L374.9,1201.8 L348.6,1143.4 L347.8,1078.6 L367.5,1013.2 L397.9,952.1 L427.0,897.1 L445.4,847.0 L449.4,798.5 L442.5,748.2 L433.7,695.0 L434.3,640.6 L453.4,589.7 L494.2,547.3 L553.2,516.6 L621.8,497.2 L689.5,484.2 L747.8,470.2 L793.4,447.6 L828.9,411.8 L860.7,362.8 L896.6,305.4 L942.4,248.0 L1000.2,199.2 L1068.5,165.5 L1143.0,149.6 L1219.2,150.3 L1293.5,164.3 L1363.8,187.7 L1429.1,218.1 L1488.1,254.9 L1538.9,298.4 L1579.0,348.8 L1607.0,404.6 L1623.8,462.3 L1633.9,517.5 L1644.4,566.1 L1663.6,606.6 L1697.2,640.3 L1746.0,671.4 L1804.8,705.1 L1863.3,745.4 L1909.3,793.4 L1933.4,847.0 Z"/>
<path class="c" d="M1999.3,847.0 L1997.5,906.8 L1971.6,963.9 L1931.6,1016.1 L1890.0,1064.5 L1856.9,1113.3 L1836.1,1167.1 L1824.6,1228.8 L1813.3,1296.9 L1791.5,1365.8 L1751.0,1426.7 L1688.9,1470.7 L1608.8,1492.4 L1518.5,1491.2 L1427.4,1472.1 L1342.9,1443.8 L1268.2,1415.2 L1202.8,1393.4 L1143.0,1381.1 L1085.0,1377.0 L1026.1,1377.4 L965.0,1378.4 L901.6,1377.6 L835.6,1374.3 L765.9,1369.5 L690.8,1363.7 L609.5,1355.6 L524.1,1342.2 L439.9,1319.0 L365.7,1282.4 L310.9,1231.3 L282.4,1168.0 L281.5,1097.9 L302.9,1027.1 L335.8,960.9 L367.3,901.3 L387.3,847.0 L391.7,794.4 L384.1,740.0 L374.6,682.3 L375.2,623.4 L395.9,568.3 L440.1,522.3 L504.1,489.1 L578.4,468.0 L651.7,453.9 L714.8,438.8 L764.3,414.3 L802.8,375.5 L837.2,322.4 L876.1,260.3 L925.7,198.1 L988.3,145.2 L1062.3,108.7 L1143.0,91.5 L1225.5,92.3 L1306.0,107.4 L1382.2,132.8 L1452.9,165.7 L1516.9,205.6 L1571.9,252.7 L1615.4,307.3 L1645.7,367.7 L1663.9,430.3 L1674.8,490.0 L1686.2,542.7 L1707.0,586.5 L1743.4,623.0 L1796.3,656.8 L1860.0,693.3 L1923.3,736.9 L1973.2,788.9 L1999.3,847.0 Z"/>
<path class="c" d="M2065.2,847.0 L2063.3,911.4 L2035.4,972.9 L1992.3,1029.1 L1947.5,1081.3 L1911.8,1133.8 L1889.4,1191.8 L1877.0,1258.2 L1864.8,1331.5 L1841.4,1405.7 L1797.8,1471.3 L1730.9,1518.7 L1644.6,1542.0 L1547.4,1540.7 L1449.3,1520.2 L1358.3,1489.7 L1277.9,1459.0 L1207.4,1435.5 L1143.0,1422.2 L1080.6,1417.7 L1017.1,1418.2 L951.3,1419.3 L883.0,1418.4 L812.0,1414.9 L736.9,1409.7 L656.0,1403.4 L568.5,1394.7 L476.4,1380.2 L385.8,1355.3 L305.9,1315.9 L246.9,1260.9 L216.2,1192.7 L215.2,1117.1 L238.3,1040.9 L273.7,969.6 L307.7,905.5 L329.2,847.0 L333.9,790.4 L325.7,731.7 L315.5,669.6 L316.2,606.3 L338.4,546.9 L386.0,497.4 L454.9,461.6 L535.0,438.8 L613.9,423.7 L681.9,407.4 L735.2,381.1 L776.6,339.3 L813.7,282.1 L855.5,215.2 L908.9,148.2 L976.4,91.3 L1056.1,51.9 L1143.0,33.4 L1231.9,34.2 L1318.6,50.5 L1400.6,77.9 L1476.8,113.3 L1545.6,156.2 L1604.9,207.0 L1651.7,265.8 L1684.4,330.9 L1704.0,398.2 L1715.7,462.6 L1728.0,519.3 L1750.3,566.5 L1789.5,605.8 L1846.5,642.1 L1915.1,681.5 L1983.3,728.5 L2037.1,784.4 L2065.2,847.0 Z"/>
<path class="c" d="M2131.0,847.0 L2129.0,916.0 L2099.1,981.9 L2053.0,1042.1 L2005.0,1098.0 L1966.7,1154.3 L1942.8,1216.4 L1929.4,1287.5 L1916.4,1366.2 L1891.3,1445.6 L1844.5,1515.8 L1772.9,1566.7 L1680.4,1591.7 L1576.2,1590.3 L1471.2,1568.3 L1373.6,1535.6 L1287.5,1502.7 L1212.0,1477.5 L1143.0,1463.2 L1076.1,1458.5 L1008.1,1459.0 L937.6,1460.2 L864.5,1459.2 L788.3,1455.5 L707.9,1449.9 L621.2,1443.2 L527.5,1433.9 L428.8,1418.3 L331.8,1391.6 L246.2,1349.4 L182.9,1290.4 L150.0,1217.4 L149.0,1136.4 L173.7,1054.8 L211.6,978.4 L248.0,909.6 L271.0,847.0 L276.1,786.3 L267.4,723.5 L256.4,656.9 L257.1,589.1 L280.9,525.4 L331.9,472.4 L405.8,434.0 L491.5,409.7 L576.1,393.5 L648.9,376.0 L706.1,347.8 L750.4,303.0 L790.2,241.7 L835.0,170.0 L892.2,98.3 L964.5,37.3 L1049.8,-4.9 L1143.0,-24.8 L1238.2,-23.8 L1331.1,-6.4 L1419.0,22.9 L1500.6,60.9 L1574.4,106.9 L1637.9,161.3 L1688.1,224.3 L1723.0,294.0 L1744.1,366.2 L1756.6,435.1 L1769.8,495.9 L1793.7,546.4 L1835.7,588.6 L1896.8,627.5 L1970.3,669.7 L2043.3,720.0 L2100.9,780.0 L2131.0,847.0 Z"/>
<text class="ct" x="1038" y="969" text-anchor="middle">13,200</text>
<text class="ct" x="1134" y="1095" text-anchor="middle">12,000</text>
<text class="ct" x="1485" y="1294" text-anchor="middle">10,800</text>
<text class="ct" x="1802" y="1095" text-anchor="middle">9,600</text>
<text class="ct" x="2063" y="740" text-anchor="middle">8,400</text>
<circle class="dot" cx="1143" cy="823" r="2.4"/>
<text class="pk" x="1143" y="843" text-anchor="middle">PIKES PEAK</text>
<text class="el" x="1143" y="864" text-anchor="middle">14,115&#8242;</text>
</svg>