<svg xmlns="http://www.w3.org/2000/svg" width="2000" height="1400" viewBox="0 0 2000 1400">
<style>
  .c  { fill:none; stroke:#2A1B11; stroke-opacity:0.07; stroke-width:1.1; }
  .ix { fill:none; stroke:#2A1B11; stroke-opacity:0.12; stroke-width:1.6; }
  .ct { font:500 10px 'IBM Plex Mono',ui-monospace,monospace; fill:#2A1B11; fill-opacity:0.32;
        stroke:#F4ECDB; stroke-width:3; paint-order:stroke; }
  .pk { font:600 11.5px 'Inter Tight','Helvetica Neue',sans-serif; letter-spacing:0.15em; fill:#2A1B11; fill-opacity:0.2; }
  .el { font:500 10.5px 'IBM Plex Mono',ui-monospace,monospace; fill:#9C6A33; fill-opacity:0.34; }
  .dot { fill:#2A1B11; fill-opacity:0.24; }
</style>
<path class="c" d="M1208.9,847.0 L1208.7,851.6 L1206.7,856.0 L1203.7,860.0 L1200.5,863.7 L1197.9,867.5 L1196.3,871.6 L1195.4,876.4 L1194.6,881.6 L1192.9,886.9 L1189.8,891.6 L1185.0,895.0 L1178.8,896.6 L1171.9,896.6 L1164.9,895.1 L1158.4,892.9 L1152.6,890.7 L1147.6,889.0 L1143.0,888.1 L1138.5,887.8 L1134.0,887.8 L1129.3,887.9 L1124.4,887.8 L1119.4,887.6 L1114.0,887.2 L1108.2,886.7 L1102.0,886.1 L1095.4,885.1 L1088.9,883.3 L1083.2,880.5 L1079.0,876.6 L1076.8,871.7 L1076.7,866.3 L1078.4,860.9 L1080.9,855.8 L1083.3,851.2 L1084.9,847.0 L1085.2,843.0 L1084.6,838.8 L1083.9,834.3 L1083.9,829.8 L1085.5,825.6 L1088.9,822.0 L1093.9,819.5 L1099.6,817.8 L1105.2,816.8 L1110.1,815.6 L1113.9,813.7 L1116.8,810.7 L1119.5,806.6 L1122.5,801.9 L1126.3,797.1 L1131.1,793.0 L1136.8,790.2 L1143.0,788.9 L1149.3,788.9 L1155.5,790.1 L1161.4,792.1 L1166.8,794.6 L1171.8,797.7 L1176.0,801.3 L1179.3,805.5 L1181.7,810.1 L1183.1,814.9 L1183.9,819.5 L1184.8,823.6 L1186.4,827.0 L1189.2,829.8 L1193.3,832.4 L1198.2,835.2 L1203.0,838.5 L1206.9,842.5 L1208.9,847.0 Z"/>
<path class="c" d="M1274.7,847.0 L1274.5,856.2 L1270.5,865.0 L1264.3,873.0 L1257.9,880.5 L1252.8,888.0 L1249.6,896.3 L1247.9,905.7 L1246.1,916.2 L1242.8,926.8 L1236.5,936.2 L1227.0,943.0 L1214.7,946.3 L1200.8,946.1 L1186.8,943.2 L1173.8,938.8 L1162.3,934.4 L1152.2,931.1 L1143.0,929.2 L1134.1,928.5 L1125.0,928.6 L1115.6,928.8 L1105.9,928.6 L1095.7,928.1 L1085.0,927.4 L1073.4,926.5 L1060.9,925.2 L1047.8,923.2 L1034.8,919.6 L1023.4,914.0 L1015.0,906.1 L1010.6,896.4 L1010.5,885.6 L1013.8,874.7 L1018.8,864.5 L1023.7,855.4 L1026.7,847.0 L1027.4,838.9 L1026.2,830.5 L1024.8,821.7 L1024.9,812.6 L1028.1,804.1 L1034.9,797.1 L1044.7,791.9 L1056.1,788.7 L1067.4,786.5 L1077.1,784.2 L1084.7,780.4 L1090.7,774.5 L1096.0,766.3 L1101.9,756.7 L1109.6,747.2 L1119.2,739.0 L1130.6,733.4 L1143.0,730.8 L1155.7,730.9 L1168.1,733.2 L1179.8,737.1 L1190.7,742.2 L1200.5,748.3 L1209.0,755.6 L1215.7,764.0 L1220.3,773.3 L1223.1,782.9 L1224.8,792.1 L1226.6,800.2 L1229.8,806.9 L1235.4,812.5 L1243.5,817.7 L1253.3,823.4 L1263.0,830.1 L1270.7,838.1 L1274.7,847.0 Z"/>
<path class="c" d="M1340.6,847.0 L1340.2,860.8 L1334.2,874.0 L1325.0,886.0 L1315.4,897.2 L1307.7,908.5 L1303.0,920.9 L1300.3,935.1 L1297.7,950.8 L1292.7,966.7 L1283.3,980.8 L1269.0,990.9 L1250.5,995.9 L1229.6,995.7 L1208.6,991.3 L1189.1,984.7 L1171.9,978.1 L1156.8,973.1 L1143.0,970.2 L1129.6,969.3 L1116.0,969.4 L1101.9,969.6 L1087.3,969.4 L1072.1,968.7 L1056.0,967.6 L1038.6,966.2 L1019.9,964.4 L1000.2,961.3 L980.8,955.9 L963.6,947.5 L951.0,935.7 L944.4,921.1 L944.2,904.9 L949.1,888.6 L956.7,873.3 L964.0,859.5 L968.6,847.0 L969.6,834.9 L967.9,822.3 L965.7,809.0 L965.8,795.4 L970.6,782.7 L980.8,772.1 L995.6,764.4 L1012.7,759.5 L1029.6,756.3 L1044.2,752.8 L1055.6,747.2 L1064.5,738.2 L1072.4,725.9 L1081.4,711.6 L1092.8,697.3 L1107.3,685.1 L1124.4,676.6 L1143.0,672.6 L1162.0,672.8 L1180.6,676.3 L1198.2,682.2 L1214.5,689.8 L1229.3,699.0 L1242.0,709.9 L1252.0,722.5 L1259.0,736.4 L1263.2,750.8 L1265.7,764.6 L1268.4,776.8 L1273.1,786.9 L1281.5,795.3 L1293.8,803.1 L1308.5,811.5 L1323.1,821.6 L1334.6,833.6 L1340.6,847.0 Z"/>
<path class="ix" d="M1406.5,847.0 L1405.9,865.4 L1398.0,883.0 L1385.7,899.0 L1372.9,913.9 L1362.6,928.9 L1356.3,945.5 L1352.7,964.5 L1349.2,985.4 L1342.5,1006.6 L1330.1,1025.4 L1311.0,1038.9 L1286.3,1045.6 L1258.5,1045.2 L1230.5,1039.3 L1204.5,1030.6 L1181.5,1021.8 L1161.4,1015.1 L1143.0,1011.3 L1125.2,1010.1 L1107.0,1010.2 L1088.2,1010.5 L1068.7,1010.3 L1048.4,1009.3 L1027.0,1007.8 L1003.9,1006.0 L978.9,1003.5 L952.6,999.4 L926.7,992.2 L903.8,981.0 L887.0,965.3 L878.2,945.8 L877.9,924.2 L884.5,902.4 L894.6,882.0 L904.3,863.7 L910.5,847.0 L911.8,830.8 L909.5,814.1 L906.6,796.3 L906.8,778.2 L913.1,761.2 L926.7,747.1 L946.4,736.9 L969.3,730.4 L991.8,726.1 L1011.3,721.4 L1026.5,713.9 L1038.3,701.9 L1048.9,685.6 L1060.9,666.5 L1076.1,647.3 L1095.4,631.1 L1118.2,619.8 L1143.0,614.5 L1168.4,614.8 L1193.2,619.4 L1216.6,627.2 L1238.4,637.4 L1258.0,649.6 L1275.0,664.1 L1288.3,680.9 L1297.7,699.5 L1303.3,718.8 L1306.6,737.2 L1310.1,753.4 L1316.5,766.9 L1327.7,778.1 L1344.0,788.5 L1363.6,799.7 L1383.1,813.1 L1398.4,829.1 L1406.5,847.0 Z"/>
<path class="c" d="M1472.3,847.0 L1471.7,870.0 L1461.7,892.0 L1446.3,912.0 L1430.3,930.7 L1417.6,949.4 L1409.6,970.1 L1405.1,993.8 L1400.8,1020.1 L1392.4,1046.5 L1376.8,1069.9 L1353.0,1086.9 L1322.1,1095.2 L1287.4,1094.8 L1252.4,1087.4 L1219.9,1076.5 L1191.2,1065.6 L1166.0,1057.2 L1143.0,1052.4 L1120.7,1050.8 L1098.0,1051.0 L1074.5,1051.4 L1050.2,1051.1 L1024.8,1049.8 L998.0,1048.0 L969.1,1045.7 L937.8,1042.6 L904.9,1037.4 L872.6,1028.5 L844.1,1014.5 L823.0,994.8 L812.0,970.5 L811.7,943.5 L819.9,916.3 L832.5,890.8 L844.7,867.9 L852.3,847.0 L854.0,826.8 L851.1,805.8 L847.5,783.6 L847.7,761.0 L855.6,739.8 L872.6,722.1 L897.3,709.3 L925.8,701.2 L954.0,695.8 L978.3,690.0 L997.4,680.6 L1012.1,665.7 L1025.4,645.2 L1040.3,621.3 L1059.4,597.4 L1083.5,577.1 L1111.9,563.0 L1143.0,556.4 L1174.7,556.7 L1205.7,562.5 L1235.0,572.3 L1262.2,585.0 L1286.8,600.3 L1308.0,618.4 L1324.7,639.4 L1336.3,662.7 L1343.4,686.7 L1347.5,709.7 L1351.9,730.0 L1359.9,746.8 L1373.9,760.9 L1394.3,773.8 L1418.8,787.9 L1443.1,804.7 L1462.3,824.7 L1472.3,847.0 Z"/>
<path class="c" d="M1538.2,847.0 L1537.4,874.6 L1525.4,900.9 L1507.0,925.0 L1487.8,947.4 L1472.5,969.9 L1462.9,994.8 L1457.6,1023.2 L1452.4,1054.7 L1442.3,1086.5 L1423.6,1114.5 L1395.0,1134.9 L1358.0,1144.9 L1316.3,1144.3 L1274.3,1135.5 L1235.3,1122.4 L1200.8,1109.3 L1170.6,1099.2 L1143.0,1093.5 L1116.3,1091.6 L1089.0,1091.8 L1060.8,1092.3 L1031.6,1091.9 L1001.1,1090.4 L969.0,1088.2 L934.3,1085.5 L896.8,1081.7 L857.3,1075.5 L818.5,1064.8 L784.3,1048.0 L759.0,1024.4 L745.8,995.2 L745.4,962.8 L755.3,930.1 L770.4,899.6 L785.0,872.1 L794.2,847.0 L796.2,822.7 L792.7,797.6 L788.3,771.0 L788.7,743.8 L798.2,718.4 L818.6,697.2 L848.1,681.8 L882.4,672.1 L916.2,665.6 L945.4,658.6 L968.2,647.3 L986.0,629.4 L1001.9,604.9 L1019.8,576.2 L1042.7,547.5 L1071.6,523.1 L1105.7,506.3 L1143.0,498.3 L1181.1,498.7 L1218.2,505.7 L1253.4,517.4 L1286.1,532.6 L1315.6,551.0 L1341.0,572.7 L1361.0,597.9 L1375.0,625.8 L1383.4,654.7 L1388.4,682.2 L1393.7,706.6 L1403.3,726.8 L1420.1,743.6 L1444.5,759.2 L1473.9,776.1 L1503.1,796.2 L1526.2,820.2 L1538.2,847.0 Z"/>
<path class="c" d="M1604.1,847.0 L1603.1,879.2 L1589.2,909.9 L1567.7,938.0 L1545.2,964.1 L1527.4,990.4 L1516.2,1019.4 L1510.0,1052.6 L1503.9,1089.3 L1492.2,1126.4 L1470.4,1159.1 L1437.0,1182.9 L1393.8,1194.5 L1345.2,1193.9 L1296.1,1183.6 L1250.6,1168.3 L1210.4,1153.0 L1175.2,1141.2 L1143.0,1134.6 L1111.8,1132.4 L1080.0,1132.6 L1047.2,1133.2 L1013.0,1132.7 L977.5,1130.9 L939.9,1128.4 L899.5,1125.2 L855.7,1120.9 L809.7,1113.6 L764.4,1101.1 L724.5,1081.4 L695.0,1053.9 L679.6,1019.9 L679.1,982.1 L690.6,944.0 L708.3,908.3 L725.3,876.2 L736.1,847.0 L738.4,818.7 L734.4,789.4 L729.2,758.3 L729.6,726.6 L740.7,696.9 L764.5,672.2 L799.0,654.3 L839.0,642.9 L878.4,635.3 L912.4,627.2 L939.1,614.0 L959.8,593.1 L978.4,564.5 L999.3,531.1 L1026.0,497.6 L1059.7,469.1 L1099.5,449.5 L1143.0,440.2 L1187.4,440.6 L1230.8,448.8 L1271.8,462.4 L1309.9,480.2 L1344.3,501.6 L1373.9,527.0 L1397.4,556.4 L1413.7,588.9 L1423.5,622.6 L1429.3,654.8 L1435.5,683.2 L1446.7,706.7 L1466.3,726.4 L1494.8,744.6 L1529.1,764.2 L1563.2,787.7 L1590.0,815.7 L1604.1,847.0 Z"/>
<path class="ix" d="M1670.0,847.0 L1668.9,883.8 L1652.9,918.9 L1628.3,951.0 L1602.7,980.9 L1582.3,1010.9 L1569.5,1044.0 L1562.4,1081.9 L1555.5,1123.9 L1542.1,1166.3 L1517.2,1203.7 L1479.0,1230.8 L1429.6,1244.2 L1374.1,1243.4 L1318.0,1231.7 L1266.0,1214.2 L1220.1,1196.7 L1179.8,1183.3 L1143.0,1175.7 L1107.3,1173.1 L1071.1,1173.4 L1033.5,1174.0 L994.5,1173.5 L953.8,1171.5 L910.9,1168.6 L864.7,1165.0 L814.7,1160.0 L762.1,1151.7 L710.3,1137.4 L664.7,1114.9 L631.0,1083.5 L613.4,1044.6 L612.8,1001.4 L626.0,957.8 L646.3,917.1 L665.7,880.4 L678.0,847.0 L680.6,814.6 L676.0,781.1 L670.1,745.6 L670.5,709.4 L683.2,675.5 L710.4,647.2 L749.8,626.8 L795.6,613.8 L840.6,605.1 L879.5,595.8 L910.0,580.8 L933.6,556.9 L954.8,524.2 L978.7,486.0 L1009.3,447.7 L1047.8,415.1 L1093.3,392.7 L1143.0,382.1 L1193.8,382.6 L1243.3,391.9 L1290.2,407.5 L1333.7,427.8 L1373.1,452.3 L1406.9,481.3 L1433.7,514.9 L1452.4,552.1 L1463.6,590.5 L1470.3,627.3 L1477.3,659.7 L1490.1,686.7 L1512.4,709.2 L1545.0,729.9 L1584.2,752.4 L1623.2,779.3 L1653.9,811.2 L1670.0,847.0 Z"/>
<path class="c" d="M1735.8,847.0 L1734.6,888.4 L1716.7,927.9 L1689.0,964.0 L1660.2,997.6 L1637.2,1031.4 L1622.9,1068.6 L1614.8,1111.3 L1607.0,1158.5 L1592.0,1206.2 L1563.9,1248.3 L1520.9,1278.8 L1465.4,1293.8 L1402.9,1293.0 L1339.9,1279.8 L1281.4,1260.1 L1229.7,1240.4 L1184.4,1225.3 L1143.0,1216.7 L1102.9,1213.9 L1062.1,1214.2 L1019.8,1214.9 L975.9,1214.3 L930.2,1212.1 L881.9,1208.8 L829.9,1204.7 L773.7,1199.1 L714.5,1189.8 L656.3,1173.7 L604.9,1148.4 L567.0,1113.1 L547.2,1069.3 L546.6,1020.7 L561.4,971.7 L584.2,925.8 L606.0,884.6 L619.8,847.0 L622.8,810.6 L617.6,772.9 L611.0,733.0 L611.5,692.2 L625.8,654.0 L656.4,622.2 L700.7,599.2 L752.1,584.6 L802.8,574.9 L846.6,564.4 L880.8,547.5 L907.4,520.6 L931.3,483.8 L958.2,440.8 L992.5,397.8 L1035.9,361.2 L1087.1,335.9 L1143.0,323.9 L1200.1,324.5 L1255.9,335.0 L1308.6,352.5 L1357.6,375.4 L1401.8,402.9 L1439.9,435.6 L1470.0,473.4 L1491.0,515.2 L1503.6,558.5 L1511.2,599.9 L1519.1,636.3 L1533.4,666.7 L1558.6,692.0 L1595.3,715.3 L1639.4,740.6 L1683.2,770.8 L1717.8,806.8 L1735.8,847.0 Z"/>
<path class="c" d="M1801.7,847.0 L1800.3,893.0 L1780.4,936.9 L1749.7,977.0 L1717.6,1014.3 L1692.1,1051.8 L1676.2,1093.3 L1667.3,1140.7 L1658.6,1193.1 L1641.9,1246.1 L1610.7,1292.9 L1562.9,1326.8 L1501.3,1343.4 L1431.8,1342.5 L1361.8,1327.9 L1296.8,1306.0 L1239.3,1284.1 L1189.0,1267.3 L1143.0,1257.8 L1098.4,1254.7 L1053.1,1255.0 L1006.1,1255.8 L957.3,1255.1 L906.6,1252.6 L852.9,1248.9 L795.1,1244.4 L732.6,1238.2 L666.9,1227.9 L602.2,1210.0 L545.1,1181.9 L502.9,1142.6 L481.0,1094.0 L480.3,1040.0 L496.8,985.5 L522.1,934.6 L546.3,888.8 L561.7,847.0 L565.0,806.5 L559.2,764.7 L551.9,720.3 L552.4,675.0 L568.3,632.6 L602.3,597.3 L651.5,571.7 L708.7,555.5 L765.0,544.6 L813.6,533.0 L851.7,514.2 L881.3,484.3 L907.8,443.5 L937.7,395.7 L975.8,347.9 L1024.0,307.2 L1080.9,279.1 L1143.0,265.8 L1206.5,266.4 L1268.4,278.1 L1327.0,297.6 L1381.4,323.0 L1430.6,353.6 L1472.9,389.8 L1506.4,431.8 L1529.7,478.3 L1543.7,526.4 L1552.1,572.4 L1560.9,612.9 L1576.8,646.6 L1604.8,674.7 L1645.5,700.7 L1694.5,728.8 L1743.2,762.3 L1781.6,802.3 L1801.7,847.0 Z"/>
<path class="c" d="M1867.6,847.0 L1866.1,897.6 L1844.1,945.9 L1810.3,990.0 L1775.1,1031.1 L1747.0,1072.3 L1729.5,1117.9 L1719.7,1170.0 L1710.2,1227.7 L1691.7,1286.0 L1657.5,1337.5 L1604.9,1374.8 L1537.1,1393.1 L1460.7,1392.1 L1383.7,1376.0 L1312.1,1352.0 L1249.0,1327.8 L1193.6,1309.4 L1143.0,1298.9 L1094.0,1295.4 L1044.1,1295.8 L992.4,1296.7 L938.7,1295.9 L882.9,1293.2 L823.9,1289.1 L760.3,1284.2 L691.6,1277.4 L619.3,1266.0 L548.1,1246.4 L485.3,1215.4 L438.9,1172.2 L414.8,1118.7 L414.0,1059.3 L432.1,999.4 L460.0,943.3 L486.7,892.9 L503.6,847.0 L507.2,802.5 L500.9,756.4 L492.8,707.6 L493.4,657.8 L510.8,611.2 L548.2,572.3 L602.4,544.2 L665.3,526.3 L727.3,514.4 L780.7,501.6 L822.6,480.9 L855.1,448.1 L884.3,403.1 L917.1,350.6 L959.1,297.9 L1012.1,253.2 L1074.7,222.3 L1143.0,207.7 L1212.8,208.4 L1280.9,221.2 L1345.4,242.7 L1405.3,270.6 L1459.4,304.2 L1505.9,344.1 L1542.7,390.3 L1568.4,441.5 L1583.8,494.4 L1593.0,544.9 L1602.6,589.5 L1620.2,626.6 L1651.0,657.5 L1695.8,686.0 L1749.7,717.0 L1803.2,753.9 L1845.5,797.8 L1867.6,847.0 Z"/>
<path class="ix" d="M1933.4,847.0 L1931.8,902.2 L1907.9,954.9 L1871.0,1003.0 L1832.6,1047.8 L1801.9,1092.8 L1782.8,1142.5 L1772.1,1199.4 L1761.7,1262.3 L1741.6,1325.9 L1704.2,1382.1 L1646.9,1422.7 L1572.9,1442.7 L1489.6,1441.6 L1405.5,1424.0 L1327.5,1397.9 L1258.6,1371.5 L1198.2,1351.4 L1143.0,1340.0 L1089.5,1336.2 L1035.1,1336.6 L978.7,1337.6 L920.2,1336.8 L859.3,1333.8 L794.9,1329.3 L725.6,1323.9 L650.6,1316.5 L571.7,1304.1 L494.0,1282.7 L425.5,1248.9 L374.9,1201.8 L348.6,1143.4 L347.8,1078.6 L367.5,1013.2 L397.9,952.1 L427.0,897.1 L445.4,847.0 L449.4,798.5 L442.5,748.2 L433.7,695.0 L434.3,640.6 L453.4,589.7 L494.2,547.3 L553.2,516.6 L621.8,497.2 L689.5,484.2 L747.8,470.2 L793.4,447.6 L828.9,411.8 L860.7,362.8 L896.6,305.4 L942.4,248.0 L1000.2,199.2 L1068.5,165.5 L1143.0,149.6 L1219.2,150.3 L1293.5,164.3 L1363.8,187.7 L1429.1,218.1 L1488.1,254.9 L1538.9,298.4 L1579.0,348.8 L1607.0,404.6 L1623.8,462.3 L1633.9,517.5 L1644.4,566.1 L1663.6,606.6 L1697.2,640.3 L1746.0,671.4 L1804.8,705.1 L1863.3,745.4 L1909.3,793.4 L1933.4,847.0 Z"/>
<path class="c" d="M1999.3,847.0 L1997.5,906.8 L1971.6,963.9 L1931.6,1016.1 L1890.0,1064.5 L1856.9,1113.3 L1836.1,1167.1 L1824.6,1228.8 L1813.3,1296.9 L1791.5,1365.8 L1751.0,1426.7 L1688.9,1470.7 L1608.8,1492.4 L1518.5,1491.2 L1427.4,1472.1 L1342.9,1443.8 L1268.2,1415.2 L1202.8,1393.4 L1143.0,1381.1 L1085.0,1377.0 L1026.1,1377.4 L965.0,1378.4 L901.6,1377.6 L835.6,1374.3 L765.9,1369.5 L690.8,1363.7 L609.5,1355.6 L524.1,1342.2 L439.9,1319.0 L365.7,1282.4 L310.9,1231.3 L282.4,1168.0 L281.5,1097.9 L302.9,1027.1 L335.8,960.9 L367.3,901.3 L387.3,847.0 L391.7,794.4 L384.1,740.0 L374.6,682.3 L375.2,623.4 L395.9,568.3 L440.1,522.3 L504.1,489.1 L578.4,468.0 L651.7,453.9 L714.8,438.8 L764.3,414.3 L802.8,375.5 L837.2,322.4 L876.1,260.3 L925.7,198.1 L988.3,145.2 L1062.3,108.7 L1143.0,91.5 L1225.5,92.3 L1306.0,107.4 L1382.2,132.8 L1452.9,165.7 L1516.9,205.6 L1571.9,252.7 L1615.4,307.3 L1645.7,367.7 L1663.9,430.3 L1674.8,490.0 L1686.2,542.7 L1707.0,586.5 L1743.4,623.0 L1796.3,656.8 L1860.0,693.3 L1923.3,736.9 L1973.2,788.9 L1999.3,847.0 Z"/>
<path class="c" d="M2065.2,847.0 L2063.3,911.4 L2035.4,972.9 L1992.3,1029.1 L1947.5,1081.3 L1911.8,1133.8 L1889.4,1191.8 L1877.0,1258.2 L1864.8,1331.5 L1841.4,1405.7 L1797.8,1471.3 L1730.9,1518.7 L1644.6,1542.0 L1547.4,1540.7 L1449.3,1520.2 L1358.3,1489.7 L1277.9,1459.0 L1207.4,1435.5 L1143.0,1422.2 L1080.6,1417.7 L1017.1,1418.2 L951.3,1419.3 L883.0,1418.4 L812.0,1414.9 L736.9,1409.7 L656.0,1403.4 L568.5,1394.7 L476.4,1380.2 L385.8,1355.3 L305.9,1315.9 L246.9,1260.9 L216.2,1192.7 L215.2,1117.1 L238.3,1040.9 L273.7,969.6 L307.7,905.5 L329.2,847.0 L333.9,790.4 L325.7,731.7 L315.5,669.6 L316.2,606.3 L338.4,546.9 L386.0,497.4 L454.9,461.6 L535.0,438.8 L613.9,423.7 L681.9,407.4 L735.2,381.1 L776.6,339.3 L813.7,282.1 L855.5,215.2 L908.9,148.2 L976.4,91.3 L1056.1,51.9 L1143.0,33.4 L1231.9,34.2 L1318.6,50.5 L1400.6,77.9 L1476.8,113.3 L1545.6,156.2 L1604.9,207.0 L1651.7,265.8 L1684.4,330.9 L1704.0,398.2 L1715.7,462.6 L1728.0,519.3 L1750.3,566.5 L1789.5,605.8 L1846.5,642.1 L1915.1,681.5 L1983.3,728.5 L2037.1,784.4 L2065.2,847.0 Z"/>
<path class="c" d="M2131.0,847.0 L2129.0,916.0 L2099.1,981.9 L2053.0,1042.1 L2005.0,1098.0 L1966.7,1154.3 L1942.8,1216.4 L1929.4,1287.5 L1916.4,1366.2 L1891.3,1445.6 L1844.5,1515.8 L1772.9,1566.7 L1680.4,1591.7 L1576.2,1590.3 L1471.2,1568.3 L1373.6,1535.6 L1287.5,1502.7 L1212.0,1477.5 L1143.0,1463.2 L1076.1,1458.5 L1008.1,1459.0 L937.6,1460.2 L864.5,1459.2 L788.3,1455.5 L707.9,1449.9 L621.2,1443.2 L527.5,1433.9 L428.8,1418.3 L331.8,1391.6 L246.2,1349.4 L182.9,1290.4 L150.0,1217.4 L149.0,1136.4 L173.7,1054.8 L211.6,978.4 L248.0,909.6 L271.0,847.0 L276.1,786.3 L267.4,723.5 L256.4,656.9 L257.1,589.1 L280.9,525.4 L331.9,472.4 L405.8,434.0 L491.5,409.7 L576.1,393.5 L648.9,376.0 L706.1,347.8 L750.4,303.0 L790.2,241.7 L835.0,170.0 L892.2,98.3 L964.5,37.3 L1049.8,-4.9 L1143.0,-24.8 L1238.2,-23.8 L1331.1,-6.4 L1419.0,22.9 L1500.6,60.9 L1574.4,106.9 L1637.9,161.3 L1688.1,224.3 L1723.0,294.0 L1744.1,366.2 L1756.6,435.1 L1769.8,495.9 L1793.7,546.4 L1835.7,588.6 L1896.8,627.5 L1970.3,669.7 L2043.3,720.0 L2100.9,780.0 L2131.0,847.0 Z"/>
<path class="ix" d="M2196.9,847.0 L2194.7,920.6 L2162.8,990.9 L2113.6,1055.1 L2062.4,1114.7 L2021.6,1174.8 L1996.1,1241.0 L1981.8,1316.9 L1967.9,1400.8 L1941.2,1485.5 L1891.3,1560.4 L1814.9,1614.7 L1716.2,1641.3 L1605.1,1639.8 L1493.0,1616.4 L1389.0,1581.5 L1297.2,1546.4 L1216.5,1519.5 L1143.0,1504.3 L1071.7,1499.3 L999.1,1499.8 L923.9,1501.1 L845.9,1500.0 L764.7,1496.0 L678.9,1490.1 L586.4,1482.9 L486.4,1473.0 L381.2,1456.4 L277.7,1427.9 L186.4,1382.9 L118.9,1320.0 L83.8,1242.1 L82.7,1155.7 L109.0,1068.6 L149.5,987.1 L188.3,913.8 L212.9,847.0 L218.3,782.3 L209.0,715.2 L197.2,644.3 L198.1,571.9 L223.5,504.0 L277.9,447.4 L356.6,406.5 L448.1,380.5 L538.3,363.2 L616.0,344.6 L676.9,314.5 L724.2,266.7 L766.7,201.3 L814.5,124.9 L875.5,48.4 L952.6,-16.7 L1043.6,-61.6 L1143.0,-82.9 L1244.6,-81.9 L1343.6,-63.3 L1437.4,-32.0 L1524.5,8.5 L1603.2,57.5 L1670.9,115.6 L1724.4,182.7 L1761.7,257.1 L1784.1,334.1 L1797.5,407.6 L1811.6,472.5 L1837.1,526.4 L1881.9,571.4 L1947.0,612.9 L2025.4,657.8 L2103.4,711.5 L2164.8,775.5 L2196.9,847.0 Z"/>
<path class="c" d="M2262.8,847.0 L2260.4,925.2 L2226.6,999.9 L2174.3,1068.1 L2119.9,1131.4 L2076.5,1195.2 L2049.4,1265.6 L2034.3,1346.3 L2019.5,1435.4 L1991.1,1525.4 L1938.1,1605.0 L1856.9,1662.6 L1752.1,1690.9 L1634.0,1689.4 L1514.9,1664.5 L1404.4,1627.4 L1306.8,1590.1 L1221.1,1561.6 L1143.0,1545.4 L1067.2,1540.0 L990.1,1540.6 L910.2,1542.0 L827.3,1540.8 L741.0,1536.6 L649.9,1530.3 L551.6,1522.7 L445.4,1512.1 L333.6,1494.5 L223.6,1464.2 L126.6,1416.4 L54.9,1349.6 L17.6,1266.8 L16.4,1175.0 L44.4,1082.5 L87.4,995.9 L128.7,918.0 L154.8,847.0 L160.5,778.2 L150.6,707.0 L138.1,631.6 L139.0,554.7 L166.0,482.5 L223.8,422.4 L307.5,379.0 L404.7,351.4 L500.5,333.0 L583.1,313.2 L647.8,281.2 L698.1,230.5 L743.1,161.0 L793.9,79.8 L858.8,-1.6 L940.7,-70.7 L1037.4,-118.4 L1143.0,-141.0 L1250.9,-139.9 L1356.2,-120.2 L1455.8,-87.0 L1548.3,-43.9 L1631.9,8.2 L1703.9,69.8 L1760.7,141.2 L1800.4,220.3 L1824.2,302.0 L1838.4,380.2 L1853.4,449.1 L1880.5,506.4 L1928.1,554.1 L1997.3,598.3 L2080.6,646.0 L2163.4,703.1 L2228.7,771.0 L2262.8,847.0 Z"/>
<path class="c" d="M2328.6,847.0 L2326.2,929.8 L2290.3,1008.8 L2235.0,1081.1 L2177.4,1148.2 L2131.4,1215.7 L2102.7,1290.3 L2086.7,1375.6 L2071.1,1470.0 L2040.9,1565.4 L1984.8,1649.6 L1898.9,1710.6 L1787.9,1740.6 L1662.9,1738.9 L1536.8,1712.6 L1419.8,1673.3 L1316.4,1633.8 L1225.7,1603.6 L1143.0,1586.5 L1062.8,1580.8 L981.1,1581.4 L896.5,1582.9 L808.8,1581.6 L717.4,1577.2 L620.9,1570.5 L516.8,1562.4 L404.3,1551.2 L286.0,1532.6 L169.5,1500.5 L66.8,1449.9 L-9.1,1379.1 L-48.6,1291.5 L-49.9,1194.3 L-20.2,1096.3 L25.3,1004.7 L69.0,922.2 L96.6,847.0 L102.7,774.2 L92.2,698.8 L79.0,618.9 L80.0,537.5 L108.5,461.1 L169.7,397.5 L258.3,351.4 L361.3,322.2 L462.7,302.7 L550.1,281.8 L618.7,247.9 L671.9,194.2 L719.6,120.6 L773.4,34.6 L842.1,-51.5 L928.8,-124.7 L1031.2,-175.2 L1143.0,-199.1 L1257.3,-198.0 L1368.7,-177.0 L1474.2,-141.9 L1572.2,-96.3 L1660.7,-41.1 L1736.9,24.1 L1797.1,99.7 L1839.1,183.4 L1864.3,270.0 L1879.3,352.7 L1895.1,425.7 L1923.9,486.3 L1974.3,536.9 L2047.5,583.6 L2135.7,634.2 L2223.4,694.6 L2292.5,766.5 L2328.6,847.0 Z"/>
<path class="c" d="M2394.5,847.0 L2391.9,934.4 L2354.1,1017.8 L2295.6,1094.1 L2234.8,1164.9 L2186.3,1236.2 L2156.0,1314.9 L2139.1,1405.0 L2122.6,1504.6 L2090.8,1605.3 L2031.6,1694.2 L1940.9,1758.6 L1823.7,1790.2 L1691.8,1788.5 L1558.7,1760.6 L1435.1,1719.2 L1326.1,1677.5 L1230.3,1645.6 L1143.0,1627.6 L1058.3,1621.6 L972.1,1622.2 L882.8,1623.7 L790.2,1622.5 L693.8,1617.7 L591.8,1610.7 L482.1,1602.1 L363.3,1590.4 L238.4,1570.7 L115.4,1536.8 L7.0,1483.3 L-73.1,1408.7 L-114.8,1316.2 L-116.1,1213.6 L-84.8,1110.2 L-36.8,1013.4 L9.3,926.3 L38.5,847.0 L44.9,770.1 L33.9,690.5 L19.9,606.3 L20.9,520.3 L51.1,439.7 L115.7,372.5 L209.2,323.9 L317.8,293.1 L424.9,272.5 L517.2,250.4 L589.5,214.7 L645.7,157.9 L696.1,80.3 L752.9,-10.5 L825.4,-101.4 L916.9,-178.6 L1025.0,-232.0 L1143.0,-257.2 L1263.6,-256.1 L1381.2,-233.9 L1492.6,-196.8 L1596.0,-148.7 L1689.4,-90.5 L1769.8,-21.6 L1833.4,58.2 L1877.7,146.5 L1904.3,237.9 L1920.2,325.3 L1936.9,402.3 L1967.3,466.3 L2020.4,519.7 L2097.8,569.0 L2190.9,622.4 L2283.4,686.1 L2356.4,762.1 L2394.5,847.0 Z"/>
<path class="ix" d="M2460.4,847.0 L2457.6,939.0 L2417.8,1026.8 L2356.3,1107.1 L2292.3,1181.6 L2241.2,1256.7 L2209.3,1339.5 L2191.5,1434.4 L2174.2,1539.2 L2140.7,1645.2 L2078.4,1738.8 L1982.9,1806.6 L1859.5,1839.9 L1720.7,1838.0 L1580.6,1808.7 L1450.5,1765.1 L1335.7,1721.2 L1234.9,1687.6 L1143.0,1668.7 L1053.8,1662.3 L963.1,1663.0 L869.2,1664.6 L771.6,1663.3 L670.1,1658.3 L562.8,1650.9 L447.3,1641.9 L322.3,1629.5 L190.8,1608.8 L61.3,1573.1 L-52.8,1516.8 L-137.1,1438.3 L-181.0,1340.9 L-182.4,1232.9 L-149.5,1124.1 L-98.9,1022.2 L-50.3,930.5 L-19.6,847.0 L-12.9,766.1 L-24.5,682.3 L-39.2,593.6 L-38.2,503.1 L-6.4,418.2 L61.6,347.5 L160.1,296.4 L274.4,263.9 L387.1,242.3 L484.3,219.0 L560.4,181.4 L619.5,121.7 L672.6,39.9 L732.3,-55.6 L808.6,-151.3 L905.0,-232.6 L1018.8,-288.8 L1143.0,-315.3 L1270.0,-314.1 L1393.8,-290.8 L1511.0,-251.8 L1619.8,-201.1 L1718.2,-139.8 L1802.8,-67.3 L1869.7,16.7 L1916.4,109.6 L1944.4,205.9 L1961.1,297.8 L1978.7,378.9 L2010.6,446.3 L2066.6,502.4 L2148.0,554.4 L2246.0,610.6 L2343.5,677.7 L2420.2,757.6 L2460.4,847.0 Z"/>
<path class="c" d="M2526.2,847.0 L2523.4,943.6 L2481.5,1035.8 L2417.0,1120.1 L2349.7,1198.4 L2296.1,1277.2 L2262.7,1364.1 L2244.0,1463.7 L2225.7,1573.8 L2190.6,1685.1 L2125.1,1783.4 L2024.9,1854.6 L1895.4,1889.5 L1749.5,1887.6 L1602.4,1856.8 L1465.9,1811.0 L1345.3,1764.9 L1239.5,1729.7 L1143.0,1709.7 L1049.4,1703.1 L954.1,1703.8 L855.5,1705.5 L753.1,1704.1 L646.5,1698.8 L533.8,1691.1 L412.5,1681.6 L281.2,1668.6 L143.2,1646.9 L7.3,1609.4 L-112.6,1550.3 L-201.1,1467.8 L-247.2,1365.6 L-248.7,1252.2 L-214.1,1137.9 L-161.0,1030.9 L-110.0,934.7 L-77.8,847.0 L-70.7,762.1 L-82.9,674.1 L-98.3,580.9 L-97.2,485.9 L-63.9,396.8 L7.5,322.5 L110.9,268.9 L231.0,234.8 L349.3,212.0 L451.3,187.6 L531.3,148.1 L593.4,85.4 L649.1,-0.4 L711.8,-100.7 L791.9,-201.2 L893.1,-286.6 L1012.6,-345.6 L1143.0,-373.5 L1276.3,-372.2 L1406.3,-347.7 L1529.4,-306.7 L1643.7,-253.5 L1747.0,-189.2 L1835.8,-113.0 L1906.1,-24.8 L1955.1,72.8 L1984.5,173.8 L2002.0,270.3 L2020.5,355.5 L2054.0,426.2 L2112.8,485.2 L2198.3,539.7 L2301.2,598.7 L2403.5,669.2 L2484.1,753.1 L2526.2,847.0 Z"/>
<path class="c" d="M2592.1,847.0 L2589.1,948.2 L2545.3,1044.8 L2477.6,1133.1 L2407.2,1215.1 L2351.1,1297.7 L2316.0,1388.8 L2296.4,1493.1 L2277.3,1608.4 L2240.5,1725.0 L2171.9,1828.0 L2066.9,1902.5 L1931.2,1939.2 L1778.4,1937.2 L1624.3,1904.9 L1481.3,1856.9 L1355.0,1808.7 L1244.1,1771.7 L1143.0,1750.8 L1044.9,1743.9 L945.2,1744.6 L841.8,1746.4 L734.5,1744.9 L622.8,1739.4 L504.8,1731.3 L377.7,1721.4 L240.2,1707.7 L95.6,1685.0 L-46.8,1645.7 L-172.4,1583.8 L-265.1,1497.4 L-313.4,1390.3 L-314.9,1271.5 L-278.7,1151.8 L-223.1,1039.7 L-169.7,938.9 L-135.9,847.0 L-128.5,758.0 L-141.3,665.8 L-157.4,568.2 L-156.3,468.7 L-121.4,375.3 L-46.5,297.6 L61.8,241.3 L187.5,205.6 L311.5,181.8 L418.4,156.2 L502.2,114.8 L567.2,49.2 L625.5,-40.8 L691.3,-145.9 L775.2,-251.1 L881.2,-340.6 L1006.4,-402.4 L1143.0,-431.6 L1282.7,-430.2 L1418.9,-404.6 L1547.8,-361.7 L1667.5,-305.9 L1775.7,-238.5 L1868.8,-158.7 L1942.4,-66.3 L1993.7,35.9 L2024.5,141.8 L2042.9,242.9 L2062.3,332.0 L2097.4,406.2 L2159.0,468.0 L2248.5,525.1 L2356.3,586.9 L2463.5,660.7 L2548.0,748.7 L2592.1,847.0 Z"/>
<path class="c" d="M2658.0,847.0 L2654.8,952.8 L2609.0,1053.8 L2538.3,1146.1 L2464.7,1231.8 L2406.0,1318.1 L2369.3,1413.4 L2348.8,1522.5 L2328.9,1643.0 L2290.4,1764.9 L2218.7,1872.6 L2108.9,1950.5 L1967.0,1988.8 L1807.3,1986.7 L1646.2,1953.0 L1496.6,1902.8 L1364.6,1852.4 L1248.7,1813.7 L1143.0,1791.9 L1040.5,1784.6 L936.2,1785.4 L828.1,1787.3 L715.9,1785.7 L599.2,1780.0 L475.8,1771.5 L342.9,1761.1 L199.2,1746.9 L48.0,1723.0 L-100.9,1682.0 L-232.2,1617.3 L-329.1,1526.9 L-379.6,1415.0 L-381.2,1290.8 L-343.3,1165.6 L-285.2,1048.5 L-229.3,943.0 L-194.0,847.0 L-186.3,754.0 L-199.6,657.6 L-216.5,555.6 L-215.3,451.5 L-178.8,353.9 L-100.6,272.6 L12.6,213.8 L144.1,176.5 L273.7,151.6 L385.5,124.8 L473.0,81.5 L541.0,12.9 L602.0,-81.1 L670.7,-191.0 L758.5,-301.0 L869.3,-394.6 L1000.2,-459.2 L1143.0,-489.7 L1289.0,-488.3 L1431.4,-461.5 L1566.2,-416.6 L1691.4,-358.3 L1804.5,-287.9 L1901.8,-204.4 L1978.8,-107.9 L2032.4,-1.0 L2064.6,109.7 L2083.8,215.4 L2104.1,308.6 L2140.8,386.1 L2205.2,450.8 L2298.8,510.5 L2411.5,575.1 L2523.5,652.3 L2611.8,744.2 L2658.0,847.0 Z"/>
<path class="ix" d="M2723.9,847.0 L2720.6,957.4 L2672.8,1062.8 L2599.0,1159.1 L2522.1,1248.6 L2460.9,1338.6 L2422.6,1438.0 L2401.3,1551.8 L2380.4,1677.7 L2340.3,1804.8 L2265.5,1917.1 L2150.9,1998.5 L2002.9,2038.5 L1836.2,2036.3 L1668.1,2001.1 L1512.0,1948.7 L1374.2,1896.1 L1253.3,1855.8 L1143.0,1833.0 L1036.0,1825.4 L927.2,1826.2 L814.4,1828.1 L697.4,1826.5 L575.5,1820.5 L446.8,1811.7 L308.1,1800.9 L158.1,1786.0 L0.3,1761.1 L-155.0,1718.3 L-291.9,1650.8 L-393.1,1556.5 L-445.8,1439.7 L-447.5,1310.1 L-408.0,1179.5 L-347.2,1057.2 L-289.0,947.2 L-252.1,847.0 L-244.1,749.9 L-258.0,649.4 L-275.6,542.9 L-274.4,434.3 L-236.3,332.5 L-154.7,247.6 L-36.5,186.3 L100.7,147.3 L235.9,121.3 L352.5,93.3 L443.9,48.3 L514.9,-23.4 L578.5,-121.5 L650.2,-236.1 L741.8,-351.0 L857.4,-448.6 L993.9,-516.0 L1143.0,-547.8 L1295.4,-546.3 L1443.9,-518.4 L1584.6,-471.5 L1715.2,-410.7 L1833.3,-337.2 L1934.8,-250.2 L2015.1,-149.4 L2071.1,-37.8 L2104.7,77.6 L2124.8,188.0 L2145.9,285.2 L2184.2,366.1 L2251.3,433.5 L2349.1,495.8 L2466.6,563.3 L2583.5,643.8 L2675.7,739.7 L2723.9,847.0 Z"/>
<path class="c" d="M2789.7,847.0 L2786.3,962.0 L2736.5,1071.8 L2659.6,1172.1 L2579.6,1265.3 L2515.8,1359.1 L2475.9,1462.6 L2453.7,1581.2 L2432.0,1712.3 L2390.1,1844.7 L2312.2,1961.7 L2192.9,2046.5 L2038.7,2088.1 L1865.1,2085.8 L1689.9,2049.2 L1527.4,1994.6 L1383.9,1939.8 L1257.9,1897.8 L1143.0,1874.1 L1031.5,1866.2 L918.2,1867.0 L800.7,1869.0 L678.8,1867.3 L551.9,1861.1 L417.8,1851.9 L273.3,1840.6 L117.1,1825.1 L-47.3,1799.2 L-209.1,1754.6 L-351.7,1684.3 L-457.1,1586.1 L-512.0,1464.4 L-513.7,1329.4 L-472.6,1193.3 L-409.3,1066.0 L-348.7,951.4 L-310.3,847.0 L-301.9,745.9 L-316.4,641.1 L-334.7,530.2 L-333.4,417.1 L-293.8,311.0 L-208.8,222.6 L-85.7,158.7 L57.2,118.2 L198.1,91.1 L319.6,61.9 L414.8,15.0 L488.7,-59.6 L555.0,-161.8 L629.7,-281.3 L725.0,-400.9 L845.6,-502.5 L987.7,-572.8 L1143.0,-605.9 L1301.7,-604.4 L1456.5,-575.3 L1603.0,-526.5 L1739.0,-463.1 L1862.0,-386.5 L1967.8,-295.9 L2051.4,-190.9 L2109.7,-74.7 L2144.8,45.6 L2165.7,160.5 L2187.6,261.8 L2227.6,346.1 L2297.5,416.3 L2399.3,481.2 L2521.8,551.4 L2643.6,635.3 L2739.6,735.3 L2789.7,847.0 Z"/>
<path class="c" d="M2855.6,847.0 L2852.0,966.6 L2800.2,1080.8 L2720.3,1185.1 L2637.1,1282.0 L2570.7,1379.6 L2529.2,1487.3 L2506.1,1610.6 L2483.5,1746.9 L2440.0,1884.6 L2359.0,2006.3 L2234.8,2094.5 L2074.5,2137.7 L1894.0,2135.4 L1711.8,2097.3 L1542.8,2040.5 L1393.5,1983.5 L1262.5,1939.8 L1143.0,1915.1 L1027.1,1906.9 L909.2,1907.8 L787.0,1909.9 L660.2,1908.1 L528.2,1901.7 L388.8,1892.1 L238.6,1880.3 L76.1,1864.2 L-94.9,1837.3 L-263.2,1790.9 L-411.5,1717.8 L-521.1,1615.6 L-578.2,1489.1 L-580.0,1348.7 L-537.2,1207.2 L-471.4,1074.7 L-408.3,955.6 L-368.4,847.0 L-359.7,741.8 L-374.8,632.9 L-393.8,517.6 L-392.5,399.9 L-351.2,289.6 L-262.8,197.7 L-134.8,131.2 L13.8,89.0 L160.3,60.9 L286.6,30.5 L385.6,-18.3 L462.5,-95.9 L531.4,-202.2 L609.1,-326.4 L708.3,-450.8 L833.7,-556.5 L981.5,-629.5 L1143.0,-664.1 L1308.1,-662.4 L1469.0,-632.2 L1621.4,-581.4 L1762.9,-515.5 L1890.8,-435.9 L2000.8,-341.6 L2087.8,-232.4 L2148.4,-111.6 L2184.8,13.5 L2206.6,133.1 L2229.4,238.4 L2270.9,326.0 L2343.7,399.1 L2449.6,466.6 L2576.9,539.6 L2703.6,626.9 L2803.4,730.8 L2855.6,847.0 Z"/>
<path class="c" d="M2921.5,847.0 L2917.8,971.2 L2864.0,1089.8 L2781.0,1198.1 L2694.5,1298.8 L2625.6,1400.1 L2582.6,1511.9 L2558.5,1639.9 L2535.1,1781.5 L2489.9,1924.5 L2405.8,2050.9 L2276.8,2142.4 L2110.3,2187.4 L1922.8,2184.9 L1733.7,2145.3 L1558.1,2086.4 L1403.1,2027.2 L1267.1,1981.9 L1143.0,1956.2 L1022.6,1947.7 L900.2,1948.6 L773.3,1950.8 L641.6,1949.0 L504.6,1942.2 L359.8,1932.3 L203.8,1920.1 L35.0,1903.3 L-142.5,1875.4 L-317.2,1827.2 L-471.3,1751.3 L-585.1,1645.2 L-644.4,1513.8 L-646.3,1368.0 L-601.8,1221.0 L-533.5,1083.5 L-468.0,959.8 L-426.5,847.0 L-417.5,737.8 L-433.2,624.7 L-453.0,504.9 L-451.6,382.7 L-408.7,268.1 L-316.9,172.7 L-184.0,103.7 L-29.6,59.8 L122.5,30.6 L253.7,-0.9 L356.5,-51.6 L436.3,-132.2 L507.9,-242.5 L588.6,-371.5 L691.6,-500.7 L821.8,-610.5 L975.3,-686.3 L1143.0,-722.2 L1314.4,-720.5 L1481.6,-689.1 L1639.8,-636.4 L1786.7,-567.9 L1919.5,-485.2 L2033.8,-387.3 L2124.1,-273.9 L2187.1,-148.4 L2224.9,-18.5 L2247.5,105.6 L2271.2,215.0 L2314.3,306.0 L2389.9,381.9 L2499.8,451.9 L2632.1,527.8 L2763.6,618.4 L2867.3,726.3 L2921.5,847.0 Z"/>
<path class="ix" d="M2987.3,847.0 L2983.5,975.8 L2927.7,1098.8 L2841.6,1211.1 L2752.0,1315.5 L2680.5,1420.6 L2635.9,1536.5 L2611.0,1669.3 L2586.7,1816.1 L2539.8,1964.4 L2452.5,2095.5 L2318.8,2190.4 L2146.2,2237.0 L1951.7,2234.5 L1755.6,2193.4 L1573.5,2132.3 L1412.8,2070.9 L1271.7,2023.9 L1143.0,1997.3 L1018.2,1988.5 L891.2,1989.4 L759.6,1991.7 L623.1,1989.8 L481.0,1982.8 L330.8,1972.5 L169.0,1959.8 L-6.0,1942.5 L-190.1,1913.5 L-371.3,1863.5 L-531.1,1784.8 L-649.1,1674.8 L-710.6,1538.5 L-712.6,1387.3 L-666.4,1234.9 L-595.6,1092.3 L-527.7,963.9 L-484.7,847.0 L-475.3,733.7 L-491.5,616.4 L-512.1,492.2 L-510.6,365.5 L-466.2,246.7 L-371.0,147.7 L-233.1,76.1 L-73.0,30.7 L84.7,0.4 L220.8,-32.3 L327.4,-84.9 L410.2,-168.4 L484.4,-282.9 L568.1,-416.7 L674.9,-550.6 L809.9,-664.5 L969.1,-743.1 L1143.0,-780.3 L1320.8,-778.6 L1494.1,-746.0 L1658.2,-691.3 L1810.6,-620.3 L1948.3,-534.6 L2066.8,-433.0 L2160.4,-315.4 L2225.7,-185.3 L2265.0,-50.6 L2288.4,78.1 L2313.0,191.6 L2357.7,286.0 L2436.1,364.6 L2550.1,437.3 L2687.3,516.0 L2823.6,609.9 L2931.1,721.8 L2987.3,847.0 Z"/>
<path class="c" d="M3053.2,847.0 L3049.2,980.4 L2991.5,1107.7 L2902.3,1224.1 L2809.5,1332.2 L2735.4,1441.1 L2689.2,1561.2 L2663.4,1698.7 L2638.2,1850.7 L2589.7,2004.4 L2499.3,2140.1 L2360.8,2238.4 L2182.0,2286.7 L1980.6,2284.0 L1777.5,2241.5 L1588.9,2178.2 L1422.4,2114.6 L1276.3,2065.9 L1143.0,2038.4 L1013.7,2029.2 L882.2,2030.2 L745.9,2032.5 L604.5,2030.6 L457.3,2023.4 L301.8,2012.6 L134.2,1999.6 L-47.1,1981.6 L-237.7,1951.6 L-425.4,1899.8 L-590.9,1818.3 L-713.1,1704.3 L-776.8,1563.2 L-778.8,1406.6 L-731.1,1248.7 L-657.7,1101.0 L-587.3,968.1 L-542.8,847.0 L-533.1,729.7 L-549.9,608.2 L-571.2,479.6 L-569.7,348.3 L-523.6,225.3 L-425.0,122.8 L-282.3,48.6 L-116.5,1.5 L46.9,-29.9 L187.8,-63.7 L298.2,-118.1 L384.0,-204.7 L460.9,-323.2 L547.5,-461.8 L658.2,-600.5 L798.0,-718.5 L962.9,-799.9 L1143.0,-838.4 L1327.1,-836.6 L1506.6,-802.9 L1676.6,-746.2 L1834.4,-672.7 L1977.1,-583.9 L2099.8,-478.7 L2196.8,-357.0 L2264.4,-222.2 L2305.0,-82.6 L2329.3,50.7 L2354.8,168.2 L2401.1,265.9 L2482.3,347.4 L2600.3,422.7 L2742.4,504.2 L2883.7,601.5 L2995.0,717.4 L3053.2,847.0 Z"/>
<path class="c" d="M3119.1,847.0 L3115.0,985.0 L3055.2,1116.7 L2963.0,1237.1 L2866.9,1349.0 L2790.3,1461.5 L2742.5,1585.8 L2715.8,1728.0 L2689.8,1885.3 L2639.6,2044.3 L2546.1,2184.7 L2402.8,2286.4 L2217.8,2336.3 L2009.5,2333.6 L1799.3,2289.6 L1604.3,2224.1 L1432.0,2158.3 L1280.9,2108.0 L1143.0,2079.5 L1009.3,2070.0 L873.2,2071.0 L732.2,2073.4 L585.9,2071.4 L433.7,2063.9 L272.8,2052.8 L99.4,2039.3 L-88.1,2020.7 L-285.3,1989.7 L-479.5,1936.1 L-650.7,1851.8 L-777.2,1733.9 L-843.0,1587.9 L-845.1,1425.9 L-795.7,1262.6 L-719.8,1109.8 L-647.0,972.3 L-600.9,847.0 L-590.9,725.6 L-608.3,600.0 L-630.3,466.9 L-628.7,331.1 L-581.1,203.8 L-479.1,97.8 L-331.4,21.1 L-159.9,-27.6 L9.1,-60.1 L154.9,-95.1 L269.1,-151.4 L357.8,-241.0 L437.4,-363.6 L527.0,-506.9 L641.4,-650.4 L786.1,-772.4 L956.7,-856.7 L1143.0,-896.5 L1333.5,-894.7 L1519.2,-859.7 L1695.0,-801.2 L1858.3,-725.1 L2005.8,-633.2 L2132.8,-524.5 L2233.1,-398.5 L2303.1,-259.0 L2345.1,-114.7 L2370.2,23.2 L2396.6,144.8 L2444.5,245.9 L2528.4,330.2 L2650.6,408.0 L2797.6,492.3 L2943.7,593.0 L3058.9,712.9 L3119.1,847.0 Z"/>
<text class="ct" x="1024" y="719" text-anchor="middle">12,800</text>
<text class="ct" x="1451" y="551" text-anchor="middle">11,200</text>
<text class="ct" x="1802" y="1095" text-anchor="middle">9,600</text>
<circle class="dot" cx="1143" cy="823" r="2.4"/>
<text class="pk" x="1143" y="843" text-anchor="middle">PIKES PEAK</text>
<text class="el" x="1143" y="864" text-anchor="middle">14,115&#8242;</text>
</svg>