<svg xmlns="http://www.w3.org/2000/svg" width="2000" height="1400" viewBox="0 0 2000 1400">
<style>
  .c  { fill:none; stroke:#2A1B11; stroke-opacity:0.07; stroke-width:1.1; }
  .ix { fill:none; stroke:#2A1B11; stroke-opacity:0.12; stroke-width:1.6; }
  .ct { font:500 10px 'IBM Plex Mono',ui-monospace,monospace; fill:#2A1B11; fill-opacity:0.32;
        stroke:#F4ECDB; stroke-width:3; paint-order:stroke; }
  .pk { font:600 11.5px 'Inter Tight','Helvetica Neue',sans-serif; letter-spacing:0.15em; fill:#2A1B11; fill-opacity:0.2; }
  .el { font:500 10.5px 'IBM Plex Mono',ui-monospace,monospace; fill:#9C6A33; fill-opacity:0.34; }
  .dot { fill:#2A1B11; fill-opacity:0.24; }
</style>
<path class="c" d="M924.2,611.0 L925.1,615.6 L924.5,620.2 L921.7,624.4 L917.0,627.9 L911.0,630.4 L904.7,632.1 L899.2,633.5 L895.3,635.4 L892.9,638.1 L891.7,642.2 L890.9,647.4 L889.5,653.2 L886.9,658.9 L882.9,663.6 L877.7,666.8 L871.7,668.4 L865.3,668.6 L859.0,667.8 L852.9,666.4 L847.2,664.6 L841.7,662.5 L836.7,660.0 L832.2,657.0 L828.4,653.4 L825.3,649.5 L822.7,645.6 L820.3,642.0 L817.5,638.9 L814.2,636.1 L810.2,633.5 L806.1,630.7 L802.3,627.5 L799.7,623.7 L798.6,619.5 L798.9,615.2 L800.2,611.0 L801.6,607.0 L802.3,603.0 L801.9,598.8 L800.4,594.0 L798.6,588.5 L797.3,582.5 L797.7,576.6 L800.3,571.6 L805.2,568.0 L812.0,566.2 L819.8,566.2 L827.5,567.3 L834.5,569.0 L840.5,570.4 L845.6,571.0 L850.1,570.7 L854.5,569.8 L859.0,568.6 L863.7,567.6 L868.7,567.0 L873.8,566.7 L879.1,566.8 L884.6,567.1 L890.4,567.5 L896.4,568.2 L902.4,569.6 L907.9,571.9 L912.5,575.1 L915.7,579.2 L917.6,583.9 L918.4,588.8 L918.9,593.6 L919.5,598.0 L920.7,602.3 L922.4,606.6 L924.2,611.0 Z"/>
<path class="c" d="M989.4,611.0 L991.3,620.3 L989.9,629.5 L984.4,637.9 L974.9,644.8 L962.9,649.8 L950.4,653.2 L939.5,656.1 L931.6,659.7 L926.8,665.3 L924.5,673.4 L922.8,683.8 L920.0,695.5 L914.8,706.8 L906.8,716.2 L896.4,722.6 L884.3,725.8 L871.6,726.3 L859.0,724.7 L846.9,721.8 L835.4,718.3 L824.5,714.1 L814.4,709.0 L805.4,702.9 L797.8,695.8 L791.6,688.0 L786.4,680.2 L781.5,673.0 L776.0,666.7 L769.3,661.2 L761.4,656.1 L753.1,650.5 L745.7,644.0 L740.4,636.4 L738.1,628.1 L738.8,619.4 L741.4,611.0 L744.2,603.0 L745.7,595.0 L744.9,586.5 L741.9,576.9 L738.2,565.9 L735.6,554.0 L736.3,542.3 L741.6,532.2 L751.5,525.0 L765.0,521.4 L780.5,521.3 L796.0,523.7 L810.0,527.0 L822.0,529.7 L832.2,531.0 L841.2,530.5 L850.0,528.6 L859.0,526.3 L868.5,524.2 L878.4,522.9 L888.7,522.5 L899.2,522.6 L910.2,523.1 L921.8,524.0 L933.8,525.5 L945.8,528.2 L956.9,532.7 L966.0,539.2 L972.5,547.4 L976.2,556.9 L977.9,566.6 L978.7,576.1 L979.9,585.1 L982.4,593.6 L985.9,602.1 L989.4,611.0 Z"/>
<path class="c" d="M1054.6,611.0 L1057.4,624.9 L1055.4,638.7 L1047.1,651.3 L1032.9,661.6 L1014.9,669.1 L996.1,674.3 L979.7,678.6 L967.8,684.1 L960.8,692.4 L957.2,704.6 L954.6,720.3 L950.5,737.7 L942.7,754.7 L930.8,768.7 L915.1,778.4 L897.0,783.3 L877.9,783.9 L859.0,781.5 L840.8,777.3 L823.5,771.9 L807.2,765.6 L792.1,758.1 L778.6,748.9 L767.2,738.2 L757.9,726.5 L750.1,714.8 L742.8,704.0 L734.5,694.6 L724.5,686.4 L712.7,678.6 L700.2,670.2 L689.0,660.5 L681.1,649.1 L677.7,636.6 L678.7,623.6 L682.6,611.0 L686.8,598.9 L689.0,587.0 L687.8,574.3 L683.3,559.9 L677.7,543.4 L673.9,525.5 L675.0,507.9 L682.9,492.8 L697.7,482.0 L718.1,476.6 L741.3,476.5 L764.5,480.0 L785.5,484.9 L803.5,489.1 L818.8,491.0 L832.4,490.2 L845.5,487.4 L859.0,483.9 L873.2,480.8 L888.1,478.9 L903.5,478.2 L919.3,478.4 L935.8,479.2 L953.2,480.5 L971.3,482.7 L989.2,486.8 L1005.8,493.6 L1019.5,503.3 L1029.2,515.7 L1034.8,529.8 L1037.3,544.5 L1038.6,558.7 L1040.4,572.1 L1044.0,584.9 L1049.3,597.7 L1054.6,611.0 Z"/>
<path class="ix" d="M1119.8,611.0 L1123.6,629.5 L1120.8,647.9 L1109.8,664.8 L1090.9,678.5 L1066.8,688.5 L1041.8,695.4 L1020.0,701.2 L1004.1,708.4 L994.7,719.5 L989.9,735.8 L986.5,756.7 L981.0,780.0 L970.6,802.5 L954.7,821.3 L933.8,834.2 L909.6,840.7 L884.2,841.5 L859.0,838.3 L834.8,832.7 L811.7,825.6 L789.9,817.2 L769.8,807.1 L751.8,794.9 L736.6,780.6 L724.2,765.0 L713.8,749.4 L704.0,735.0 L693.0,722.4 L679.6,711.5 L663.9,701.1 L647.3,690.0 L632.3,677.0 L621.8,661.8 L617.2,645.1 L618.6,627.8 L623.8,611.0 L629.4,594.9 L632.4,579.0 L630.7,562.1 L624.8,542.8 L617.3,520.8 L612.3,497.0 L613.7,473.6 L624.1,453.3 L644.0,439.0 L671.1,431.9 L702.0,431.7 L733.0,436.3 L761.0,442.9 L785.0,448.4 L805.4,450.9 L823.5,449.9 L841.0,446.2 L859.0,441.5 L878.0,437.4 L897.8,434.8 L918.3,433.9 L939.4,434.2 L961.4,435.3 L984.6,437.0 L1008.7,440.0 L1032.7,445.4 L1054.7,454.4 L1073.0,467.4 L1085.9,483.9 L1093.4,502.7 L1096.8,522.3 L1098.4,541.3 L1100.9,559.2 L1105.7,576.2 L1112.7,593.2 L1119.8,611.0 Z"/>
<path class="c" d="M1185.0,611.0 L1189.7,634.1 L1186.3,657.2 L1172.5,678.2 L1148.9,695.4 L1118.8,707.9 L1087.5,716.5 L1060.2,723.7 L1040.4,732.8 L1028.6,746.7 L1022.7,767.0 L1018.4,793.1 L1011.4,822.2 L998.6,850.4 L978.6,873.9 L952.5,890.0 L922.3,898.1 L890.5,899.1 L859.0,895.1 L828.7,888.1 L799.9,879.2 L772.7,868.7 L747.5,856.1 L725.0,840.8 L706.0,823.0 L690.5,803.5 L677.5,784.0 L665.3,766.0 L651.5,750.3 L634.8,736.6 L615.1,723.7 L594.3,709.7 L575.7,693.5 L562.5,674.6 L556.8,653.6 L558.5,632.0 L565.0,611.0 L572.0,590.9 L575.7,571.0 L573.6,549.8 L566.2,525.8 L556.9,498.3 L550.6,468.5 L552.3,439.2 L565.4,413.9 L590.2,396.0 L624.1,387.1 L662.8,386.8 L701.4,392.7 L736.5,400.9 L766.6,407.8 L792.0,410.9 L814.6,409.6 L836.5,405.0 L859.0,399.1 L882.7,394.0 L907.5,390.8 L933.1,389.6 L959.5,390.0 L987.1,391.3 L1016.0,393.4 L1046.1,397.2 L1076.1,404.0 L1103.7,415.3 L1126.5,431.4 L1142.7,452.1 L1152.0,475.7 L1156.2,500.1 L1158.3,523.9 L1161.4,546.2 L1167.4,567.5 L1176.1,588.8 L1185.0,611.0 Z"/>
<path class="c" d="M1250.1,611.0 L1255.8,638.8 L1251.8,666.4 L1235.2,691.6 L1206.8,712.3 L1170.7,727.3 L1133.2,737.6 L1100.5,746.3 L1076.7,757.1 L1062.5,773.8 L1055.4,798.2 L1050.3,829.5 L1041.9,864.5 L1026.5,898.3 L1002.5,926.5 L971.1,945.8 L934.9,955.5 L896.8,956.8 L859.0,952.0 L822.6,943.5 L788.1,932.9 L755.4,920.3 L725.2,905.1 L698.2,886.8 L675.4,865.4 L656.8,842.0 L641.3,818.6 L626.5,797.0 L610.0,778.1 L589.9,761.7 L566.3,746.2 L541.4,729.5 L519.0,710.0 L503.2,687.3 L496.4,662.2 L498.4,636.2 L506.1,611.0 L514.7,586.9 L519.1,563.0 L516.6,537.6 L507.7,508.7 L496.5,475.8 L488.9,440.0 L491.0,404.9 L506.7,374.5 L536.4,353.0 L577.1,342.3 L623.5,342.0 L669.9,349.0 L712.0,358.9 L748.1,367.2 L778.6,370.9 L805.7,369.4 L832.0,363.8 L859.0,356.8 L887.5,350.6 L917.2,346.7 L948.0,345.4 L979.6,345.8 L1012.7,347.4 L1047.4,349.9 L1083.5,354.5 L1119.5,362.7 L1152.6,376.1 L1180.0,395.5 L1199.4,420.3 L1210.6,448.6 L1215.7,477.9 L1218.1,506.4 L1221.8,533.2 L1229.1,558.8 L1239.6,584.4 L1250.1,611.0 Z"/>
<path class="c" d="M1315.3,611.0 L1322.0,643.4 L1317.2,675.6 L1297.9,705.1 L1264.8,729.2 L1222.7,746.7 L1178.9,758.8 L1140.7,768.8 L1112.9,781.5 L1096.4,801.0 L1088.1,829.4 L1082.2,866.0 L1072.4,906.7 L1054.4,946.2 L1026.5,979.1 L989.8,1001.6 L947.6,1013.0 L903.1,1014.4 L859.0,1008.8 L816.6,998.9 L776.2,986.5 L738.1,971.8 L702.9,954.2 L671.4,932.8 L644.8,907.8 L623.1,880.5 L605.0,853.2 L587.8,828.0 L568.5,806.0 L545.1,786.8 L517.5,768.7 L488.5,749.2 L462.3,726.5 L443.9,700.0 L435.9,670.7 L438.3,640.4 L447.3,611.0 L457.3,582.9 L462.4,555.1 L459.5,525.4 L449.1,491.7 L436.0,453.2 L427.2,411.6 L429.7,370.5 L448.0,335.1 L482.7,309.9 L530.2,297.5 L584.3,297.1 L638.4,305.3 L687.6,316.9 L729.6,326.5 L765.2,330.9 L796.9,329.1 L827.5,322.6 L859.0,314.4 L892.2,307.2 L927.0,302.7 L962.8,301.1 L999.7,301.6 L1038.3,303.4 L1078.8,306.4 L1121.0,311.7 L1162.9,321.3 L1201.6,337.0 L1233.5,359.6 L1256.1,388.5 L1269.2,421.5 L1275.1,455.8 L1278.0,489.0 L1282.3,520.3 L1290.8,550.1 L1303.0,579.9 L1315.3,611.0 Z"/>
<path class="ix" d="M1380.5,611.0 L1388.1,648.0 L1382.7,684.9 L1360.6,718.5 L1322.8,746.0 L1274.7,766.1 L1224.6,779.9 L1180.9,791.3 L1149.2,805.8 L1130.4,828.1 L1120.8,860.6 L1114.0,902.4 L1102.9,949.0 L1082.3,994.1 L1050.4,1031.6 L1008.5,1057.5 L960.2,1070.4 L909.4,1072.0 L859.0,1065.6 L810.5,1054.4 L764.4,1040.2 L720.9,1023.4 L680.6,1003.2 L644.6,978.8 L614.2,950.2 L589.4,919.0 L568.7,887.8 L549.0,859.0 L527.0,833.8 L500.3,812.0 L468.8,791.2 L435.5,769.0 L405.7,743.0 L384.6,712.7 L375.5,679.2 L378.2,644.7 L388.5,611.0 L399.9,578.9 L405.8,547.1 L402.4,513.1 L390.6,474.6 L375.6,430.7 L365.5,383.1 L368.3,336.1 L389.3,295.7 L428.9,266.9 L483.2,252.7 L545.0,252.3 L606.9,261.7 L663.1,274.8 L711.1,285.9 L751.8,290.9 L788.0,288.8 L823.0,281.4 L859.0,272.0 L897.0,263.8 L936.7,258.6 L977.6,256.8 L1019.9,257.5 L1063.9,259.5 L1110.2,262.9 L1158.4,269.0 L1206.3,279.9 L1250.5,297.8 L1287.0,323.7 L1312.9,356.8 L1327.9,394.4 L1334.6,433.6 L1337.9,471.6 L1342.8,507.3 L1352.4,541.4 L1366.4,575.5 L1380.5,611.0 Z"/>
<path class="c" d="M1445.7,611.0 L1454.2,652.7 L1448.1,694.1 L1423.3,732.0 L1380.7,762.9 L1326.6,785.4 L1270.3,801.0 L1221.2,813.9 L1185.5,830.2 L1164.3,855.2 L1153.6,891.8 L1145.9,938.8 L1133.4,991.2 L1110.2,1042.0 L1074.3,1084.2 L1027.2,1113.3 L972.9,1127.8 L915.7,1129.7 L859.0,1122.4 L804.5,1109.8 L752.6,1093.8 L703.6,1074.9 L658.3,1052.2 L617.8,1024.7 L583.6,992.6 L555.7,957.5 L532.4,922.4 L510.3,890.0 L485.6,861.7 L455.4,837.1 L420.0,813.8 L382.6,788.7 L349.0,759.5 L325.3,725.4 L315.1,687.7 L318.1,648.9 L329.7,611.0 L342.5,574.8 L349.1,539.1 L345.3,500.9 L332.0,457.6 L315.2,408.1 L303.8,354.6 L307.0,301.8 L330.6,256.3 L375.2,223.9 L436.2,207.9 L505.8,207.5 L575.4,218.0 L638.6,232.8 L692.6,245.3 L738.4,250.9 L779.1,248.6 L818.5,240.3 L859.0,229.6 L901.7,220.4 L946.4,214.6 L992.5,212.6 L1040.0,213.3 L1089.5,215.6 L1141.6,219.4 L1195.8,226.2 L1249.7,238.5 L1299.4,258.7 L1340.5,287.8 L1369.6,325.0 L1386.5,367.4 L1394.0,411.4 L1397.7,454.1 L1403.2,494.3 L1414.1,532.7 L1429.9,571.0 L1445.7,611.0 Z"/>
<path class="c" d="M1510.9,611.0 L1520.4,657.3 L1513.6,703.3 L1486.0,745.4 L1438.7,779.8 L1378.6,804.8 L1316.0,822.1 L1261.4,836.4 L1221.8,854.5 L1198.2,882.4 L1186.3,923.1 L1177.8,975.2 L1163.9,1033.4 L1138.1,1089.9 L1098.2,1136.8 L1045.9,1169.1 L985.6,1185.2 L922.0,1187.3 L859.0,1179.3 L798.4,1165.2 L740.8,1147.5 L686.3,1126.5 L636.0,1101.2 L591.1,1070.7 L553.0,1035.0 L522.0,996.0 L496.1,957.0 L471.6,921.0 L444.1,889.5 L410.6,862.2 L371.2,836.3 L329.7,808.5 L292.4,776.0 L266.0,738.1 L254.6,696.3 L258.0,653.1 L270.9,611.0 L285.1,570.8 L292.4,531.1 L288.3,488.7 L273.5,440.5 L254.8,385.6 L242.1,326.1 L245.7,267.4 L271.9,216.9 L321.4,180.9 L389.2,163.1 L466.6,162.6 L543.9,174.4 L614.1,190.8 L674.1,204.6 L725.0,210.9 L770.2,208.3 L813.9,199.1 L859.0,187.3 L906.5,177.0 L956.1,170.5 L1007.3,168.3 L1060.1,169.1 L1115.1,171.6 L1173.0,175.9 L1233.2,183.4 L1293.1,197.1 L1348.4,219.5 L1394.0,251.9 L1426.3,293.2 L1445.1,340.3 L1453.5,389.2 L1457.6,436.7 L1463.7,481.4 L1475.8,524.0 L1493.3,566.6 L1510.9,611.0 Z"/>
<path class="c" d="M1576.1,611.0 L1586.5,661.9 L1579.1,712.6 L1548.7,758.8 L1496.7,796.7 L1430.5,824.2 L1361.7,843.2 L1301.7,859.0 L1258.0,878.9 L1232.1,909.5 L1219.0,954.3 L1209.7,1011.7 L1194.4,1075.7 L1166.0,1137.8 L1122.1,1189.4 L1064.6,1224.9 L998.2,1242.6 L928.3,1244.9 L859.0,1236.1 L792.3,1220.6 L728.9,1201.1 L669.1,1178.0 L613.7,1150.3 L564.3,1116.7 L522.4,1077.4 L488.3,1034.5 L459.8,991.6 L432.8,951.9 L402.6,917.4 L365.7,887.3 L322.4,858.8 L276.7,828.2 L235.7,792.5 L206.6,750.8 L194.2,704.8 L197.9,657.3 L212.1,611.0 L227.7,566.8 L235.8,523.1 L231.2,476.4 L214.9,423.5 L194.3,363.0 L180.4,297.6 L184.3,233.1 L213.1,177.5 L267.6,137.9 L342.3,118.3 L427.3,117.8 L512.4,130.7 L589.6,148.8 L655.6,164.0 L711.6,170.9 L761.4,168.0 L809.4,157.9 L859.0,144.9 L911.2,133.6 L965.8,126.5 L1022.1,124.0 L1080.2,124.9 L1140.7,127.7 L1204.4,132.4 L1270.6,140.7 L1336.6,155.7 L1397.3,180.4 L1447.4,216.0 L1483.1,261.4 L1503.7,313.2 L1512.9,367.1 L1517.4,419.3 L1524.2,468.4 L1537.5,515.3 L1556.7,562.2 L1576.1,611.0 Z"/>
<path class="ix" d="M1641.3,611.0 L1652.7,666.5 L1644.5,721.8 L1611.4,772.3 L1554.7,813.6 L1482.5,843.6 L1407.4,864.3 L1341.9,881.5 L1294.3,903.2 L1266.1,936.6 L1251.8,985.5 L1241.6,1048.1 L1224.9,1117.9 L1193.9,1185.6 L1146.1,1242.0 L1083.3,1280.7 L1010.9,1300.1 L934.6,1302.5 L859.0,1292.9 L786.3,1276.0 L717.1,1254.8 L651.8,1229.6 L591.3,1199.3 L537.5,1162.6 L491.8,1119.8 L454.6,1073.1 L423.5,1026.2 L394.1,982.9 L361.1,945.3 L320.9,912.4 L273.6,881.4 L223.8,848.0 L179.0,809.0 L147.3,763.5 L133.7,713.3 L137.8,661.5 L153.3,611.0 L170.3,562.8 L179.1,515.1 L174.1,464.2 L156.4,406.4 L133.9,340.5 L118.8,269.1 L123.0,198.7 L154.4,138.0 L213.9,94.9 L295.3,73.6 L388.1,73.0 L480.9,87.0 L565.1,106.8 L637.1,123.3 L698.2,130.8 L752.5,127.7 L804.9,116.7 L859.0,102.5 L916.0,90.2 L975.5,82.4 L1036.9,79.7 L1100.3,80.7 L1166.3,83.8 L1235.8,88.9 L1308.1,97.9 L1380.0,114.3 L1446.2,141.2 L1500.9,180.1 L1539.8,229.6 L1562.3,286.2 L1572.4,344.9 L1577.3,401.9 L1584.6,455.5 L1599.1,506.6 L1620.1,557.7 L1641.3,611.0 Z"/>
<path class="c" d="M1706.5,611.0 L1718.8,671.2 L1710.0,731.0 L1674.1,785.7 L1612.6,830.4 L1534.5,863.0 L1453.1,885.4 L1382.2,904.1 L1330.6,927.6 L1300.0,963.8 L1284.5,1016.7 L1273.4,1084.5 L1255.3,1160.2 L1221.9,1233.5 L1170.0,1294.5 L1102.0,1336.5 L1023.5,1357.5 L940.9,1360.2 L859.0,1349.8 L780.2,1331.4 L705.3,1308.4 L634.6,1281.1 L569.0,1248.3 L510.7,1208.6 L461.2,1162.2 L420.9,1111.6 L387.2,1060.8 L355.3,1013.9 L319.6,973.1 L276.0,937.5 L224.9,903.9 L170.9,867.7 L122.4,825.5 L88.0,776.3 L73.3,721.8 L77.7,665.7 L94.5,611.0 L112.9,558.8 L122.5,507.1 L117.0,452.0 L97.8,389.4 L73.5,318.0 L57.1,240.6 L61.7,164.4 L95.7,98.6 L160.1,51.9 L248.3,28.8 L348.8,28.1 L449.3,43.4 L540.6,64.8 L618.6,82.7 L684.8,90.8 L743.6,87.5 L800.4,75.5 L859.0,60.2 L920.7,46.8 L985.2,38.4 L1051.8,35.5 L1120.4,36.5 L1191.9,39.8 L1267.2,45.4 L1345.5,55.2 L1423.4,72.9 L1495.2,102.1 L1554.4,144.2 L1596.5,197.9 L1620.9,259.1 L1631.8,322.7 L1637.1,384.4 L1645.1,442.5 L1660.8,497.9 L1683.6,553.3 L1706.5,611.0 Z"/>
<path class="c" d="M1771.7,611.0 L1784.9,675.8 L1775.4,740.3 L1736.8,799.2 L1670.6,847.3 L1586.4,882.4 L1498.8,906.5 L1422.4,926.6 L1366.9,951.9 L1333.9,990.9 L1317.2,1047.9 L1305.3,1120.9 L1285.8,1202.4 L1249.8,1281.4 L1193.9,1347.1 L1120.7,1392.3 L1036.2,1414.9 L947.2,1417.8 L859.0,1406.6 L774.2,1386.9 L693.5,1362.0 L617.3,1332.7 L546.7,1297.3 L483.9,1254.6 L430.6,1204.6 L387.2,1150.1 L350.9,1095.4 L316.6,1044.9 L278.1,1001.0 L231.2,962.7 L176.1,926.4 L117.9,887.5 L65.7,842.0 L28.7,789.0 L12.9,730.4 L17.6,669.9 L35.7,611.0 L55.5,554.8 L65.8,499.1 L60.0,439.7 L39.3,372.3 L13.1,295.4 L-4.6,212.1 L0.3,130.0 L37.0,59.2 L106.4,8.9 L201.3,-16.0 L309.6,-16.7 L417.8,-0.3 L516.1,22.7 L600.2,42.1 L671.4,50.8 L734.7,47.2 L795.9,34.3 L859.0,17.8 L925.5,3.4 L994.9,-5.7 L1066.6,-8.8 L1140.5,-7.7 L1217.5,-4.1 L1298.6,1.8 L1382.9,12.4 L1466.8,31.5 L1544.1,62.9 L1607.9,108.3 L1653.3,166.1 L1679.5,232.0 L1691.3,300.5 L1697.0,367.0 L1705.6,429.5 L1722.5,489.2 L1747.0,548.8 L1771.7,611.0 Z"/>
<path class="c" d="M1836.9,611.0 L1851.1,680.4 L1840.9,749.5 L1799.5,812.6 L1728.6,864.2 L1638.4,901.7 L1544.5,927.6 L1462.6,949.1 L1403.1,976.3 L1367.8,1018.1 L1350.0,1079.1 L1337.2,1157.3 L1316.3,1244.7 L1277.7,1329.3 L1217.8,1399.7 L1139.4,1448.1 L1048.8,1472.3 L953.5,1475.4 L859.0,1463.4 L768.1,1442.3 L681.6,1415.7 L600.0,1384.2 L524.4,1346.4 L457.1,1300.5 L400.0,1247.0 L353.5,1188.6 L314.6,1130.0 L277.8,1075.9 L236.6,1028.8 L186.4,987.8 L127.3,949.0 L65.0,907.2 L9.0,858.5 L-30.6,801.7 L-47.6,738.9 L-42.5,674.1 L-23.1,611.0 L-1.9,550.7 L9.2,491.1 L2.9,427.5 L-19.3,355.3 L-47.4,272.9 L-66.3,183.6 L-61.0,95.7 L-21.7,19.8 L52.6,-34.1 L154.4,-60.8 L270.3,-61.6 L386.3,-44.0 L491.6,-19.3 L581.7,1.4 L658.0,10.8 L725.9,6.9 L791.4,-6.9 L859.0,-24.6 L930.2,-40.1 L1004.6,-49.7 L1081.4,-53.1 L1160.6,-51.9 L1243.2,-48.1 L1330.0,-41.7 L1420.3,-30.3 L1510.2,-9.9 L1593.1,23.8 L1661.4,72.3 L1710.0,134.3 L1738.1,205.0 L1750.7,278.3 L1756.9,349.6 L1766.1,416.6 L1784.2,480.5 L1810.4,544.4 L1836.9,611.0 Z"/>
<text class="ct" x="765" y="738" text-anchor="middle">8,000</text>
<text class="ct" x="875" y="958" text-anchor="middle">7,400</text>
<text class="ct" x="1147" y="936" text-anchor="middle">6,800</text>
<text class="ct" x="1541" y="824" text-anchor="middle">6,200</text>
<text class="ct" x="1774" y="453" text-anchor="middle">5,600</text>
<circle class="dot" cx="859" cy="587" r="2.4"/>
<text class="pk" x="859" y="607" text-anchor="middle">SOUTH BOULDER PEAK</text>
<text class="el" x="859" y="628" text-anchor="middle">8,549&#8242;</text>
</svg>