<svg xmlns="http://www.w3.org/2000/svg" width="2000" height="1400" viewBox="0 0 2000 1400">
<style>
  .c  { fill:none; stroke:#2A1B11; stroke-opacity:0.07; stroke-width:1.1; }
  .ix { fill:none; stroke:#2A1B11; stroke-opacity:0.12; stroke-width:1.6; }
  .ct { font:500 10px 'IBM Plex Mono',ui-monospace,monospace; fill:#2A1B11; fill-opacity:0.32;
        stroke:#F4ECDB; stroke-width:3; paint-order:stroke; }
  .pk { font:600 11.5px 'Inter Tight','Helvetica Neue',sans-serif; letter-spacing:0.15em; fill:#2A1B11; fill-opacity:0.2; }
  .el { font:500 10.5px 'IBM Plex Mono',ui-monospace,monospace; fill:#9C6A33; fill-opacity:0.34; }
  .dot { fill:#2A1B11; fill-opacity:0.24; }
</style>
<path class="c" d="M924.2,611.0 L925.1,615.6 L924.5,620.2 L921.7,624.4 L917.0,627.9 L911.0,630.4 L904.7,632.1 L899.2,633.5 L895.3,635.4 L892.9,638.1 L891.7,642.2 L890.9,647.4 L889.5,653.2 L886.9,658.9 L882.9,663.6 L877.7,666.8 L871.7,668.4 L865.3,668.6 L859.0,667.8 L852.9,666.4 L847.2,664.6 L841.7,662.5 L836.7,660.0 L832.2,657.0 L828.4,653.4 L825.3,649.5 L822.7,645.6 L820.3,642.0 L817.5,638.9 L814.2,636.1 L810.2,633.5 L806.1,630.7 L802.3,627.5 L799.7,623.7 L798.6,619.5 L798.9,615.2 L800.2,611.0 L801.6,607.0 L802.3,603.0 L801.9,598.8 L800.4,594.0 L798.6,588.5 L797.3,582.5 L797.7,576.6 L800.3,571.6 L805.2,568.0 L812.0,566.2 L819.8,566.2 L827.5,567.3 L834.5,569.0 L840.5,570.4 L845.6,571.0 L850.1,570.7 L854.5,569.8 L859.0,568.6 L863.7,567.6 L868.7,567.0 L873.8,566.7 L879.1,566.8 L884.6,567.1 L890.4,567.5 L896.4,568.2 L902.4,569.6 L907.9,571.9 L912.5,575.1 L915.7,579.2 L917.6,583.9 L918.4,588.8 L918.9,593.6 L919.5,598.0 L920.7,602.3 L922.4,606.6 L924.2,611.0 Z"/>
<path class="c" d="M989.4,611.0 L991.3,620.3 L989.9,629.5 L984.4,637.9 L974.9,644.8 L962.9,649.8 L950.4,653.2 L939.5,656.1 L931.6,659.7 L926.8,665.3 L924.5,673.4 L922.8,683.8 L920.0,695.5 L914.8,706.8 L906.8,716.2 L896.4,722.6 L884.3,725.8 L871.6,726.3 L859.0,724.7 L846.9,721.8 L835.4,718.3 L824.5,714.1 L814.4,709.0 L805.4,702.9 L797.8,695.8 L791.6,688.0 L786.4,680.2 L781.5,673.0 L776.0,666.7 L769.3,661.2 L761.4,656.1 L753.1,650.5 L745.7,644.0 L740.4,636.4 L738.1,628.1 L738.8,619.4 L741.4,611.0 L744.2,603.0 L745.7,595.0 L744.9,586.5 L741.9,576.9 L738.2,565.9 L735.6,554.0 L736.3,542.3 L741.6,532.2 L751.5,525.0 L765.0,521.4 L780.5,521.3 L796.0,523.7 L810.0,527.0 L822.0,529.7 L832.2,531.0 L841.2,530.5 L850.0,528.6 L859.0,526.3 L868.5,524.2 L878.4,522.9 L888.7,522.5 L899.2,522.6 L910.2,523.1 L921.8,524.0 L933.8,525.5 L945.8,528.2 L956.9,532.7 L966.0,539.2 L972.5,547.4 L976.2,556.9 L977.9,566.6 L978.7,576.1 L979.9,585.1 L982.4,593.6 L985.9,602.1 L989.4,611.0 Z"/>
<path class="c" d="M1054.6,611.0 L1057.4,624.9 L1055.4,638.7 L1047.1,651.3 L1032.9,661.6 L1014.9,669.1 L996.1,674.3 L979.7,678.6 L967.8,684.1 L960.8,692.4 L957.2,704.6 L954.6,720.3 L950.5,737.7 L942.7,754.7 L930.8,768.7 L915.1,778.4 L897.0,783.3 L877.9,783.9 L859.0,781.5 L840.8,777.3 L823.5,771.9 L807.2,765.6 L792.1,758.1 L778.6,748.9 L767.2,738.2 L757.9,726.5 L750.1,714.8 L742.8,704.0 L734.5,694.6 L724.5,686.4 L712.7,678.6 L700.2,670.2 L689.0,660.5 L681.1,649.1 L677.7,636.6 L678.7,623.6 L682.6,611.0 L686.8,598.9 L689.0,587.0 L687.8,574.3 L683.3,559.9 L677.7,543.4 L673.9,525.5 L675.0,507.9 L682.9,492.8 L697.7,482.0 L718.1,476.6 L741.3,476.5 L764.5,480.0 L785.5,484.9 L803.5,489.1 L818.8,491.0 L832.4,490.2 L845.5,487.4 L859.0,483.9 L873.2,480.8 L888.1,478.9 L903.5,478.2 L919.3,478.4 L935.8,479.2 L953.2,480.5 L971.3,482.7 L989.2,486.8 L1005.8,493.6 L1019.5,503.3 L1029.2,515.7 L1034.8,529.8 L1037.3,544.5 L1038.6,558.7 L1040.4,572.1 L1044.0,584.9 L1049.3,597.7 L1054.6,611.0 Z"/>
<path class="ix" d="M1119.8,611.0 L1123.6,629.5 L1120.8,647.9 L1109.8,664.8 L1090.9,678.5 L1066.8,688.5 L1041.8,695.4 L1020.0,701.2 L1004.1,708.4 L994.7,719.5 L989.9,735.8 L986.5,756.7 L981.0,780.0 L970.6,802.5 L954.7,821.3 L933.8,834.2 L909.6,840.7 L884.2,841.5 L859.0,838.3 L834.8,832.7 L811.7,825.6 L789.9,817.2 L769.8,807.1 L751.8,794.9 L736.6,780.6 L724.2,765.0 L713.8,749.4 L704.0,735.0 L693.0,722.4 L679.6,711.5 L663.9,701.1 L647.3,690.0 L632.3,677.0 L621.8,661.8 L617.2,645.1 L618.6,627.8 L623.8,611.0 L629.4,594.9 L632.4,579.0 L630.7,562.1 L624.8,542.8 L617.3,520.8 L612.3,497.0 L613.7,473.6 L624.1,453.3 L644.0,439.0 L671.1,431.9 L702.0,431.7 L733.0,436.3 L761.0,442.9 L785.0,448.4 L805.4,450.9 L823.5,449.9 L841.0,446.2 L859.0,441.5 L878.0,437.4 L897.8,434.8 L918.3,433.9 L939.4,434.2 L961.4,435.3 L984.6,437.0 L1008.7,440.0 L1032.7,445.4 L1054.7,454.4 L1073.0,467.4 L1085.9,483.9 L1093.4,502.7 L1096.8,522.3 L1098.4,541.3 L1100.9,559.2 L1105.7,576.2 L1112.7,593.2 L1119.8,611.0 Z"/>
<path class="c" d="M1185.0,611.0 L1189.7,634.1 L1186.3,657.2 L1172.5,678.2 L1148.9,695.4 L1118.8,707.9 L1087.5,716.5 L1060.2,723.7 L1040.4,732.8 L1028.6,746.7 L1022.7,767.0 L1018.4,793.1 L1011.4,822.2 L998.6,850.4 L978.6,873.9 L952.5,890.0 L922.3,898.1 L890.5,899.1 L859.0,895.1 L828.7,888.1 L799.9,879.2 L772.7,868.7 L747.5,856.1 L725.0,840.8 L706.0,823.0 L690.5,803.5 L677.5,784.0 L665.3,766.0 L651.5,750.3 L634.8,736.6 L615.1,723.7 L594.3,709.7 L575.7,693.5 L562.5,674.6 L556.8,653.6 L558.5,632.0 L565.0,611.0 L572.0,590.9 L575.7,571.0 L573.6,549.8 L566.2,525.8 L556.9,498.3 L550.6,468.5 L552.3,439.2 L565.4,413.9 L590.2,396.0 L624.1,387.1 L662.8,386.8 L701.4,392.7 L736.5,400.9 L766.6,407.8 L792.0,410.9 L814.6,409.6 L836.5,405.0 L859.0,399.1 L882.7,394.0 L907.5,390.8 L933.1,389.6 L959.5,390.0 L987.1,391.3 L1016.0,393.4 L1046.1,397.2 L1076.1,404.0 L1103.7,415.3 L1126.5,431.4 L1142.7,452.1 L1152.0,475.7 L1156.2,500.1 L1158.3,523.9 L1161.4,546.2 L1167.4,567.5 L1176.1,588.8 L1185.0,611.0 Z"/>
<path class="c" d="M1250.1,611.0 L1255.8,638.8 L1251.8,666.4 L1235.2,691.6 L1206.8,712.3 L1170.7,727.3 L1133.2,737.6 L1100.5,746.3 L1076.7,757.1 L1062.5,773.8 L1055.4,798.2 L1050.3,829.5 L1041.9,864.5 L1026.5,898.3 L1002.5,926.5 L971.1,945.8 L934.9,955.5 L896.8,956.8 L859.0,952.0 L822.6,943.5 L788.1,932.9 L755.4,920.3 L725.2,905.1 L698.2,886.8 L675.4,865.4 L656.8,842.0 L641.3,818.6 L626.5,797.0 L610.0,778.1 L589.9,761.7 L566.3,746.2 L541.4,729.5 L519.0,710.0 L503.2,687.3 L496.4,662.2 L498.4,636.2 L506.1,611.0 L514.7,586.9 L519.1,563.0 L516.6,537.6 L507.7,508.7 L496.5,475.8 L488.9,440.0 L491.0,404.9 L506.7,374.5 L536.4,353.0 L577.1,342.3 L623.5,342.0 L669.9,349.0 L712.0,358.9 L748.1,367.2 L778.6,370.9 L805.7,369.4 L832.0,363.8 L859.0,356.8 L887.5,350.6 L917.2,346.7 L948.0,345.4 L979.6,345.8 L1012.7,347.4 L1047.4,349.9 L1083.5,354.5 L1119.5,362.7 L1152.6,376.1 L1180.0,395.5 L1199.4,420.3 L1210.6,448.6 L1215.7,477.9 L1218.1,506.4 L1221.8,533.2 L1229.1,558.8 L1239.6,584.4 L1250.1,611.0 Z"/>
<path class="c" d="M1315.3,611.0 L1322.0,643.4 L1317.2,675.6 L1297.9,705.1 L1264.8,729.2 L1222.7,746.7 L1178.9,758.8 L1140.7,768.8 L1112.9,781.5 L1096.4,801.0 L1088.1,829.4 L1082.2,866.0 L1072.4,906.7 L1054.4,946.2 L1026.5,979.1 L989.8,1001.6 L947.6,1013.0 L903.1,1014.4 L859.0,1008.8 L816.6,998.9 L776.2,986.5 L738.1,971.8 L702.9,954.2 L671.4,932.8 L644.8,907.8 L623.1,880.5 L605.0,853.2 L587.8,828.0 L568.5,806.0 L545.1,786.8 L517.5,768.7 L488.5,749.2 L462.3,726.5 L443.9,700.0 L435.9,670.7 L438.3,640.4 L447.3,611.0 L457.3,582.9 L462.4,555.1 L459.5,525.4 L449.1,491.7 L436.0,453.2 L427.2,411.6 L429.7,370.5 L448.0,335.1 L482.7,309.9 L530.2,297.5 L584.3,297.1 L638.4,305.3 L687.6,316.9 L729.6,326.5 L765.2,330.9 L796.9,329.1 L827.5,322.6 L859.0,314.4 L892.2,307.2 L927.0,302.7 L962.8,301.1 L999.7,301.6 L1038.3,303.4 L1078.8,306.4 L1121.0,311.7 L1162.9,321.3 L1201.6,337.0 L1233.5,359.6 L1256.1,388.5 L1269.2,421.5 L1275.1,455.8 L1278.0,489.0 L1282.3,520.3 L1290.8,550.1 L1303.0,579.9 L1315.3,611.0 Z"/>
<path class="ix" d="M1380.5,611.0 L1388.1,648.0 L1382.7,684.9 L1360.6,718.5 L1322.8,746.0 L1274.7,766.1 L1224.6,779.9 L1180.9,791.3 L1149.2,805.8 L1130.4,828.1 L1120.8,860.6 L1114.0,902.4 L1102.9,949.0 L1082.3,994.1 L1050.4,1031.6 L1008.5,1057.5 L960.2,1070.4 L909.4,1072.0 L859.0,1065.6 L810.5,1054.4 L764.4,1040.2 L720.9,1023.4 L680.6,1003.2 L644.6,978.8 L614.2,950.2 L589.4,919.0 L568.7,887.8 L549.0,859.0 L527.0,833.8 L500.3,812.0 L468.8,791.2 L435.5,769.0 L405.7,743.0 L384.6,712.7 L375.5,679.2 L378.2,644.7 L388.5,611.0 L399.9,578.9 L405.8,547.1 L402.4,513.1 L390.6,474.6 L375.6,430.7 L365.5,383.1 L368.3,336.1 L389.3,295.7 L428.9,266.9 L483.2,252.7 L545.0,252.3 L606.9,261.7 L663.1,274.8 L711.1,285.9 L751.8,290.9 L788.0,288.8 L823.0,281.4 L859.0,272.0 L897.0,263.8 L936.7,258.6 L977.6,256.8 L1019.9,257.5 L1063.9,259.5 L1110.2,262.9 L1158.4,269.0 L1206.3,279.9 L1250.5,297.8 L1287.0,323.7 L1312.9,356.8 L1327.9,394.4 L1334.6,433.6 L1337.9,471.6 L1342.8,507.3 L1352.4,541.4 L1366.4,575.5 L1380.5,611.0 Z"/>
<path class="c" d="M1445.7,611.0 L1454.2,652.7 L1448.1,694.1 L1423.3,732.0 L1380.7,762.9 L1326.6,785.4 L1270.3,801.0 L1221.2,813.9 L1185.5,830.2 L1164.3,855.2 L1153.6,891.8 L1145.9,938.8 L1133.4,991.2 L1110.2,1042.0 L1074.3,1084.2 L1027.2,1113.3 L972.9,1127.8 L915.7,1129.7 L859.0,1122.4 L804.5,1109.8 L752.6,1093.8 L703.6,1074.9 L658.3,1052.2 L617.8,1024.7 L583.6,992.6 L555.7,957.5 L532.4,922.4 L510.3,890.0 L485.6,861.7 L455.4,837.1 L420.0,813.8 L382.6,788.7 L349.0,759.5 L325.3,725.4 L315.1,687.7 L318.1,648.9 L329.7,611.0 L342.5,574.8 L349.1,539.1 L345.3,500.9 L332.0,457.6 L315.2,408.1 L303.8,354.6 L307.0,301.8 L330.6,256.3 L375.2,223.9 L436.2,207.9 L505.8,207.5 L575.4,218.0 L638.6,232.8 L692.6,245.3 L738.4,250.9 L779.1,248.6 L818.5,240.3 L859.0,229.6 L901.7,220.4 L946.4,214.6 L992.5,212.6 L1040.0,213.3 L1089.5,215.6 L1141.6,219.4 L1195.8,226.2 L1249.7,238.5 L1299.4,258.7 L1340.5,287.8 L1369.6,325.0 L1386.5,367.4 L1394.0,411.4 L1397.7,454.1 L1403.2,494.3 L1414.1,532.7 L1429.9,571.0 L1445.7,611.0 Z"/>
<path class="c" d="M1510.9,611.0 L1520.4,657.3 L1513.6,703.3 L1486.0,745.4 L1438.7,779.8 L1378.6,804.8 L1316.0,822.1 L1261.4,836.4 L1221.8,854.5 L1198.2,882.4 L1186.3,923.1 L1177.8,975.2 L1163.9,1033.4 L1138.1,1089.9 L1098.2,1136.8 L1045.9,1169.1 L985.6,1185.2 L922.0,1187.3 L859.0,1179.3 L798.4,1165.2 L740.8,1147.5 L686.3,1126.5 L636.0,1101.2 L591.1,1070.7 L553.0,1035.0 L522.0,996.0 L496.1,957.0 L471.6,921.0 L444.1,889.5 L410.6,862.2 L371.2,836.3 L329.7,808.5 L292.4,776.0 L266.0,738.1 L254.6,696.3 L258.0,653.1 L270.9,611.0 L285.1,570.8 L292.4,531.1 L288.3,488.7 L273.5,440.5 L254.8,385.6 L242.1,326.1 L245.7,267.4 L271.9,216.9 L321.4,180.9 L389.2,163.1 L466.6,162.6 L543.9,174.4 L614.1,190.8 L674.1,204.6 L725.0,210.9 L770.2,208.3 L813.9,199.1 L859.0,187.3 L906.5,177.0 L956.1,170.5 L1007.3,168.3 L1060.1,169.1 L1115.1,171.6 L1173.0,175.9 L1233.2,183.4 L1293.1,197.1 L1348.4,219.5 L1394.0,251.9 L1426.3,293.2 L1445.1,340.3 L1453.5,389.2 L1457.6,436.7 L1463.7,481.4 L1475.8,524.0 L1493.3,566.6 L1510.9,611.0 Z"/>
<path class="c" d="M1576.1,611.0 L1586.5,661.9 L1579.1,712.6 L1548.7,758.8 L1496.7,796.7 L1430.5,824.2 L1361.7,843.2 L1301.7,859.0 L1258.0,878.9 L1232.1,909.5 L1219.0,954.3 L1209.7,1011.7 L1194.4,1075.7 L1166.0,1137.8 L1122.1,1189.4 L1064.6,1224.9 L998.2,1242.6 L928.3,1244.9 L859.0,1236.1 L792.3,1220.6 L728.9,1201.1 L669.1,1178.0 L613.7,1150.3 L564.3,1116.7 L522.4,1077.4 L488.3,1034.5 L459.8,991.6 L432.8,951.9 L402.6,917.4 L365.7,887.3 L322.4,858.8 L276.7,828.2 L235.7,792.5 L206.6,750.8 L194.2,704.8 L197.9,657.3 L212.1,611.0 L227.7,566.8 L235.8,523.1 L231.2,476.4 L214.9,423.5 L194.3,363.0 L180.4,297.6 L184.3,233.1 L213.1,177.5 L267.6,137.9 L342.3,118.3 L427.3,117.8 L512.4,130.7 L589.6,148.8 L655.6,164.0 L711.6,170.9 L761.4,168.0 L809.4,157.9 L859.0,144.9 L911.2,133.6 L965.8,126.5 L1022.1,124.0 L1080.2,124.9 L1140.7,127.7 L1204.4,132.4 L1270.6,140.7 L1336.6,155.7 L1397.3,180.4 L1447.4,216.0 L1483.1,261.4 L1503.7,313.2 L1512.9,367.1 L1517.4,419.3 L1524.2,468.4 L1537.5,515.3 L1556.7,562.2 L1576.1,611.0 Z"/>
<path class="ix" d="M1641.3,611.0 L1652.7,666.5 L1644.5,721.8 L1611.4,772.3 L1554.7,813.6 L1482.5,843.6 L1407.4,864.3 L1341.9,881.5 L1294.3,903.2 L1266.1,936.6 L1251.8,985.5 L1241.6,1048.1 L1224.9,1117.9 L1193.9,1185.6 L1146.1,1242.0 L1083.3,1280.7 L1010.9,1300.1 L934.6,1302.5 L859.0,1292.9 L786.3,1276.0 L717.1,1254.8 L651.8,1229.6 L591.3,1199.3 L537.5,1162.6 L491.8,1119.8 L454.6,1073.1 L423.5,1026.2 L394.1,982.9 L361.1,945.3 L320.9,912.4 L273.6,881.4 L223.8,848.0 L179.0,809.0 L147.3,763.5 L133.7,713.3 L137.8,661.5 L153.3,611.0 L170.3,562.8 L179.1,515.1 L174.1,464.2 L156.4,406.4 L133.9,340.5 L118.8,269.1 L123.0,198.7 L154.4,138.0 L213.9,94.9 L295.3,73.6 L388.1,73.0 L480.9,87.0 L565.1,106.8 L637.1,123.3 L698.2,130.8 L752.5,127.7 L804.9,116.7 L859.0,102.5 L916.0,90.2 L975.5,82.4 L1036.9,79.7 L1100.3,80.7 L1166.3,83.8 L1235.8,88.9 L1308.1,97.9 L1380.0,114.3 L1446.2,141.2 L1500.9,180.1 L1539.8,229.6 L1562.3,286.2 L1572.4,344.9 L1577.3,401.9 L1584.6,455.5 L1599.1,506.6 L1620.1,557.7 L1641.3,611.0 Z"/>
<path class="c" d="M1706.5,611.0 L1718.8,671.2 L1710.0,731.0 L1674.1,785.7 L1612.6,830.4 L1534.5,863.0 L1453.1,885.4 L1382.2,904.1 L1330.6,927.6 L1300.0,963.8 L1284.5,1016.7 L1273.4,1084.5 L1255.3,1160.2 L1221.9,1233.5 L1170.0,1294.5 L1102.0,1336.5 L1023.5,1357.5 L940.9,1360.2 L859.0,1349.8 L780.2,1331.4 L705.3,1308.4 L634.6,1281.1 L569.0,1248.3 L510.7,1208.6 L461.2,1162.2 L420.9,1111.6 L387.2,1060.8 L355.3,1013.9 L319.6,973.1 L276.0,937.5 L224.9,903.9 L170.9,867.7 L122.4,825.5 L88.0,776.3 L73.3,721.8 L77.7,665.7 L94.5,611.0 L112.9,558.8 L122.5,507.1 L117.0,452.0 L97.8,389.4 L73.5,318.0 L57.1,240.6 L61.7,164.4 L95.7,98.6 L160.1,51.9 L248.3,28.8 L348.8,28.1 L449.3,43.4 L540.6,64.8 L618.6,82.7 L684.8,90.8 L743.6,87.5 L800.4,75.5 L859.0,60.2 L920.7,46.8 L985.2,38.4 L1051.8,35.5 L1120.4,36.5 L1191.9,39.8 L1267.2,45.4 L1345.5,55.2 L1423.4,72.9 L1495.2,102.1 L1554.4,144.2 L1596.5,197.9 L1620.9,259.1 L1631.8,322.7 L1637.1,384.4 L1645.1,442.5 L1660.8,497.9 L1683.6,553.3 L1706.5,611.0 Z"/>
<path class="c" d="M1771.7,611.0 L1784.9,675.8 L1775.4,740.3 L1736.8,799.2 L1670.6,847.3 L1586.4,882.4 L1498.8,906.5 L1422.4,926.6 L1366.9,951.9 L1333.9,990.9 L1317.2,1047.9 L1305.3,1120.9 L1285.8,1202.4 L1249.8,1281.4 L1193.9,1347.1 L1120.7,1392.3 L1036.2,1414.9 L947.2,1417.8 L859.0,1406.6 L774.2,1386.9 L693.5,1362.0 L617.3,1332.7 L546.7,1297.3 L483.9,1254.6 L430.6,1204.6 L387.2,1150.1 L350.9,1095.4 L316.6,1044.9 L278.1,1001.0 L231.2,962.7 L176.1,926.4 L117.9,887.5 L65.7,842.0 L28.7,789.0 L12.9,730.4 L17.6,669.9 L35.7,611.0 L55.5,554.8 L65.8,499.1 L60.0,439.7 L39.3,372.3 L13.1,295.4 L-4.6,212.1 L0.3,130.0 L37.0,59.2 L106.4,8.9 L201.3,-16.0 L309.6,-16.7 L417.8,-0.3 L516.1,22.7 L600.2,42.1 L671.4,50.8 L734.7,47.2 L795.9,34.3 L859.0,17.8 L925.5,3.4 L994.9,-5.7 L1066.6,-8.8 L1140.5,-7.7 L1217.5,-4.1 L1298.6,1.8 L1382.9,12.4 L1466.8,31.5 L1544.1,62.9 L1607.9,108.3 L1653.3,166.1 L1679.5,232.0 L1691.3,300.5 L1697.0,367.0 L1705.6,429.5 L1722.5,489.2 L1747.0,548.8 L1771.7,611.0 Z"/>
<path class="c" d="M1836.9,611.0 L1851.1,680.4 L1840.9,749.5 L1799.5,812.6 L1728.6,864.2 L1638.4,901.7 L1544.5,927.6 L1462.6,949.1 L1403.1,976.3 L1367.8,1018.1 L1350.0,1079.1 L1337.2,1157.3 L1316.3,1244.7 L1277.7,1329.3 L1217.8,1399.7 L1139.4,1448.1 L1048.8,1472.3 L953.5,1475.4 L859.0,1463.4 L768.1,1442.3 L681.6,1415.7 L600.0,1384.2 L524.4,1346.4 L457.1,1300.5 L400.0,1247.0 L353.5,1188.6 L314.6,1130.0 L277.8,1075.9 L236.6,1028.8 L186.4,987.8 L127.3,949.0 L65.0,907.2 L9.0,858.5 L-30.6,801.7 L-47.6,738.9 L-42.5,674.1 L-23.1,611.0 L-1.9,550.7 L9.2,491.1 L2.9,427.5 L-19.3,355.3 L-47.4,272.9 L-66.3,183.6 L-61.0,95.7 L-21.7,19.8 L52.6,-34.1 L154.4,-60.8 L270.3,-61.6 L386.3,-44.0 L491.6,-19.3 L581.7,1.4 L658.0,10.8 L725.9,6.9 L791.4,-6.9 L859.0,-24.6 L930.2,-40.1 L1004.6,-49.7 L1081.4,-53.1 L1160.6,-51.9 L1243.2,-48.1 L1330.0,-41.7 L1420.3,-30.3 L1510.2,-9.9 L1593.1,23.8 L1661.4,72.3 L1710.0,134.3 L1738.1,205.0 L1750.7,278.3 L1756.9,349.6 L1766.1,416.6 L1784.2,480.5 L1810.4,544.4 L1836.9,611.0 Z"/>
<path class="ix" d="M1902.0,611.0 L1917.2,685.1 L1906.4,758.7 L1862.2,826.0 L1786.5,881.1 L1690.3,921.1 L1590.2,948.7 L1502.9,971.7 L1439.4,1000.6 L1401.7,1045.2 L1382.7,1110.3 L1369.1,1193.8 L1346.8,1286.9 L1305.6,1377.2 L1241.8,1452.3 L1158.1,1503.9 L1061.5,1529.7 L959.8,1533.1 L859.0,1520.2 L762.0,1497.7 L669.8,1469.3 L582.8,1435.8 L502.1,1395.4 L430.3,1346.5 L369.4,1289.4 L319.8,1227.1 L278.3,1164.6 L239.1,1106.9 L195.1,1056.7 L141.5,1012.9 L78.5,971.5 L12.1,926.9 L-47.6,875.0 L-89.9,814.4 L-108.0,747.4 L-102.6,678.3 L-82.0,611.0 L-59.2,546.7 L-47.5,483.1 L-54.2,415.3 L-77.8,338.2 L-107.8,250.3 L-128.0,155.1 L-122.3,61.3 L-80.4,-19.6 L-1.2,-77.1 L107.4,-105.6 L231.1,-106.4 L354.8,-87.6 L467.1,-61.3 L563.2,-39.2 L644.6,-29.2 L717.0,-33.3 L786.9,-48.1 L859.0,-67.0 L934.9,-83.5 L1014.3,-93.7 L1096.3,-97.3 L1180.7,-96.1 L1268.8,-92.0 L1361.4,-85.2 L1457.8,-73.1 L1553.6,-51.3 L1642.0,-15.4 L1714.9,36.4 L1766.7,102.5 L1796.7,177.9 L1810.2,256.2 L1816.7,332.1 L1826.5,403.6 L1845.9,471.8 L1873.8,540.0 L1902.0,611.0 Z"/>
<path class="c" d="M1967.2,611.0 L1983.3,689.7 L1971.8,768.0 L1924.9,839.5 L1844.5,898.0 L1742.3,940.5 L1635.9,969.8 L1543.1,994.2 L1475.7,1025.0 L1435.7,1072.3 L1415.4,1141.5 L1400.9,1230.2 L1377.3,1329.2 L1333.5,1425.1 L1265.7,1504.9 L1176.8,1559.7 L1074.2,1587.2 L966.1,1590.7 L859.0,1577.1 L756.0,1553.1 L658.0,1523.0 L565.5,1487.3 L479.8,1444.4 L403.5,1392.5 L338.8,1331.8 L286.1,1265.6 L242.1,1199.2 L200.4,1137.9 L153.6,1084.5 L96.7,1038.0 L29.7,994.0 L-40.9,946.7 L-104.3,891.5 L-149.2,827.1 L-168.4,755.9 L-162.7,682.5 L-140.8,611.0 L-116.6,542.7 L-104.1,475.1 L-111.3,403.0 L-136.4,321.2 L-168.2,227.8 L-189.7,126.6 L-183.6,26.9 L-139.1,-59.0 L-54.9,-120.1 L60.4,-150.4 L191.8,-151.2 L323.3,-131.3 L442.6,-103.3 L544.7,-79.8 L631.2,-69.2 L708.1,-73.6 L782.4,-89.3 L859.0,-109.3 L939.7,-126.9 L1024.0,-137.8 L1111.1,-141.6 L1200.8,-140.3 L1294.4,-135.9 L1392.8,-128.7 L1495.2,-115.8 L1597.0,-92.7 L1690.9,-54.5 L1768.4,0.5 L1823.5,70.7 L1855.3,150.8 L1869.6,234.0 L1876.6,314.7 L1887.0,390.6 L1907.5,463.1 L1937.3,535.5 L1967.2,611.0 Z"/>
<path class="c" d="M2032.4,611.0 L2049.5,694.3 L2037.3,777.2 L1987.6,852.9 L1902.5,914.8 L1794.2,959.9 L1681.6,990.9 L1583.4,1016.8 L1512.0,1049.3 L1469.6,1099.5 L1448.1,1172.7 L1432.8,1266.6 L1407.8,1371.4 L1361.4,1473.0 L1289.6,1557.4 L1195.4,1615.5 L1086.8,1644.6 L972.4,1648.3 L859.0,1633.9 L749.9,1608.5 L646.2,1576.6 L548.2,1538.9 L457.5,1493.4 L376.7,1438.4 L308.2,1374.2 L252.4,1304.1 L205.8,1233.8 L161.6,1168.9 L112.1,1112.4 L51.8,1063.1 L-19.0,1016.5 L-93.8,966.4 L-161.0,908.0 L-208.5,839.8 L-228.9,764.5 L-222.8,686.7 L-199.6,611.0 L-174.0,538.7 L-160.8,467.1 L-168.3,390.8 L-194.9,304.1 L-228.6,205.3 L-251.4,98.1 L-245.0,-7.4 L-197.9,-98.4 L-108.7,-163.1 L13.4,-195.2 L152.6,-196.1 L291.8,-175.0 L418.1,-145.3 L526.2,-120.5 L617.8,-109.2 L699.2,-113.9 L777.9,-130.5 L859.0,-151.7 L944.4,-170.3 L1033.7,-181.8 L1125.9,-185.9 L1220.9,-184.5 L1320.0,-179.9 L1424.2,-172.2 L1532.6,-158.6 L1640.5,-134.0 L1739.9,-93.7 L1821.9,-35.4 L1880.2,39.0 L1913.9,123.7 L1929.1,211.8 L1936.4,297.3 L1947.5,377.7 L1969.2,454.4 L2000.7,531.1 L2032.4,611.0 Z"/>
<path class="c" d="M2097.6,611.0 L2115.6,699.0 L2102.7,786.4 L2050.3,866.4 L1960.5,931.7 L1846.2,979.3 L1727.3,1012.1 L1623.6,1039.3 L1548.2,1073.7 L1503.5,1126.6 L1480.9,1203.9 L1464.7,1303.0 L1438.3,1413.7 L1389.3,1520.8 L1313.5,1610.0 L1214.1,1671.3 L1099.5,1702.0 L978.7,1705.9 L859.0,1690.7 L743.8,1664.0 L634.3,1630.3 L531.0,1590.4 L435.2,1542.5 L349.9,1484.4 L277.6,1416.6 L218.7,1342.6 L169.5,1268.4 L122.9,1199.9 L70.6,1140.2 L7.0,1088.3 L-67.8,1039.1 L-146.7,986.2 L-217.6,924.5 L-267.8,852.5 L-289.3,773.0 L-282.9,690.9 L-258.4,611.0 L-231.4,534.7 L-217.5,459.2 L-225.4,378.5 L-253.5,287.1 L-289.1,182.7 L-313.0,69.7 L-306.3,-41.8 L-256.6,-137.9 L-162.4,-206.2 L-33.5,-239.9 L113.4,-240.9 L260.3,-218.6 L393.6,-187.4 L507.7,-161.1 L604.4,-149.3 L690.4,-154.2 L773.4,-171.7 L859.0,-194.1 L949.2,-213.7 L1043.5,-225.9 L1140.7,-230.2 L1241.0,-228.7 L1345.6,-223.8 L1455.6,-215.7 L1570.0,-201.4 L1683.9,-175.4 L1788.8,-132.8 L1875.4,-71.3 L1936.9,7.2 L1972.5,96.7 L1988.5,189.6 L1996.3,279.8 L2007.9,364.7 L2030.9,445.7 L2064.1,526.7 L2097.6,611.0 Z"/>
<path class="ix" d="M2162.8,611.0 L2181.8,703.6 L2168.2,795.7 L2113.0,879.8 L2018.4,948.6 L1898.2,998.7 L1773.0,1033.2 L1663.9,1061.8 L1584.5,1098.0 L1537.4,1153.7 L1513.6,1235.1 L1496.6,1339.5 L1468.8,1455.9 L1417.2,1568.7 L1337.4,1662.6 L1232.8,1727.1 L1112.1,1759.4 L985.0,1763.6 L859.0,1747.6 L737.8,1719.4 L622.5,1683.9 L513.7,1642.0 L412.9,1591.5 L323.1,1530.4 L247.0,1459.0 L185.0,1381.1 L133.2,1303.0 L84.1,1230.9 L29.1,1168.1 L-37.8,1113.4 L-116.6,1061.6 L-199.7,1005.9 L-274.3,941.0 L-327.1,865.2 L-349.8,781.5 L-343.0,695.1 L-317.2,611.0 L-288.8,530.7 L-274.1,451.2 L-282.5,366.3 L-312.0,270.0 L-349.5,160.2 L-374.7,41.2 L-367.6,-76.1 L-315.3,-177.3 L-216.2,-249.2 L-80.5,-284.7 L74.1,-285.7 L228.8,-262.3 L369.2,-229.4 L489.2,-201.8 L591.0,-189.3 L681.5,-194.4 L768.9,-212.9 L859.0,-236.4 L953.9,-257.1 L1053.2,-269.9 L1155.6,-274.4 L1261.1,-272.9 L1371.2,-267.7 L1487.0,-259.2 L1607.4,-244.1 L1727.3,-216.8 L1837.7,-172.0 L1928.9,-107.2 L1993.7,-24.6 L2031.1,69.6 L2048.0,167.5 L2056.2,262.4 L2068.4,351.8 L2092.6,437.0 L2127.6,522.2 L2162.8,611.0 Z"/>
<path class="c" d="M2228.0,611.0 L2247.9,708.2 L2233.7,804.9 L2175.7,893.3 L2076.4,965.5 L1950.1,1018.0 L1818.7,1054.3 L1704.1,1084.4 L1620.8,1122.4 L1571.3,1180.9 L1546.3,1266.3 L1528.5,1375.9 L1499.2,1498.1 L1445.2,1616.6 L1361.4,1715.2 L1251.5,1782.9 L1124.8,1816.9 L991.3,1821.2 L859.0,1804.4 L731.7,1774.8 L610.7,1737.6 L496.4,1693.5 L390.6,1640.5 L296.3,1576.3 L216.4,1501.4 L151.3,1419.6 L96.9,1337.6 L45.4,1261.9 L-12.4,1195.9 L-82.7,1138.5 L-165.4,1084.1 L-252.6,1025.7 L-331.0,957.5 L-386.4,878.0 L-410.2,790.0 L-403.1,699.3 L-376.0,611.0 L-346.2,526.6 L-330.8,443.2 L-339.6,354.1 L-370.6,253.0 L-409.9,137.6 L-436.4,12.7 L-429.0,-110.5 L-374.0,-216.7 L-270.0,-292.2 L-127.5,-329.5 L34.9,-330.6 L197.2,-306.0 L344.7,-271.4 L470.7,-242.4 L577.6,-229.3 L672.6,-234.7 L764.4,-254.1 L859.0,-278.8 L958.7,-300.5 L1062.9,-314.0 L1170.4,-318.7 L1281.2,-317.1 L1396.8,-311.7 L1518.4,-302.7 L1644.9,-286.9 L1770.7,-258.2 L1886.7,-211.1 L1982.4,-143.1 L2050.4,-56.4 L2089.7,42.5 L2107.4,145.3 L2116.0,245.0 L2128.9,338.8 L2154.3,428.3 L2191.0,517.8 L2228.0,611.0 Z"/>
<path class="c" d="M2293.2,611.0 L2314.0,712.8 L2299.1,814.1 L2238.4,906.7 L2134.4,982.4 L2002.1,1037.4 L1864.4,1075.4 L1744.3,1106.9 L1657.1,1146.7 L1605.3,1208.0 L1579.1,1297.5 L1560.3,1412.3 L1529.7,1540.4 L1473.1,1664.5 L1385.3,1767.8 L1270.2,1838.7 L1137.4,1874.3 L997.7,1878.8 L859.0,1861.2 L725.7,1830.2 L598.9,1791.2 L479.2,1745.1 L368.3,1689.5 L269.5,1622.3 L185.8,1543.8 L117.6,1458.1 L60.6,1372.2 L6.6,1292.9 L-53.9,1223.8 L-127.5,1163.6 L-214.2,1106.7 L-305.5,1045.4 L-387.6,974.0 L-445.7,890.7 L-470.6,798.6 L-463.2,703.5 L-434.8,611.0 L-403.6,522.6 L-387.4,435.2 L-396.6,341.8 L-429.1,235.9 L-470.3,115.1 L-498.1,-15.8 L-490.3,-144.8 L-432.7,-256.1 L-323.7,-335.2 L-174.5,-374.3 L-4.4,-375.4 L165.7,-349.6 L320.2,-313.4 L452.3,-283.0 L564.2,-269.3 L663.7,-275.0 L759.9,-295.3 L859.0,-321.2 L963.4,-343.9 L1072.6,-358.0 L1185.2,-363.0 L1301.3,-361.3 L1422.4,-355.6 L1549.8,-346.2 L1682.3,-329.6 L1814.1,-299.6 L1935.6,-250.3 L2035.9,-179.0 L2107.1,-88.2 L2148.4,15.5 L2166.9,123.1 L2175.9,227.6 L2189.3,325.8 L2215.9,419.6 L2254.4,513.3 L2293.2,611.0 Z"/>
<path class="c" d="M2358.4,611.0 L2380.2,717.5 L2364.6,823.4 L2301.1,920.1 L2192.3,999.2 L2054.0,1056.8 L1910.1,1096.5 L1784.6,1129.5 L1693.3,1171.1 L1639.2,1235.2 L1611.8,1328.7 L1592.2,1448.7 L1560.2,1582.6 L1501.0,1712.4 L1409.2,1820.3 L1288.9,1894.5 L1150.1,1931.7 L1004.0,1936.5 L859.0,1918.0 L719.6,1885.6 L587.0,1844.9 L461.9,1796.6 L346.0,1738.6 L242.7,1668.3 L155.2,1586.2 L83.9,1496.6 L24.3,1406.8 L-32.1,1323.9 L-95.4,1251.6 L-172.4,1188.7 L-262.9,1129.2 L-358.5,1065.2 L-444.3,990.5 L-505.0,903.4 L-531.1,807.1 L-523.3,707.7 L-493.6,611.0 L-461.0,518.6 L-444.1,427.2 L-453.7,329.6 L-487.7,218.9 L-530.8,92.6 L-559.8,-44.3 L-551.6,-179.2 L-491.4,-295.5 L-377.5,-378.2 L-221.4,-419.1 L-43.6,-420.3 L134.2,-393.3 L295.7,-355.4 L433.8,-323.7 L550.8,-309.3 L654.8,-315.2 L755.4,-336.5 L859.0,-363.6 L968.2,-387.3 L1082.3,-402.1 L1200.0,-407.2 L1321.4,-405.4 L1448.0,-399.6 L1581.2,-389.8 L1719.7,-372.4 L1857.5,-341.0 L1984.6,-289.4 L2089.4,-214.9 L2163.8,-119.9 L2207.0,-11.6 L2226.3,100.9 L2235.7,210.1 L2249.8,312.9 L2277.6,410.9 L2317.8,508.9 L2358.4,611.0 Z"/>
<path class="ix" d="M2423.6,611.0 L2446.3,722.1 L2430.0,832.6 L2363.8,933.6 L2250.3,1016.1 L2106.0,1076.2 L1955.8,1117.6 L1824.8,1152.0 L1729.6,1195.4 L1673.1,1262.3 L1644.5,1359.9 L1624.1,1485.1 L1590.7,1624.9 L1528.9,1760.3 L1433.1,1872.9 L1307.6,1950.4 L1162.7,1989.1 L1010.3,1994.1 L859.0,1974.9 L713.5,1941.1 L575.2,1898.5 L444.6,1848.2 L323.7,1787.6 L215.9,1714.3 L124.6,1628.6 L50.2,1535.1 L-12.0,1441.4 L-70.9,1354.9 L-136.9,1279.5 L-217.2,1213.9 L-311.7,1151.7 L-411.4,1084.9 L-500.9,1007.0 L-564.3,916.1 L-591.5,815.6 L-583.4,712.0 L-552.4,611.0 L-518.4,514.6 L-500.7,419.2 L-510.8,317.4 L-546.2,201.8 L-591.2,70.0 L-621.5,-72.8 L-613.0,-213.6 L-550.1,-334.9 L-431.2,-421.2 L-268.4,-463.9 L-82.9,-465.1 L102.7,-437.0 L271.2,-397.5 L415.3,-364.3 L537.4,-349.3 L646.0,-355.5 L750.9,-377.7 L859.0,-405.9 L972.9,-430.7 L1092.0,-446.1 L1214.9,-451.5 L1341.6,-449.6 L1473.6,-443.5 L1612.6,-433.3 L1757.1,-415.1 L1900.9,-382.4 L2033.5,-328.6 L2142.9,-250.8 L2220.6,-151.7 L2265.6,-38.7 L2285.8,78.8 L2295.6,192.7 L2310.3,299.9 L2339.3,402.2 L2381.3,504.5 L2423.6,611.0 Z"/>
<path class="c" d="M2488.8,611.0 L2512.4,726.7 L2495.5,841.8 L2426.5,947.0 L2308.3,1033.0 L2157.9,1095.6 L2001.5,1138.7 L1865.1,1174.6 L1765.9,1219.8 L1707.0,1289.4 L1677.3,1391.1 L1656.0,1521.6 L1621.2,1667.1 L1556.8,1808.2 L1457.0,1925.5 L1326.3,2006.2 L1175.4,2046.5 L1016.6,2051.7 L859.0,2031.7 L707.5,1996.5 L563.4,1952.2 L427.4,1899.7 L301.4,1836.6 L189.1,1760.2 L94.0,1671.0 L16.5,1573.6 L-48.3,1476.0 L-109.6,1385.9 L-178.4,1307.4 L-262.1,1239.0 L-360.5,1174.3 L-464.3,1104.7 L-557.6,1023.5 L-623.6,928.8 L-651.9,824.1 L-643.5,716.2 L-611.2,611.0 L-575.8,510.6 L-557.4,411.2 L-567.8,305.1 L-604.8,184.8 L-651.6,47.5 L-683.2,-101.3 L-674.3,-247.9 L-608.9,-374.3 L-485.0,-464.2 L-315.4,-508.7 L-122.1,-509.9 L71.2,-480.6 L246.7,-439.5 L396.8,-404.9 L524.0,-389.3 L637.1,-395.8 L746.4,-418.9 L859.0,-448.3 L977.7,-474.1 L1101.7,-490.2 L1229.7,-495.8 L1361.7,-493.8 L1499.3,-487.4 L1644.0,-476.8 L1794.6,-457.9 L1944.4,-423.8 L2082.4,-367.7 L2196.4,-286.8 L2277.3,-183.5 L2324.2,-65.7 L2345.2,56.6 L2355.4,175.3 L2370.8,286.9 L2401.0,393.5 L2444.7,500.0 L2488.8,611.0 Z"/>
<path class="c" d="M2554.0,611.0 L2578.6,731.4 L2561.0,851.1 L2489.2,960.5 L2366.3,1049.9 L2209.9,1114.9 L2047.2,1159.8 L1905.3,1197.1 L1802.2,1244.1 L1741.0,1316.6 L1710.0,1422.3 L1687.9,1558.0 L1651.7,1709.4 L1584.7,1856.1 L1481.0,1978.1 L1345.0,2062.0 L1188.1,2104.0 L1022.9,2109.3 L859.0,2088.5 L701.4,2051.9 L551.6,2005.8 L410.1,1951.3 L279.1,1885.6 L162.3,1806.2 L63.4,1713.4 L-17.2,1612.1 L-84.6,1510.6 L-148.3,1416.9 L-219.9,1335.2 L-306.9,1264.1 L-409.3,1196.8 L-517.3,1124.4 L-614.3,1040.0 L-682.9,941.5 L-712.4,832.7 L-703.6,720.4 L-670.0,611.0 L-633.1,506.6 L-614.1,403.2 L-624.9,292.9 L-663.3,167.7 L-712.0,24.9 L-744.9,-129.8 L-735.6,-282.3 L-667.6,-413.8 L-538.8,-507.2 L-362.4,-553.5 L-161.3,-554.8 L39.7,-524.3 L222.2,-481.5 L378.3,-445.6 L510.5,-429.4 L628.2,-436.1 L741.9,-460.0 L859.0,-490.7 L982.4,-517.5 L1111.4,-534.2 L1244.5,-540.1 L1381.8,-538.0 L1524.9,-531.4 L1675.4,-520.3 L1832.0,-500.6 L1987.8,-465.2 L2131.4,-406.9 L2249.9,-322.7 L2334.0,-215.3 L2382.8,-92.8 L2404.7,34.4 L2415.3,157.8 L2431.2,274.0 L2462.6,384.8 L2508.1,495.6 L2554.0,611.0 Z"/>
<path class="c" d="M2619.1,611.0 L2644.7,736.0 L2626.4,860.3 L2551.9,973.9 L2424.2,1066.8 L2261.9,1134.3 L2092.9,1180.9 L1945.5,1219.6 L1838.4,1268.5 L1774.9,1343.7 L1742.7,1453.5 L1719.7,1594.4 L1682.2,1751.6 L1612.6,1903.9 L1504.9,2030.7 L1363.7,2117.8 L1200.7,2161.4 L1029.2,2167.0 L859.0,2145.3 L695.4,2107.3 L539.7,2059.4 L392.8,2002.8 L256.8,1934.7 L135.5,1852.2 L32.8,1755.8 L-50.9,1650.6 L-120.9,1545.2 L-187.1,1447.9 L-261.3,1363.1 L-351.7,1289.2 L-458.1,1219.3 L-570.2,1144.2 L-670.9,1056.5 L-742.2,954.2 L-772.8,841.2 L-763.7,724.6 L-728.9,611.0 L-690.5,502.5 L-670.7,395.2 L-682.0,280.7 L-721.9,150.7 L-772.5,2.4 L-806.5,-158.3 L-797.0,-316.6 L-726.3,-453.2 L-592.5,-550.2 L-409.3,-598.2 L-200.6,-599.6 L8.2,-568.0 L197.7,-523.5 L359.8,-486.2 L497.1,-469.4 L619.3,-476.3 L737.4,-501.2 L859.0,-533.1 L987.2,-560.9 L1121.1,-578.3 L1259.4,-584.3 L1401.9,-582.2 L1550.5,-575.3 L1706.8,-563.8 L1869.4,-543.4 L2031.2,-506.6 L2180.3,-446.0 L2303.4,-358.6 L2390.8,-247.1 L2441.4,-119.9 L2464.1,12.2 L2475.2,140.4 L2491.7,261.0 L2524.3,376.1 L2571.6,491.1 L2619.1,611.0 Z"/>
<path class="ix" d="M2684.3,611.0 L2710.9,740.6 L2691.9,869.6 L2614.6,987.3 L2482.2,1083.6 L2313.8,1153.7 L2138.6,1202.0 L1985.8,1242.2 L1874.7,1292.8 L1808.8,1370.8 L1775.4,1484.7 L1751.6,1630.8 L1712.7,1793.9 L1640.5,1951.8 L1528.8,2083.2 L1382.4,2173.6 L1213.4,2218.8 L1035.5,2224.6 L859.0,2202.2 L689.3,2162.7 L527.9,2113.1 L375.6,2054.3 L234.5,1983.7 L108.8,1898.1 L2.2,1798.2 L-84.6,1689.1 L-157.2,1579.8 L-225.8,1478.9 L-302.8,1390.9 L-396.6,1314.3 L-506.8,1241.9 L-623.1,1163.9 L-727.6,1073.0 L-801.5,966.9 L-833.3,849.7 L-823.8,728.8 L-787.7,611.0 L-747.9,498.5 L-727.4,387.2 L-739.1,268.4 L-780.4,133.6 L-832.9,-20.1 L-868.2,-186.8 L-858.3,-351.0 L-785.0,-492.6 L-646.3,-593.2 L-456.3,-643.0 L-239.8,-644.4 L-23.3,-611.6 L173.2,-565.5 L341.3,-526.9 L483.7,-509.4 L610.5,-516.6 L732.9,-542.4 L859.0,-575.4 L991.9,-604.3 L1130.8,-622.3 L1274.2,-628.6 L1422.0,-626.4 L1576.1,-619.2 L1738.2,-607.3 L1906.8,-586.2 L2074.6,-548.0 L2229.2,-485.2 L2356.9,-394.5 L2447.5,-278.8 L2500.0,-146.9 L2523.6,-10.0 L2535.0,123.0 L2552.2,248.1 L2586.0,367.4 L2635.0,486.7 L2684.3,611.0 Z"/>
<path class="c" d="M2749.5,611.0 L2777.0,745.2 L2757.4,878.8 L2677.3,1000.8 L2540.2,1100.5 L2365.8,1173.1 L2184.3,1223.1 L2026.0,1264.7 L1911.0,1317.2 L1842.7,1398.0 L1808.2,1515.9 L1783.5,1667.3 L1743.1,1836.1 L1668.5,1999.7 L1552.7,2135.8 L1401.1,2229.4 L1226.0,2276.2 L1041.8,2282.2 L859.0,2259.0 L683.2,2218.2 L516.1,2166.7 L358.3,2105.9 L212.2,2032.7 L82.0,1944.1 L-28.4,1840.6 L-118.3,1727.6 L-193.4,1614.4 L-264.6,1509.9 L-344.3,1418.8 L-441.4,1339.5 L-555.6,1264.4 L-676.1,1183.7 L-784.3,1089.5 L-860.8,979.7 L-893.7,858.2 L-883.9,733.0 L-846.5,611.0 L-805.3,494.5 L-784.0,379.2 L-796.1,256.2 L-839.0,116.6 L-893.3,-42.7 L-929.9,-215.3 L-919.6,-385.3 L-843.7,-532.0 L-700.0,-636.2 L-503.3,-687.8 L-279.1,-689.3 L-54.9,-655.3 L148.7,-607.6 L322.8,-567.5 L470.3,-549.4 L601.6,-556.9 L728.4,-583.6 L859.0,-617.8 L996.7,-647.7 L1140.5,-666.4 L1289.0,-672.9 L1442.1,-670.6 L1601.7,-663.2 L1769.6,-650.8 L1944.2,-628.9 L2118.0,-589.4 L2278.2,-524.3 L2410.4,-430.4 L2504.2,-310.6 L2558.6,-174.0 L2583.0,-32.1 L2594.9,105.6 L2612.6,235.1 L2647.7,358.7 L2698.4,482.3 L2749.5,611.0 Z"/>
<path class="c" d="M2814.7,611.0 L2843.1,749.9 L2822.8,888.0 L2740.0,1014.2 L2598.2,1117.4 L2417.7,1192.5 L2230.0,1244.2 L2066.3,1287.3 L1947.3,1341.5 L1876.6,1425.1 L1840.9,1547.2 L1815.4,1703.7 L1773.6,1878.3 L1696.4,2047.6 L1576.7,2188.4 L1419.7,2285.2 L1238.7,2333.6 L1048.1,2339.9 L859.0,2315.8 L677.2,2273.6 L504.3,2220.4 L341.0,2157.4 L189.9,2081.7 L55.2,1990.1 L-59.0,1883.0 L-152.0,1766.1 L-229.7,1649.0 L-303.3,1540.9 L-385.8,1446.6 L-486.3,1364.6 L-604.4,1286.9 L-729.0,1203.4 L-840.9,1106.0 L-920.1,992.4 L-954.1,866.8 L-944.0,737.2 L-905.3,611.0 L-862.7,490.5 L-840.7,371.2 L-853.2,244.0 L-897.5,99.5 L-953.7,-65.2 L-991.6,-243.8 L-981.0,-419.7 L-902.4,-571.4 L-753.8,-679.2 L-550.3,-732.6 L-318.3,-734.1 L-86.4,-698.9 L124.2,-649.6 L304.3,-608.1 L456.9,-589.4 L592.7,-597.1 L723.8,-624.8 L859.0,-660.2 L1001.4,-691.1 L1150.2,-710.4 L1303.8,-717.2 L1462.2,-714.8 L1627.3,-707.1 L1801.0,-694.3 L1981.7,-671.7 L2161.4,-630.7 L2327.1,-563.5 L2463.9,-466.3 L2561.0,-342.4 L2617.2,-201.1 L2642.5,-54.3 L2654.7,88.1 L2673.1,222.1 L2709.4,350.0 L2761.8,477.8 L2814.7,611.0 Z"/>
<text class="ct" x="672" y="435" text-anchor="middle">7,800</text>
<text class="ct" x="1164" y="273" text-anchor="middle">7,000</text>
<text class="ct" x="1541" y="824" text-anchor="middle">6,200</text>
<text class="ct" x="734" y="1493" text-anchor="middle">5,400</text>
<circle class="dot" cx="859" cy="587" r="2.4"/>
<text class="pk" x="859" y="607" text-anchor="middle">SOUTH BOULDER PEAK</text>
<text class="el" x="859" y="628" text-anchor="middle">8,549&#8242;</text>
</svg>