<svg xmlns="http://www.w3.org/2000/svg" width="1200" height="900" viewBox="0 0 1200 900">
<style>
  .c  { fill:none; stroke:#2A1B11; stroke-opacity:0.07; stroke-width:1.1; }
  .ix { fill:none; stroke:#2A1B11; stroke-opacity:0.12; stroke-width:1.6; }
  .ct { font:500 10px 'IBM Plex Mono',ui-monospace,monospace; fill:#2A1B11; fill-opacity:0.32;
        stroke:#F4ECDB; stroke-width:3; paint-order:stroke; }
  .pk { font:600 11.5px 'Inter Tight','Helvetica Neue',sans-serif; letter-spacing:0.15em; fill:#2A1B11; fill-opacity:0.2; }
  .el { font:500 10.5px 'IBM Plex Mono',ui-monospace,monospace; fill:#9C6A33; fill-opacity:0.34; }
  .dot { fill:#2A1B11; fill-opacity:0.24; }
</style>
<path class="c" d="M607.4,411.0 L608.1,414.4 L607.6,417.9 L605.5,421.0 L602.0,423.5 L597.5,425.4 L592.9,426.7 L588.9,427.7 L585.9,429.1 L584.2,431.1 L583.3,434.2 L582.7,438.0 L581.6,442.3 L579.7,446.5 L576.7,450.0 L572.9,452.4 L568.4,453.6 L563.7,453.8 L559.0,453.2 L554.5,452.1 L550.2,450.8 L546.2,449.2 L542.5,447.4 L539.1,445.1 L536.3,442.5 L534.0,439.6 L532.1,436.7 L530.3,434.0 L528.2,431.7 L525.7,429.6 L522.8,427.7 L519.7,425.7 L517.0,423.2 L515.0,420.4 L514.2,417.3 L514.4,414.1 L515.4,411.0 L516.4,408.0 L517.0,405.1 L516.7,401.9 L515.6,398.4 L514.2,394.3 L513.2,389.9 L513.5,385.5 L515.4,381.8 L519.1,379.1 L524.1,377.8 L529.9,377.7 L535.6,378.6 L540.8,379.8 L545.3,380.8 L549.1,381.3 L552.4,381.1 L555.7,380.4 L559.0,379.6 L562.5,378.8 L566.2,378.3 L570.0,378.2 L573.9,378.2 L578.0,378.4 L582.3,378.7 L586.8,379.3 L591.2,380.3 L595.3,382.0 L598.7,384.4 L601.1,387.4 L602.5,390.9 L603.1,394.5 L603.4,398.1 L603.9,401.4 L604.8,404.5 L606.1,407.7 L607.4,411.0 Z"/>
<path class="c" d="M655.7,411.0 L657.1,417.9 L656.1,424.7 L652.0,430.9 L645.0,436.0 L636.1,439.8 L626.8,442.3 L618.7,444.5 L612.8,447.1 L609.3,451.3 L607.6,457.3 L606.3,465.0 L604.2,473.7 L600.4,482.1 L594.5,489.0 L586.7,493.8 L577.8,496.2 L568.4,496.5 L559.0,495.3 L550.0,493.2 L541.5,490.6 L533.4,487.5 L525.9,483.7 L519.2,479.2 L513.6,473.9 L509.0,468.1 L505.1,462.3 L501.5,457.0 L497.4,452.3 L492.5,448.3 L486.6,444.4 L480.5,440.3 L474.9,435.5 L471.0,429.9 L469.3,423.7 L469.8,417.2 L471.7,411.0 L473.8,405.0 L474.9,399.1 L474.3,392.8 L472.1,385.7 L469.3,377.6 L467.5,368.7 L468.0,360.0 L471.9,352.5 L479.2,347.2 L489.3,344.5 L500.8,344.5 L512.2,346.2 L522.7,348.6 L531.6,350.7 L539.1,351.6 L545.8,351.2 L552.3,349.9 L559.0,348.1 L566.0,346.6 L573.4,345.6 L581.0,345.3 L588.8,345.4 L597.0,345.8 L605.6,346.4 L614.5,347.6 L623.4,349.6 L631.6,352.9 L638.4,357.7 L643.2,363.8 L646.0,370.8 L647.2,378.1 L647.8,385.1 L648.7,391.8 L650.5,398.1 L653.1,404.4 L655.7,411.0 Z"/>
<path class="c" d="M704.1,411.0 L706.2,421.3 L704.7,431.6 L698.6,440.9 L688.0,448.6 L674.6,454.1 L660.7,458.0 L648.6,461.2 L639.7,465.2 L634.5,471.4 L631.9,480.5 L630.0,492.1 L626.9,505.0 L621.1,517.6 L612.2,528.0 L600.6,535.2 L587.2,538.8 L573.0,539.3 L559.0,537.5 L545.5,534.4 L532.7,530.4 L520.6,525.7 L509.4,520.1 L499.4,513.3 L490.9,505.4 L484.0,496.7 L478.2,488.0 L472.8,480.0 L466.6,473.0 L459.2,466.9 L450.4,461.1 L441.2,455.0 L432.9,447.7 L427.0,439.3 L424.5,430.0 L425.2,420.4 L428.1,411.0 L431.3,402.1 L432.9,393.2 L432.0,383.8 L428.7,373.1 L424.5,360.8 L421.7,347.6 L422.5,334.5 L428.3,323.3 L439.3,315.3 L454.4,311.3 L471.7,311.2 L488.9,313.8 L504.5,317.5 L517.8,320.5 L529.2,321.9 L539.2,321.4 L549.0,319.3 L559.0,316.7 L569.6,314.4 L580.6,313.0 L592.0,312.5 L603.8,312.6 L616.0,313.2 L628.9,314.2 L642.3,315.8 L655.6,318.9 L667.9,323.9 L678.1,331.1 L685.3,340.3 L689.4,350.7 L691.3,361.6 L692.2,372.2 L693.6,382.1 L696.3,391.6 L700.2,401.1 L704.1,411.0 Z"/>
<path class="ix" d="M752.5,411.0 L755.3,424.7 L753.3,438.4 L745.1,450.9 L731.0,461.1 L713.2,468.5 L694.6,473.6 L678.4,477.9 L666.7,483.3 L659.7,491.5 L656.1,503.6 L653.6,519.1 L649.5,536.4 L641.8,553.1 L630.0,567.0 L614.5,576.6 L596.6,581.4 L577.7,582.0 L559.0,579.7 L541.0,575.5 L523.9,570.2 L507.8,564.0 L492.8,556.5 L479.5,547.4 L468.2,536.8 L459.0,525.3 L451.3,513.7 L444.0,503.0 L435.9,493.7 L425.9,485.5 L414.2,477.9 L401.9,469.6 L390.8,460.0 L383.0,448.7 L379.6,436.3 L380.6,423.5 L384.5,411.0 L388.7,399.1 L390.9,387.3 L389.6,374.7 L385.2,360.4 L379.7,344.1 L375.9,326.4 L377.0,309.0 L384.8,294.0 L399.5,283.4 L419.6,278.1 L442.5,277.9 L465.5,281.4 L486.3,286.3 L504.1,290.4 L519.2,292.3 L532.7,291.5 L545.6,288.7 L559.0,285.3 L573.1,282.2 L587.8,280.3 L603.0,279.6 L618.7,279.8 L635.0,280.6 L652.2,281.9 L670.1,284.1 L687.8,288.2 L704.2,294.8 L717.8,304.4 L727.4,316.7 L732.9,330.7 L735.4,345.2 L736.6,359.3 L738.5,372.5 L742.0,385.2 L747.2,397.8 L752.5,411.0 Z"/>
<path class="c" d="M800.8,411.0 L804.4,428.2 L801.8,445.3 L791.6,460.9 L774.1,473.6 L751.7,482.9 L728.5,489.3 L708.3,494.6 L693.6,501.3 L684.8,511.7 L680.4,526.8 L677.3,546.1 L672.1,567.7 L662.5,588.6 L647.7,606.1 L628.3,618.0 L606.0,624.0 L582.4,624.8 L559.0,621.8 L536.5,616.6 L515.1,610.0 L495.0,602.2 L476.3,592.9 L459.6,581.5 L445.5,568.3 L434.0,553.8 L424.4,539.4 L415.3,526.0 L405.1,514.3 L392.6,504.2 L378.0,494.6 L362.6,484.3 L348.8,472.2 L339.0,458.2 L334.8,442.6 L336.0,426.6 L340.8,411.0 L346.1,396.1 L348.8,381.4 L347.3,365.6 L341.8,347.8 L334.8,327.4 L330.2,305.3 L331.5,283.5 L341.2,264.8 L359.6,251.5 L384.7,244.9 L413.4,244.7 L442.1,249.0 L468.1,255.1 L490.4,260.2 L509.3,262.6 L526.1,261.6 L542.3,258.2 L559.0,253.8 L576.6,250.0 L595.0,247.6 L614.0,246.8 L633.6,247.1 L654.0,248.0 L675.5,249.6 L697.8,252.4 L720.1,257.5 L740.5,265.8 L757.4,277.8 L769.5,293.1 L776.4,310.6 L779.5,328.7 L781.1,346.3 L783.3,362.9 L787.8,378.7 L794.3,394.5 L800.8,411.0 Z"/>
<path class="c" d="M849.2,411.0 L853.4,431.6 L850.4,452.1 L838.1,470.8 L817.1,486.1 L790.3,497.3 L762.4,505.0 L738.1,511.4 L720.5,519.4 L710.0,531.8 L704.7,549.9 L700.9,573.1 L694.7,599.1 L683.3,624.2 L665.5,645.1 L642.2,659.4 L615.3,666.6 L587.1,667.5 L559.0,664.0 L532.0,657.7 L506.4,649.8 L482.1,640.5 L459.7,629.2 L439.7,615.6 L422.8,599.7 L409.0,582.4 L397.4,565.0 L386.5,549.0 L374.3,535.0 L359.4,522.8 L341.9,511.3 L323.4,498.9 L306.8,484.4 L295.0,467.6 L290.0,449.0 L291.5,429.7 L297.2,411.0 L303.5,393.1 L306.8,375.4 L304.9,356.5 L298.4,335.1 L290.0,310.7 L284.4,284.2 L286.0,258.1 L297.6,235.5 L319.7,219.5 L349.9,211.6 L384.3,211.4 L418.7,216.6 L450.0,223.9 L476.7,230.1 L499.3,232.9 L519.5,231.7 L538.9,227.6 L559.0,222.4 L580.1,217.8 L602.2,214.9 L625.0,213.9 L648.5,214.3 L673.0,215.4 L698.8,217.3 L725.6,220.7 L752.3,226.7 L776.9,236.7 L797.1,251.1 L811.6,269.5 L819.9,290.5 L823.6,312.3 L825.5,333.4 L828.2,353.3 L833.6,372.3 L841.4,391.2 L849.2,411.0 Z"/>
<path class="c" d="M897.6,411.0 L902.5,435.0 L899.0,459.0 L884.6,480.8 L860.1,498.7 L828.8,511.7 L796.3,520.6 L768.0,528.1 L747.4,537.5 L735.2,551.9 L729.0,573.1 L724.6,600.2 L717.3,630.4 L704.0,659.7 L683.2,684.1 L656.1,700.8 L624.7,709.2 L591.7,710.3 L559.0,706.1 L527.5,698.8 L497.6,689.6 L469.3,678.7 L443.2,665.6 L419.8,649.7 L400.1,631.2 L384.0,611.0 L370.5,590.7 L357.8,572.0 L343.5,555.7 L326.1,541.5 L305.7,528.0 L284.1,513.6 L264.7,496.7 L251.0,477.0 L245.1,455.3 L246.9,432.8 L253.6,411.0 L260.9,390.1 L264.8,369.5 L262.6,347.5 L254.9,322.5 L245.2,293.9 L238.6,263.0 L240.5,232.6 L254.1,206.3 L279.8,187.6 L315.0,178.4 L355.2,178.1 L395.3,184.2 L431.8,192.8 L463.0,199.9 L489.4,203.2 L512.9,201.8 L535.6,197.1 L559.0,190.9 L583.7,185.6 L609.4,182.2 L636.0,181.1 L663.4,181.5 L692.0,182.8 L722.1,185.0 L753.4,188.9 L784.5,196.0 L813.2,207.7 L836.8,224.5 L853.6,246.0 L863.4,270.4 L867.7,295.8 L869.9,320.5 L873.1,343.7 L879.3,365.8 L888.4,387.9 L897.6,411.0 Z"/>
<path class="ix" d="M945.9,411.0 L951.6,438.5 L947.5,465.8 L931.2,490.8 L903.1,511.2 L867.4,526.0 L830.3,536.3 L797.9,544.8 L774.3,555.5 L760.3,572.1 L753.3,596.2 L748.2,627.2 L740.0,661.7 L724.7,695.2 L701.0,723.1 L669.9,742.2 L634.1,751.8 L596.4,753.1 L559.0,748.3 L523.0,739.9 L488.8,729.4 L456.5,717.0 L426.6,702.0 L400.0,683.8 L377.4,662.7 L359.0,639.5 L343.6,616.4 L329.0,595.0 L312.7,576.3 L292.8,560.1 L269.5,544.7 L244.8,528.2 L222.7,508.9 L207.0,486.5 L200.3,461.6 L202.3,436.0 L209.9,411.0 L218.4,387.2 L222.7,363.6 L220.2,338.4 L211.5,309.8 L200.4,277.2 L192.9,241.9 L195.0,207.1 L210.5,177.1 L239.9,155.7 L280.2,145.2 L326.1,144.9 L372.0,151.8 L413.6,161.6 L449.3,169.8 L479.5,173.5 L506.3,172.0 L532.3,166.5 L559.0,159.5 L587.2,153.4 L616.6,149.6 L647.0,148.2 L678.3,148.7 L711.0,150.2 L745.4,152.7 L781.1,157.2 L816.7,165.3 L849.5,178.6 L876.5,197.9 L895.7,222.4 L906.9,250.3 L911.9,279.4 L914.3,307.5 L917.9,334.1 L925.1,359.4 L935.5,384.7 L945.9,411.0 Z"/>
<path class="c" d="M994.3,411.0 L1000.6,441.9 L996.1,472.7 L977.7,500.7 L946.1,523.7 L905.9,540.4 L864.2,551.9 L827.7,561.5 L801.2,573.6 L785.5,592.2 L777.6,619.4 L771.9,654.2 L762.6,693.1 L745.4,730.8 L718.7,762.1 L683.8,783.6 L643.5,794.4 L601.1,795.8 L559.0,790.5 L518.5,781.1 L480.0,769.2 L443.7,755.2 L410.1,738.4 L380.1,718.0 L354.7,694.1 L334.0,668.1 L316.7,642.0 L300.3,618.0 L281.9,597.0 L259.6,578.7 L233.3,561.4 L205.5,542.9 L180.6,521.2 L163.0,495.9 L155.4,467.9 L157.7,439.1 L166.3,411.0 L175.8,384.2 L180.7,357.6 L177.9,329.3 L168.0,297.2 L155.5,260.5 L147.1,220.7 L149.5,181.6 L166.9,147.8 L200.0,123.8 L245.3,111.9 L297.0,111.6 L348.6,119.4 L395.5,130.4 L435.5,139.6 L469.5,143.8 L499.7,142.1 L528.9,135.9 L559.0,128.1 L590.7,121.2 L623.8,116.9 L658.0,115.4 L693.3,115.9 L730.0,117.6 L768.7,120.5 L808.9,125.5 L848.9,134.6 L885.8,149.6 L916.2,171.2 L937.8,198.8 L950.3,230.2 L956.0,262.9 L958.7,294.6 L962.8,324.4 L970.9,352.9 L982.5,381.4 L994.3,411.0 Z"/>
<text class="ct" x="655" y="431" text-anchor="middle">8,200</text>
<text class="ct" x="420" y="281" text-anchor="middle">7,800</text>
<text class="ct" x="571" y="669" text-anchor="middle">7,400</text>
<text class="ct" x="785" y="161" text-anchor="middle">7,000</text>
<circle class="dot" cx="559" cy="387" r="2.4"/>
<text class="pk" x="559" y="407" text-anchor="middle">SOUTH BOULDER PEAK</text>
<text class="el" x="559" y="428" text-anchor="middle">8,549&#8242;</text>
</svg>