<svg xmlns="http://www.w3.org/2000/svg" width="2000" height="1400" viewBox="0 0 2000 1400">
<style>
  .c  { fill:none; stroke:#2A1B11; stroke-opacity:0.07; stroke-width:1.1; }
  .ix { fill:none; stroke:#2A1B11; stroke-opacity:0.12; stroke-width:1.6; }
  .ct { font:500 10px 'IBM Plex Mono',ui-monospace,monospace; fill:#2A1B11; fill-opacity:0.32;
        stroke:#F4ECDB; stroke-width:3; paint-order:stroke; }
  .pk { font:600 11.5px 'Inter Tight','Helvetica Neue',sans-serif; letter-spacing:0.15em; fill:#2A1B11; fill-opacity:0.2; }
  .el { font:500 10.5px 'IBM Plex Mono',ui-monospace,monospace; fill:#9C6A33; fill-opacity:0.34; }
  .dot { fill:#2A1B11; fill-opacity:0.24; }
</style>
<path class="c" d="M1230.5,891.0 L1233.4,894.8 L1236.2,899.1 L1238.3,903.7 L1239.2,908.5 L1239.1,913.4 L1238.1,918.3 L1236.2,923.1 L1233.6,927.7 L1230.2,931.9 L1225.7,935.5 L1220.1,938.0 L1213.8,939.2 L1207.0,939.0 L1200.3,937.8 L1194.1,936.1 L1188.6,934.7 L1183.7,934.1 L1179.0,934.5 L1174.1,935.7 L1168.9,937.0 L1163.3,937.9 L1157.9,937.5 L1153.0,935.6 L1149.0,932.5 L1146.0,928.8 L1143.4,925.0 L1140.6,921.7 L1136.9,919.2 L1131.9,917.4 L1125.7,915.6 L1118.9,913.4 L1112.5,910.4 L1107.5,906.3 L1104.8,901.5 L1104.6,896.2 L1106.5,891.0 L1109.9,886.2 L1114.1,881.8 L1118.5,878.0 L1122.7,874.6 L1126.7,871.5 L1130.7,868.7 L1134.7,866.2 L1138.7,863.9 L1142.5,861.8 L1146.0,859.5 L1149.0,856.8 L1151.8,853.3 L1154.6,849.1 L1157.9,844.6 L1162.0,840.3 L1167.1,837.0 L1172.9,835.2 L1179.0,835.3 L1184.9,836.8 L1190.4,839.4 L1195.4,842.0 L1200.3,844.3 L1205.4,845.7 L1211.0,846.6 L1217.1,847.5 L1223.1,849.0 L1228.3,851.6 L1231.9,855.5 L1233.5,860.5 L1233.1,866.0 L1231.3,871.5 L1229.0,876.4 L1227.3,880.6 L1226.9,884.2 L1228.1,887.6 L1230.5,891.0 Z"/>
<path class="c" d="M1281.9,891.0 L1287.9,898.6 L1293.5,907.1 L1297.5,916.4 L1299.4,926.1 L1299.2,935.8 L1297.1,945.6 L1293.5,955.1 L1288.3,964.4 L1281.3,972.9 L1272.4,980.0 L1261.3,985.0 L1248.6,987.4 L1235.0,987.0 L1221.6,984.6 L1209.2,981.2 L1198.3,978.4 L1188.4,977.1 L1179.0,977.9 L1169.2,980.3 L1158.7,983.1 L1147.6,984.7 L1136.7,983.9 L1127.0,980.3 L1119.0,974.1 L1112.9,966.5 L1107.8,958.9 L1102.2,952.4 L1094.8,947.5 L1084.8,943.8 L1072.4,940.3 L1058.7,935.9 L1046.0,929.7 L1036.1,921.6 L1030.6,911.9 L1030.1,901.4 L1033.9,891.0 L1040.8,881.3 L1049.2,872.7 L1058.0,865.1 L1066.4,858.2 L1074.4,852.0 L1082.3,846.4 L1090.3,841.3 L1098.3,836.8 L1106.0,832.6 L1112.9,828.0 L1119.0,822.5 L1124.6,815.6 L1130.2,807.2 L1136.8,798.1 L1145.0,789.6 L1155.2,783.0 L1166.8,779.5 L1179.0,779.5 L1190.8,782.7 L1201.8,787.7 L1211.8,793.1 L1221.5,797.5 L1231.8,800.5 L1243.0,802.3 L1255.2,804.0 L1267.2,806.9 L1277.6,812.1 L1284.8,820.0 L1288.0,830.0 L1287.1,841.1 L1283.5,852.0 L1279.0,861.9 L1275.6,870.3 L1274.9,877.5 L1277.2,884.1 L1281.9,891.0 Z"/>
<path class="c" d="M1333.4,891.0 L1342.3,902.4 L1350.7,915.2 L1356.8,929.1 L1359.7,943.6 L1359.3,958.3 L1356.2,972.8 L1350.7,987.2 L1342.9,1001.0 L1332.5,1013.8 L1319.0,1024.5 L1302.4,1032.0 L1283.3,1035.6 L1262.9,1035.0 L1242.9,1031.4 L1224.3,1026.3 L1207.9,1022.1 L1193.1,1020.2 L1179.0,1021.4 L1164.3,1025.0 L1148.6,1029.1 L1131.9,1031.6 L1115.6,1030.4 L1100.9,1024.9 L1089.0,1015.6 L1079.9,1004.3 L1072.1,992.9 L1063.8,983.1 L1052.8,975.7 L1037.7,970.1 L1019.0,964.9 L998.6,958.3 L979.4,949.1 L964.6,937.0 L956.4,922.4 L955.7,906.6 L961.4,891.0 L971.7,876.5 L984.4,863.5 L997.5,852.1 L1010.1,841.8 L1022.2,832.5 L1034.0,824.0 L1046.0,816.5 L1058.0,809.7 L1069.5,803.4 L1079.9,796.5 L1089.1,788.3 L1097.3,777.8 L1105.7,765.3 L1115.6,751.7 L1128.0,738.9 L1143.3,729.0 L1160.7,723.7 L1179.0,723.8 L1196.8,728.5 L1213.2,736.1 L1228.2,744.1 L1242.8,750.8 L1258.2,755.2 L1275.0,757.9 L1293.2,760.5 L1311.3,764.9 L1326.9,772.7 L1337.7,784.4 L1342.5,799.4 L1341.2,816.1 L1335.8,832.5 L1329.0,847.3 L1323.9,859.9 L1322.8,870.7 L1326.2,880.7 L1333.4,891.0 Z"/>
<path class="ix" d="M1384.9,891.0 L1396.8,906.2 L1407.9,923.3 L1416.1,941.8 L1419.9,961.1 L1419.4,980.7 L1415.2,1000.1 L1407.9,1019.2 L1397.6,1037.7 L1383.7,1054.7 L1365.7,1069.0 L1343.6,1079.0 L1318.1,1083.7 L1290.9,1083.0 L1264.1,1078.1 L1239.4,1071.5 L1217.5,1065.7 L1197.8,1063.3 L1179.0,1064.9 L1159.5,1069.7 L1138.4,1075.2 L1116.2,1078.4 L1094.4,1076.9 L1074.9,1069.6 L1059.1,1057.2 L1046.8,1042.0 L1036.5,1026.8 L1025.4,1013.9 L1010.7,1004.0 L990.6,996.5 L965.7,989.5 L938.5,980.7 L912.9,968.5 L893.2,952.3 L882.3,932.9 L881.2,911.8 L888.9,891.0 L902.6,871.7 L919.5,854.4 L937.0,839.1 L953.8,825.4 L969.9,813.0 L985.7,801.7 L1001.6,791.6 L1017.6,782.7 L1033.0,774.2 L1046.9,765.1 L1059.1,754.0 L1070.1,740.1 L1081.3,723.4 L1094.5,705.3 L1111.1,688.2 L1131.4,675.0 L1154.6,668.0 L1179.0,668.1 L1202.7,674.4 L1224.5,684.4 L1244.6,695.1 L1264.1,704.0 L1284.5,709.9 L1307.1,713.6 L1331.3,717.0 L1355.4,722.9 L1376.2,733.3 L1390.6,748.9 L1396.9,768.9 L1395.3,791.1 L1388.0,813.0 L1379.0,832.8 L1372.3,849.6 L1370.7,864.0 L1375.3,877.3 L1384.9,891.0 Z"/>
<path class="c" d="M1436.3,891.0 L1451.2,910.1 L1465.2,931.4 L1475.3,954.5 L1480.1,978.7 L1479.5,1003.1 L1474.3,1027.4 L1465.2,1051.3 L1452.2,1074.4 L1434.9,1095.7 L1412.4,1113.5 L1384.7,1126.1 L1352.9,1131.9 L1318.9,1131.0 L1285.4,1124.9 L1254.5,1116.6 L1227.1,1109.4 L1202.5,1106.3 L1179.0,1108.4 L1154.6,1114.3 L1128.3,1121.2 L1100.5,1125.3 L1073.3,1123.4 L1048.9,1114.2 L1029.1,1098.7 L1013.8,1079.8 L1000.9,1060.8 L987.0,1044.6 L968.6,1032.2 L943.6,1022.9 L912.4,1014.1 L878.4,1003.2 L846.4,987.8 L821.7,967.6 L808.1,943.3 L806.8,917.1 L816.3,891.0 L833.6,866.8 L854.6,845.2 L876.4,826.1 L897.5,809.0 L917.6,793.5 L937.4,779.4 L957.3,766.8 L977.3,755.6 L996.5,745.0 L1013.9,733.6 L1029.1,719.8 L1042.9,702.4 L1056.9,681.5 L1073.4,658.8 L1094.1,637.5 L1119.5,621.0 L1148.5,612.2 L1179.0,612.4 L1208.6,620.2 L1235.9,632.8 L1261.0,646.2 L1285.3,657.3 L1310.9,664.7 L1339.1,669.2 L1369.4,673.5 L1399.4,680.8 L1425.4,693.8 L1443.5,713.4 L1451.4,738.4 L1449.3,766.1 L1440.3,793.5 L1429.0,818.2 L1420.6,839.2 L1418.7,857.2 L1424.4,873.8 L1436.3,891.0 Z"/>
<path class="c" d="M1487.8,891.0 L1505.6,913.9 L1522.4,939.4 L1534.6,967.2 L1540.3,996.2 L1539.6,1025.5 L1533.4,1054.7 L1522.4,1083.4 L1506.9,1111.1 L1486.0,1136.6 L1459.1,1158.0 L1425.9,1173.1 L1387.7,1180.1 L1346.9,1179.0 L1306.7,1171.7 L1269.7,1161.7 L1236.8,1153.1 L1207.3,1149.4 L1179.0,1151.8 L1149.7,1159.0 L1118.1,1167.3 L1084.8,1172.1 L1052.1,1169.8 L1022.9,1158.8 L999.1,1140.3 L980.7,1117.5 L965.3,1094.7 L948.6,1075.3 L926.5,1060.5 L896.5,1049.3 L859.1,1038.8 L818.2,1025.6 L779.9,1007.2 L750.2,982.9 L733.9,953.8 L732.3,922.3 L743.8,891.0 L764.5,862.0 L789.7,836.1 L815.9,813.2 L841.2,792.6 L865.3,774.0 L889.0,757.1 L913.0,742.0 L936.9,728.5 L959.9,715.8 L980.8,702.1 L999.1,685.5 L1015.7,664.7 L1032.5,639.6 L1052.3,612.4 L1077.1,586.8 L1107.6,567.0 L1142.4,556.5 L1179.0,556.6 L1214.5,566.0 L1247.3,581.1 L1277.4,597.2 L1306.6,610.5 L1337.3,619.4 L1371.1,624.8 L1407.5,630.0 L1443.5,638.8 L1474.7,654.4 L1496.5,677.9 L1505.9,707.9 L1503.4,741.2 L1492.5,774.0 L1479.0,803.6 L1468.9,828.9 L1466.6,850.4 L1473.5,870.4 L1487.8,891.0 Z"/>
<path class="c" d="M1539.3,891.0 L1560.1,917.7 L1579.7,947.5 L1593.8,979.9 L1600.5,1013.7 L1599.7,1047.9 L1592.4,1081.9 L1579.6,1115.4 L1561.5,1147.8 L1537.2,1177.6 L1505.8,1202.5 L1467.0,1220.1 L1422.4,1228.3 L1374.9,1227.1 L1328.0,1218.5 L1284.8,1206.8 L1246.4,1196.8 L1212.0,1192.5 L1179.0,1195.3 L1144.8,1203.6 L1108.0,1213.3 L1069.1,1219.0 L1031.0,1216.3 L996.9,1203.5 L969.1,1181.8 L947.7,1155.3 L929.7,1128.7 L910.2,1106.0 L884.4,1088.7 L849.4,1075.6 L805.8,1063.4 L758.1,1048.0 L713.3,1026.6 L678.8,998.2 L659.7,964.3 L657.9,927.5 L671.3,891.0 L695.4,857.2 L724.8,826.9 L755.4,800.2 L784.9,776.2 L813.0,754.5 L840.7,734.7 L868.6,717.1 L896.6,701.4 L923.4,686.5 L947.8,670.6 L969.2,651.3 L988.4,626.9 L1008.0,597.7 L1031.1,566.0 L1060.1,536.0 L1095.7,512.9 L1136.3,500.7 L1179.0,500.9 L1220.5,511.9 L1258.7,529.5 L1293.8,548.2 L1327.9,563.8 L1363.7,574.1 L1403.1,580.5 L1445.5,586.5 L1487.6,596.8 L1524.0,615.0 L1549.4,642.4 L1560.4,677.4 L1557.5,716.2 L1544.8,754.5 L1529.0,789.1 L1517.2,818.5 L1514.5,843.7 L1522.6,867.0 L1539.3,891.0 Z"/>
<path class="ix" d="M1590.7,891.0 L1614.5,921.5 L1636.9,955.6 L1653.1,992.6 L1660.8,1031.3 L1659.8,1070.4 L1651.5,1109.2 L1636.9,1147.5 L1616.1,1184.4 L1588.4,1218.5 L1552.4,1247.0 L1508.2,1267.1 L1457.2,1276.5 L1402.9,1275.1 L1349.3,1265.3 L1299.9,1251.9 L1256.0,1240.5 L1216.7,1235.5 L1179.0,1238.8 L1139.9,1248.3 L1097.8,1259.3 L1053.5,1265.8 L1009.9,1262.8 L970.8,1248.1 L939.1,1223.4 L914.6,1193.0 L894.1,1162.7 L871.9,1136.7 L842.4,1117.0 L802.3,1102.0 L752.5,1088.0 L698.0,1070.4 L646.8,1046.0 L607.3,1013.5 L585.5,974.7 L583.4,932.7 L598.7,891.0 L626.3,852.3 L660.0,817.8 L694.9,787.2 L728.6,759.9 L760.8,735.0 L792.4,712.4 L824.3,692.3 L856.2,674.3 L886.9,657.3 L914.8,639.1 L939.2,617.0 L961.2,589.2 L983.6,555.8 L1010.0,519.5 L1043.1,485.3 L1083.8,458.9 L1130.2,445.0 L1179.0,445.2 L1226.4,457.7 L1270.1,477.8 L1310.2,499.3 L1349.1,517.0 L1390.1,528.9 L1435.1,536.1 L1483.6,543.0 L1531.7,554.7 L1573.3,575.6 L1602.3,606.9 L1614.9,646.8 L1611.6,691.2 L1597.0,735.1 L1579.0,774.5 L1565.5,808.1 L1562.5,836.9 L1571.6,863.5 L1590.7,891.0 Z"/>
<path class="c" d="M1642.2,891.0 L1668.9,925.3 L1694.1,963.7 L1712.4,1005.3 L1721.0,1048.8 L1719.9,1092.8 L1710.5,1136.5 L1694.1,1179.5 L1670.8,1221.1 L1639.5,1259.4 L1599.1,1291.5 L1549.3,1314.1 L1492.0,1324.7 L1430.8,1323.1 L1370.6,1312.1 L1315.0,1297.0 L1265.7,1284.2 L1221.4,1278.6 L1179.0,1282.2 L1135.0,1293.0 L1087.7,1305.4 L1037.8,1312.7 L988.7,1309.3 L944.8,1292.8 L909.1,1264.9 L881.6,1230.8 L858.4,1196.6 L833.5,1167.4 L800.3,1145.2 L755.2,1128.4 L699.1,1112.6 L637.8,1092.9 L580.3,1065.3 L535.9,1028.9 L511.3,985.2 L509.0,937.9 L526.2,891.0 L557.2,847.5 L595.1,808.6 L634.4,774.3 L672.3,743.5 L708.5,715.5 L744.0,690.1 L779.9,667.5 L815.9,647.2 L850.4,628.1 L881.8,607.6 L909.2,582.8 L934.0,551.5 L959.2,513.9 L988.9,473.1 L1026.1,434.6 L1071.9,404.9 L1124.1,389.2 L1179.0,389.4 L1232.3,403.6 L1281.5,426.2 L1326.6,450.3 L1370.4,470.3 L1416.5,483.6 L1467.1,491.7 L1521.7,499.5 L1575.8,512.7 L1622.6,536.1 L1655.2,571.3 L1669.4,616.3 L1665.6,666.2 L1649.3,715.6 L1629.0,760.0 L1613.8,797.8 L1610.4,830.1 L1620.7,860.1 L1642.2,891.0 Z"/>
<path class="c" d="M1693.7,891.0 L1723.4,929.1 L1751.4,971.7 L1771.6,1018.0 L1781.2,1066.3 L1780.0,1115.2 L1769.6,1163.8 L1751.3,1211.6 L1725.4,1257.8 L1690.7,1300.4 L1645.8,1336.0 L1590.5,1361.1 L1526.8,1372.9 L1458.8,1371.1 L1391.9,1358.9 L1330.1,1342.1 L1275.3,1327.9 L1226.1,1321.7 L1179.0,1325.7 L1130.2,1337.6 L1077.5,1351.4 L1022.1,1359.5 L967.6,1355.7 L918.8,1337.4 L879.1,1306.5 L848.5,1268.6 L822.8,1230.6 L795.1,1198.1 L758.2,1173.5 L708.1,1154.8 L645.8,1137.3 L577.7,1115.3 L513.8,1084.7 L464.4,1044.2 L437.2,995.6 L434.5,943.1 L453.7,891.0 L488.1,842.6 L530.2,799.5 L573.9,761.3 L616.0,727.1 L656.2,696.0 L695.7,667.8 L735.6,642.6 L775.5,620.2 L813.9,598.9 L848.7,576.1 L879.2,548.5 L906.8,513.8 L934.8,472.0 L967.8,426.7 L1009.2,383.9 L1060.0,350.9 L1118.0,333.4 L1179.0,333.7 L1238.2,349.4 L1292.8,374.5 L1343.0,401.3 L1391.7,423.6 L1442.8,438.3 L1499.1,447.4 L1559.8,456.0 L1619.9,470.7 L1671.9,496.7 L1708.1,535.8 L1723.9,585.8 L1719.7,641.3 L1701.5,696.1 L1679.0,745.4 L1662.2,787.4 L1658.3,823.4 L1669.8,856.6 L1693.7,891.0 Z"/>
<path class="c" d="M1745.2,891.0 L1777.8,932.9 L1808.6,979.8 L1830.9,1030.7 L1841.4,1083.9 L1840.1,1137.6 L1828.6,1191.1 L1808.6,1243.7 L1780.1,1294.5 L1741.9,1341.3 L1692.5,1380.6 L1631.6,1408.1 L1561.5,1421.0 L1486.8,1419.1 L1413.1,1405.6 L1345.2,1387.2 L1284.9,1371.5 L1230.8,1364.7 L1179.0,1369.2 L1125.3,1382.3 L1067.4,1397.5 L1006.4,1406.4 L946.4,1402.2 L892.8,1382.0 L849.2,1348.0 L815.5,1306.3 L787.2,1264.5 L756.7,1228.9 L716.1,1201.7 L661.0,1181.2 L592.5,1161.9 L517.6,1137.7 L447.3,1104.1 L393.0,1059.5 L363.0,1006.1 L360.1,948.3 L381.2,891.0 L419.0,837.8 L465.3,790.3 L513.4,748.3 L559.7,710.7 L603.9,676.5 L647.4,645.5 L691.3,617.8 L735.2,593.1 L777.4,569.7 L815.7,544.6 L849.3,514.3 L879.5,476.0 L910.4,430.1 L946.6,380.3 L992.2,333.2 L1048.1,296.9 L1111.9,277.7 L1179.0,278.0 L1244.2,295.3 L1304.2,322.9 L1359.4,352.4 L1412.9,376.8 L1469.2,393.1 L1531.2,403.0 L1597.9,412.5 L1664.0,428.6 L1721.2,457.3 L1761.0,500.3 L1778.3,555.3 L1773.8,616.3 L1753.8,676.6 L1729.0,730.9 L1710.5,777.1 L1706.3,816.6 L1718.9,853.2 L1745.2,891.0 Z"/>
<path class="ix" d="M1796.6,891.0 L1832.3,936.7 L1865.8,987.9 L1890.2,1043.4 L1901.6,1101.4 L1900.2,1160.0 L1887.7,1218.3 L1865.8,1275.7 L1834.7,1331.2 L1793.1,1382.2 L1739.2,1425.1 L1672.8,1455.1 L1596.3,1469.2 L1514.8,1467.1 L1434.4,1452.4 L1360.3,1432.4 L1294.5,1415.2 L1235.5,1407.8 L1179.0,1412.6 L1120.4,1427.0 L1057.2,1443.5 L990.7,1453.2 L925.3,1448.7 L866.8,1426.7 L819.2,1389.6 L782.4,1344.1 L751.6,1298.5 L718.3,1259.6 L674.0,1230.0 L613.9,1207.5 L539.2,1186.5 L457.5,1160.2 L380.7,1123.4 L321.5,1074.8 L288.8,1016.6 L285.6,953.5 L308.6,891.0 L349.9,833.0 L400.4,781.2 L452.9,735.3 L503.4,694.3 L551.6,657.0 L599.1,623.1 L646.9,592.9 L694.8,566.0 L740.9,540.5 L782.7,513.2 L819.3,480.0 L852.3,438.3 L885.9,388.2 L925.5,333.8 L975.2,282.5 L1036.2,242.9 L1105.8,221.9 L1179.0,222.2 L1250.1,241.1 L1315.6,271.2 L1375.8,303.4 L1434.2,330.1 L1495.6,347.8 L1563.2,358.7 L1635.9,368.9 L1708.1,386.6 L1770.5,417.8 L1813.9,464.8 L1832.8,524.7 L1827.8,591.3 L1806.1,657.1 L1779.0,716.3 L1758.8,766.7 L1754.2,809.9 L1768.0,849.8 L1796.6,891.0 Z"/>
<path class="c" d="M1848.1,891.0 L1886.7,940.5 L1923.1,996.0 L1949.4,1056.1 L1961.9,1119.0 L1960.3,1182.5 L1946.8,1245.6 L1923.0,1307.8 L1889.4,1367.8 L1844.2,1423.2 L1785.8,1469.6 L1713.9,1502.2 L1631.1,1517.4 L1542.8,1515.1 L1455.7,1499.2 L1375.4,1477.5 L1304.2,1458.9 L1240.2,1450.9 L1179.0,1456.1 L1115.5,1471.6 L1047.1,1489.6 L975.0,1500.1 L904.1,1495.2 L840.7,1471.3 L789.2,1431.1 L749.4,1381.8 L716.0,1332.4 L679.9,1290.3 L632.0,1258.2 L566.8,1233.9 L485.9,1211.1 L397.3,1182.6 L314.2,1142.8 L250.0,1090.1 L214.6,1027.0 L211.2,958.7 L236.1,891.0 L280.8,828.1 L335.6,772.0 L392.3,722.4 L447.1,677.9 L499.4,637.5 L550.7,600.8 L602.6,568.1 L654.5,538.9 L704.4,511.3 L749.7,481.7 L789.3,445.8 L825.1,400.6 L861.5,346.3 L904.4,287.4 L958.2,231.8 L1024.3,188.9 L1099.7,166.2 L1179.0,166.5 L1256.0,186.9 L1327.0,219.6 L1392.2,254.4 L1455.5,283.3 L1522.0,302.6 L1595.2,314.3 L1674.0,325.4 L1752.2,344.6 L1819.7,378.4 L1866.8,429.3 L1887.3,494.2 L1881.9,566.3 L1858.3,637.6 L1829.0,701.7 L1807.1,756.4 L1802.1,803.1 L1817.0,846.3 L1848.1,891.0 Z"/>
<path class="c" d="M1899.6,891.0 L1941.1,944.3 L1980.3,1004.0 L2008.7,1068.9 L2022.1,1136.5 L2020.4,1204.9 L2005.8,1272.9 L1980.3,1339.8 L1944.0,1404.5 L1895.4,1464.1 L1832.5,1514.1 L1755.1,1549.2 L1665.9,1565.6 L1570.8,1563.1 L1477.0,1546.0 L1390.5,1522.6 L1313.8,1502.6 L1244.9,1493.9 L1179.0,1499.6 L1110.6,1516.3 L1036.9,1535.6 L959.3,1547.0 L883.0,1541.6 L814.7,1516.0 L759.2,1472.7 L716.4,1419.6 L680.4,1366.4 L641.5,1321.0 L589.9,1286.5 L519.8,1260.3 L432.6,1235.8 L337.2,1205.0 L247.7,1162.2 L178.6,1105.4 L140.4,1037.5 L136.7,963.9 L163.6,891.0 L211.7,823.3 L270.7,762.9 L331.8,709.4 L390.8,661.5 L447.1,618.0 L502.4,578.5 L558.2,543.3 L614.1,511.8 L667.9,482.1 L716.6,450.2 L759.3,411.5 L797.9,362.9 L837.1,304.4 L883.3,241.0 L941.2,181.1 L1012.3,134.9 L1093.6,110.4 L1179.0,110.8 L1261.9,132.8 L1338.4,167.9 L1408.6,205.5 L1476.7,236.6 L1548.4,257.3 L1627.2,269.9 L1712.1,281.9 L1796.2,302.5 L1869.0,339.0 L1919.7,393.8 L1941.8,463.7 L1936.0,541.4 L1910.6,618.1 L1879.0,687.2 L1855.4,746.0 L1850.1,796.3 L1866.1,842.9 L1899.6,891.0 Z"/>
<path class="c" d="M1951.0,891.0 L1995.6,948.2 L2037.5,1012.1 L2067.9,1081.6 L2082.3,1154.0 L2080.5,1227.3 L2064.9,1300.2 L2037.5,1371.9 L1998.6,1441.2 L1946.6,1505.1 L1879.2,1558.6 L1796.2,1596.2 L1700.6,1613.8 L1598.7,1611.1 L1498.3,1592.8 L1405.6,1567.7 L1323.4,1546.3 L1249.6,1537.0 L1179.0,1543.1 L1105.7,1561.0 L1026.8,1581.6 L943.6,1593.8 L861.8,1588.1 L788.7,1560.6 L729.2,1514.2 L683.3,1457.3 L644.7,1400.4 L603.1,1351.7 L547.8,1314.7 L472.7,1286.7 L379.2,1260.4 L277.1,1227.5 L181.2,1181.5 L107.1,1120.8 L66.2,1048.0 L62.3,969.2 L91.0,891.0 L142.7,818.5 L205.8,753.7 L271.3,696.4 L334.5,645.1 L394.8,598.5 L454.1,556.2 L513.9,518.4 L573.8,484.7 L631.4,452.9 L683.6,418.7 L729.4,377.3 L770.6,325.1 L812.7,262.5 L862.1,194.5 L924.2,130.4 L1000.4,80.9 L1087.5,54.7 L1179.0,55.1 L1267.8,78.6 L1349.8,116.3 L1425.0,156.5 L1498.0,189.8 L1574.8,212.0 L1659.2,225.6 L1750.2,238.4 L1840.3,260.5 L1918.3,299.5 L1972.6,358.2 L1996.3,433.2 L1990.0,516.4 L1962.8,598.6 L1929.0,672.6 L1903.7,735.6 L1898.0,789.6 L1915.2,839.5 L1951.0,891.0 Z"/>
<path class="ix" d="M2002.5,891.0 L2050.0,952.0 L2094.8,1020.2 L2127.2,1094.3 L2142.5,1171.6 L2140.6,1249.7 L2123.9,1327.4 L2094.7,1404.0 L2053.3,1477.9 L1997.7,1546.0 L1925.9,1603.1 L1837.4,1643.2 L1735.4,1662.0 L1626.7,1659.1 L1519.6,1639.6 L1420.8,1612.8 L1333.1,1590.0 L1254.4,1580.1 L1179.0,1586.5 L1100.8,1605.6 L1016.6,1627.7 L927.9,1640.7 L840.7,1634.6 L762.7,1605.2 L699.2,1555.8 L650.3,1495.1 L609.1,1434.3 L564.7,1382.4 L505.7,1343.0 L425.6,1313.0 L325.9,1285.0 L217.0,1249.9 L114.6,1200.9 L35.7,1136.1 L-7.9,1058.4 L-12.2,974.4 L18.5,891.0 L73.6,813.6 L140.9,744.6 L210.8,683.5 L278.2,628.7 L342.5,579.0 L405.7,533.8 L469.5,493.6 L533.5,457.7 L594.8,423.7 L650.6,387.2 L699.4,343.0 L743.4,287.4 L788.3,220.6 L841.0,148.1 L907.3,79.7 L988.5,26.9 L1081.4,-1.1 L1179.0,-0.7 L1273.8,24.5 L1361.1,64.6 L1441.4,107.5 L1519.3,143.1 L1601.1,166.8 L1691.2,181.2 L1788.2,194.9 L1884.4,218.5 L1967.6,260.1 L2025.5,322.7 L2050.8,402.7 L2044.1,491.4 L2015.1,579.1 L1979.0,658.1 L1952.1,725.3 L1945.9,782.8 L1964.3,836.0 L2002.5,891.0 Z"/>
<path class="c" d="M2054.0,891.0 L2104.5,955.8 L2152.0,1028.3 L2186.5,1107.0 L2202.8,1189.1 L2200.7,1272.2 L2183.0,1354.7 L2152.0,1436.0 L2107.9,1514.6 L2048.9,1586.9 L1972.6,1647.6 L1878.5,1690.2 L1770.2,1710.2 L1654.7,1707.1 L1540.9,1686.4 L1435.9,1657.9 L1342.7,1633.7 L1259.1,1623.1 L1179.0,1630.0 L1096.0,1650.3 L1006.5,1673.7 L912.2,1687.5 L819.6,1681.0 L736.7,1649.9 L669.3,1597.3 L617.2,1532.8 L573.5,1468.3 L526.3,1413.1 L463.6,1371.2 L378.5,1339.4 L272.6,1309.6 L156.8,1272.3 L48.1,1220.3 L-35.8,1151.4 L-82.1,1068.9 L-86.6,979.6 L-54.0,891.0 L4.5,808.8 L76.0,735.4 L150.3,670.5 L221.9,612.3 L290.2,559.4 L357.4,511.5 L425.2,468.7 L493.1,430.6 L558.3,394.5 L617.6,355.7 L669.4,308.8 L716.2,249.7 L763.8,178.7 L819.9,101.7 L890.3,29.0 L976.6,-27.1 L1075.3,-56.8 L1179.0,-56.4 L1279.7,-29.7 L1372.5,13.0 L1457.8,58.6 L1540.5,96.4 L1627.5,121.5 L1723.3,136.9 L1826.3,151.4 L1928.5,176.4 L2016.9,220.7 L2078.5,287.2 L2105.3,372.1 L2098.2,466.4 L2067.3,559.6 L2029.0,643.5 L2000.4,714.9 L1993.9,776.1 L2013.4,832.6 L2054.0,891.0 Z"/>
<path class="c" d="M2105.4,891.0 L2158.9,959.6 L2209.3,1036.3 L2245.7,1119.7 L2263.0,1206.6 L2260.8,1294.6 L2242.1,1382.0 L2209.2,1468.1 L2162.6,1551.2 L2100.1,1627.9 L2019.2,1692.1 L1919.7,1737.2 L1805.0,1758.4 L1682.7,1755.1 L1562.1,1733.2 L1451.0,1703.0 L1352.3,1677.3 L1263.8,1666.2 L1179.0,1673.5 L1091.1,1694.9 L996.3,1719.8 L896.5,1734.4 L798.4,1727.5 L710.6,1694.5 L639.3,1638.9 L584.2,1570.6 L537.9,1502.2 L487.9,1443.9 L421.6,1399.5 L331.4,1365.8 L219.3,1334.3 L96.7,1294.7 L-18.4,1239.7 L-107.3,1166.7 L-156.3,1079.4 L-161.1,984.8 L-126.6,891.0 L-64.6,804.0 L11.2,726.3 L89.8,657.5 L165.6,595.9 L238.0,539.9 L309.1,489.2 L380.9,443.9 L452.8,403.5 L521.8,365.3 L584.5,324.2 L639.4,274.5 L689.0,212.0 L739.4,136.8 L798.8,55.2 L873.3,-21.7 L964.7,-81.1 L1069.2,-112.6 L1179.0,-112.1 L1285.6,-83.9 L1383.9,-38.7 L1474.2,9.6 L1561.8,49.6 L1653.9,76.2 L1755.3,92.5 L1864.4,107.9 L1972.6,134.4 L2066.2,181.2 L2131.4,251.7 L2159.8,341.6 L2152.3,441.5 L2119.6,540.1 L2079.0,628.9 L2048.7,704.6 L2041.8,769.3 L2062.5,829.2 L2105.4,891.0 Z"/>
<path class="c" d="M2156.9,891.0 L2213.3,963.4 L2266.5,1044.4 L2305.0,1132.4 L2323.2,1224.2 L2320.9,1317.0 L2301.1,1409.3 L2266.4,1500.1 L2217.2,1587.9 L2151.3,1668.8 L2065.9,1736.6 L1960.8,1784.2 L1839.7,1806.5 L1710.7,1803.1 L1583.4,1779.9 L1466.1,1748.1 L1361.9,1721.0 L1268.5,1709.3 L1179.0,1716.9 L1086.2,1739.6 L986.2,1765.8 L880.8,1781.2 L777.3,1774.0 L684.6,1739.2 L609.3,1680.4 L551.1,1608.4 L502.3,1536.2 L449.5,1474.6 L379.5,1427.7 L284.3,1392.2 L166.0,1358.9 L36.6,1317.2 L-84.9,1259.0 L-178.7,1182.0 L-230.5,1089.8 L-235.5,990.0 L-199.1,891.0 L-133.7,799.1 L-53.7,717.1 L29.3,644.5 L109.3,579.5 L185.7,520.4 L260.8,466.9 L336.5,419.1 L412.4,376.4 L485.3,336.1 L551.5,292.8 L609.5,240.3 L661.7,174.3 L715.0,94.9 L777.6,8.8 L856.3,-72.4 L952.8,-135.1 L1063.1,-168.4 L1179.0,-167.9 L1291.5,-138.0 L1395.3,-90.3 L1490.6,-39.3 L1583.1,2.9 L1680.3,31.0 L1787.3,48.1 L1902.5,64.4 L2016.7,92.3 L2115.5,141.8 L2184.3,216.2 L2214.2,311.1 L2206.3,416.5 L2171.8,520.6 L2129.0,614.4 L2097.0,694.2 L2089.7,762.5 L2111.5,825.7 L2156.9,891.0 Z"/>
<path class="ix" d="M2208.4,891.0 L2267.8,967.2 L2323.7,1052.5 L2364.3,1145.1 L2383.4,1241.7 L2381.0,1339.4 L2360.2,1436.6 L2323.7,1532.2 L2271.9,1624.6 L2202.4,1709.7 L2112.6,1781.1 L2001.9,1831.2 L1874.5,1854.7 L1738.7,1851.2 L1604.7,1826.7 L1481.2,1793.3 L1371.6,1764.7 L1273.2,1752.3 L1179.0,1760.4 L1081.3,1784.3 L976.0,1811.9 L865.1,1828.1 L756.1,1820.5 L658.6,1783.8 L579.3,1722.0 L518.1,1646.1 L466.7,1570.1 L411.1,1505.3 L337.4,1456.0 L237.2,1418.5 L112.7,1383.5 L-23.6,1339.6 L-151.4,1278.4 L-250.2,1197.4 L-304.7,1100.3 L-309.9,995.2 L-271.6,891.0 L-202.8,794.3 L-118.6,708.0 L-31.2,631.6 L53.0,563.1 L133.4,500.9 L212.4,444.6 L292.2,394.2 L372.1,349.3 L448.8,306.8 L518.5,261.3 L579.5,206.0 L634.5,136.5 L690.6,53.0 L756.5,-37.6 L839.3,-123.1 L940.9,-189.2 L1057.1,-224.1 L1179.0,-223.6 L1297.5,-192.2 L1406.7,-142.0 L1507.0,-88.3 L1604.3,-43.9 L1706.7,-14.3 L1819.3,3.8 L1940.5,20.9 L2060.8,50.3 L2164.8,102.4 L2237.2,180.7 L2268.7,280.6 L2260.4,391.5 L2224.1,501.1 L2179.0,599.8 L2145.3,683.9 L2137.7,755.8 L2160.6,822.3 L2208.4,891.0 Z"/>
<path class="c" d="M2259.8,891.0 L2322.2,971.0 L2381.0,1060.6 L2423.5,1157.8 L2443.6,1259.2 L2441.1,1361.8 L2419.2,1463.8 L2380.9,1564.3 L2326.5,1661.3 L2253.6,1750.7 L2159.3,1825.6 L2043.1,1878.2 L1909.3,1902.9 L1766.6,1899.2 L1626.0,1873.5 L1496.3,1838.4 L1381.2,1808.4 L1277.9,1795.4 L1179.0,1803.9 L1076.4,1828.9 L965.9,1857.9 L849.4,1874.9 L735.0,1866.9 L632.6,1828.5 L549.3,1763.5 L485.0,1683.9 L431.0,1604.1 L372.7,1536.0 L295.3,1484.2 L190.1,1444.9 L59.3,1408.2 L-83.7,1362.0 L-218.0,1297.8 L-321.6,1212.7 L-378.9,1110.8 L-384.4,1000.4 L-344.2,891.0 L-271.9,789.5 L-183.5,698.8 L-91.7,618.6 L-3.3,546.7 L81.1,481.4 L164.1,422.2 L247.8,369.4 L331.7,322.2 L412.3,277.6 L485.5,229.8 L549.5,171.8 L607.3,98.8 L666.1,11.1 L735.4,-84.1 L822.3,-173.9 L929.0,-243.2 L1051.0,-279.9 L1179.0,-279.3 L1303.4,-246.3 L1418.1,-193.6 L1523.4,-137.3 L1625.6,-90.6 L1733.1,-59.6 L1851.3,-40.6 L1978.6,-22.6 L2104.9,8.3 L2214.1,63.0 L2290.1,145.1 L2323.2,250.1 L2314.5,366.6 L2276.3,481.6 L2229.0,585.3 L2193.6,673.5 L2185.6,749.0 L2209.7,818.9 L2259.8,891.0 Z"/>
<path class="c" d="M2311.3,891.0 L2376.6,974.8 L2438.2,1068.6 L2482.8,1170.5 L2503.9,1276.8 L2501.2,1384.3 L2478.3,1491.1 L2438.1,1596.3 L2381.1,1698.0 L2304.8,1791.6 L2206.0,1870.1 L2084.2,1925.3 L1944.1,1951.1 L1794.6,1947.2 L1647.3,1920.3 L1511.4,1883.5 L1390.8,1852.1 L1282.6,1838.5 L1179.0,1847.4 L1071.5,1873.6 L955.7,1903.9 L833.8,1921.8 L713.8,1913.4 L606.6,1873.1 L519.3,1805.1 L452.0,1721.6 L395.4,1638.1 L334.4,1566.7 L253.2,1512.4 L143.1,1471.3 L6.0,1432.8 L-143.8,1384.5 L-284.5,1317.1 L-393.1,1228.0 L-453.0,1121.2 L-458.8,1005.6 L-416.7,891.0 L-341.0,784.6 L-248.4,689.7 L-152.3,605.6 L-59.6,530.3 L28.8,461.9 L115.8,399.9 L203.5,344.6 L291.4,295.2 L375.8,248.4 L452.4,198.3 L519.5,137.5 L580.1,61.1 L641.7,-30.8 L714.3,-130.5 L805.4,-224.6 L917.1,-297.2 L1044.9,-335.6 L1179.0,-335.0 L1309.3,-300.5 L1429.5,-245.3 L1539.8,-186.2 L1646.9,-137.4 L1759.5,-104.8 L1883.3,-84.9 L2016.7,-66.1 L2149.0,-33.8 L2263.3,23.5 L2343.0,109.6 L2377.7,219.5 L2368.5,341.6 L2328.6,462.1 L2279.0,570.7 L2242.0,663.1 L2233.5,742.2 L2258.8,815.4 L2311.3,891.0 Z"/>
<path class="c" d="M2362.8,891.0 L2431.1,978.6 L2495.4,1076.7 L2542.1,1183.2 L2564.1,1294.3 L2561.3,1406.7 L2537.4,1518.4 L2495.4,1628.4 L2435.8,1734.7 L2355.9,1832.6 L2252.6,1914.6 L2125.4,1972.3 L1978.8,1999.3 L1822.6,1995.2 L1668.6,1967.1 L1526.5,1928.6 L1400.5,1895.8 L1287.3,1881.5 L1179.0,1890.8 L1066.7,1918.3 L945.6,1950.0 L818.1,1968.6 L692.7,1959.9 L580.5,1917.7 L489.3,1846.6 L418.9,1759.4 L359.8,1672.0 L296.0,1597.4 L211.2,1540.7 L96.0,1497.7 L-47.3,1457.4 L-203.9,1406.9 L-351.0,1336.5 L-464.5,1243.3 L-527.2,1131.7 L-533.3,1010.8 L-489.2,891.0 L-410.1,779.8 L-313.2,680.5 L-212.8,592.7 L-115.9,513.9 L-23.5,442.4 L67.4,377.6 L159.2,319.7 L251.0,268.1 L339.3,219.2 L419.4,166.8 L489.6,103.3 L552.8,23.4 L617.3,-72.7 L693.1,-176.9 L788.4,-275.3 L905.2,-351.2 L1038.8,-391.4 L1179.0,-390.8 L1315.2,-354.7 L1440.8,-296.9 L1556.2,-235.2 L1668.1,-184.1 L1785.8,-150.1 L1915.3,-129.3 L2054.8,-109.6 L2193.0,-75.8 L2312.6,-15.9 L2395.9,74.1 L2432.2,189.0 L2422.6,316.6 L2380.9,442.7 L2329.0,556.1 L2290.3,652.8 L2281.5,735.5 L2307.9,812.0 L2362.8,891.0 Z"/>
<path class="ix" d="M2414.2,891.0 L2485.5,982.4 L2552.7,1084.8 L2601.3,1195.9 L2624.3,1311.8 L2621.4,1429.1 L2596.4,1545.7 L2552.6,1660.5 L2490.4,1771.3 L2407.1,1873.5 L2299.3,1959.1 L2166.5,2019.3 L2013.6,2047.5 L1850.6,2043.2 L1689.9,2013.9 L1541.6,1973.7 L1410.1,1939.4 L1292.0,1924.6 L1179.0,1934.3 L1061.8,1962.9 L935.4,1996.0 L802.4,2015.5 L671.6,2006.4 L554.5,1962.4 L459.4,1888.2 L385.9,1797.1 L324.2,1706.0 L257.6,1628.1 L169.1,1568.9 L48.9,1524.1 L-100.6,1482.0 L-264.1,1429.3 L-417.5,1355.9 L-536.0,1258.6 L-601.4,1142.1 L-607.7,1016.1 L-561.8,891.0 L-479.1,774.9 L-378.1,671.4 L-273.3,579.7 L-172.2,497.6 L-75.7,422.9 L19.1,355.3 L114.8,294.9 L210.7,241.0 L302.8,190.0 L386.4,135.3 L459.6,69.0 L525.6,-14.4 L592.9,-114.5 L672.0,-223.4 L771.4,-326.0 L893.3,-405.2 L1032.7,-447.1 L1179.0,-446.5 L1321.1,-408.8 L1452.2,-348.6 L1572.6,-284.2 L1689.4,-230.9 L1812.2,-195.4 L1947.4,-173.7 L2092.9,-153.1 L2237.1,-117.8 L2361.9,-55.3 L2448.8,38.6 L2486.7,158.5 L2476.7,291.6 L2433.1,423.2 L2379.0,541.6 L2338.6,642.4 L2329.4,728.7 L2356.9,808.6 L2414.2,891.0 Z"/>
<path class="c" d="M2465.7,891.0 L2540.0,986.3 L2609.9,1092.8 L2660.6,1208.6 L2684.5,1329.4 L2681.5,1451.5 L2655.5,1573.0 L2609.8,1692.5 L2545.1,1808.0 L2458.3,1914.4 L2346.0,2003.6 L2207.7,2066.3 L2048.4,2095.7 L1878.6,2091.2 L1711.1,2060.7 L1556.7,2018.8 L1419.7,1983.1 L1296.7,1967.7 L1179.0,1977.8 L1056.9,2007.6 L925.3,2042.1 L786.7,2062.4 L650.4,2052.8 L528.5,2007.0 L429.4,1929.7 L352.8,1834.9 L288.6,1739.9 L219.2,1658.9 L127.0,1597.2 L1.8,1550.4 L-153.9,1506.7 L-324.2,1451.8 L-484.0,1375.2 L-607.5,1273.9 L-675.6,1152.6 L-682.2,1021.3 L-634.3,891.0 L-548.2,770.1 L-443.0,662.2 L-333.8,566.7 L-228.5,481.2 L-128.0,403.4 L-29.2,333.0 L70.5,270.0 L170.3,213.9 L266.3,160.8 L353.4,103.8 L429.6,34.8 L498.4,-52.1 L568.5,-156.4 L650.9,-269.8 L754.4,-376.7 L881.4,-459.2 L1026.6,-502.9 L1179.0,-502.2 L1327.1,-463.0 L1463.6,-400.2 L1589.0,-333.1 L1710.7,-277.6 L1838.6,-240.6 L1979.4,-218.0 L2130.9,-196.6 L2281.2,-159.9 L2411.2,-94.8 L2501.7,3.1 L2541.2,128.0 L2530.7,266.7 L2485.4,403.7 L2429.0,527.0 L2386.9,632.1 L2377.3,722.0 L2406.0,805.1 L2465.7,891.0 Z"/>
<path class="c" d="M2517.2,891.0 L2594.4,990.1 L2667.2,1100.9 L2719.8,1221.3 L2744.7,1346.9 L2741.6,1473.9 L2714.5,1600.2 L2667.1,1724.6 L2599.7,1844.7 L2509.5,1955.4 L2392.7,2048.1 L2248.8,2113.3 L2083.2,2143.8 L1906.6,2139.2 L1732.4,2107.4 L1571.9,2063.9 L1429.3,2026.8 L1301.5,2010.7 L1179.0,2021.2 L1052.0,2052.3 L915.1,2088.1 L771.0,2109.2 L629.3,2099.3 L502.5,2051.7 L399.4,1971.3 L319.8,1872.6 L253.0,1773.9 L180.8,1689.6 L84.9,1625.4 L-45.3,1576.8 L-207.3,1531.3 L-384.3,1474.2 L-550.6,1394.6 L-678.9,1289.3 L-749.8,1163.1 L-756.6,1026.5 L-706.8,891.0 L-617.3,765.3 L-507.9,653.0 L-394.3,553.7 L-284.8,464.8 L-180.3,383.9 L-77.5,310.6 L26.1,245.2 L130.0,186.8 L229.7,131.6 L320.3,72.3 L399.6,0.5 L471.2,-89.8 L544.0,-198.3 L629.8,-316.2 L737.4,-427.4 L869.5,-513.2 L1020.5,-558.6 L1179.0,-558.0 L1333.0,-517.1 L1475.0,-451.9 L1605.4,-382.1 L1731.9,-324.3 L1865.0,-285.9 L2011.4,-262.4 L2169.0,-240.1 L2325.3,-201.9 L2460.5,-134.2 L2554.6,-32.4 L2595.6,97.4 L2584.8,241.7 L2537.6,384.2 L2479.0,512.5 L2435.2,621.7 L2425.3,715.2 L2455.1,801.7 L2517.2,891.0 Z"/>
<path class="c" d="M2568.6,891.0 L2648.8,993.9 L2724.4,1109.0 L2779.1,1234.0 L2805.0,1364.4 L2801.7,1496.4 L2773.6,1627.5 L2724.3,1756.6 L2654.4,1881.4 L2560.6,1996.3 L2439.4,2092.6 L2290.0,2160.3 L2117.9,2192.0 L1934.5,2187.2 L1753.7,2154.2 L1587.0,2109.0 L1439.0,2070.5 L1306.2,2053.8 L1179.0,2064.7 L1047.1,2096.9 L905.0,2134.2 L755.3,2156.1 L608.1,2145.8 L476.5,2096.3 L369.4,2012.8 L286.8,1910.4 L217.3,1807.8 L142.4,1720.3 L42.8,1653.7 L-92.4,1603.2 L-260.6,1555.9 L-444.5,1496.6 L-617.1,1414.0 L-750.4,1304.6 L-824.0,1173.5 L-831.1,1031.7 L-779.4,891.0 L-686.4,760.4 L-572.7,643.9 L-454.8,540.8 L-341.1,448.4 L-232.6,364.4 L-125.9,288.3 L-18.2,220.4 L89.6,159.7 L193.2,102.4 L287.3,40.9 L369.6,-33.7 L443.9,-127.5 L519.6,-240.2 L608.6,-362.6 L720.4,-478.1 L857.6,-567.2 L1014.4,-614.4 L1179.0,-613.7 L1338.9,-571.3 L1486.4,-503.5 L1621.8,-431.1 L1753.2,-371.1 L1891.4,-331.2 L2043.4,-306.8 L2207.1,-283.6 L2369.4,-243.9 L2509.8,-173.6 L2607.6,-68.0 L2650.1,66.9 L2638.9,216.7 L2589.9,364.7 L2529.0,497.9 L2483.5,611.4 L2473.2,708.4 L2504.2,798.2 L2568.6,891.0 Z"/>
<path class="ix" d="M2620.1,891.0 L2703.3,997.7 L2781.6,1117.1 L2838.4,1246.7 L2865.2,1382.0 L2861.8,1518.8 L2832.6,1654.8 L2781.6,1788.7 L2709.0,1918.1 L2611.8,2037.2 L2486.0,2137.1 L2331.1,2207.3 L2152.7,2240.2 L1962.5,2235.2 L1775.0,2201.0 L1602.1,2154.2 L1448.6,2114.2 L1310.9,2096.9 L1179.0,2108.2 L1042.2,2141.6 L894.8,2180.2 L739.6,2202.9 L587.0,2192.3 L450.4,2140.9 L339.4,2054.4 L253.7,1948.2 L181.7,1841.8 L104.0,1751.0 L0.8,1681.9 L-139.5,1629.6 L-313.9,1580.5 L-504.6,1519.1 L-683.6,1433.3 L-821.8,1319.9 L-898.1,1184.0 L-905.5,1036.9 L-851.9,891.0 L-755.5,755.6 L-637.6,634.7 L-515.3,527.8 L-397.4,432.0 L-284.9,344.9 L-174.2,266.0 L-62.5,195.5 L49.3,132.6 L156.7,73.2 L254.3,9.4 L339.7,-67.9 L416.7,-165.3 L495.2,-282.1 L587.5,-409.1 L703.5,-528.8 L845.7,-621.2 L1008.3,-670.2 L1179.0,-669.4 L1344.8,-625.5 L1497.8,-555.2 L1638.2,-480.0 L1774.5,-417.8 L1917.8,-376.4 L2075.4,-351.1 L2245.2,-327.1 L2413.5,-286.0 L2559.1,-213.1 L2660.5,-103.5 L2704.6,36.4 L2693.0,191.7 L2642.1,345.2 L2579.0,483.4 L2531.9,601.0 L2521.1,701.7 L2553.3,794.8 L2620.1,891.0 Z"/>
<path class="c" d="M2671.6,891.0 L2757.7,1001.5 L2838.9,1125.1 L2897.6,1259.4 L2925.4,1399.5 L2921.9,1541.2 L2891.7,1682.1 L2838.8,1820.8 L2763.6,1954.7 L2663.0,2078.2 L2532.7,2181.6 L2372.3,2254.3 L2187.5,2288.4 L1990.5,2283.2 L1796.3,2247.8 L1617.2,2199.3 L1458.2,2157.9 L1315.6,2139.9 L1179.0,2151.6 L1037.4,2186.2 L884.7,2226.2 L723.9,2249.8 L565.8,2238.7 L424.4,2185.6 L309.4,2095.9 L220.7,1985.9 L146.1,1875.8 L65.6,1781.7 L-41.3,1710.2 L-186.6,1655.9 L-367.2,1605.2 L-564.7,1541.5 L-750.1,1452.7 L-893.3,1335.2 L-972.3,1194.5 L-980.0,1042.1 L-924.4,891.0 L-824.6,750.8 L-702.5,625.6 L-575.8,514.8 L-453.7,415.6 L-337.1,325.4 L-222.5,243.7 L-106.9,170.7 L8.9,105.6 L120.2,44.0 L221.3,-22.1 L309.7,-102.2 L389.5,-203.0 L470.8,-324.0 L566.4,-455.5 L686.5,-579.5 L833.8,-675.2 L1002.2,-725.9 L1179.0,-725.2 L1350.8,-679.6 L1509.1,-606.8 L1654.6,-529.0 L1795.7,-464.6 L1944.1,-421.7 L2107.4,-395.5 L2283.2,-370.6 L2457.6,-328.0 L2608.4,-252.5 L2713.4,-139.0 L2759.1,5.9 L2747.0,166.8 L2694.4,325.7 L2629.0,468.8 L2580.2,590.6 L2569.0,694.9 L2602.3,791.4 L2671.6,891.0 Z"/>
<path class="c" d="M2723.0,891.0 L2812.2,1005.3 L2896.1,1133.2 L2956.9,1272.1 L2985.6,1417.0 L2982.0,1563.6 L2950.8,1709.3 L2896.0,1852.8 L2818.3,1991.4 L2714.1,2119.1 L2579.4,2226.1 L2413.4,2301.4 L2222.3,2336.6 L2018.5,2331.2 L1817.6,2294.6 L1632.3,2244.4 L1467.9,2201.6 L1320.3,2183.0 L1179.0,2195.1 L1032.5,2230.9 L874.6,2272.3 L708.2,2296.6 L544.7,2285.2 L398.4,2230.2 L279.4,2137.5 L187.6,2023.7 L110.5,1909.7 L27.2,1812.4 L-83.4,1738.4 L-233.7,1682.3 L-420.5,1629.8 L-624.8,1563.9 L-816.7,1472.1 L-964.8,1350.5 L-1046.5,1204.9 L-1054.4,1047.3 L-997.0,891.0 L-893.7,745.9 L-767.4,616.4 L-636.3,501.9 L-510.0,399.2 L-389.4,305.9 L-270.8,221.3 L-151.2,145.9 L-31.4,78.5 L83.7,14.8 L188.2,-53.6 L279.7,-136.4 L362.3,-240.7 L446.4,-365.9 L545.3,-501.9 L669.5,-630.2 L821.9,-729.2 L996.1,-781.7 L1179.0,-780.9 L1356.7,-733.8 L1520.5,-658.5 L1671.0,-578.0 L1817.0,-511.3 L1970.5,-467.0 L2139.4,-439.8 L2321.3,-414.1 L2501.7,-370.0 L2657.6,-291.9 L2766.3,-174.5 L2813.6,-24.6 L2801.1,141.8 L2746.6,306.2 L2679.0,454.2 L2628.5,580.3 L2617.0,688.2 L2651.4,787.9 L2723.0,891.0 Z"/>
<text class="ct" x="1031" y="1022" text-anchor="middle">12,800</text>
<text class="ct" x="781" y="723" text-anchor="middle">11,200</text>
<text class="ct" x="1360" y="298" text-anchor="middle">9,600</text>
<circle class="dot" cx="1179" cy="867" r="2.4"/>
<text class="pk" x="1179" y="887" text-anchor="middle">TORREYS PEAK</text>
<text class="el" x="1179" y="908" text-anchor="middle">14,267&#8242;</text>
</svg>